<svg xmlns="http://www.w3.org/2000/svg" xmlns:xlink="http://www.w3.org/1999/xlink" width="478" height="319" viewBox="0 0 478 319">
  <defs>
    <clipPath id="clip-path">
      <rect width="478" height="319" fill="none"/>
    </clipPath>
  </defs>
  <g id="Group_4609" data-name="Group 4609" transform="translate(38 -786)">
    <g id="Repeat_Grid_1" data-name="Repeat Grid 1" transform="translate(-38 786)" opacity="0.17" clip-path="url(#clip-path)">
      <g transform="translate(-20 -667)">
        <circle id="Ellipse_5" data-name="Ellipse 5" cx="2.5" cy="2.5" r="2.5" transform="translate(20 667)" fill="#707070"/>
      </g>
      <g transform="translate(9 -667)">
        <circle id="Ellipse_5-2" data-name="Ellipse 5" cx="2.5" cy="2.5" r="2.5" transform="translate(20 667)" fill="#707070"/>
      </g>
      <g transform="translate(38 -667)">
        <circle id="Ellipse_5-3" data-name="Ellipse 5" cx="2.5" cy="2.5" r="2.5" transform="translate(20 667)" fill="#707070"/>
      </g>
      <g transform="translate(67 -667)">
        <circle id="Ellipse_5-4" data-name="Ellipse 5" cx="2.5" cy="2.5" r="2.5" transform="translate(20 667)" fill="#707070"/>
      </g>
      <g transform="translate(96 -667)">
        <circle id="Ellipse_5-5" data-name="Ellipse 5" cx="2.5" cy="2.5" r="2.5" transform="translate(20 667)" fill="#707070"/>
      </g>
      <g transform="translate(125 -667)">
        <circle id="Ellipse_5-6" data-name="Ellipse 5" cx="2.5" cy="2.5" r="2.5" transform="translate(20 667)" fill="#707070"/>
      </g>
      <g transform="translate(154 -667)">
        <circle id="Ellipse_5-7" data-name="Ellipse 5" cx="2.5" cy="2.5" r="2.5" transform="translate(20 667)" fill="#707070"/>
      </g>
      <g transform="translate(183 -667)">
        <circle id="Ellipse_5-8" data-name="Ellipse 5" cx="2.5" cy="2.5" r="2.5" transform="translate(20 667)" fill="#707070"/>
      </g>
      <g transform="translate(212 -667)">
        <circle id="Ellipse_5-9" data-name="Ellipse 5" cx="2.5" cy="2.5" r="2.5" transform="translate(20 667)" fill="#707070"/>
      </g>
      <g transform="translate(241 -667)">
        <circle id="Ellipse_5-10" data-name="Ellipse 5" cx="2.5" cy="2.5" r="2.5" transform="translate(20 667)" fill="#707070"/>
      </g>
      <g transform="translate(270 -667)">
        <circle id="Ellipse_5-11" data-name="Ellipse 5" cx="2.5" cy="2.5" r="2.5" transform="translate(20 667)" fill="#707070"/>
      </g>
      <g transform="translate(299 -667)">
        <circle id="Ellipse_5-12" data-name="Ellipse 5" cx="2.5" cy="2.5" r="2.5" transform="translate(20 667)" fill="#707070"/>
      </g>
      <g transform="translate(328 -667)">
        <circle id="Ellipse_5-13" data-name="Ellipse 5" cx="2.5" cy="2.5" r="2.5" transform="translate(20 667)" fill="#707070"/>
      </g>
      <g transform="translate(357 -667)">
        <circle id="Ellipse_5-14" data-name="Ellipse 5" cx="2.5" cy="2.5" r="2.5" transform="translate(20 667)" fill="#707070"/>
      </g>
      <g transform="translate(386 -667)">
        <circle id="Ellipse_5-15" data-name="Ellipse 5" cx="2.5" cy="2.5" r="2.5" transform="translate(20 667)" fill="#707070"/>
      </g>
      <g transform="translate(415 -667)">
        <circle id="Ellipse_5-16" data-name="Ellipse 5" cx="2.5" cy="2.5" r="2.5" transform="translate(20 667)" fill="#707070"/>
      </g>
      <g transform="translate(444 -667)">
        <circle id="Ellipse_5-17" data-name="Ellipse 5" cx="2.5" cy="2.5" r="2.5" transform="translate(20 667)" fill="#707070"/>
      </g>
      <g transform="translate(-20 -638)">
        <circle id="Ellipse_5-18" data-name="Ellipse 5" cx="2.5" cy="2.5" r="2.5" transform="translate(20 667)" fill="#707070"/>
      </g>
      <g transform="translate(9 -638)">
        <circle id="Ellipse_5-19" data-name="Ellipse 5" cx="2.5" cy="2.5" r="2.5" transform="translate(20 667)" fill="#707070"/>
      </g>
      <g transform="translate(38 -638)">
        <circle id="Ellipse_5-20" data-name="Ellipse 5" cx="2.5" cy="2.5" r="2.5" transform="translate(20 667)" fill="#707070"/>
      </g>
      <g transform="translate(67 -638)">
        <circle id="Ellipse_5-21" data-name="Ellipse 5" cx="2.5" cy="2.5" r="2.5" transform="translate(20 667)" fill="#707070"/>
      </g>
      <g transform="translate(96 -638)">
        <circle id="Ellipse_5-22" data-name="Ellipse 5" cx="2.5" cy="2.5" r="2.5" transform="translate(20 667)" fill="#707070"/>
      </g>
      <g transform="translate(125 -638)">
        <circle id="Ellipse_5-23" data-name="Ellipse 5" cx="2.5" cy="2.5" r="2.5" transform="translate(20 667)" fill="#707070"/>
      </g>
      <g transform="translate(154 -638)">
        <circle id="Ellipse_5-24" data-name="Ellipse 5" cx="2.5" cy="2.5" r="2.5" transform="translate(20 667)" fill="#707070"/>
      </g>
      <g transform="translate(183 -638)">
        <circle id="Ellipse_5-25" data-name="Ellipse 5" cx="2.5" cy="2.5" r="2.5" transform="translate(20 667)" fill="#707070"/>
      </g>
      <g transform="translate(212 -638)">
        <circle id="Ellipse_5-26" data-name="Ellipse 5" cx="2.5" cy="2.5" r="2.5" transform="translate(20 667)" fill="#707070"/>
      </g>
      <g transform="translate(241 -638)">
        <circle id="Ellipse_5-27" data-name="Ellipse 5" cx="2.5" cy="2.5" r="2.5" transform="translate(20 667)" fill="#707070"/>
      </g>
      <g transform="translate(270 -638)">
        <circle id="Ellipse_5-28" data-name="Ellipse 5" cx="2.5" cy="2.5" r="2.5" transform="translate(20 667)" fill="#707070"/>
      </g>
      <g transform="translate(299 -638)">
        <circle id="Ellipse_5-29" data-name="Ellipse 5" cx="2.5" cy="2.5" r="2.5" transform="translate(20 667)" fill="#707070"/>
      </g>
      <g transform="translate(328 -638)">
        <circle id="Ellipse_5-30" data-name="Ellipse 5" cx="2.5" cy="2.5" r="2.5" transform="translate(20 667)" fill="#707070"/>
      </g>
      <g transform="translate(357 -638)">
        <circle id="Ellipse_5-31" data-name="Ellipse 5" cx="2.5" cy="2.5" r="2.5" transform="translate(20 667)" fill="#707070"/>
      </g>
      <g transform="translate(386 -638)">
        <circle id="Ellipse_5-32" data-name="Ellipse 5" cx="2.5" cy="2.5" r="2.5" transform="translate(20 667)" fill="#707070"/>
      </g>
      <g transform="translate(415 -638)">
        <circle id="Ellipse_5-33" data-name="Ellipse 5" cx="2.5" cy="2.5" r="2.5" transform="translate(20 667)" fill="#707070"/>
      </g>
      <g transform="translate(444 -638)">
        <circle id="Ellipse_5-34" data-name="Ellipse 5" cx="2.5" cy="2.5" r="2.5" transform="translate(20 667)" fill="#707070"/>
      </g>
      <g transform="translate(-20 -609)">
        <circle id="Ellipse_5-35" data-name="Ellipse 5" cx="2.5" cy="2.5" r="2.5" transform="translate(20 667)" fill="#707070"/>
      </g>
      <g transform="translate(9 -609)">
        <circle id="Ellipse_5-36" data-name="Ellipse 5" cx="2.5" cy="2.5" r="2.5" transform="translate(20 667)" fill="#707070"/>
      </g>
      <g transform="translate(38 -609)">
        <circle id="Ellipse_5-37" data-name="Ellipse 5" cx="2.5" cy="2.5" r="2.5" transform="translate(20 667)" fill="#707070"/>
      </g>
      <g transform="translate(67 -609)">
        <circle id="Ellipse_5-38" data-name="Ellipse 5" cx="2.5" cy="2.5" r="2.5" transform="translate(20 667)" fill="#707070"/>
      </g>
      <g transform="translate(96 -609)">
        <circle id="Ellipse_5-39" data-name="Ellipse 5" cx="2.5" cy="2.5" r="2.5" transform="translate(20 667)" fill="#707070"/>
      </g>
      <g transform="translate(125 -609)">
        <circle id="Ellipse_5-40" data-name="Ellipse 5" cx="2.5" cy="2.5" r="2.5" transform="translate(20 667)" fill="#707070"/>
      </g>
      <g transform="translate(154 -609)">
        <circle id="Ellipse_5-41" data-name="Ellipse 5" cx="2.5" cy="2.5" r="2.5" transform="translate(20 667)" fill="#707070"/>
      </g>
      <g transform="translate(183 -609)">
        <circle id="Ellipse_5-42" data-name="Ellipse 5" cx="2.5" cy="2.5" r="2.5" transform="translate(20 667)" fill="#707070"/>
      </g>
      <g transform="translate(212 -609)">
        <circle id="Ellipse_5-43" data-name="Ellipse 5" cx="2.5" cy="2.5" r="2.5" transform="translate(20 667)" fill="#707070"/>
      </g>
      <g transform="translate(241 -609)">
        <circle id="Ellipse_5-44" data-name="Ellipse 5" cx="2.5" cy="2.5" r="2.5" transform="translate(20 667)" fill="#707070"/>
      </g>
      <g transform="translate(270 -609)">
        <circle id="Ellipse_5-45" data-name="Ellipse 5" cx="2.5" cy="2.5" r="2.5" transform="translate(20 667)" fill="#707070"/>
      </g>
      <g transform="translate(299 -609)">
        <circle id="Ellipse_5-46" data-name="Ellipse 5" cx="2.5" cy="2.5" r="2.5" transform="translate(20 667)" fill="#707070"/>
      </g>
      <g transform="translate(328 -609)">
        <circle id="Ellipse_5-47" data-name="Ellipse 5" cx="2.5" cy="2.5" r="2.5" transform="translate(20 667)" fill="#707070"/>
      </g>
      <g transform="translate(357 -609)">
        <circle id="Ellipse_5-48" data-name="Ellipse 5" cx="2.5" cy="2.5" r="2.5" transform="translate(20 667)" fill="#707070"/>
      </g>
      <g transform="translate(386 -609)">
        <circle id="Ellipse_5-49" data-name="Ellipse 5" cx="2.5" cy="2.5" r="2.5" transform="translate(20 667)" fill="#707070"/>
      </g>
      <g transform="translate(415 -609)">
        <circle id="Ellipse_5-50" data-name="Ellipse 5" cx="2.5" cy="2.5" r="2.5" transform="translate(20 667)" fill="#707070"/>
      </g>
      <g transform="translate(444 -609)">
        <circle id="Ellipse_5-51" data-name="Ellipse 5" cx="2.5" cy="2.5" r="2.5" transform="translate(20 667)" fill="#707070"/>
      </g>
      <g transform="translate(-20 -580)">
        <circle id="Ellipse_5-52" data-name="Ellipse 5" cx="2.5" cy="2.5" r="2.5" transform="translate(20 667)" fill="#707070"/>
      </g>
      <g transform="translate(9 -580)">
        <circle id="Ellipse_5-53" data-name="Ellipse 5" cx="2.5" cy="2.5" r="2.5" transform="translate(20 667)" fill="#707070"/>
      </g>
      <g transform="translate(38 -580)">
        <circle id="Ellipse_5-54" data-name="Ellipse 5" cx="2.5" cy="2.5" r="2.5" transform="translate(20 667)" fill="#707070"/>
      </g>
      <g transform="translate(67 -580)">
        <circle id="Ellipse_5-55" data-name="Ellipse 5" cx="2.5" cy="2.5" r="2.5" transform="translate(20 667)" fill="#707070"/>
      </g>
      <g transform="translate(96 -580)">
        <circle id="Ellipse_5-56" data-name="Ellipse 5" cx="2.5" cy="2.5" r="2.5" transform="translate(20 667)" fill="#707070"/>
      </g>
      <g transform="translate(125 -580)">
        <circle id="Ellipse_5-57" data-name="Ellipse 5" cx="2.5" cy="2.5" r="2.5" transform="translate(20 667)" fill="#707070"/>
      </g>
      <g transform="translate(154 -580)">
        <circle id="Ellipse_5-58" data-name="Ellipse 5" cx="2.5" cy="2.5" r="2.5" transform="translate(20 667)" fill="#707070"/>
      </g>
      <g transform="translate(183 -580)">
        <circle id="Ellipse_5-59" data-name="Ellipse 5" cx="2.5" cy="2.5" r="2.5" transform="translate(20 667)" fill="#707070"/>
      </g>
      <g transform="translate(212 -580)">
        <circle id="Ellipse_5-60" data-name="Ellipse 5" cx="2.5" cy="2.5" r="2.5" transform="translate(20 667)" fill="#707070"/>
      </g>
      <g transform="translate(241 -580)">
        <circle id="Ellipse_5-61" data-name="Ellipse 5" cx="2.5" cy="2.5" r="2.5" transform="translate(20 667)" fill="#707070"/>
      </g>
      <g transform="translate(270 -580)">
        <circle id="Ellipse_5-62" data-name="Ellipse 5" cx="2.5" cy="2.5" r="2.5" transform="translate(20 667)" fill="#707070"/>
      </g>
      <g transform="translate(299 -580)">
        <circle id="Ellipse_5-63" data-name="Ellipse 5" cx="2.5" cy="2.5" r="2.5" transform="translate(20 667)" fill="#707070"/>
      </g>
      <g transform="translate(328 -580)">
        <circle id="Ellipse_5-64" data-name="Ellipse 5" cx="2.5" cy="2.5" r="2.5" transform="translate(20 667)" fill="#707070"/>
      </g>
      <g transform="translate(357 -580)">
        <circle id="Ellipse_5-65" data-name="Ellipse 5" cx="2.5" cy="2.5" r="2.5" transform="translate(20 667)" fill="#707070"/>
      </g>
      <g transform="translate(386 -580)">
        <circle id="Ellipse_5-66" data-name="Ellipse 5" cx="2.5" cy="2.5" r="2.5" transform="translate(20 667)" fill="#707070"/>
      </g>
      <g transform="translate(415 -580)">
        <circle id="Ellipse_5-67" data-name="Ellipse 5" cx="2.5" cy="2.5" r="2.5" transform="translate(20 667)" fill="#707070"/>
      </g>
      <g transform="translate(444 -580)">
        <circle id="Ellipse_5-68" data-name="Ellipse 5" cx="2.5" cy="2.5" r="2.5" transform="translate(20 667)" fill="#707070"/>
      </g>
      <g transform="translate(-20 -551)">
        <circle id="Ellipse_5-69" data-name="Ellipse 5" cx="2.5" cy="2.5" r="2.5" transform="translate(20 667)" fill="#707070"/>
      </g>
      <g transform="translate(9 -551)">
        <circle id="Ellipse_5-70" data-name="Ellipse 5" cx="2.5" cy="2.5" r="2.5" transform="translate(20 667)" fill="#707070"/>
      </g>
      <g transform="translate(38 -551)">
        <circle id="Ellipse_5-71" data-name="Ellipse 5" cx="2.5" cy="2.5" r="2.5" transform="translate(20 667)" fill="#707070"/>
      </g>
      <g transform="translate(67 -551)">
        <circle id="Ellipse_5-72" data-name="Ellipse 5" cx="2.5" cy="2.5" r="2.5" transform="translate(20 667)" fill="#707070"/>
      </g>
      <g transform="translate(96 -551)">
        <circle id="Ellipse_5-73" data-name="Ellipse 5" cx="2.5" cy="2.5" r="2.5" transform="translate(20 667)" fill="#707070"/>
      </g>
      <g transform="translate(125 -551)">
        <circle id="Ellipse_5-74" data-name="Ellipse 5" cx="2.5" cy="2.5" r="2.5" transform="translate(20 667)" fill="#707070"/>
      </g>
      <g transform="translate(154 -551)">
        <circle id="Ellipse_5-75" data-name="Ellipse 5" cx="2.5" cy="2.5" r="2.5" transform="translate(20 667)" fill="#707070"/>
      </g>
      <g transform="translate(183 -551)">
        <circle id="Ellipse_5-76" data-name="Ellipse 5" cx="2.5" cy="2.5" r="2.5" transform="translate(20 667)" fill="#707070"/>
      </g>
      <g transform="translate(212 -551)">
        <circle id="Ellipse_5-77" data-name="Ellipse 5" cx="2.5" cy="2.5" r="2.5" transform="translate(20 667)" fill="#707070"/>
      </g>
      <g transform="translate(241 -551)">
        <circle id="Ellipse_5-78" data-name="Ellipse 5" cx="2.5" cy="2.5" r="2.5" transform="translate(20 667)" fill="#707070"/>
      </g>
      <g transform="translate(270 -551)">
        <circle id="Ellipse_5-79" data-name="Ellipse 5" cx="2.5" cy="2.5" r="2.5" transform="translate(20 667)" fill="#707070"/>
      </g>
      <g transform="translate(299 -551)">
        <circle id="Ellipse_5-80" data-name="Ellipse 5" cx="2.5" cy="2.5" r="2.5" transform="translate(20 667)" fill="#707070"/>
      </g>
      <g transform="translate(328 -551)">
        <circle id="Ellipse_5-81" data-name="Ellipse 5" cx="2.5" cy="2.5" r="2.5" transform="translate(20 667)" fill="#707070"/>
      </g>
      <g transform="translate(357 -551)">
        <circle id="Ellipse_5-82" data-name="Ellipse 5" cx="2.5" cy="2.5" r="2.5" transform="translate(20 667)" fill="#707070"/>
      </g>
      <g transform="translate(386 -551)">
        <circle id="Ellipse_5-83" data-name="Ellipse 5" cx="2.5" cy="2.5" r="2.5" transform="translate(20 667)" fill="#707070"/>
      </g>
      <g transform="translate(415 -551)">
        <circle id="Ellipse_5-84" data-name="Ellipse 5" cx="2.5" cy="2.5" r="2.5" transform="translate(20 667)" fill="#707070"/>
      </g>
      <g transform="translate(444 -551)">
        <circle id="Ellipse_5-85" data-name="Ellipse 5" cx="2.5" cy="2.5" r="2.5" transform="translate(20 667)" fill="#707070"/>
      </g>
      <g transform="translate(-20 -522)">
        <circle id="Ellipse_5-86" data-name="Ellipse 5" cx="2.5" cy="2.5" r="2.5" transform="translate(20 667)" fill="#707070"/>
      </g>
      <g transform="translate(9 -522)">
        <circle id="Ellipse_5-87" data-name="Ellipse 5" cx="2.5" cy="2.5" r="2.5" transform="translate(20 667)" fill="#707070"/>
      </g>
      <g transform="translate(38 -522)">
        <circle id="Ellipse_5-88" data-name="Ellipse 5" cx="2.5" cy="2.5" r="2.5" transform="translate(20 667)" fill="#707070"/>
      </g>
      <g transform="translate(67 -522)">
        <circle id="Ellipse_5-89" data-name="Ellipse 5" cx="2.5" cy="2.5" r="2.5" transform="translate(20 667)" fill="#707070"/>
      </g>
      <g transform="translate(96 -522)">
        <circle id="Ellipse_5-90" data-name="Ellipse 5" cx="2.5" cy="2.5" r="2.5" transform="translate(20 667)" fill="#707070"/>
      </g>
      <g transform="translate(125 -522)">
        <circle id="Ellipse_5-91" data-name="Ellipse 5" cx="2.5" cy="2.5" r="2.5" transform="translate(20 667)" fill="#707070"/>
      </g>
      <g transform="translate(154 -522)">
        <circle id="Ellipse_5-92" data-name="Ellipse 5" cx="2.5" cy="2.5" r="2.5" transform="translate(20 667)" fill="#707070"/>
      </g>
      <g transform="translate(183 -522)">
        <circle id="Ellipse_5-93" data-name="Ellipse 5" cx="2.5" cy="2.5" r="2.5" transform="translate(20 667)" fill="#707070"/>
      </g>
      <g transform="translate(212 -522)">
        <circle id="Ellipse_5-94" data-name="Ellipse 5" cx="2.5" cy="2.5" r="2.5" transform="translate(20 667)" fill="#707070"/>
      </g>
      <g transform="translate(241 -522)">
        <circle id="Ellipse_5-95" data-name="Ellipse 5" cx="2.5" cy="2.5" r="2.5" transform="translate(20 667)" fill="#707070"/>
      </g>
      <g transform="translate(270 -522)">
        <circle id="Ellipse_5-96" data-name="Ellipse 5" cx="2.5" cy="2.5" r="2.5" transform="translate(20 667)" fill="#707070"/>
      </g>
      <g transform="translate(299 -522)">
        <circle id="Ellipse_5-97" data-name="Ellipse 5" cx="2.5" cy="2.5" r="2.5" transform="translate(20 667)" fill="#707070"/>
      </g>
      <g transform="translate(328 -522)">
        <circle id="Ellipse_5-98" data-name="Ellipse 5" cx="2.5" cy="2.5" r="2.5" transform="translate(20 667)" fill="#707070"/>
      </g>
      <g transform="translate(357 -522)">
        <circle id="Ellipse_5-99" data-name="Ellipse 5" cx="2.5" cy="2.5" r="2.5" transform="translate(20 667)" fill="#707070"/>
      </g>
      <g transform="translate(386 -522)">
        <circle id="Ellipse_5-100" data-name="Ellipse 5" cx="2.5" cy="2.5" r="2.5" transform="translate(20 667)" fill="#707070"/>
      </g>
      <g transform="translate(415 -522)">
        <circle id="Ellipse_5-101" data-name="Ellipse 5" cx="2.5" cy="2.5" r="2.5" transform="translate(20 667)" fill="#707070"/>
      </g>
      <g transform="translate(444 -522)">
        <circle id="Ellipse_5-102" data-name="Ellipse 5" cx="2.5" cy="2.5" r="2.5" transform="translate(20 667)" fill="#707070"/>
      </g>
      <g transform="translate(-20 -493)">
        <circle id="Ellipse_5-103" data-name="Ellipse 5" cx="2.5" cy="2.5" r="2.5" transform="translate(20 667)" fill="#707070"/>
      </g>
      <g transform="translate(9 -493)">
        <circle id="Ellipse_5-104" data-name="Ellipse 5" cx="2.5" cy="2.5" r="2.5" transform="translate(20 667)" fill="#707070"/>
      </g>
      <g transform="translate(38 -493)">
        <circle id="Ellipse_5-105" data-name="Ellipse 5" cx="2.5" cy="2.5" r="2.5" transform="translate(20 667)" fill="#707070"/>
      </g>
      <g transform="translate(67 -493)">
        <circle id="Ellipse_5-106" data-name="Ellipse 5" cx="2.5" cy="2.5" r="2.5" transform="translate(20 667)" fill="#707070"/>
      </g>
      <g transform="translate(96 -493)">
        <circle id="Ellipse_5-107" data-name="Ellipse 5" cx="2.5" cy="2.5" r="2.5" transform="translate(20 667)" fill="#707070"/>
      </g>
      <g transform="translate(125 -493)">
        <circle id="Ellipse_5-108" data-name="Ellipse 5" cx="2.5" cy="2.5" r="2.5" transform="translate(20 667)" fill="#707070"/>
      </g>
      <g transform="translate(154 -493)">
        <circle id="Ellipse_5-109" data-name="Ellipse 5" cx="2.5" cy="2.5" r="2.5" transform="translate(20 667)" fill="#707070"/>
      </g>
      <g transform="translate(183 -493)">
        <circle id="Ellipse_5-110" data-name="Ellipse 5" cx="2.5" cy="2.5" r="2.5" transform="translate(20 667)" fill="#707070"/>
      </g>
      <g transform="translate(212 -493)">
        <circle id="Ellipse_5-111" data-name="Ellipse 5" cx="2.5" cy="2.5" r="2.5" transform="translate(20 667)" fill="#707070"/>
      </g>
      <g transform="translate(241 -493)">
        <circle id="Ellipse_5-112" data-name="Ellipse 5" cx="2.5" cy="2.5" r="2.5" transform="translate(20 667)" fill="#707070"/>
      </g>
      <g transform="translate(270 -493)">
        <circle id="Ellipse_5-113" data-name="Ellipse 5" cx="2.5" cy="2.5" r="2.5" transform="translate(20 667)" fill="#707070"/>
      </g>
      <g transform="translate(299 -493)">
        <circle id="Ellipse_5-114" data-name="Ellipse 5" cx="2.5" cy="2.5" r="2.5" transform="translate(20 667)" fill="#707070"/>
      </g>
      <g transform="translate(328 -493)">
        <circle id="Ellipse_5-115" data-name="Ellipse 5" cx="2.5" cy="2.5" r="2.5" transform="translate(20 667)" fill="#707070"/>
      </g>
      <g transform="translate(357 -493)">
        <circle id="Ellipse_5-116" data-name="Ellipse 5" cx="2.5" cy="2.5" r="2.5" transform="translate(20 667)" fill="#707070"/>
      </g>
      <g transform="translate(386 -493)">
        <circle id="Ellipse_5-117" data-name="Ellipse 5" cx="2.5" cy="2.5" r="2.5" transform="translate(20 667)" fill="#707070"/>
      </g>
      <g transform="translate(415 -493)">
        <circle id="Ellipse_5-118" data-name="Ellipse 5" cx="2.5" cy="2.5" r="2.5" transform="translate(20 667)" fill="#707070"/>
      </g>
      <g transform="translate(444 -493)">
        <circle id="Ellipse_5-119" data-name="Ellipse 5" cx="2.5" cy="2.5" r="2.5" transform="translate(20 667)" fill="#707070"/>
      </g>
      <g transform="translate(-20 -464)">
        <circle id="Ellipse_5-120" data-name="Ellipse 5" cx="2.5" cy="2.5" r="2.5" transform="translate(20 667)" fill="#707070"/>
      </g>
      <g transform="translate(9 -464)">
        <circle id="Ellipse_5-121" data-name="Ellipse 5" cx="2.5" cy="2.5" r="2.5" transform="translate(20 667)" fill="#707070"/>
      </g>
      <g transform="translate(38 -464)">
        <circle id="Ellipse_5-122" data-name="Ellipse 5" cx="2.5" cy="2.5" r="2.5" transform="translate(20 667)" fill="#707070"/>
      </g>
      <g transform="translate(67 -464)">
        <circle id="Ellipse_5-123" data-name="Ellipse 5" cx="2.5" cy="2.5" r="2.5" transform="translate(20 667)" fill="#707070"/>
      </g>
      <g transform="translate(96 -464)">
        <circle id="Ellipse_5-124" data-name="Ellipse 5" cx="2.5" cy="2.5" r="2.5" transform="translate(20 667)" fill="#707070"/>
      </g>
      <g transform="translate(125 -464)">
        <circle id="Ellipse_5-125" data-name="Ellipse 5" cx="2.5" cy="2.5" r="2.5" transform="translate(20 667)" fill="#707070"/>
      </g>
      <g transform="translate(154 -464)">
        <circle id="Ellipse_5-126" data-name="Ellipse 5" cx="2.5" cy="2.5" r="2.5" transform="translate(20 667)" fill="#707070"/>
      </g>
      <g transform="translate(183 -464)">
        <circle id="Ellipse_5-127" data-name="Ellipse 5" cx="2.5" cy="2.5" r="2.5" transform="translate(20 667)" fill="#707070"/>
      </g>
      <g transform="translate(212 -464)">
        <circle id="Ellipse_5-128" data-name="Ellipse 5" cx="2.5" cy="2.5" r="2.5" transform="translate(20 667)" fill="#707070"/>
      </g>
      <g transform="translate(241 -464)">
        <circle id="Ellipse_5-129" data-name="Ellipse 5" cx="2.5" cy="2.5" r="2.5" transform="translate(20 667)" fill="#707070"/>
      </g>
      <g transform="translate(270 -464)">
        <circle id="Ellipse_5-130" data-name="Ellipse 5" cx="2.5" cy="2.5" r="2.5" transform="translate(20 667)" fill="#707070"/>
      </g>
      <g transform="translate(299 -464)">
        <circle id="Ellipse_5-131" data-name="Ellipse 5" cx="2.5" cy="2.5" r="2.5" transform="translate(20 667)" fill="#707070"/>
      </g>
      <g transform="translate(328 -464)">
        <circle id="Ellipse_5-132" data-name="Ellipse 5" cx="2.5" cy="2.5" r="2.5" transform="translate(20 667)" fill="#707070"/>
      </g>
      <g transform="translate(357 -464)">
        <circle id="Ellipse_5-133" data-name="Ellipse 5" cx="2.5" cy="2.5" r="2.5" transform="translate(20 667)" fill="#707070"/>
      </g>
      <g transform="translate(386 -464)">
        <circle id="Ellipse_5-134" data-name="Ellipse 5" cx="2.5" cy="2.5" r="2.5" transform="translate(20 667)" fill="#707070"/>
      </g>
      <g transform="translate(415 -464)">
        <circle id="Ellipse_5-135" data-name="Ellipse 5" cx="2.5" cy="2.5" r="2.5" transform="translate(20 667)" fill="#707070"/>
      </g>
      <g transform="translate(444 -464)">
        <circle id="Ellipse_5-136" data-name="Ellipse 5" cx="2.5" cy="2.5" r="2.5" transform="translate(20 667)" fill="#707070"/>
      </g>
      <g transform="translate(-20 -435)">
        <circle id="Ellipse_5-137" data-name="Ellipse 5" cx="2.5" cy="2.5" r="2.5" transform="translate(20 667)" fill="#707070"/>
      </g>
      <g transform="translate(9 -435)">
        <circle id="Ellipse_5-138" data-name="Ellipse 5" cx="2.5" cy="2.5" r="2.5" transform="translate(20 667)" fill="#707070"/>
      </g>
      <g transform="translate(38 -435)">
        <circle id="Ellipse_5-139" data-name="Ellipse 5" cx="2.5" cy="2.5" r="2.5" transform="translate(20 667)" fill="#707070"/>
      </g>
      <g transform="translate(67 -435)">
        <circle id="Ellipse_5-140" data-name="Ellipse 5" cx="2.5" cy="2.5" r="2.5" transform="translate(20 667)" fill="#707070"/>
      </g>
      <g transform="translate(96 -435)">
        <circle id="Ellipse_5-141" data-name="Ellipse 5" cx="2.5" cy="2.5" r="2.5" transform="translate(20 667)" fill="#707070"/>
      </g>
      <g transform="translate(125 -435)">
        <circle id="Ellipse_5-142" data-name="Ellipse 5" cx="2.5" cy="2.5" r="2.5" transform="translate(20 667)" fill="#707070"/>
      </g>
      <g transform="translate(154 -435)">
        <circle id="Ellipse_5-143" data-name="Ellipse 5" cx="2.5" cy="2.5" r="2.5" transform="translate(20 667)" fill="#707070"/>
      </g>
      <g transform="translate(183 -435)">
        <circle id="Ellipse_5-144" data-name="Ellipse 5" cx="2.5" cy="2.5" r="2.5" transform="translate(20 667)" fill="#707070"/>
      </g>
      <g transform="translate(212 -435)">
        <circle id="Ellipse_5-145" data-name="Ellipse 5" cx="2.5" cy="2.5" r="2.5" transform="translate(20 667)" fill="#707070"/>
      </g>
      <g transform="translate(241 -435)">
        <circle id="Ellipse_5-146" data-name="Ellipse 5" cx="2.5" cy="2.5" r="2.5" transform="translate(20 667)" fill="#707070"/>
      </g>
      <g transform="translate(270 -435)">
        <circle id="Ellipse_5-147" data-name="Ellipse 5" cx="2.5" cy="2.5" r="2.5" transform="translate(20 667)" fill="#707070"/>
      </g>
      <g transform="translate(299 -435)">
        <circle id="Ellipse_5-148" data-name="Ellipse 5" cx="2.5" cy="2.5" r="2.5" transform="translate(20 667)" fill="#707070"/>
      </g>
      <g transform="translate(328 -435)">
        <circle id="Ellipse_5-149" data-name="Ellipse 5" cx="2.5" cy="2.5" r="2.5" transform="translate(20 667)" fill="#707070"/>
      </g>
      <g transform="translate(357 -435)">
        <circle id="Ellipse_5-150" data-name="Ellipse 5" cx="2.5" cy="2.5" r="2.5" transform="translate(20 667)" fill="#707070"/>
      </g>
      <g transform="translate(386 -435)">
        <circle id="Ellipse_5-151" data-name="Ellipse 5" cx="2.5" cy="2.5" r="2.5" transform="translate(20 667)" fill="#707070"/>
      </g>
      <g transform="translate(415 -435)">
        <circle id="Ellipse_5-152" data-name="Ellipse 5" cx="2.5" cy="2.5" r="2.5" transform="translate(20 667)" fill="#707070"/>
      </g>
      <g transform="translate(444 -435)">
        <circle id="Ellipse_5-153" data-name="Ellipse 5" cx="2.5" cy="2.5" r="2.5" transform="translate(20 667)" fill="#707070"/>
      </g>
      <g transform="translate(-20 -406)">
        <circle id="Ellipse_5-154" data-name="Ellipse 5" cx="2.5" cy="2.5" r="2.5" transform="translate(20 667)" fill="#707070"/>
      </g>
      <g transform="translate(9 -406)">
        <circle id="Ellipse_5-155" data-name="Ellipse 5" cx="2.5" cy="2.5" r="2.5" transform="translate(20 667)" fill="#707070"/>
      </g>
      <g transform="translate(38 -406)">
        <circle id="Ellipse_5-156" data-name="Ellipse 5" cx="2.5" cy="2.5" r="2.5" transform="translate(20 667)" fill="#707070"/>
      </g>
      <g transform="translate(67 -406)">
        <circle id="Ellipse_5-157" data-name="Ellipse 5" cx="2.5" cy="2.5" r="2.5" transform="translate(20 667)" fill="#707070"/>
      </g>
      <g transform="translate(96 -406)">
        <circle id="Ellipse_5-158" data-name="Ellipse 5" cx="2.5" cy="2.5" r="2.5" transform="translate(20 667)" fill="#707070"/>
      </g>
      <g transform="translate(125 -406)">
        <circle id="Ellipse_5-159" data-name="Ellipse 5" cx="2.5" cy="2.5" r="2.5" transform="translate(20 667)" fill="#707070"/>
      </g>
      <g transform="translate(154 -406)">
        <circle id="Ellipse_5-160" data-name="Ellipse 5" cx="2.5" cy="2.5" r="2.5" transform="translate(20 667)" fill="#707070"/>
      </g>
      <g transform="translate(183 -406)">
        <circle id="Ellipse_5-161" data-name="Ellipse 5" cx="2.5" cy="2.5" r="2.5" transform="translate(20 667)" fill="#707070"/>
      </g>
      <g transform="translate(212 -406)">
        <circle id="Ellipse_5-162" data-name="Ellipse 5" cx="2.5" cy="2.5" r="2.5" transform="translate(20 667)" fill="#707070"/>
      </g>
      <g transform="translate(241 -406)">
        <circle id="Ellipse_5-163" data-name="Ellipse 5" cx="2.5" cy="2.5" r="2.5" transform="translate(20 667)" fill="#707070"/>
      </g>
      <g transform="translate(270 -406)">
        <circle id="Ellipse_5-164" data-name="Ellipse 5" cx="2.5" cy="2.5" r="2.5" transform="translate(20 667)" fill="#707070"/>
      </g>
      <g transform="translate(299 -406)">
        <circle id="Ellipse_5-165" data-name="Ellipse 5" cx="2.5" cy="2.5" r="2.5" transform="translate(20 667)" fill="#707070"/>
      </g>
      <g transform="translate(328 -406)">
        <circle id="Ellipse_5-166" data-name="Ellipse 5" cx="2.5" cy="2.5" r="2.5" transform="translate(20 667)" fill="#707070"/>
      </g>
      <g transform="translate(357 -406)">
        <circle id="Ellipse_5-167" data-name="Ellipse 5" cx="2.5" cy="2.5" r="2.5" transform="translate(20 667)" fill="#707070"/>
      </g>
      <g transform="translate(386 -406)">
        <circle id="Ellipse_5-168" data-name="Ellipse 5" cx="2.5" cy="2.5" r="2.5" transform="translate(20 667)" fill="#707070"/>
      </g>
      <g transform="translate(415 -406)">
        <circle id="Ellipse_5-169" data-name="Ellipse 5" cx="2.5" cy="2.5" r="2.5" transform="translate(20 667)" fill="#707070"/>
      </g>
      <g transform="translate(444 -406)">
        <circle id="Ellipse_5-170" data-name="Ellipse 5" cx="2.5" cy="2.5" r="2.5" transform="translate(20 667)" fill="#707070"/>
      </g>
      <g transform="translate(-20 -377)">
        <circle id="Ellipse_5-171" data-name="Ellipse 5" cx="2.5" cy="2.5" r="2.5" transform="translate(20 667)" fill="#707070"/>
      </g>
      <g transform="translate(9 -377)">
        <circle id="Ellipse_5-172" data-name="Ellipse 5" cx="2.5" cy="2.5" r="2.5" transform="translate(20 667)" fill="#707070"/>
      </g>
      <g transform="translate(38 -377)">
        <circle id="Ellipse_5-173" data-name="Ellipse 5" cx="2.5" cy="2.5" r="2.5" transform="translate(20 667)" fill="#707070"/>
      </g>
      <g transform="translate(67 -377)">
        <circle id="Ellipse_5-174" data-name="Ellipse 5" cx="2.5" cy="2.5" r="2.5" transform="translate(20 667)" fill="#707070"/>
      </g>
      <g transform="translate(96 -377)">
        <circle id="Ellipse_5-175" data-name="Ellipse 5" cx="2.5" cy="2.5" r="2.5" transform="translate(20 667)" fill="#707070"/>
      </g>
      <g transform="translate(125 -377)">
        <circle id="Ellipse_5-176" data-name="Ellipse 5" cx="2.5" cy="2.5" r="2.5" transform="translate(20 667)" fill="#707070"/>
      </g>
      <g transform="translate(154 -377)">
        <circle id="Ellipse_5-177" data-name="Ellipse 5" cx="2.5" cy="2.5" r="2.5" transform="translate(20 667)" fill="#707070"/>
      </g>
      <g transform="translate(183 -377)">
        <circle id="Ellipse_5-178" data-name="Ellipse 5" cx="2.5" cy="2.5" r="2.5" transform="translate(20 667)" fill="#707070"/>
      </g>
      <g transform="translate(212 -377)">
        <circle id="Ellipse_5-179" data-name="Ellipse 5" cx="2.5" cy="2.5" r="2.5" transform="translate(20 667)" fill="#707070"/>
      </g>
      <g transform="translate(241 -377)">
        <circle id="Ellipse_5-180" data-name="Ellipse 5" cx="2.5" cy="2.5" r="2.5" transform="translate(20 667)" fill="#707070"/>
      </g>
      <g transform="translate(270 -377)">
        <circle id="Ellipse_5-181" data-name="Ellipse 5" cx="2.5" cy="2.5" r="2.5" transform="translate(20 667)" fill="#707070"/>
      </g>
      <g transform="translate(299 -377)">
        <circle id="Ellipse_5-182" data-name="Ellipse 5" cx="2.5" cy="2.5" r="2.5" transform="translate(20 667)" fill="#707070"/>
      </g>
      <g transform="translate(328 -377)">
        <circle id="Ellipse_5-183" data-name="Ellipse 5" cx="2.5" cy="2.5" r="2.5" transform="translate(20 667)" fill="#707070"/>
      </g>
      <g transform="translate(357 -377)">
        <circle id="Ellipse_5-184" data-name="Ellipse 5" cx="2.5" cy="2.5" r="2.5" transform="translate(20 667)" fill="#707070"/>
      </g>
      <g transform="translate(386 -377)">
        <circle id="Ellipse_5-185" data-name="Ellipse 5" cx="2.5" cy="2.5" r="2.5" transform="translate(20 667)" fill="#707070"/>
      </g>
      <g transform="translate(415 -377)">
        <circle id="Ellipse_5-186" data-name="Ellipse 5" cx="2.5" cy="2.5" r="2.5" transform="translate(20 667)" fill="#707070"/>
      </g>
      <g transform="translate(444 -377)">
        <circle id="Ellipse_5-187" data-name="Ellipse 5" cx="2.5" cy="2.5" r="2.5" transform="translate(20 667)" fill="#707070"/>
      </g>
    </g>
  </g>
</svg>
