<svg xmlns="http://www.w3.org/2000/svg" width="622.474" height="423.5" viewBox="0 0 622.474 423.5">
  <g id="Group_2846" data-name="Group 2846" transform="translate(-1170 -717)">
    <path id="Path_628" data-name="Path 628" d="M506.65,96.952c61.379,75.993,195.665,77.539,255.745,114.07,80.783,49.119,0,109.2,43.03,151.011,68.141,66.213-231.388,170.5-455.469,8.931S429.927,1.961,506.65,96.952Z" transform="translate(977.192 683.782)" fill="#1673a7" opacity="0.21"/>
    <g id="Group_2845" data-name="Group 2845" transform="translate(1281.345 1010.507)" opacity="0.38">
      <path id="Path_629" data-name="Path 629" d="M841.586,480.949c10.737-5.368,33.361-19.786,37.962-34.51C869.577,452.574,848.028,468.065,841.586,480.949Z" transform="translate(-833.293 -396.973)" fill="#91b884"/>
      <path id="Path_630" data-name="Path 630" d="M828.54,466.037c18.406-19.557,55.447-60.509,56.368-67.871-11.5,1.917-38.882,18.176-56.368,67.871,4.218-19.557,16.105-63.04,29.909-80.525-8.052,3.068-25.307,12.194-29.909,24.158S826.623,452.233,828.54,466.037Z" transform="translate(-826 -385.512)" fill="#91b884"/>
    </g>
    <g id="Group_2844" data-name="Group 2844" transform="translate(1170 948.388)">
      <path id="Path_631" data-name="Path 631" d="M859.323,470.2c11.888-20.323,35.661-63.73,35.661-74.773C880.8,404.25,853.8,431.552,859.323,470.2Z" transform="translate(-751.19 -325.259)" fill="#91b884"/>
      <path id="Path_632" data-name="Path 632" d="M952.529,430.938c36.812.92,46.015,15.721,46.015,23.007a43.908,43.908,0,0,0,.356-12.654c7.551-18.406,18.74-58.9,3.095-73.623q-1.518-1.428-3.095-2.657c3.332-14.836,2.864-46.809-25.664-56.011,7.285,7.669,21.166,25.308,18.406,34.511-3.451-6.9-12.884-19.556-23.007-14.955,6.135,3.08,18.405,11.3,18.405,19.556-4.985-4.984-18.866-13.114-34.511-5.751,11.888,1.509,35.432,6.835,34.511,16.068-16.358-6-32.76-1.163-34.511,2.337,13.658-.383,42.055,2.3,46.371,16.105-13.54-6.519-44.99-16.105-62.476-2.3,21.857.383,65.571,5.751,65.571,24.158-21.474-8.82-72.243-22.778-103.532-8.053,33.6-1.534,100.722,6.442,100.437,50.616-3.158-25.467-30.4-36.2-46.371-32.21-14.724,3.681-42.18,4.6-54.066,4.6C901.151,419.051,915.716,430.018,952.529,430.938Z" transform="translate(-898.464 -309)" fill="#91b884"/>
    </g>
    <path id="Path_633" data-name="Path 633" d="M879.642,488.673c.767,11.12,4.6,34.05,13.8,36.811,11.5,3.451,18.405-2.3,18.405-6.9,0-3.681,2.3-21.474,3.451-29.909,1.15-1.15,2.991-4.141,1.15-6.9-11.12.767-34.051,1.841-36.811,0C876.191,479.47,877.342,488.009,879.642,488.673Z" transform="translate(381.235 606.962)" fill="#8a6564"/>
    <path id="Path_634" data-name="Path 634" d="M496.344,147.509c-11.131-2.855-19.488-4.958-29.344,3.473,10.252,1.953,26.125,4.743,40.548,6.794,9.959,8.272,31.158,24.925,36.28,25.354-5.633-4.643-16.863-15.752-16.719-23.039,5.791.477,10.265.549,12.45,0-1.176-1.919-6.241-5.718-17.606-7.946-6.936-7.174-23.049-20.772-32.012-17.772l-1.067-2.143c12.626,1.072,42.042,8.037,58.688,27.326-.831-5.536-6.085-18.217-20.454-24.646s-27.208-7.68-31.832-7.5c7.292-1.072,25.4-1.822,39.48,3.751,17.607,6.965,24.009,8.572,41.615,41.791,1.068-10.894-.106-34.29-13.338-40.72-16.54-8.037-41.082-12.323-61.356-8.573,23.119-6.429,70.959-22.932,77.362-37.505-2.49.179-10.884,2.036-24.543,8.037s-34.5,17.145-43.215,21.967c8.714-5.894,27.1-20.145,30.944-30S559.833,40.61,566.236,24c-9.782,8.751-31.371,32.255-39.481,56.258s-17.606,31.076-21.341,31.612c4.268-19.11,11.631-61.4,6.936-77.69-3.912,15.538-11.844,52.615-12.271,76.618-.356,3.394-2.348,11.038-7.469,14.466,2.668-13.93,5.656-45.113-3.735-58.4-1.067,11.966-2.881,38.148-1.6,47.15,1.6,11.251-4.268,22.5-4.8,20.36s4.8-40.72-5.335-65.366c-3.2,17.767-8.324,55.822-3.2,65.9a5,5,0,0,1,0,6.965c-2.561,3,3.2-.536,6.4-2.678C485.5,140.809,495.917,144.731,496.344,147.509Z" transform="translate(1052.68 693)" fill="#90d778"/>
    <path id="Path_635" data-name="Path 635" d="M528.613,437.821c1.521-3.8,28.51-15.509,41.815-20.886,23.955,13.763,49.48,28.433,74.405,42.76-7.854,6.023-25.082,19.02-31.164,22.824s-13.622,1.586-16.632,0l-56.545-33.285C535.9,447.014,527.093,441.625,528.613,437.821Z" transform="translate(937.005 619.084)" fill="#6f7d94"/>
    <path id="Path_636" data-name="Path 636" d="M402.264,324.393c-4.182-2.282-4.277-5.706-3.8-7.132-.024-10.481-.05-22.615-.075-35.663L699.246,457.06v25.2c-.119,2.5-1.183,6.656-4.277,7.933a5.968,5.968,0,0,1-3.8.151c-26.42-15.19-60.3-34.669-95.509-54.9l-2.1-1.2c-24.926-14.327-50.451-29-74.4-42.76C456.4,355.418,404.427,325.575,402.264,324.393Z" transform="translate(988.278 644.543)" fill="#fff"/>
    <path id="Path_637" data-name="Path 637" d="M687.856,221.063,406.554,58.439a8.216,8.216,0,0,0-5.7,1.374,6.214,6.214,0,0,0-2.376,4.808c-.321,4.824-.213,103.582-.075,174.987L699.26,415.07V239.608C699.26,230.478,691.657,223.44,687.856,221.063Z" transform="translate(988.264 686.533)" fill="#1c3247"/>
    <ellipse id="Ellipse_14" data-name="Ellipse 14" cx="2.697" cy="2.023" rx="2.697" ry="2.023" transform="translate(1672.457 918.502)" fill="#fff"/>
    <ellipse id="Ellipse_15" data-name="Ellipse 15" cx="2.023" cy="2.697" rx="2.023" ry="2.697" transform="translate(1664.365 913.108)" fill="#fff"/>
    <ellipse id="Ellipse_16" data-name="Ellipse 16" cx="2.023" cy="2.023" rx="2.023" ry="2.023" transform="translate(1656.274 909.063)" fill="#fff"/>
    <path id="Path_638" data-name="Path 638" d="M655,237l10.555,6.468V254.05L655,248.171Z" transform="translate(813.531 652.932)" fill="#ecebea"/>
    <path id="Path_639" data-name="Path 639" d="M626,252l16.238,9.743v2.436L626,254.436Z" transform="translate(860.392 650.11)" fill="#fff"/>
    <path id="Path_640" data-name="Path 640" d="M633,259l11.366,7.307v2.436L633,261.436Z" transform="translate(852.581 648.794)" fill="#fff"/>
    <path id="Path_641" data-name="Path 641" d="M655,258l10.555,6.467V275.05L655,269.171Z" transform="translate(813.531 648.982)" fill="#ecebea"/>
    <path id="Path_642" data-name="Path 642" d="M626,273l16.238,9.743v2.436L626,275.436Z" transform="translate(860.392 646.16)" fill="#fff"/>
    <path id="Path_643" data-name="Path 643" d="M633,280l11.366,7.307v2.436L633,282.436Z" transform="translate(852.581 644.843)" fill="#fff"/>
    <path id="Path_644" data-name="Path 644" d="M655,279l10.555,6.467V296.05L655,290.171Z" transform="translate(813.531 645.031)" fill="#ecebea"/>
    <path id="Path_645" data-name="Path 645" d="M626,294l16.238,9.743v2.436L626,296.436Z" transform="translate(860.392 642.21)" fill="#fff"/>
    <path id="Path_646" data-name="Path 646" d="M633,301l11.366,7.307v2.436L633,303.436Z" transform="translate(852.581 640.893)" fill="#fff"/>
    <path id="Path_647" data-name="Path 647" d="M710,210l10.555,6.468V227.05L710,221.171Z" transform="translate(713.877 658.011)" fill="#ecebea"/>
    <path id="Path_648" data-name="Path 648" d="M681,225l16.238,9.743v2.436L681,227.436Z" transform="translate(760.739 655.189)" fill="#fff"/>
    <path id="Path_649" data-name="Path 649" d="M688,232l11.366,7.307v2.436L688,234.436Z" transform="translate(752.927 653.873)" fill="#fff"/>
    <path id="Path_650" data-name="Path 650" d="M710,231l10.555,6.467V248.05L710,242.171Z" transform="translate(713.877 654.061)" fill="#ecebea"/>
    <path id="Path_651" data-name="Path 651" d="M681,246l16.238,9.743v2.436L681,248.436Z" transform="translate(760.739 651.239)" fill="#fff"/>
    <path id="Path_652" data-name="Path 652" d="M688,253l11.366,7.307v2.436L688,255.436Z" transform="translate(752.927 649.922)" fill="#fff"/>
    <path id="Path_653" data-name="Path 653" d="M710,252l10.555,6.468V269.05L710,263.171Z" transform="translate(713.877 650.11)" fill="#ecebea"/>
    <path id="Path_654" data-name="Path 654" d="M681,267l16.238,9.743v2.436L681,269.436Z" transform="translate(760.739 647.289)" fill="#fff"/>
    <path id="Path_655" data-name="Path 655" d="M688,274l11.366,7.307v2.436L688,276.436Z" transform="translate(752.927 645.972)" fill="#fff"/>
    <path id="Path_656" data-name="Path 656" d="M723.733,172v16.944L619,127.944V111Z" transform="translate(784.58 676.634)" fill="none" stroke="#fff" stroke-width="1"/>
    <path id="Path_657" data-name="Path 657" d="M619,160.426V148.565l104.733,59.3v10.166Z" transform="translate(784.58 669.568)" fill="none" stroke="#fff" stroke-width="1"/>
    <path id="Path_658" data-name="Path 658" d="M448,407.268l4.34,1.86V301.86L448,300V407.268Z" transform="translate(1194.808 641.081)" fill="#f0efec"/>
    <path id="Path_659" data-name="Path 659" d="M461.746,405.968l4.34,1.86V347.683l-4.34-1.86v60.145Z" transform="translate(1169.9 632.461)" fill="#f0efec"/>
    <path id="Path_660" data-name="Path 660" d="M489.239,378.368l4.34,1.86V306.442l-4.34-1.86v73.786Z" transform="translate(1120.086 640.219)" fill="#f0efec"/>
    <path id="Path_661" data-name="Path 661" d="M475.493,387.426l4.34,1.86V301.86l-4.34-1.86v87.426Z" transform="translate(1144.992 641.081)" fill="#f0efec"/>
    <path id="Path_662" data-name="Path 662" d="M448,422.927l4.34,1.86V385.1l-4.34-1.86Z" transform="translate(1194.808 625.422)" fill="#b7cffd"/>
    <path id="Path_663" data-name="Path 663" d="M461.746,415.3l4.34,1.861V397.324l-4.34-1.86Z" transform="translate(1169.9 623.123)" fill="#b7cffd"/>
    <path id="Path_664" data-name="Path 664" d="M489.239,386.269l4.34,1.86V348.446l-4.34-1.86Z" transform="translate(1120.086 632.318)" fill="#b7cffd"/>
    <path id="Path_665" data-name="Path 665" d="M475.493,395.759l4.34,1.86V346.155l-4.34-1.86Z" transform="translate(1144.992 632.749)" fill="#b7cffd"/>
    <path id="Path_666" data-name="Path 666" d="M560.8,304a68.376,68.376,0,0,1-1.493-14.076,131.453,131.453,0,0,1,.784-15.417l36.317,23.46Z" transform="translate(960.378 645.877)" fill="#6b81ac"/>
    <path id="Path_667" data-name="Path 667" d="M563.52,322.837,594.911,303.4,559.3,309.431A72.725,72.725,0,0,0,563.52,322.837Z" transform="translate(961.871 640.442)" fill="#b6c7e5"/>
    <path id="Path_668" data-name="Path 668" d="M588.459,239a26.98,26.98,0,0,1,7.16.991v51.293L559.3,267.824C561.627,248.346,569.538,239,588.459,239Z" transform="translate(961.162 652.556)" fill="#b7cffd"/>
    <path id="Path_669" data-name="Path 669" d="M581.795,301.569c0,29.986-7.877,41.559-31.244,41.559-15.96,0-30.768-13.844-38.551-32.175l31.391-19.439V240.222C563.935,245.869,581.795,274.671,581.795,301.569Z" transform="translate(1013.391 652.326)" fill="#fff"/>
    <path id="Path_670" data-name="Path 670" d="M750.45,328.372c-4.966-3.426-5.889-9.359-5.73-11.9.159-26.176.573-79.481.955-83.288a3.288,3.288,0,0,1,1.723-2.855,5.437,5.437,0,0,1,4.007,0c10.5,6.187,32.178,18.942,34.851,20.465s3.343,7.3,3.343,9.994V343.6c0,2.783-1.107,4.092-2.387,4.62a4.609,4.609,0,0,1-2.865.14C775.117,343.126,755.415,331.8,750.45,328.372Z" transform="translate(616.657 654.26)" fill="#dce6fa"/>
    <path id="Path_671" data-name="Path 671" d="M749.269,317.027a2.963,2.963,0,0,1-.956-2.855v-75.2c0-1.142.956-1.111,1.433-.952,11.3,6.5,34.183,19.7,35.328,20.465s1.432,2.855,1.432,3.807v73.294c0,2.285-1.591,2.221-2.387,1.9C772.981,331.147,750.415,318.169,749.269,317.027Z" transform="translate(616.883 652.755)" fill="#71809a"/>
    <path id="Path_672" data-name="Path 672" d="M337.763,57.8l281.3,162.624c3.8,2.377,11.4,9.415,11.4,18.545v13.822c-10.021-5.913-17.115-10.071-17.464-10.188-1.145-.381-3.146,1.111-4,1.9a3.283,3.283,0,0,0-1.72,2.855c-.218,2.167-.136,35.037-.054,67.781.061,24.78.123,49.489.054,60.764-.159,2.538.763,8.47,5.724,11.9,1.446,1,8.28,5.173,17.464,10.715v41.113c-.119,2.5-1.183,6.656-4.277,7.933,6.463-1.262,8.395-5.815,8.553-7.933V401.1c22.389,13.477,54.63,32.657,60.76,36.135a4.6,4.6,0,0,0,2.862-.14c4.961-.112,6.2-3.126,6.2-4.619,0-17.908-.452-70.228-.734-102.834-.128-14.758-.22-25.478-.22-27.139,0-5.329-2.862-8.248-4.292-9.041-5.24-3.026-21.949-12.918-39.289-23.183l-.009,0-.031-.019c-8.717-5.16-17.592-10.414-25.247-14.937V237.07c0-6.467-4.435-12.838-6.652-15.216C533.692,167.628,343.941,58.522,340.14,55.9s-6.969,1.092-8.078,3.276A8.215,8.215,0,0,1,337.763,57.8ZM349.2,310.693V227.881c0-2.7-.668-8.471-3.342-9.994s-24.349-14.278-34.851-20.465a5.439,5.439,0,0,0-4.007,0c.858-.793,2.861-2.285,4.007-1.9s25.621,14.437,37.715,21.418c1.432.793,4.3,3.712,4.3,9.042v84.716c0,1.493-1.241,4.508-6.207,4.62C348.094,314.785,349.2,313.477,349.2,310.693Zm59.22,59.56a2.415,2.415,0,0,1,.144-.517C408.509,369.9,408.462,370.073,408.42,370.253Zm0,0c-.531,2.344.043,5.981,1.094,6.615,20.749,12.522,63.293,38.041,67.474,39.943,5.227,2.377,12.829,1.9,15.681.951,2.281-.761,23.758-16.949,34.212-24.948l-2.1-1.2c-7.854,6.023-25.082,19.02-31.165,22.824s-13.621,1.586-16.631,0l-56.546-33.285C416.054,379.028,407.819,374.014,408.42,370.253Z" transform="translate(1057.055 687.169)" fill="#1673a7" fill-rule="evenodd"/>
    <path id="Path_673" data-name="Path 673" d="M317.563,431.627c-4.961-3.426-5.883-9.359-5.724-11.9.158-26.173-.382-124.738,0-128.545a3.283,3.283,0,0,1,1.72-2.855,5.428,5.428,0,0,1,4,0c10.493,6.186,80.784,48.382,83.455,49.9s3.339,7.3,3.339,9.994c0,25.538.954,123.119.954,128.069,0,2.782-1.106,4.091-2.385,4.619a4.6,4.6,0,0,1-2.862.14C390.842,475.821,322.523,435.053,317.563,431.627Z" transform="translate(1352.496 643.349)" fill="#dce6fa"/>
    <path id="Path_674" data-name="Path 674" d="M317.133,420.282a2.963,2.963,0,0,1-.954-2.855c0-24.586-.954-119.313-.954-120.455s.954-1.111,1.431-.952c11.288,6.5,82.787,49.144,83.931,49.905s1.431,2.855,1.431,3.807c0,23.476.954,116.267.954,118.552s-1.59,2.221-2.385,1.9C389.458,463.842,318.278,421.425,317.133,420.282Z" transform="translate(1351.972 641.845)" fill="#71809a"/>
    <path id="Path_675" data-name="Path 675" d="M744.053,439.281a5.764,5.764,0,0,1,0-6.612C755.022,414.25,784.114,410,792.222,410c7.391,0,25.882,12.954,20.417,14.168-3.888,4.156-31.129,17.159-44.263,23.142C764.084,452.977,746.437,442.587,744.053,439.281Z" transform="translate(594.006 620.389)" fill="#dce6fa"/>
    <path id="Path_676" data-name="Path 676" d="M786.194,427.433c-11.446-1.417-37.676,17.474-41.969,23.142,13.135-5.983,40.376-18.986,44.263-23.142A7.1,7.1,0,0,1,786.194,427.433Z" transform="translate(618.156 617.123)" fill="#4b5361"/>
    <path id="Path_677" data-name="Path 677" d="M779,291l5.683,4.311v7.055L779,298.447Z" transform="translate(593.728 642.774)" fill="#ecebea"/>
    <path id="Path_678" data-name="Path 678" d="M760.5,299.4v-.515l8.931,5.358v.515Z" transform="translate(624.001 641.291)" fill="none" stroke="#fff" stroke-width="1"/>
    <path id="Path_679" data-name="Path 679" d="M760.5,307.358v-.472l8.931,5.4v.473Z" transform="translate(624.001 639.786)" fill="none" stroke="#fff" stroke-width="1"/>
    <path id="Path_680" data-name="Path 680" d="M760.5,315.4v-.515l8.931,5.358v.515Z" transform="translate(624.001 638.281)" fill="none" stroke="#fff" stroke-width="1"/>
    <path id="Path_681" data-name="Path 681" d="M760.5,319.358v-.473l8.931,5.4v.473Z" transform="translate(624.001 637.528)" fill="none" stroke="#fff" stroke-width="1"/>
    <path id="Path_682" data-name="Path 682" d="M760.5,327.4v-.515l8.931,5.358v.515Z" transform="translate(624.001 636.024)" fill="none" stroke="#fff" stroke-width="1"/>
    <path id="Path_683" data-name="Path 683" d="M760.5,331.358v-.473l8.931,5.4v.472Z" transform="translate(624.001 635.271)" fill="none" stroke="#fff" stroke-width="1"/>
    <path id="Path_684" data-name="Path 684" d="M779,305l5.683,4v6.551L779,311.915Z" transform="translate(593.728 640.14)" fill="#ecebea"/>
    <path id="Path_685" data-name="Path 685" d="M779,318l5.683,4.311v7.055L779,325.447Z" transform="translate(593.728 637.695)" fill="#ecebea"/>
    <path id="Path_686" data-name="Path 686" d="M783.852,274.215v10.119L753,266.119V256Z" transform="translate(615.669 649.358)" fill="none" stroke="#fff" stroke-width="0.5"/>
    <path id="Path_687" data-name="Path 687" d="M753,276.991v-3.542l30.852,17.709v3.036Z" transform="translate(615.669 646.076)" fill="none" stroke="#fff" stroke-width="0.5"/>
    <path id="Path_688" data-name="Path 688" d="M325.584,359.273l.585.33,27.758,17.28a2.436,2.436,0,0,1,1.149,2.068v34.271m-29.492-53.949h0a.391.391,0,0,0-.584.34V393.8a2.434,2.434,0,0,0,1.137,2.061l28.2,17.766a.484.484,0,0,0,.741-.409h0m-29.492-53.949a4.771,4.771,0,0,1,1.822-1.008,2.375,2.375,0,0,1,2.013.422c3.037,2.1,13.317,8.942,26.532,16.576.779.585,2.336,2.044,2.336,3.213v31.394a2.193,2.193,0,0,1-.749,1.693,13.412,13.412,0,0,1-2.463,1.66" transform="translate(1388.721 630.136)" fill="none" stroke="#fff" stroke-width="0.5"/>
    <path id="Path_689" data-name="Path 689" d="M335.43,370.588l19.563,11.971v7.612L335.43,378.622Z" transform="translate(1383.547 627.803)" fill="#ecebea"/>
    <path id="Path_690" data-name="Path 690" d="M352.014,397.284v-7.24l5.774,3.919v6.86Z" transform="translate(1367.288 624.143)" fill="none" stroke="#fff" stroke-width="0.8"/>
    <path id="Path_691" data-name="Path 691" d="M337.628,405.916v-7.24L343.4,402.6v6.86Z" transform="translate(1393.354 622.519)" fill="none" stroke="#fff" stroke-width="0.8"/>
    <path id="Path_692" data-name="Path 692" d="M336.4,384.536v-1.279L354.973,394.4v1.278Z" transform="translate(1382.781 625.419)" fill="none" stroke="#fff" stroke-width="0.5"/>
    <path id="Path_693" data-name="Path 693" d="M352.224,402.522v-1.275l5.725,3.545v1.275Z" transform="translate(1366.956 622.035)" fill="none" stroke="#fff" stroke-width="0.5"/>
    <path id="Path_694" data-name="Path 694" d="M337.838,411.153v-1.274l5.725,3.545V414.7Z" transform="translate(1393.022 620.411)" fill="none" stroke="#fff" stroke-width="0.5"/>
    <path id="Path_695" data-name="Path 695" d="M376.584,331.273l.585.33,27.758,17.28a2.436,2.436,0,0,1,1.149,2.068v34.271m-29.492-53.949h0a.391.391,0,0,0-.584.34V365.8a2.434,2.434,0,0,0,1.137,2.061l28.2,17.766a.484.484,0,0,0,.741-.409h0m-29.492-53.949a4.769,4.769,0,0,1,1.822-1.008,2.375,2.375,0,0,1,2.013.422c3.037,2.1,13.317,8.942,26.533,16.575.779.585,2.336,2.044,2.336,3.213v31.394a2.193,2.193,0,0,1-.749,1.693,13.411,13.411,0,0,1-2.463,1.66" transform="translate(1296.315 635.403)" fill="none" stroke="#fff" stroke-width="0.5"/>
    <path id="Path_696" data-name="Path 696" d="M386.43,342.588l19.563,11.971v7.612L386.43,350.622Z" transform="translate(1291.141 633.07)" fill="#ecebea"/>
    <path id="Path_697" data-name="Path 697" d="M403.014,369.284v-7.24l5.774,3.919v6.861Z" transform="translate(1274.882 629.41)" fill="none" stroke="#fff" stroke-width="0.8"/>
    <path id="Path_698" data-name="Path 698" d="M388.628,377.916v-7.24l5.775,3.919v6.86Z" transform="translate(1300.947 627.786)" fill="none" stroke="#fff" stroke-width="0.8"/>
    <path id="Path_699" data-name="Path 699" d="M387.4,356.536v-1.279L405.973,366.4v1.278Z" transform="translate(1290.375 630.686)" fill="none" stroke="#fff" stroke-width="0.5"/>
    <path id="Path_700" data-name="Path 700" d="M403.224,374.522v-1.275l5.725,3.545v1.275Z" transform="translate(1274.55 627.302)" fill="none" stroke="#fff" stroke-width="0.5"/>
    <path id="Path_701" data-name="Path 701" d="M388.838,383.153v-1.274l5.726,3.545V386.7Z" transform="translate(1300.615 625.679)" fill="none" stroke="#fff" stroke-width="0.5"/>
    <path id="Path_702" data-name="Path 702" d="M325.584,420.273l.585.33,27.758,17.28a2.437,2.437,0,0,1,1.149,2.068v34.271m-29.492-53.949h0a.391.391,0,0,0-.584.34V454.8a2.434,2.434,0,0,0,1.137,2.061l28.2,17.766a.484.484,0,0,0,.741-.409h0m-29.492-53.949a4.77,4.77,0,0,1,1.822-1.008,2.375,2.375,0,0,1,2.013.422c3.037,2.1,13.317,8.942,26.532,16.575.779.585,2.336,2.044,2.336,3.213v31.394a2.193,2.193,0,0,1-.749,1.693,13.412,13.412,0,0,1-2.463,1.66" transform="translate(1388.721 618.661)" fill="none" stroke="#fff" stroke-width="0.5"/>
    <path id="Path_703" data-name="Path 703" d="M335.43,431.588l19.563,11.971v7.612L335.43,439.622Z" transform="translate(1383.547 616.328)" fill="#ecebea"/>
    <path id="Path_704" data-name="Path 704" d="M352.014,458.284v-7.24l5.774,3.919v6.861Z" transform="translate(1367.288 612.668)" fill="none" stroke="#fff" stroke-width="0.8"/>
    <path id="Path_705" data-name="Path 705" d="M337.628,466.916v-7.24l5.774,3.919v6.86Z" transform="translate(1393.354 611.044)" fill="none" stroke="#fff" stroke-width="0.8"/>
    <path id="Path_706" data-name="Path 706" d="M336.4,445.536v-1.279L354.973,455.4v1.278Z" transform="translate(1382.781 613.945)" fill="none" stroke="#fff" stroke-width="0.5"/>
    <path id="Path_707" data-name="Path 707" d="M352.224,463.522v-1.275l5.725,3.545v1.275Z" transform="translate(1366.956 610.56)" fill="none" stroke="#fff" stroke-width="0.5"/>
    <path id="Path_708" data-name="Path 708" d="M337.838,472.153v-1.274l5.725,3.545V475.7Z" transform="translate(1393.022 608.936)" fill="none" stroke="#fff" stroke-width="0.5"/>
    <path id="Path_709" data-name="Path 709" d="M376.584,390.273l.585.33,27.758,17.28a2.436,2.436,0,0,1,1.149,2.068v34.271m-29.492-53.949h0a.391.391,0,0,0-.584.34V424.8a2.435,2.435,0,0,0,1.137,2.061l28.2,17.766a.484.484,0,0,0,.741-.409h0m-29.492-53.949a4.769,4.769,0,0,1,1.822-1.008,2.375,2.375,0,0,1,2.013.422c3.037,2.1,13.317,8.942,26.533,16.575.779.585,2.336,2.044,2.336,3.213v31.394a2.193,2.193,0,0,1-.749,1.693,13.408,13.408,0,0,1-2.463,1.66" transform="translate(1296.315 624.305)" fill="none" stroke="#fff" stroke-width="0.5"/>
    <path id="Path_710" data-name="Path 710" d="M386.43,401.588l19.563,11.971v7.612L386.43,409.622Z" transform="translate(1291.141 621.971)" fill="#ecebea"/>
    <path id="Path_711" data-name="Path 711" d="M403.014,428.284v-7.24l5.774,3.919v6.86Z" transform="translate(1274.882 618.311)" fill="none" stroke="#fff" stroke-width="0.8"/>
    <path id="Path_712" data-name="Path 712" d="M388.628,436.916v-7.24l5.775,3.919v6.86Z" transform="translate(1300.947 616.687)" fill="none" stroke="#fff" stroke-width="0.8"/>
    <path id="Path_713" data-name="Path 713" d="M387.4,415.536v-1.279L405.973,425.4v1.278Z" transform="translate(1290.375 619.588)" fill="none" stroke="#fff" stroke-width="0.5"/>
    <path id="Path_714" data-name="Path 714" d="M403.224,433.522v-1.275l5.725,3.545v1.275Z" transform="translate(1274.55 616.204)" fill="none" stroke="#fff" stroke-width="0.5"/>
    <path id="Path_715" data-name="Path 715" d="M388.838,442.153v-1.274l5.726,3.545V445.7Z" transform="translate(1300.615 614.58)" fill="none" stroke="#fff" stroke-width="0.5"/>
    <ellipse id="Ellipse_17" data-name="Ellipse 17" cx="0.674" cy="1.349" rx="0.674" ry="1.349" transform="translate(1746.625 991.322)" fill="#fff"/>
    <ellipse id="Ellipse_18" data-name="Ellipse 18" cx="0.674" cy="2.023" rx="0.674" ry="2.023" transform="translate(1742.579 988.625)" fill="#fff"/>
    <ellipse id="Ellipse_19" data-name="Ellipse 19" cx="0.674" cy="2.023" rx="0.674" ry="2.023" transform="translate(1738.534 985.928)" fill="#fff"/>
  </g>
</svg>
