<svg xmlns="http://www.w3.org/2000/svg" width="29.631" height="27.2" viewBox="0 0 29.631 27.2">
  <g id="Group_2854" data-name="Group 2854" transform="translate(-1147 -22.8)">
    <path id="Path_497" data-name="Path 497" d="M27.66.656H1.977A1.984,1.984,0,0,0,0,2.646V20.888a1.983,1.983,0,0,0,1.977,1.99h9.851a7.145,7.145,0,0,1-6.473,3.982v1H23.777v-1A5.926,5.926,0,0,1,17.8,22.879h9.859a1.981,1.981,0,0,0,1.974-1.99V2.646A1.978,1.978,0,0,0,27.66.656ZM14.817,22.469a1.109,1.109,0,1,1,1.11-1.11A1.11,1.11,0,0,1,14.817,22.469Zm12.7-2.819H2.118V2.772h25.4l0,16.878Z" transform="translate(1147 22.144)" fill="#364f6b"/>
    <text id="_" data-name="!" transform="translate(1159.759 36.938)" fill="#364f6b" font-size="13" font-family="ProximaNovaSoftW03-Bold" font-weight="700"><tspan x="0" y="0">!</tspan></text>
  </g>
</svg>
