<?xml version="1.0" encoding="utf-8"?>
<!-- Generator: Adobe Illustrator 23.1.0, SVG Export Plug-In . SVG Version: 6.00 Build 0)  -->
<svg version="1.1" id="Layer_1" xmlns="http://www.w3.org/2000/svg" xmlns:xlink="http://www.w3.org/1999/xlink" x="0px" y="0px"
	 viewBox="0 0 61 61" style="enable-background:new 0 0 61 61;" xml:space="preserve">
<style type="text/css">
	.st0{opacity:0.24;fill:#46BD9B;enable-background:new    ;}
	.st1{fill:#46BD9B;}
	.st2{fill:#FFFFFF;}
</style>
<g transform="translate(-1377 -207)">
	<path class="st0" d="M1384,207h47c3.9,0,7,3.1,7,7v47c0,3.9-3.1,7-7,7h-47c-3.9,0-7-3.1-7-7v-47C1377,210.1,1380.1,207,1384,207z"
		/>
	<circle class="st1" cx="1407.3" cy="237.3" r="18.3"/>
	<g>
		<path class="st2" d="M1407.3,245.1L1407.3,245.1c0.8,0,1.4-0.6,1.4-1.4v-12.7c0-0.8-0.6-1.4-1.4-1.4l0,0c-0.8,0-1.4,0.6-1.4,1.4
			v12.7C1405.8,244.4,1406.5,245.1,1407.3,245.1z"/>
		<path class="st2" d="M1399.5,237.3L1399.5,237.3c0,0.8,0.6,1.4,1.4,1.4h12.7c0.8,0,1.4-0.6,1.4-1.4l0,0c0-0.8-0.6-1.4-1.4-1.4
			h-12.7C1400.1,235.8,1399.5,236.5,1399.5,237.3z"/>
	</g>
</g>
</svg>
