<?xml version="1.0" encoding="utf-8"?>
<!-- Generator: Adobe Illustrator 23.1.0, SVG Export Plug-In . SVG Version: 6.00 Build 0)  -->
<svg version="1.1" id="Layer_1" xmlns="http://www.w3.org/2000/svg" xmlns:xlink="http://www.w3.org/1999/xlink" x="0px" y="0px"
	 viewBox="0 0 65.7 64.2" style="enable-background:new 0 0 65.7 64.2;" xml:space="preserve">
<style type="text/css">
	.st0{fill:#FFFFFF;}
</style>
<path class="st0" d="M64.8,36.8l-3.3-5.2l-0.9-1.4L59.2,31c-2.1,1.3-4.9,0.7-6.2-1.4c-1.3-2.1-0.7-4.9,1.4-6.2l1.4-0.9l-0.9-1.4
	l-3.3-5.2l-0.9-1.4l-1.4,0.9l-3.4,2.1l1.4-2.5l0.8-1.5l-1.5-0.8l-5.4-3L39.7,9l-0.8,1.5c-1.2,2.2-3.9,2.9-6.1,1.7
	C30.6,11,29.8,8.3,31,6.1l0.8-1.5l-1.5-0.8l-5.4-3L23.5,0l-0.8,1.5L0.8,40.7L0,42.2l0,0L1.5,43l5.4,3l1.5,0.8l0.8-1.5
	c0.6-1,1.5-1.7,2.5-2.1l2.4,3.8l0.9,1.4l1.4-0.9c0.4-0.2,0.7-0.4,1.1-0.5c0.1,0.9-0.1,1.8-0.5,2.6l-0.8,1.5l1.5,0.8l4.5,2.5
	c-0.2,0.3-0.5,0.5-0.8,0.7l-1.4,0.9l0.9,1.4l3.3,5.2l0.9,1.4l1.4-0.9l37.9-24.2l1.4-0.9L64.8,36.8z M24.8,4.6L27.4,6
	c-1.3,4.1,1.1,8.5,5.2,9.8c2.9,0.9,6.1,0,8.2-2.3l2.6,1.5l-3.6,6.4l-3.2,2l-17.1-9.5l0,0L24.8,4.6z M23.2,51.3l-2.6-1.5
	c0.2-0.8,0.3-1.6,0.3-2.3c0.7,0.4,1.3,0.9,1.7,1.6c0.4,0.6,0.6,1.4,0.7,2.1L23.2,51.3z M24.9,29l-1-5.6l-3.1,4.9l-5.6-0.7l3.5,4.4
	l-2,4.2l-5.4,3.5l-0.9,0.6c-1.2,0.4-2.3,1.2-3.2,2.2l-2.6-1.5l0,0l13.4-24l15.5,8.6l-6.4,4.1L24.9,29z M40,47.1l-4.1-3.9l-5.3,2.1
	l2.5-5.2l-3.5-4.4l5.6,0.7l3.1-4.9l1,5.6l5.5,1.4l-5,2.8L40,47.1z"/>
</svg>
