<?xml version="1.0" encoding="utf-8"?>
<!-- Generator: Adobe Illustrator 24.1.1, SVG Export Plug-In . SVG Version: 6.00 Build 0)  -->
<svg version="1.1" id="Layer_1" xmlns="http://www.w3.org/2000/svg" xmlns:xlink="http://www.w3.org/1999/xlink" x="0px" y="0px"
	 viewBox="0 0 37 37" style="enable-background:new 0 0 37 37;" xml:space="preserve">
<style type="text/css">
	.st0{fill:none;}
	.st1{fill:#1673A7;}
	.st2{fill:none;stroke:#1673A7;stroke-width:3;stroke-linecap:round;stroke-linejoin:round;}
</style>
<g id="Group_4729" transform="translate(-4382 -328)">
	<g id="Ellipse_37" transform="translate(4382 328)">
		<path class="st0" d="M18.5,0C28.7,0,37,8.3,37,18.5S28.7,37,18.5,37S0,28.7,0,18.5S8.3,0,18.5,0z"/>
		<path class="st1" d="M18.5,3c-4.1,0-8,1.6-11,4.5C4.6,10.5,3,14.4,3,18.5s1.6,8,4.5,11c2.9,2.9,6.8,4.5,11,4.5s8-1.6,11-4.5
			c2.9-2.9,4.5-6.8,4.5-11s-1.6-8-4.5-11C26.5,4.6,22.6,3,18.5,3 M18.5,0C28.7,0,37,8.3,37,18.5S28.7,37,18.5,37S0,28.7,0,18.5
			S8.3,0,18.5,0z"/>
	</g>
	<path id="Path_2195" class="st2" d="M4391.5,346.5l5.4,6.6l12.1-13.6"/>
</g>
</svg>
