<svg xmlns="http://www.w3.org/2000/svg" width="37" height="37" viewBox="0 0 37 37">
  <g id="Group_4573" data-name="Group 4573" transform="translate(-977 -426)">
    <path id="check-mark_1_" data-name="check-mark (1)" d="M26.678,12.63a1.445,1.445,0,0,1,0,2.044l-9.7,9.7a1.446,1.446,0,0,1-2.044,0l-4.616-4.616a1.445,1.445,0,1,1,2.044-2.044L15.96,21.3l8.674-8.674a1.446,1.446,0,0,1,2.044,0ZM37,18.5A18.5,18.5,0,1,1,18.5,0,18.49,18.49,0,0,1,37,18.5Zm-2.891,0A15.609,15.609,0,1,0,18.5,34.11,15.6,15.6,0,0,0,34.109,18.5Zm0,0" transform="translate(977 426)" fill="#5ea0df"/>
    <g id="Ellipse_37" data-name="Ellipse 37" transform="translate(977 426)" fill="none" stroke="#fff" stroke-width="3">
      <circle cx="18.5" cy="18.5" r="18.5" stroke="none"/>
      <circle cx="18.5" cy="18.5" r="17" fill="none"/>
    </g>
  </g>
</svg>
