<svg xmlns="http://www.w3.org/2000/svg" width="415.599" height="512" viewBox="0 0 415.599 512">
  <g id="test_1_" data-name="test (1)" transform="translate(-48.2)">
    <path id="Path_2160" data-name="Path 2160" d="M142.468,383.467h34.266v34.267H142.468Z" fill="#fff"/>
    <path id="Path_2161" data-name="Path 2161" d="M360.434,128.533h94.578L335.266,8.787v94.579A25.2,25.2,0,0,0,360.434,128.533Z" fill="#fff"/>
    <path id="Path_2162" data-name="Path 2162" d="M142.468,254.933h34.266V289.2H142.468Z" fill="#fff"/>
    <path id="Path_2163" data-name="Path 2163" d="M360.434,158.533a55.23,55.23,0,0,1-55.168-55.167V0h-201.9A55.229,55.229,0,0,0,48.2,55.166V456.833A55.23,55.23,0,0,0,103.366,512H408.633A55.228,55.228,0,0,0,463.8,456.833v-298.3Zm-40.168,66.4a15,15,0,0,1,0,30H256a15,15,0,0,1,0-30Zm-192.8-144.6H207.8a15,15,0,0,1,0,30H127.468a15,15,0,0,1,0-30Zm0,64.267H256a15,15,0,0,1,0,30H127.468a15,15,0,1,1,0-30Zm79.266,288.133a15,15,0,0,1-15,15H127.468a15,15,0,0,1-15-15V368.466a15,15,0,0,1,15-15h64.266a15,15,0,0,1,15,15Zm0-128.533a15,15,0,0,1-15,15H127.468a15,15,0,0,1-15-15V239.932a15,15,0,0,1,15-15h64.266a15,15,0,0,1,15,15Zm177.8,143.533H256a15,15,0,0,1,0-30H384.534a15,15,0,0,1,0,30ZM241,368.467a15,15,0,0,1,15-15h64.265a15,15,0,0,1,0,30H256a15,15,0,0,1-15-15ZM384.534,319.2H256a15,15,0,0,1,0-30H384.534a15,15,0,0,1,0,30Z" fill="#fff"/>
  </g>
</svg>
