<svg xmlns="http://www.w3.org/2000/svg" width="50.183" height="46" viewBox="0 0 50.183 46">
  <g id="checkmark" transform="translate(0 -0.008)">
    <path id="Path_2306" data-name="Path 2306" d="M23,46.008A23,23,0,1,1,35.407,3.644a1.569,1.569,0,0,1-1.7,2.641,19.861,19.861,0,1,0,9.152,16.723c0-.655-.031-1.3-.092-1.94a1.568,1.568,0,0,1,3.122-.3Q46,21.872,46,23.008a23.027,23.027,0,0,1-23,23Zm0,0" transform="translate(0 0)" fill="#384e64"/>
    <path id="Path_2307" data-name="Path 2307" d="M160.316,47.484a1.557,1.557,0,0,1-1.108-.46L149.8,37.615a1.569,1.569,0,1,1,2.218-2.219l8.3,8.3,21.89-21.89a1.569,1.569,0,0,1,2.219,2.218l-23,23a1.571,1.571,0,0,1-1.11.458Zm0,0" transform="translate(-134.703 -19.248)" fill="#384e64"/>
  </g>
</svg>
