<?xml version="1.0" encoding="utf-8"?>
<!-- Generator: Adobe Illustrator 24.1.1, SVG Export Plug-In . SVG Version: 6.00 Build 0)  -->
<svg version="1.1" id="Layer_1" xmlns="http://www.w3.org/2000/svg" xmlns:xlink="http://www.w3.org/1999/xlink" x="0px" y="0px"
	 viewBox="0 0 448 480" style="enable-background:new 0 0 448 480;" xml:space="preserve">
<style type="text/css">
	.st0{fill:#1673A7;}
</style>
<g id="Group_4764" transform="translate(-3967 -1359)">
	<g id="archives" transform="translate(3951 1359)">
		<g id="Group_4733">
			<g id="Group_4732">
				<path id="Path_2196" class="st0" d="M440,0H328c-5.9,0-11.6,2.2-16,6.2c-4.4-4-10.1-6.2-16-6.2H184c-5.9,0-11.6,2.2-16,6.2
					c-4.4-4-10.1-6.2-16-6.2H40C26.7,0,16,10.7,16,24v432c0,13.3,10.7,24,24,24h112c5.9,0,11.6-2.2,16-6.2c4.4,4,10.1,6.2,16,6.2
					h112c5.9,0,11.6-2.2,16-6.2c4.4,4,10.1,6.2,16,6.2h112c13.3,0,24-10.7,24-24V24C464,10.7,453.3,0,440,0z M160,456
					c0,4.4-3.6,8-8,8H40c-4.4,0-8-3.6-8-8V24c0-4.4,3.6-8,8-8h112c4.4,0,8,3.6,8,8V456z M304,456c0,4.4-3.6,8-8,8H184
					c-4.4,0-8-3.6-8-8V24c0-4.4,3.6-8,8-8h112c4.4,0,8,3.6,8,8V456z M448,456c0,4.4-3.6,8-8,8H328c-4.4,0-8-3.6-8-8V24
					c0-4.4,3.6-8,8-8h112c4.4,0,8,3.6,8,8V456z"/>
			</g>
		</g>
		<g id="Group_4735">
			<g id="Group_4734">
				<path id="Path_2197" class="st0" d="M96,32c-26.5,0-48,21.5-48,48s21.5,48,48,48s48-21.5,48-48S122.5,32,96,32z M96,112
					c-17.7,0-32-14.3-32-32s14.3-32,32-32s32,14.3,32,32S113.7,112,96,112z"/>
			</g>
		</g>
		<g id="Group_4737">
			<g id="Group_4736">
				<path id="Path_2198" class="st0" d="M240,32c-26.5,0-48,21.5-48,48s21.5,48,48,48s48-21.5,48-48S266.5,32,240,32z M240,112
					c-17.7,0-32-14.3-32-32s14.3-32,32-32s32,14.3,32,32S257.7,112,240,112z"/>
			</g>
		</g>
		<g id="Group_4739">
			<g id="Group_4738">
				<path id="Path_2199" class="st0" d="M384,32c-26.5,0-48,21.5-48,48s21.5,48,48,48s48-21.5,48-48S410.5,32,384,32z M384,112
					c-17.7,0-32-14.3-32-32s14.3-32,32-32s32,14.3,32,32S401.7,112,384,112z"/>
			</g>
		</g>
		<g id="Group_4741">
			<g id="Group_4740">
				<path id="Path_2200" class="st0" d="M136,160H56c-4.4,0-8,3.6-8,8v176c0,4.4,3.6,8,8,8h80c4.4,0,8-3.6,8-8V168
					C144,163.6,140.4,160,136,160z M128,336H64V176h64V336z"/>
			</g>
		</g>
		<g id="Group_4743">
			<g id="Group_4742">
				<rect id="Rectangle_791" x="80" y="384" class="st0" width="64" height="16"/>
			</g>
		</g>
		<g id="Group_4745">
			<g id="Group_4744">
				<rect id="Rectangle_792" x="48" y="416" class="st0" width="96" height="16"/>
			</g>
		</g>
		<g id="Group_4747">
			<g id="Group_4746">
				<rect id="Rectangle_793" x="48" y="384" class="st0" width="16" height="16"/>
			</g>
		</g>
		<g id="Group_4749">
			<g id="Group_4748">
				<path id="Path_2201" class="st0" d="M280,160h-80c-4.4,0-8,3.6-8,8v176c0,4.4,3.6,8,8,8h80c4.4,0,8-3.6,8-8V168
					C288,163.6,284.4,160,280,160z M272,336h-64V176h64V336z"/>
			</g>
		</g>
		<g id="Group_4751">
			<g id="Group_4750">
				<rect id="Rectangle_794" x="192" y="384" class="st0" width="64" height="16"/>
			</g>
		</g>
		<g id="Group_4753">
			<g id="Group_4752">
				<rect id="Rectangle_795" x="192" y="416" class="st0" width="96" height="16"/>
			</g>
		</g>
		<g id="Group_4755">
			<g id="Group_4754">
				<rect id="Rectangle_796" x="272" y="384" class="st0" width="16" height="16"/>
			</g>
		</g>
		<g id="Group_4757">
			<g id="Group_4756">
				<path id="Path_2202" class="st0" d="M424,152h-80c-4.4,0-8,3.6-8,8v184c0,4.4,3.6,8,8,8h80c4.4,0,8-3.6,8-8V160
					C432,155.6,428.4,152,424,152z M416,336h-64V168h64V336z"/>
			</g>
		</g>
		<g id="Group_4759">
			<g id="Group_4758">
				<rect id="Rectangle_797" x="368" y="416" class="st0" width="64" height="16"/>
			</g>
		</g>
		<g id="Group_4761">
			<g id="Group_4760">
				<rect id="Rectangle_798" x="336" y="384" class="st0" width="96" height="16"/>
			</g>
		</g>
		<g id="Group_4763">
			<g id="Group_4762">
				<rect id="Rectangle_799" x="336" y="416" class="st0" width="16" height="16"/>
			</g>
		</g>
	</g>
</g>
</svg>
