<svg xmlns="http://www.w3.org/2000/svg" width="16.41" height="23" viewBox="0 0 16.41 23">
  <g id="download_1_" data-name="download (1)" transform="translate(-1.719)">
    <path id="Path_2290" data-name="Path 2290" d="M7.341,1.89a1.789,1.789,0,1,1-1.79,1.79,1.792,1.792,0,0,1,1.79-1.79m0-1.89a3.679,3.679,0,1,0,3.68,3.68A3.684,3.684,0,0,0,7.341,0" transform="translate(1.78)" fill="#384e64"/>
    <path id="Path_2291" data-name="Path 2291" d="M2.691,18.794a1.043,1.043,0,0,1-.945-1.07l-.026-6.3c0-3.769,3.321-6.833,7.4-6.833a7.462,7.462,0,0,1,6.855,4.325.946.946,0,1,1-1.739.745A5.545,5.545,0,0,0,9.121,6.478a5.256,5.256,0,0,0-5.512,4.939l.026,6.3a1.063,1.063,0,0,1-.941,1.078Z" transform="translate(0 4.206)" fill="#384e64"/>
    <path id="Path_2292" data-name="Path 2292" d="M14.014,11.171H6a.854.854,0,0,1-.945-.83A1.066,1.066,0,0,1,6,9.265h8.127a1.066,1.066,0,0,1,.945,1.076C15.072,10.863,14.649,11.171,14.014,11.171Z" transform="translate(3.057 8.493)" fill="#384e64"/>
    <path id="Path_2293" data-name="Path 2293" d="M8.006,15.29l-2.782-2.95a.937.937,0,0,1,0-1.295L8.006,8.094a.944.944,0,0,1,1.372,1.3l-2.168,2.3,2.168,2.3a.953.953,0,0,1-.038,1.334A.97.97,0,0,1,8.006,15.29Z" transform="translate(2.975 7.146)" fill="#384e64"/>
  </g>
</svg>
