<svg xmlns="http://www.w3.org/2000/svg" width="22.275" height="27" viewBox="0 0 22.275 27">
  <g id="download_4_" data-name="download (4)" transform="translate(-5.1 -3)">
    <g id="Group_4933" data-name="Group 4933" transform="translate(5.1 16.163)">
      <path id="Path_2303" data-name="Path 2303" d="M26.25,28.538H6.225A1.063,1.063,0,0,1,5.1,27.413V20.775A6.05,6.05,0,0,1,11.175,14.7H21.3a6.05,6.05,0,0,1,6.075,6.075v6.638A1.127,1.127,0,0,1,26.25,28.538Zm-18.9-2.25H25.125V20.775A3.793,3.793,0,0,0,21.3,16.95H11.175A3.793,3.793,0,0,0,7.35,20.775Z" transform="translate(-5.1 -14.7)" fill="#384e64"/>
    </g>
    <g id="Group_4934" data-name="Group 4934" transform="translate(10.275 3)">
      <path id="Path_2304" data-name="Path 2304" d="M15.662,14.813A6,6,0,0,1,9.7,8.85,5.906,5.906,0,0,1,15.662,3a6,6,0,0,1,5.963,5.963A5.906,5.906,0,0,1,15.662,14.813Zm0-9.563a3.713,3.713,0,1,0,3.713,3.713A3.745,3.745,0,0,0,15.662,5.25Z" transform="translate(-9.7 -3)" fill="#384e64"/>
    </g>
    <g id="Group_4935" data-name="Group 4935" transform="translate(10.079 16.304)">
      <path id="Path_2305" data-name="Path 2305" d="M15.684,23.8a1.023,1.023,0,0,1-.9-.45L9.722,16.6a1.21,1.21,0,0,1,.225-1.575,1.21,1.21,0,0,1,1.575.225l4.163,5.625,4.163-5.625a1.125,1.125,0,0,1,1.8,1.35l-5.062,6.75a1.389,1.389,0,0,1-.9.45Z" transform="translate(-9.526 -14.826)" fill="#384e64"/>
    </g>
  </g>
</svg>
