<svg xmlns="http://www.w3.org/2000/svg" width="15.4" height="19.2" viewBox="0 0 15.4 19.2">
  <g id="Group_4878" data-name="Group 4878" transform="translate(0.65 1.65)">
    <path id="Path_2250" data-name="Path 2250" d="M91.1,8.141A3.939,3.939,0,0,0,93.98,6.949a3.938,3.938,0,0,0,1.192-2.878A3.939,3.939,0,0,0,93.98,1.192a4.07,4.07,0,0,0-5.756,0,3.939,3.939,0,0,0-1.193,2.878,3.939,3.939,0,0,0,1.193,2.878A3.94,3.94,0,0,0,91.1,8.141Zm0,0" transform="translate(-84.159 -1)" fill="none" stroke="#6d8295" stroke-width="1.3"/>
    <path id="Path_2251" data-name="Path 2251" d="M14.066,252.148a10.054,10.054,0,0,0-.137-1.068,8.415,8.415,0,0,0-.263-1.074,5.3,5.3,0,0,0-.441-1,3.779,3.779,0,0,0-.666-.867,2.934,2.934,0,0,0-.956-.6,3.3,3.3,0,0,0-1.221-.221,1.239,1.239,0,0,0-.662.281c-.2.129-.43.279-.689.444a3.95,3.95,0,0,1-.892.393,3.463,3.463,0,0,1-2.181,0,3.939,3.939,0,0,1-.891-.393c-.256-.164-.489-.313-.69-.445a1.237,1.237,0,0,0-.661-.281,3.3,3.3,0,0,0-1.22.221,2.932,2.932,0,0,0-.956.6,3.779,3.779,0,0,0-.665.867,5.314,5.314,0,0,0-.441,1,8.434,8.434,0,0,0-.263,1.074,10.02,10.02,0,0,0-.137,1.068c-.022.323-.034.659-.034,1a2.806,2.806,0,0,0,.833,2.123,3,3,0,0,0,2.148.783h8.138a3,3,0,0,0,2.148-.783,2.8,2.8,0,0,0,.834-2.123c0-.341-.012-.676-.034-1Zm0,0" transform="translate(0 -239.153)" fill="none" stroke="#6d8295" stroke-width="1.3"/>
  </g>
</svg>
