<svg xmlns="http://www.w3.org/2000/svg" width="16.031" height="16.03" viewBox="0 0 16.031 16.03">
  <g id="Group_4614" data-name="Group 4614" transform="translate(-176 -1665)">
    <path id="Path_629" data-name="Path 629" d="M64.5,237.34h1.67a.5.5,0,0,0,.5-.5v-1.67a.5.5,0,0,0-.5-.5H64.5a.5.5,0,0,0-.5.5v1.67A.5.5,0,0,0,64.5,237.34Zm0,0" transform="translate(114.004 1437.681)" fill="#1673a7"/>
    <path id="Path_630" data-name="Path 630" d="M64.5,365.34h1.67a.5.5,0,0,0,.5-.5v-1.67a.5.5,0,0,0-.5-.5H64.5a.5.5,0,0,0-.5.5v1.67A.5.5,0,0,0,64.5,365.34Zm0,0" transform="translate(114.004 1313.69)" fill="#1673a7"/>
    <path id="Path_631" data-name="Path 631" d="M213.833,237.34h1.67a.5.5,0,0,0,.5-.5v-1.67a.5.5,0,0,0-.5-.5h-1.67a.5.5,0,0,0-.5.5v1.67A.5.5,0,0,0,213.833,237.34Zm0,0" transform="translate(-30.651 1437.681)" fill="#1673a7"/>
    <path id="Path_632" data-name="Path 632" d="M213.833,365.34h1.67a.5.5,0,0,0,.5-.5v-1.67a.5.5,0,0,0-.5-.5h-1.67a.5.5,0,0,0-.5.5v1.67A.5.5,0,0,0,213.833,365.34Zm0,0" transform="translate(-30.651 1313.69)" fill="#1673a7"/>
    <path id="Path_635" data-name="Path 635" d="M213.833,365.34h1.67a.5.5,0,0,0,.5-.5v-1.67a.5.5,0,0,0-.5-.5h-1.67a.5.5,0,0,0-.5.5v1.67A.5.5,0,0,0,213.833,365.34Zm0,0" transform="translate(-26.025 1313.69)" fill="#1673a7"/>
    <path id="Path_633" data-name="Path 633" d="M363.169,237.34h1.67a.5.5,0,0,0,.5-.5v-1.67a.5.5,0,0,0-.5-.5h-1.67a.5.5,0,0,0-.5.5v1.67A.5.5,0,0,0,363.169,237.34Zm0,0" transform="translate(-175.31 1437.681)" fill="#1673a7"/>
    <path id="Path_634" data-name="Path 634" d="M14.031,2h-.668V.668A.668.668,0,0,0,12.694,0h-.668a.668.668,0,0,0-.668.668V2H4.677V.668A.668.668,0,0,0,4.009,0H3.341a.668.668,0,0,0-.668.668V2H2A2.007,2.007,0,0,0,0,4V14.03a2.007,2.007,0,0,0,2,2H14.031a2.007,2.007,0,0,0,2-2V4.009a2.007,2.007,0,0,0-2-2ZM14.7,14.03a.669.669,0,0,1-.668.668H2a.669.669,0,0,1-.668-.668V6.708H14.7Zm0,0" transform="translate(176 1665)" fill="#1673a7"/>
  </g>
</svg>
