<svg xmlns="http://www.w3.org/2000/svg" width="124" height="124" viewBox="0 0 124 124">
  <path id="Exclusion_6" data-name="Exclusion 6" d="M62,124A62.016,62.016,0,0,1,37.867,4.872,62.016,62.016,0,0,1,86.133,119.128,61.611,61.611,0,0,1,62,124ZM30.011,28A2.014,2.014,0,0,0,28,30.011V94.655c0,1.1,1.9,2.174,3,2.174,1.063,0,3.315-1.028,3.315-2.174V33.571H53.857v22.3c0,1.138,2.29,2.16,3.371,2.16,1.118,0,2.972-1.046,2.972-2.16v-22.3H81.726c1.062,0,1.959-1.23,1.959-2.686,0-1.362-.838-2.885-1.959-2.885Zm14.3,12.928c-1.144,0-3.386.911-3.386,2.012V94.655a2.014,2.014,0,0,0,2.012,2.012H94.655a2.014,2.014,0,0,0,2.012-2.012V30.011C96.666,28.9,94.932,28,93.8,28c-1.158,0-3.428.911-3.428,2.011V40.928H68.8a2.014,2.014,0,0,0-2.012,2.012V55.868c0,1.739.39,2.98,1.129,3.588H81.726c1.148,0,2.011-1.629,2.011-2.686,0-1.124-.921-2.914-2.011-2.914h-9.24V44.951H90.372V77.971h-34.5c-1.1,0-2.012,2.195-2.012,3.315s.9,2.452,2.012,2.452h34.5v8.906H47.457V72.371H81.726c1.11,0,2.011-1.729,2.011-2.857,0-1.073-.864-2.729-2.011-2.729H47.457V42.94C47.457,41.8,45.362,40.928,44.314,40.928Z" fill="#1673a7"/>
</svg>
