<svg xmlns="http://www.w3.org/2000/svg" xmlns:xlink="http://www.w3.org/1999/xlink" width="369" height="257" viewBox="0 0 369 257">
  <defs>
    <clipPath id="clip-path">
      <rect id="Rectangle_717" data-name="Rectangle 717" width="369" height="257" transform="translate(-1499 2244)" fill="none" stroke="#707070" stroke-width="1"/>
    </clipPath>
  </defs>
  <g id="Mask_Group_13" data-name="Mask Group 13" transform="translate(1499 -2244)" clip-path="url(#clip-path)">
    <g id="Group_4617" data-name="Group 4617">
      <g id="Group_4616" data-name="Group 4616" transform="translate(-2500 929)">
        <rect id="Rectangle_715" data-name="Rectangle 715" width="369" height="257" transform="translate(1001 1315)" fill="#efa522"/>
        <circle id="Ellipse_66" data-name="Ellipse 66" cx="177" cy="177" r="177" transform="translate(1073 1266)" fill="#ffb229"/>
        <ellipse id="Ellipse_67" data-name="Ellipse 67" cx="131.5" cy="131" rx="131.5" ry="131" transform="translate(1119 1312)" fill="#ffbf4e"/>
        <ellipse id="Ellipse_68" data-name="Ellipse 68" cx="93.5" cy="94" rx="93.5" ry="94" transform="translate(1157 1349)" fill="#ffce78"/>
        <g id="Rectangle_716" data-name="Rectangle 716" transform="translate(1320 1352)" fill="none" stroke="#fff" stroke-width="2" opacity="0.41">
          <rect width="18" height="18" rx="5" stroke="none"/>
          <rect x="1" y="1" width="16" height="16" rx="4" fill="none"/>
        </g>
        <g id="Ellipse_69" data-name="Ellipse 69" transform="translate(1343 1476)" fill="none" stroke="#fff" stroke-width="2" opacity="0.41">
          <circle cx="9.5" cy="9.5" r="9.5" stroke="none"/>
          <circle cx="9.5" cy="9.5" r="8.5" fill="none"/>
        </g>
        <g id="Ellipse_70" data-name="Ellipse 70" transform="translate(1173 1366)" fill="none" stroke="#fff" stroke-width="2" opacity="0.41">
          <ellipse cx="77.5" cy="77" rx="77.5" ry="77" stroke="none"/>
          <ellipse cx="77.5" cy="77" rx="76.5" ry="76" fill="none"/>
        </g>
        <g id="Polygon_4" data-name="Polygon 4" transform="translate(1275 1378)" fill="none" opacity="0.41">
          <path d="M7.909,4.442a3,3,0,0,1,5.183,0l5.277,9.046A3,3,0,0,1,15.777,18H5.223a3,3,0,0,1-2.591-4.512Z" stroke="none"/>
          <path d="M 10.50000095367432 4.95390796661377 C 10.32730102539063 4.95390796661377 9.897420883178711 5.00224781036377 9.636220932006836 5.450027465820313 L 4.359331130981445 14.49612808227539 C 4.096090316772461 14.94739723205566 4.269281387329102 15.34713745117188 4.355960845947266 15.49805736541748 C 4.442651748657227 15.64897727966309 4.70067024230957 15.99999809265137 5.223111152648926 15.99999809265137 L 15.77689075469971 15.99999809265137 C 16.29933166503906 15.99999809265137 16.55735015869141 15.64897727966309 16.6440315246582 15.49805736541748 C 16.73071098327637 15.34713745117188 16.90391159057617 14.94739723205566 16.64067077636719 14.49612808227539 L 11.3637809753418 5.450027465820313 C 11.10258102416992 5.00224781036377 10.67270088195801 4.95390796661377 10.50000095367432 4.95390796661377 M 10.50000095367432 2.95390510559082 C 11.50626087188721 2.95390510559082 12.5125207901001 3.450033187866211 13.09134101867676 4.442287445068359 L 18.36823081970215 13.48838806152344 C 19.53487014770508 15.48835754394531 18.09226036071777 17.99999809265137 15.77689075469971 17.99999809265137 L 5.223111152648926 17.99999809265137 C 2.907741546630859 17.99999809265137 1.465120315551758 15.48835754394531 2.631771087646484 13.48838806152344 L 7.908660888671875 4.442287445068359 C 8.487481117248535 3.450033187866211 9.493741035461426 2.95390510559082 10.50000095367432 2.95390510559082 Z" stroke="none" fill="#fff"/>
        </g>
        <g id="Ellipse_71" data-name="Ellipse 71" transform="translate(1184 1496)" fill="none" stroke="#fff" stroke-width="2" opacity="0.41">
          <circle cx="5.5" cy="5.5" r="5.5" stroke="none"/>
          <circle cx="5.5" cy="5.5" r="4.5" fill="none"/>
        </g>
        <g id="Ellipse_72" data-name="Ellipse 72" transform="translate(1163 1354)" fill="none" stroke="#fff" stroke-width="2" opacity="0.41">
          <circle cx="7.5" cy="7.5" r="7.5" stroke="none"/>
          <circle cx="7.5" cy="7.5" r="6.5" fill="none"/>
        </g>
        <g id="Polygon_5" data-name="Polygon 5" transform="translate(1128 1438)" fill="none" opacity="0.41">
          <path d="M7.909,4.442a3,3,0,0,1,5.183,0l5.277,9.046A3,3,0,0,1,15.777,18H5.223a3,3,0,0,1-2.591-4.512Z" stroke="none"/>
          <path d="M 10.50000095367432 4.95390796661377 C 10.32730102539063 4.95390796661377 9.897420883178711 5.00224781036377 9.636220932006836 5.450027465820313 L 4.359331130981445 14.49612808227539 C 4.096090316772461 14.94739723205566 4.269281387329102 15.34713745117188 4.355960845947266 15.49805736541748 C 4.442651748657227 15.64897727966309 4.70067024230957 15.99999809265137 5.223111152648926 15.99999809265137 L 15.77689075469971 15.99999809265137 C 16.29933166503906 15.99999809265137 16.55735015869141 15.64897727966309 16.6440315246582 15.49805736541748 C 16.73071098327637 15.34713745117188 16.90391159057617 14.94739723205566 16.64067077636719 14.49612808227539 L 11.3637809753418 5.450027465820313 C 11.10258102416992 5.00224781036377 10.67270088195801 4.95390796661377 10.50000095367432 4.95390796661377 M 10.50000095367432 2.95390510559082 C 11.50626087188721 2.95390510559082 12.5125207901001 3.450033187866211 13.09134101867676 4.442287445068359 L 18.36823081970215 13.48838806152344 C 19.53487014770508 15.48835754394531 18.09226036071777 17.99999809265137 15.77689075469971 17.99999809265137 L 5.223111152648926 17.99999809265137 C 2.907741546630859 17.99999809265137 1.465120315551758 15.48835754394531 2.631771087646484 13.48838806152344 L 7.908660888671875 4.442287445068359 C 8.487481117248535 3.450033187866211 9.493741035461426 2.95390510559082 10.50000095367432 2.95390510559082 Z" stroke="none" fill="#fff"/>
        </g>
      </g>
      <g id="labyrinth" transform="translate(-1293 2335)">
        <path id="Path_2085" data-name="Path 2085" d="M154.7,0a2.183,2.183,0,0,0-2.183,2.183V14.03H126.643a2.183,2.183,0,0,0-2.183,2.183V30.245a2.183,2.183,0,0,0,2.183,2.183h14.031a2.183,2.183,0,0,0,0-4.366H128.826V18.4h23.7V56.123H112.612a2.183,2.183,0,0,0,0,4.366h39.909v9.664H100.764v-23.7h39.909a2.183,2.183,0,0,0,0-4.366H100.764V16.213a2.183,2.183,0,0,0-4.366,0V72.337a2.183,2.183,0,0,0,2.183,2.183H154.7a2.183,2.183,0,0,0,2.183-2.183V2.183A2.183,2.183,0,0,0,154.7,0Zm0,0" transform="translate(-82.368)" fill="#fff"/>
        <path id="Path_2086" data-name="Path 2086" d="M28.062,30.245a2.183,2.183,0,0,0,4.366,0V4.366H58.306a2.183,2.183,0,0,0,0-4.366H2.183A2.183,2.183,0,0,0,0,2.183V72.337a2.183,2.183,0,1,0,4.366,0V4.366h23.7Zm0,0" transform="translate(0 0)" fill="#fff"/>
      </g>
    </g>
  </g>
</svg>
