<svg xmlns="http://www.w3.org/2000/svg" width="30.811" height="27.2" viewBox="0 0 30.811 27.2">
  <g id="Group_2852" data-name="Group 2852" transform="translate(-966 -23)">
    <path id="Path_495" data-name="Path 495" d="M29.856,17.54,20.77,2.977a6.32,6.32,0,0,0-10.728,0L.955,17.54A6.32,6.32,0,0,0,6.319,27.2H24.492a6.32,6.32,0,0,0,5.364-9.66Zm-5.364,7.854H6.319a4.514,4.514,0,0,1-3.832-6.9L11.573,3.933a4.515,4.515,0,0,1,7.665,0L28.325,18.5a4.514,4.514,0,0,1-3.832,6.9Zm0,0" transform="translate(966 23)" fill="#364f6b"/>
    <path id="Path_496" data-name="Path 496" d="M74.1,61.278a2.71,2.71,0,0,0-4.6,0L60.407,75.841a2.709,2.709,0,0,0,2.3,4.138H80.881a2.709,2.709,0,0,0,2.3-4.138Zm-1.4,15.03H70.892V74.5H72.7Zm0-3.611H70.892V66.319H72.7Zm0,0" transform="translate(909.611 -33.389)" fill="#364f6b"/>
  </g>
</svg>
