<svg id="labyrinth" xmlns="http://www.w3.org/2000/svg" width="253.177" height="253.194" viewBox="0 0 253.177 253.194">
  <path id="Path_2085" data-name="Path 2085" d="M294.489,0a7.417,7.417,0,0,0-7.417,7.417V47.669H199.16a7.417,7.417,0,0,0-7.417,7.417v47.676a7.417,7.417,0,0,0,7.417,7.417h47.673a7.417,7.417,0,0,0,0-14.834H206.578V62.517H287.1v128.17H151.488a7.417,7.417,0,0,0,0,14.834h135.6v32.835H111.232V157.832h135.6a7.417,7.417,0,1,0,0-14.834h-135.6V55.086a7.417,7.417,0,1,0-14.834,0V245.777a7.417,7.417,0,0,0,7.417,7.417H294.489a7.417,7.417,0,0,0,7.417-7.417V7.417A7.417,7.417,0,0,0,294.489,0Zm0,0" transform="translate(-48.729)" fill="#1673a7"/>
  <path id="Path_2086" data-name="Path 2086" d="M95.345,102.762a7.417,7.417,0,1,0,14.834,0V14.834H198.1A7.417,7.417,0,0,0,198.1,0H7.417A7.417,7.417,0,0,0,0,7.417v238.36a7.417,7.417,0,0,0,14.834,0V14.834H95.359Zm0,0" fill="#1673a7"/>
</svg>
