<svg id="labyrinth" xmlns="http://www.w3.org/2000/svg" width="169.789" height="169.801" viewBox="0 0 169.789 169.801">
  <path id="Path_2085" data-name="Path 2085" d="M229.244,0a4.974,4.974,0,0,0-4.974,4.974V31.969H165.314a4.974,4.974,0,0,0-4.974,4.974V68.916a4.974,4.974,0,0,0,4.974,4.974h31.971a4.974,4.974,0,1,0,0-9.948h-27V41.926h54v85.955H133.343a4.974,4.974,0,1,0,0,9.948h90.936v22.02H106.346v-54h90.936a4.974,4.974,0,1,0,0-9.948H106.346V36.943a4.974,4.974,0,1,0-9.948,0V164.826a4.974,4.974,0,0,0,4.974,4.974H229.244a4.974,4.974,0,0,0,4.974-4.974V4.974A4.974,4.974,0,0,0,229.244,0Zm0,0" transform="translate(-64.429)" fill="#1673a7"/>
  <path id="Path_2086" data-name="Path 2086" d="M63.942,68.916a4.974,4.974,0,0,0,9.948,0V9.948h58.965a4.974,4.974,0,1,0,0-9.948H4.974A4.974,4.974,0,0,0,0,4.974V164.826a4.974,4.974,0,0,0,9.948,0V9.948h54Zm0,0" fill="#1673a7"/>
</svg>
