<svg xmlns="http://www.w3.org/2000/svg" width="19.399" height="24.3" viewBox="0 0 19.399 24.3">
  <g id="download" transform="translate(-13.08 -3.35)">
    <g id="Group_4808" data-name="Group 4808" transform="translate(13.73 4)">
      <path id="Path_2285" data-name="Path 2285" d="M42.235,9.115a3.618,3.618,0,0,1-3.618,3.618h0A3.618,3.618,0,0,1,35,9.115v-1.5A3.618,3.618,0,0,1,38.618,4h0a3.618,3.618,0,0,1,3.618,3.618Z" transform="translate(-29.693 -4)" fill="none" stroke="#384e64" stroke-miterlimit="10" stroke-width="1.3"/>
      <path id="Path_2286" data-name="Path 2286" d="M27.02,54.816h4.808s-.016-.815-.026-.973c-.275-4.265-4.215-7.4-9.029-7.4h0c-4.992,0-9.021,3.632-9.021,8.372h4.784" transform="translate(-13.73 -35.855)" fill="none" stroke="#384e64" stroke-linecap="round" stroke-linejoin="round" stroke-miterlimit="10" stroke-width="1.3"/>
    </g>
    <circle id="Ellipse_237" data-name="Ellipse 237" cx="4.189" cy="4.189" r="4.189" transform="translate(18.6 18.622)" fill="none" stroke="#384e64" stroke-linecap="round" stroke-linejoin="round" stroke-miterlimit="10" stroke-width="1.3"/>
    <path id="Path_2287" data-name="Path 2287" d="M45.745,70.138,42.9,72.94l-.01,1.426,1.4.01,2.858-2.817Z" transform="translate(-21.886 -49.637)" fill="none" stroke="#384e64" stroke-linecap="round" stroke-linejoin="round" stroke-miterlimit="10" stroke-width="1.3"/>
  </g>
</svg>
