<svg xmlns="http://www.w3.org/2000/svg" width="784" height="753.607" viewBox="0 0 784 753.607">
  <g id="business-affiliate-network_1_" data-name="business-affiliate-network (1)" transform="translate(0 -0.911)">
    <g id="Layer_1_110_" transform="translate(0 0.911)">
      <g id="Group_2475" data-name="Group 2475">
        <path id="Path_1173" data-name="Path 1173" d="M186.967,156.6l-47.691-45.072a69.888,69.888,0,0,0,8.991-33.845,71.21,71.21,0,1,0-33.328,59.834l47.624,45.022A161.986,161.986,0,0,1,186.967,156.6Z" transform="translate(106.065 94.068)" fill="#1673a7"/>
        <path id="Path_1174" data-name="Path 1174" d="M58.372,245.936,121.742,139.3A69.943,69.943,0,1,0,91,121.347l-63.17,106.34A158.26,158.26,0,0,1,58.372,245.936Z" transform="translate(436.382 -0.911)" fill="#1673a7"/>
        <path id="Path_1175" data-name="Path 1175" d="M190.993,20.952A70.665,70.665,0,0,0,124.8,67.241L36.762,58.551c0,.667.1,1.3.1,1.952a162.123,162.123,0,0,1-3.553,33.512l88.008,8.691a70.626,70.626,0,1,0,69.676-81.753Z" transform="translate(522.314 313.349)" fill="#1673a7"/>
        <path id="Path_1176" data-name="Path 1176" d="M96.722,118.474,77.039,32.468a161.173,161.173,0,0,1-34.73,8.023l19.717,86.023c-22.6,11.827-38.2,35.2-38.2,62.486a70.735,70.735,0,1,0,72.9-70.527Z" transform="translate(373.628 493.93)" fill="#1673a7"/>
        <path id="Path_1177" data-name="Path 1177" d="M239.487,25.37,129.894,62.085a70.6,70.6,0,1,0,11.577,38.583c0-1.635-.35-3.136-.484-4.737L250.93,59.115A161.511,161.511,0,0,1,239.487,25.37Z" transform="translate(0 382.627)" fill="#1673a7"/>
        <circle id="Ellipse_144" data-name="Ellipse 144" cx="121.286" cy="121.286" r="121.286" transform="translate(276.218 252.565)" fill="#1673a7"/>
      </g>
    </g>
  </g>
</svg>
