<svg id="Group_2931" data-name="Group 2931" xmlns="http://www.w3.org/2000/svg" width="44.6" height="44.6" viewBox="0 0 44.6 44.6">
  <path id="Path_955" data-name="Path 955" d="M241.219,332.46a2.973,2.973,0,0,1-2.973,2.973h-17.84a2.974,2.974,0,0,1-2.973-2.973v-1.487A2.973,2.973,0,0,1,220.405,328h17.84a2.973,2.973,0,0,1,2.973,2.973Z" transform="translate(-197.229 -297.523)" fill="#f5ba46"/>
  <path id="Path_956" data-name="Path 956" d="M233.273,323.717A3.717,3.717,0,0,0,229.557,320h-17.84A3.717,3.717,0,0,0,208,323.717V325.2a3.717,3.717,0,0,0,3.717,3.717h17.84a3.717,3.717,0,0,0,3.717-3.717Zm-1.487,1.487A2.407,2.407,0,0,1,230.3,327.3V325.2a.743.743,0,1,0-1.487,0v2.23h-1.487V325.2a.743.743,0,1,0-1.487,0v2.23h-1.487V325.2a.743.743,0,1,0-1.487,0v2.23H221.38V325.2a.743.743,0,1,0-1.487,0v2.23h-1.487V325.2a.743.743,0,1,0-1.487,0v2.23h-1.487V325.2a.743.743,0,1,0-1.487,0v2.23H212.46V325.2a.743.743,0,1,0-1.487,0V327.3a2.407,2.407,0,0,1-1.487-2.093v-1.487a2.35,2.35,0,0,1,2.363-2.23h17.84a2.123,2.123,0,0,1,2.1,2.23Z" transform="translate(-188.673 -290.267)" fill="#232323"/>
  <path id="Path_957" data-name="Path 957" d="M239.787,12.46a2.973,2.973,0,0,1-2.973,2.973h-17.84A2.973,2.973,0,0,1,216,12.46V10.973A2.973,2.973,0,0,1,218.973,8h17.84a2.973,2.973,0,0,1,2.973,2.973Z" transform="translate(-195.93 -7.257)" fill="#f5ba46"/>
  <path id="Path_958" data-name="Path 958" d="M229.557,0h-17.84A3.721,3.721,0,0,0,208,3.717V5.2a3.721,3.721,0,0,0,3.717,3.717h17.84A3.721,3.721,0,0,0,233.273,5.2V3.717A3.721,3.721,0,0,0,229.557,0Zm2.23,5.2A2.227,2.227,0,0,1,230.3,7.3V5.2a.743.743,0,0,0-1.487,0v2.23h-1.487V5.2a.743.743,0,0,0-1.487,0v2.23h-1.487V5.2a.743.743,0,0,0-1.487,0v2.23H221.38V5.2a.743.743,0,0,0-1.487,0v2.23h-1.487V5.2a.743.743,0,1,0-1.487,0v2.23h-1.487V5.2a.743.743,0,0,0-1.487,0v2.23H212.46V5.2a.743.743,0,0,0-1.487,0V7.3A2.227,2.227,0,0,1,209.487,5.2V3.717a2.233,2.233,0,0,1,2.23-2.23h17.84a2.233,2.233,0,0,1,2.23,2.23Z" transform="translate(-188.673)" fill="#232323"/>
  <path id="Path_959" data-name="Path 959" d="M239.787,172.46a2.973,2.973,0,0,1-2.973,2.973h-17.84A2.973,2.973,0,0,1,216,172.46v-1.487A2.973,2.973,0,0,1,218.973,168h17.84a2.973,2.973,0,0,1,2.973,2.973Z" transform="translate(-195.93 -152.39)" fill="#f5ba46"/>
  <path id="Path_960" data-name="Path 960" d="M229.557,160h-17.84A3.721,3.721,0,0,0,208,163.717V165.2a3.721,3.721,0,0,0,3.717,3.717h17.84a3.721,3.721,0,0,0,3.717-3.717v-1.487A3.721,3.721,0,0,0,229.557,160Zm2.23,5.2A2.227,2.227,0,0,1,230.3,167.3V165.2a.743.743,0,1,0-1.487,0v2.23h-1.487V165.2a.743.743,0,1,0-1.487,0v2.23h-1.487V165.2a.743.743,0,0,0-1.487,0v2.23H221.38V165.2a.743.743,0,0,0-1.487,0v2.23h-1.487V165.2a.743.743,0,1,0-1.487,0v2.23h-1.487V165.2a.743.743,0,1,0-1.487,0v2.23H212.46V165.2a.743.743,0,1,0-1.487,0V167.3a2.227,2.227,0,0,1-1.487-2.093v-1.487a2.233,2.233,0,0,1,2.23-2.23h17.84a2.233,2.233,0,0,1,2.23,2.23Z" transform="translate(-188.673 -145.133)" fill="#232323"/>
  <path id="Path_961" data-name="Path 961" d="M191.787,92.46a2.973,2.973,0,0,1-2.973,2.973h-17.84A2.973,2.973,0,0,1,168,92.46V90.973A2.973,2.973,0,0,1,170.973,88h17.84a2.973,2.973,0,0,1,2.973,2.973Z" transform="translate(-152.39 -79.823)" fill="#f5ba46"/>
  <path id="Path_962" data-name="Path 962" d="M181.557,80h-17.84A3.721,3.721,0,0,0,160,83.717V85.2a3.721,3.721,0,0,0,3.717,3.717h17.84a3.721,3.721,0,0,0,3.717-3.717V83.717A3.721,3.721,0,0,0,181.557,80Zm2.23,5.2A2.227,2.227,0,0,1,182.3,87.3V85.2a.743.743,0,1,0-1.487,0v2.23h-1.487V85.2a.743.743,0,0,0-1.487,0v2.23h-1.487V85.2a.743.743,0,1,0-1.487,0v2.23H173.38V85.2a.743.743,0,0,0-1.487,0v2.23h-1.487V85.2a.743.743,0,1,0-1.487,0v2.23h-1.487V85.2a.743.743,0,0,0-1.487,0v2.23H164.46V85.2a.743.743,0,1,0-1.487,0V87.3a2.227,2.227,0,0,1-1.487-2.093V83.717a2.233,2.233,0,0,1,2.23-2.23h17.84a2.233,2.233,0,0,1,2.23,2.23Z" transform="translate(-145.133 -72.567)" fill="#232323"/>
  <path id="Path_963" data-name="Path 963" d="M193.219,252.46a2.973,2.973,0,0,1-2.973,2.973h-17.84a2.973,2.973,0,0,1-2.973-2.973v-1.487A2.973,2.973,0,0,1,172.405,248h17.84a2.973,2.973,0,0,1,2.973,2.973Z" transform="translate(-153.689 -224.957)" fill="#f5ba46"/>
  <path id="Path_964" data-name="Path 964" d="M185.273,243.717A3.717,3.717,0,0,0,181.557,240h-17.84A3.717,3.717,0,0,0,160,243.717V245.2a3.717,3.717,0,0,0,3.717,3.717h17.84a3.717,3.717,0,0,0,3.717-3.717Zm-1.487,1.487A2.407,2.407,0,0,1,182.3,247.3V245.2a.743.743,0,1,0-1.487,0v2.23h-1.487V245.2a.743.743,0,1,0-1.487,0v2.23h-1.487V245.2a.743.743,0,1,0-1.487,0v2.23H173.38V245.2a.743.743,0,1,0-1.487,0v2.23h-1.487V245.2a.743.743,0,1,0-1.487,0v2.23h-1.487V245.2a.743.743,0,1,0-1.487,0v2.23H164.46V245.2a.743.743,0,1,0-1.487,0V247.3a2.407,2.407,0,0,1-1.487-2.093v-1.487a2.35,2.35,0,0,1,2.363-2.23h17.84a2.123,2.123,0,0,1,2.1,2.23Z" transform="translate(-145.133 -217.7)" fill="#232323"/>
  <ellipse id="Ellipse_32" data-name="Ellipse 32" cx="15.212" cy="15.144" rx="15.212" ry="15.144" transform="translate(0.743 13.569)" fill="#f5ba46"/>
  <path id="Path_965" data-name="Path 965" d="M15.955,169.8A15.888,15.888,0,1,1,31.91,153.911,15.94,15.94,0,0,1,15.955,169.8Zm0-30.289a14.4,14.4,0,1,0,14.468,14.4A14.451,14.451,0,0,0,15.955,139.511Z" transform="translate(0 -125.199)" fill="#232323"/>
  <circle id="Ellipse_33" data-name="Ellipse 33" cx="9.73" cy="9.73" r="9.73" transform="translate(6.08 19.194)" fill="#f9d690"/>
  <path id="Path_966" data-name="Path 966" d="M67.928,219.536A10.472,10.472,0,1,1,78.4,209.064,10.484,10.484,0,0,1,67.928,219.536Zm0-19.458a8.986,8.986,0,1,0,8.985,8.986A9,9,0,0,0,67.928,200.078Z" transform="translate(-52.117 -180.14)" fill="#232323"/>
  <path id="Path_967" data-name="Path 967" d="M147.749,262.793a.744.744,0,0,1-.743-.743v-7.384l-1.006,1.1a.743.743,0,0,1-1.095-1.006l2.3-2.5a.744.744,0,0,1,1.291.5v9.29A.744.744,0,0,1,147.749,262.793Z" transform="translate(-131.263 -228.6)" fill="#232323"/>
  <ellipse id="Ellipse_34" data-name="Ellipse 34" cx="0.925" cy="0.462" rx="0.925" ry="0.462" transform="translate(10.171 27.957)" fill="#232323"/>
  <circle id="Ellipse_35" data-name="Ellipse 35" cx="0.462" cy="0.462" r="0.462" transform="translate(19.417 27.957)" fill="#232323"/>
  <path id="Path_968" data-name="Path 968" d="M139.717,1.487h-.743V.743a.743.743,0,1,0-1.487,0v.743h-.743a.743.743,0,1,0,0,1.487h.743v.743a.743.743,0,1,0,1.487,0V2.973h.743a.743.743,0,0,0,0-1.487Z" transform="translate(-123.363)" fill="#232323"/>
  <path id="Path_969" data-name="Path 969" d="M48.743,27.271A.744.744,0,0,1,48,26.527V24.743a.743.743,0,0,1,1.487,0v1.784A.744.744,0,0,1,48.743,27.271Z" transform="translate(-43.54 -21.77)" fill="#232323"/>
  <path id="Path_970" data-name="Path 970" d="M48.743,99.271A.744.744,0,0,1,48,98.527V96.743a.743.743,0,0,1,1.487,0v1.784A.744.744,0,0,1,48.743,99.271Z" transform="translate(-43.54 -87.08)" fill="#232323"/>
  <path id="Path_971" data-name="Path 971" d="M82.379,73.487H80.743a.743.743,0,1,1,0-1.487h1.635a.743.743,0,0,1,0,1.487Z" transform="translate(-72.567 -65.31)" fill="#232323"/>
  <path id="Path_972" data-name="Path 972" d="M2.379,73.487H.743A.743.743,0,0,1,.743,72H2.379a.743.743,0,0,1,0,1.487Z" transform="translate(0 -65.31)" fill="#232323"/>
  <path id="Path_973" data-name="Path 973" d="M72.566,93.176a.742.742,0,0,1-.549-.241l-1.157-1.261a.743.743,0,1,1,1.1-1l1.157,1.261a.743.743,0,0,1-.548,1.245Z" transform="translate(-64.099 -82.026)" fill="#232323"/>
  <path id="Path_974" data-name="Path 974" d="M13.453,38.864a.742.742,0,0,1-.549-.241l-1.156-1.262a.743.743,0,0,1,1.1-1L14,37.619a.744.744,0,0,1-.549,1.246Z" transform="translate(-10.48 -32.76)" fill="#232323"/>
  <path id="Path_975" data-name="Path 975" d="M12.3,93.169a.744.744,0,0,1-.548-1.246l1.157-1.261a.743.743,0,1,1,1.1,1l-1.157,1.261A.742.742,0,0,1,12.3,93.169Z" transform="translate(-10.482 -82.019)" fill="#232323"/>
  <path id="Path_976" data-name="Path 976" d="M71.411,38.87a.744.744,0,0,1-.548-1.246l1.157-1.261a.743.743,0,1,1,1.1,1l-1.157,1.261A.737.737,0,0,1,71.411,38.87Z" transform="translate(-64.102 -32.766)" fill="#232323"/>
</svg>
