<svg xmlns="http://www.w3.org/2000/svg" width="511.999" height="434.318" viewBox="0 0 511.999 434.318">
  <g id="group" transform="translate(0 -38.84)">
    <g id="Group_4616" data-name="Group 4616">
      <g id="Group_4615" data-name="Group 4615">
        <path id="Path_2094" data-name="Path 2094" d="M438.09,273.32h-39.6a103,103,0,0,1,6.241,35.4v149.65a44.129,44.129,0,0,1-2.543,14.782h65.461A44.4,44.4,0,0,0,512,428.81V347.229A73.992,73.992,0,0,0,438.09,273.32Z" fill="#fff"/>
      </g>
    </g>
    <g id="Group_4618" data-name="Group 4618">
      <g id="Group_4617" data-name="Group 4617">
        <path id="Path_2095" data-name="Path 2095" d="M107.265,308.725a102.994,102.994,0,0,1,6.241-35.4H73.91A73.994,73.994,0,0,0,0,347.231v81.581a44.4,44.4,0,0,0,44.346,44.346h65.462a44.144,44.144,0,0,1-2.543-14.783Z" fill="#fff"/>
      </g>
    </g>
    <g id="Group_4620" data-name="Group 4620">
      <g id="Group_4619" data-name="Group 4619">
        <path id="Path_2096" data-name="Path 2096" d="M301.261,234.815H210.739a73.994,73.994,0,0,0-73.91,73.91v149.65a14.782,14.782,0,0,0,14.782,14.782H360.389a14.782,14.782,0,0,0,14.782-14.782V308.725A73.994,73.994,0,0,0,301.261,234.815Z" fill="#fff"/>
      </g>
    </g>
    <g id="Group_4622" data-name="Group 4622">
      <g id="Group_4621" data-name="Group 4621">
        <path id="Path_2097" data-name="Path 2097" d="M256,38.84a88.871,88.871,0,1,0,88.886,88.887A88.987,88.987,0,0,0,256,38.84Z" fill="#fff"/>
      </g>
    </g>
    <g id="Group_4624" data-name="Group 4624">
      <g id="Group_4623" data-name="Group 4623">
        <path id="Path_2098" data-name="Path 2098" d="M99.918,121.689a66.442,66.442,0,1,0,66.475,66.475A66.55,66.55,0,0,0,99.918,121.689Z" fill="#fff"/>
      </g>
    </g>
    <g id="Group_4626" data-name="Group 4626">
      <g id="Group_4625" data-name="Group 4625">
        <path id="Path_2099" data-name="Path 2099" d="M412.082,121.689a66.475,66.475,0,1,0,66.475,66.475A66.55,66.55,0,0,0,412.082,121.689Z" fill="#fff"/>
      </g>
    </g>
  </g>
</svg>
