<?xml version="1.0" encoding="utf-8"?>
<!-- Generator: Adobe Illustrator 23.1.0, SVG Export Plug-In . SVG Version: 6.00 Build 0)  -->
<svg version="1.1" id="Layer_1" xmlns="http://www.w3.org/2000/svg" xmlns:xlink="http://www.w3.org/1999/xlink" x="0px" y="0px"
	 viewBox="0 0 61 61" style="enable-background:new 0 0 61 61;" xml:space="preserve">
<style type="text/css">
	.st0{opacity:0.24;fill:#6599FF;enable-background:new    ;}
	.st1{fill:#6599FF;}
	.st2{fill:#FFFFFF;}
</style>
<path class="st0" d="M7,0h47c3.9,0,7,3.1,7,7v47c0,3.9-3.1,7-7,7H7c-3.9,0-7-3.1-7-7V7C0,3.1,3.1,0,7,0z"/>
<path class="st1" d="M30.3,12C20.2,12,12,20.2,12,30.3c0,10.1,8.2,18.3,18.3,18.3s18.3-8.2,18.3-18.3c0,0,0,0,0,0
	C48.5,20.2,40.3,12,30.3,12z"/>
<g>
	<path class="st2" d="M36.7,18.5H25c-2,0-3.5,1.6-3.5,3.5v2.4c-0.7,0-1.2,0.5-1.2,1.2c0,0.7,0.5,1.2,1.2,1.2v7.1
		c-0.7,0-1.2,0.5-1.2,1.2s0.5,1.2,1.2,1.2v2.4c0,2,1.6,3.5,3.5,3.5h11.8c2,0,3.5-1.6,3.5-3.5V22C40.3,20.1,38.7,18.5,36.7,18.5z
		 M37.9,38.5c0,0.7-0.5,1.2-1.2,1.2H25c-0.7,0-1.2-0.5-1.2-1.2v-2.4c0.7,0,1.2-0.5,1.2-1.2s-0.5-1.2-1.2-1.2v-7.1
		c0.7,0,1.2-0.5,1.2-1.2c0-0.7-0.5-1.2-1.2-1.2V22c0-0.7,0.5-1.2,1.2-1.2h11.8c0.7,0,1.2,0.5,1.2,1.2V38.5z"/>
	<path class="st2" d="M30.9,30.3c2,0,3.5-1.6,3.5-3.5s-1.6-3.5-3.5-3.5s-3.5,1.6-3.5,3.5S28.9,30.3,30.9,30.3z M30.9,25.6
		c0.7,0,1.2,0.5,1.2,1.2c0,0.7-0.5,1.2-1.2,1.2c-0.7,0-1.2-0.5-1.2-1.2C29.7,26.1,30.2,25.6,30.9,25.6z"/>
	<path class="st2" d="M32,32.6h-2.4c-2,0-3.5,1.6-3.5,3.5c0,0.7,0.5,1.2,1.2,1.2s1.2-0.5,1.2-1.2S29,35,29.7,35H32
		c0.7,0,1.2,0.5,1.2,1.2s0.5,1.2,1.2,1.2c0.7,0,1.2-0.5,1.2-1.2C35.6,34.2,34,32.6,32,32.6z"/>
</g>
</svg>
