<svg height='300px' width='300px'  fill="#ffffff" xmlns="http://www.w3.org/2000/svg" xmlns:xlink="http://www.w3.org/1999/xlink" version="1.1" x="0px" y="0px" viewBox="0 0 64 64" enable-background="new 0 0 64 64" xml:space="preserve"><path d="M6,52c-0.6,0-1,0.4-1,1v4c0,0.6,0.4,1,1,1h5v3c0,0.6,0.4,1,1,1h46c0.6,0,1-0.4,1-1V3c0-0.6-0.4-1-1-1H12c-0.6,0-1,0.4-1,1v3  H6C5.4,6,5,6.4,5,7v4c0,0.6,0.4,1,1,1h5v17H6c-0.6,0-1,0.4-1,1v4c0,0.6,0.4,1,1,1h5v17H6z M7,54h5h3v2h-3H7V54z M7,8h5h3v2h-3H7V8z   M7,31h5h3v2h-3H7V31z M13,35h3c0.6,0,1-0.4,1-1v-4c0-0.6-0.4-1-1-1h-3V12h3c0.6,0,1-0.4,1-1V7c0-0.6-0.4-1-1-1h-3V4h44v56H13v-2h3  c0.6,0,1-0.4,1-1v-4c0-0.6-0.4-1-1-1h-3V35z"></path><path d="M19,58h25.9c0.3,0,0.5-0.1,0.7-0.3l9.1-9.1c0.2-0.2,0.3-0.4,0.3-0.7V7c0-0.6-0.4-1-1-1H19c-0.6,0-1,0.4-1,1v50  C18,57.6,18.4,58,19,58z M20,8h33v39.5L44.5,56H20V8z"></path><path d="M36.5,27c2.8,0,5-2.2,5-5s-2.2-5-5-5s-5,2.2-5,5S33.7,27,36.5,27z M36.5,19c1.7,0,3,1.3,3,3s-1.3,3-3,3s-3-1.3-3-3  S34.8,19,36.5,19z"></path><path d="M47.5,41v-2c0-6.1-4.9-11-11-11s-11,4.9-11,11v2c0,0.6,0.4,1,1,1h20C47.1,42,47.5,41.6,47.5,41z M45.5,40h-18v-1  c0-5,4-9,9-9s9,4,9,9V40z"></path></svg>