<svg xmlns="http://www.w3.org/2000/svg" width="45.894" height="46" viewBox="0 0 45.894 46">
  <g id="customer-service" transform="translate(-0.572)">
    <g id="Group_4952" data-name="Group 4952" transform="translate(0.573 7.419)">
      <g id="Group_4951" data-name="Group 4951" transform="translate(0)">
        <path id="Path_2325" data-name="Path 2325" d="M37.857,112.645l-1.718-5.153a5.194,5.194,0,0,0-4-3.467l-4.958-.9v-.384a7.467,7.467,0,0,0,2.212-1.964h1.5a2.229,2.229,0,0,0,2.226-2.226v-8.9a9.645,9.645,0,0,0-19.29,0v5.194a2.973,2.973,0,0,0,2.366,2.906,7.433,7.433,0,0,0,3.569,4.993v.384l-4.959.9a5.193,5.193,0,0,0-4,3.467l-.3.891-2.527-2.527a.743.743,0,0,1,0-1.05l2.931-2.93-5.5-5.5L2.1,99.687a5.194,5.194,0,0,0,0,7.344l10.027,10.027a5.191,5.191,0,0,0,7.321.022l3.614-3.311-1.127-1.125Zm-6.223-14.1a.743.743,0,0,1-.742.742h-.624a7.369,7.369,0,0,0,.484-1.545,2.939,2.939,0,0,0,.882-.351Zm-.742-2.432V93.561a1.471,1.471,0,0,1,0,2.555Zm-14.839,0a1.471,1.471,0,0,1,0-2.555Zm0-4.987v.847a2.943,2.943,0,0,0-.742.307V89.645a8.161,8.161,0,0,1,16.323,0v2.638a2.916,2.916,0,0,0-.742-.307v-.847h-.742a8.163,8.163,0,0,1-5.809-2.406l-.869-.869-.869.869A8.163,8.163,0,0,1,16.8,91.129Zm1.484,5.194V92.585a9.619,9.619,0,0,0,5.935-2.637,9.615,9.615,0,0,0,5.935,2.637v3.738a5.891,5.891,0,0,1-.8,2.968H23.473v1.484h3.913a5.926,5.926,0,0,1-9.848-4.452ZM25.7,103.4v.035l-2.226,2.226-2.226-2.226V103.4a7.413,7.413,0,0,0,4.452,0Zm-13.485,4.561a3.711,3.711,0,0,1,2.856-2.477l5.186-.942,3.218,3.218,3.217-3.217,5.185.942a3.71,3.71,0,0,1,2.856,2.477l1.068,3.2H20.453l-2.89-2.89-3.211,2.9a.758.758,0,0,1-1.049,0l-1.62-1.62Zm-6.8-9.487,3.4,3.4-.806.806-3.4-3.4Zm13.01,17.538a3.71,3.71,0,0,1-5.246,0L3.149,105.983a3.71,3.71,0,0,1,0-5.246l.408-.408,3.4,3.4-.027.027a2.23,2.23,0,0,0,0,3.148l5.32,5.32a2.214,2.214,0,0,0,1.574.652,2.185,2.185,0,0,0,1.547-.626l.056-.05,3.418,3.418Zm1.521-1.395-3.411-3.411.98-.886,3.4,3.4Z" transform="translate(-0.58 -80)" fill="#c4d3e1"/>
      </g>
    </g>
    <g id="Group_4954" data-name="Group 4954" transform="translate(31.627)">
      <g id="Group_4953" data-name="Group 4953">
        <path id="Path_2326" data-name="Path 2326" d="M348.041,0H337.654a2.229,2.229,0,0,0-2.226,2.226V8.161a2.229,2.229,0,0,0,2.226,2.226h1.982l-.767,4.475,7.16-4.475h2.013a2.229,2.229,0,0,0,2.226-2.226V2.226A2.229,2.229,0,0,0,348.041,0Zm.742,8.161a.743.743,0,0,1-.742.742H345.6l-4.712,2.945L341.4,8.9h-3.742a.743.743,0,0,1-.742-.742V2.226a.743.743,0,0,1,.742-.742h10.387a.743.743,0,0,1,.742.742Z" transform="translate(-335.428)" fill="#c4d3e1"/>
      </g>
    </g>
    <g id="Group_4956" data-name="Group 4956" transform="translate(34.595 2.968)">
      <g id="Group_4955" data-name="Group 4955">
        <rect id="Rectangle_819" data-name="Rectangle 819" width="8.903" height="1.484" fill="#c4d3e1"/>
      </g>
    </g>
    <g id="Group_4958" data-name="Group 4958" transform="translate(34.595 5.935)">
      <g id="Group_4957" data-name="Group 4957">
        <rect id="Rectangle_820" data-name="Rectangle 820" width="5.935" height="1.484" fill="#c4d3e1"/>
      </g>
    </g>
    <g id="Group_4960" data-name="Group 4960" transform="translate(42.014 5.935)">
      <g id="Group_4959" data-name="Group 4959">
        <rect id="Rectangle_821" data-name="Rectangle 821" width="1.484" height="1.484" fill="#c4d3e1"/>
      </g>
    </g>
    <g id="Group_4962" data-name="Group 4962" transform="translate(0.572 2.226)">
      <g id="Group_4961" data-name="Group 4961" transform="translate(0)">
        <path id="Path_2327" data-name="Path 2327" d="M23.466,24A20.761,20.761,0,0,0,3.25,40.059L1.844,37.715l-1.272.763L3.18,42.824l4.346-2.608-.763-1.272L4.751,40.15a19.3,19.3,0,0,1,24.43-13.806l.439-1.417A20.761,20.761,0,0,0,23.466,24Z" transform="translate(-0.572 -24)" fill="#c4d3e1"/>
      </g>
    </g>
    <g id="Group_4964" data-name="Group 4964" transform="translate(38.454 13.82)">
      <g id="Group_4963" data-name="Group 4963">
        <path id="Path_2328" data-name="Path 2328" d="M416.688,151.624l-4.346-2.608-2.607,4.346,1.272.763,1.3-2.164a19.307,19.307,0,0,1-3.27,18.38l1.152.935a20.777,20.777,0,0,0,3.555-19.688l2.181,1.308Z" transform="translate(-409.036 -149.016)" fill="#c4d3e1"/>
      </g>
    </g>
  </g>
</svg>
