<svg height='300px' width='300px'  fill="#384e64" xmlns="http://www.w3.org/2000/svg" data-name="Layer 1" viewBox="0 0 100 100" x="0px" y="0px"><title>16</title><g data-name="Group"><path data-name="Compound Path" d="M85.5,21H63.9V18.2a8,8,0,0,0-8-8H44.1a8,8,0,0,0-8,8V21H14.5a3.1,3.1,0,0,0-3,3,3,3,0,0,0,3,3h5.3V73.8a16,16,0,0,0,16,16H64.3a15.9,15.9,0,0,0,16-16V27h5.2a3,3,0,0,0,3-3A3.1,3.1,0,0,0,85.5,21ZM42.1,18.2a2,2,0,0,1,2-2H55.9a2,2,0,0,1,2,2V21H42.1ZM74.3,73.8a10,10,0,0,1-10,10H35.8a10,10,0,0,1-10-10V27H74.3Z"></path><path data-name="Path" d="M36.3,74.3a3,3,0,0,0,3-3v-34a2.9,2.9,0,0,0-3-3,3,3,0,0,0-3,3v34A3.1,3.1,0,0,0,36.3,74.3Z"></path><path data-name="Path" d="M50,74.3a3,3,0,0,0,3-3v-34a3,3,0,0,0-6,0v34A3,3,0,0,0,50,74.3Z"></path><path data-name="Path" d="M63.7,74.3a3.1,3.1,0,0,0,3-3v-34a3,3,0,0,0-3-3,2.9,2.9,0,0,0-3,3v34A3,3,0,0,0,63.7,74.3Z"></path></g></svg>