<svg height='300px' width='300px'  fill="#384e64" xmlns="http://www.w3.org/2000/svg" xmlns:xlink="http://www.w3.org/1999/xlink" version="1.1" x="0px" y="0px" viewBox="0 0 128 128" style="enable-background:new 0 0 128 128;" xml:space="preserve"><path d="M32,126v-8c0-1.1-0.9-2-2-2s-2,0.9-2,2v8c0,1.1,0.9,2,2,2S32,127.1,32,126z"></path><path d="M100,126v-8c0-1.1-0.9-2-2-2s-2,0.9-2,2v8c0,1.1,0.9,2,2,2S100,127.1,100,126z"></path><path d="M97.8,66.1l-15.2-6.2c-0.6-0.2-1-0.8-1.2-1.4l-2.1-8.3c3.1-4.4,5.2-9.5,6.2-14.9c0.2-0.2,0.3-0.4,0.4-0.6  c3-8.5,4.6-26.1-10.8-32.3c-7.1-2.8-13-3.2-17.6-1c-3.3,1.5-5,4-5.9,5.5c-2.1,0.1-5.8,0.6-8.5,3.8C39.3,15.2,39,23.1,42.3,34  c0.8,5.9,2.9,11.5,6.2,16.1c0,0.1,0.1,0.1,0.1,0.2l-2.1,8.2c-0.2,0.6-0.6,1.1-1.2,1.4l-15.2,6.2C20.4,70.1,14,79.5,14,90.2V126  c0,1.1,0.9,2,2,2s2-0.9,2-2V90.2c0-9,5.4-17,13.7-20.4l6.1-2.5l-6.2,17.7c-0.4,1,0.1,2.1,1.1,2.5l7.8,3.3l1.2,12.8  c0,0.5,0.3,1,0.7,1.3L62,122.1v3.9c0,1.1,0.9,2,2,2s2-0.9,2-2v-3.9l19.7-17.2c0.4-0.3,0.6-0.8,0.7-1.3l1.2-12.8l7.8-3.3  c1-0.4,1.4-1.5,1.1-2.5l-6.2-17.7l6.1,2.5c8.3,3.4,13.7,11.4,13.7,20.4V126c0,1.1,0.9,2,2,2s2-0.9,2-2V90.2  C114,79.5,107.6,70.1,97.8,66.1z M81.8,63.9l2.5,1l-1.5,3.6l-10.3,8.7l-5.7-5.7L81.8,63.9z M79.7,76.5l-7.6,19.1l-2.6-12.1  c0.7-0.7,1.3-1.5,1.6-2.4c0.5,0.2,1,0.3,1.5,0.3c0.9,0,1.8-0.3,2.6-1L79.7,76.5z M67.5,77.9V79c0,1.1-0.9,2-2,2h-3c-1.1,0-2-0.9-2-2  v-1.2l3.5-3.4L67.5,77.9z M49.7,61.2c0.3-0.5,0.6-1.1,0.7-1.7l1.4-5.4c1.4,1.4,2.8,2.7,4.4,3.8c2.4,1.7,5.1,2.6,7.8,2.6  c2.7,0,5.5-0.9,7.9-2.6c1.6-1.1,3-2.4,4.3-3.8l1.4,5.4c0.2,0.6,0.4,1.2,0.7,1.7L64,68.6L49.7,61.2z M46.1,13.4  c1.8-2.2,4.4-2.5,5.7-2.5c0.4,0,0.7,0,0.7,0c0.9,0.1,1.9-0.4,2.2-1.3c0-0.1,1.1-3,4.5-4.6c3.6-1.6,8.4-1.3,14.4,1.1  c11.3,4.5,10.9,16.3,9.6,22.8c-2.8-3.1-7.3-4.2-16.5-4.7c-9.9-0.6-11.1-5.5-11.2-6c0,0,0-0.1,0-0.1c-0.2-1.1-1.2-1.8-2.2-1.7  c-1.1,0.1-1.8,1.1-1.7,2.2c0,0,0,0.1,0,0.1c0.9,6.1-3.4,10.2-6.1,12.2C42.7,20.4,44.3,15.6,46.1,13.4z M46.5,35.1  c2.3-1.4,7-5,8.7-10.7c2.2,1.8,5.7,3.4,11.4,3.8c11.2,0.7,13.5,2,15.2,5.6c-1.2,8.5-5.7,16.1-12.2,20.9c-3.3,2.4-7.7,2.5-11,0  c-2.6-1.9-4.9-4.2-6.8-6.9C49.2,44.2,47.4,39.7,46.5,35.1z M46.2,63.9l15,7.7l-5.8,5.7l-10.2-8.7l-1.5-3.6L46.2,63.9z M58.5,83.5  l-2.6,12.1l-7.6-19l4.4,3.8c0.8,0.6,1.7,1,2.6,1c0.5,0,1-0.1,1.5-0.3C57.2,82,57.8,82.8,58.5,83.5z M45.6,102.4l-1.2-13.2  c-0.1-0.7-0.5-1.4-1.2-1.7L36,84.5l5.2-14.8l17.8,44.5L45.6,102.4z M64,115.8l-5.4-13.6L62.3,85c0.1,0,0.2,0,0.2,0h3  c0.1,0,0.2,0,0.2,0l3.7,17.2L64,115.8z M92,84.5l-7.2,3.1c-0.7,0.3-1.1,0.9-1.2,1.7l-1.2,13.2l-13.5,11.8l17.8-44.5L92,84.5z"></path></svg>