<svg xmlns="http://www.w3.org/2000/svg" width="84.194" height="31.175" viewBox="0 0 84.194 31.175">
  <g id="Group_2630" data-name="Group 2630" transform="matrix(0.999, -0.035, 0.035, 0.999, 2.582, 2.395)">
    <path id="Path_508" data-name="Path 508" d="M0,16.809c35.373-37.821,70.81,0,70.81,0" transform="translate(70.81 26.603) rotate(180)" fill="none" stroke="#306c90" stroke-linecap="round" stroke-width="4"/>
    <g id="right-arrow_1_" data-name="right-arrow (1)" transform="translate(61.036 7.577) rotate(-45)">
      <g id="Group_2586" data-name="Group 2586" transform="translate(0 0)">
        <path id="Path_509" data-name="Path 509" d="M10.407,9.323l-8.2,8.2a1.037,1.037,0,0,1-.7.308.906.906,0,0,1-.68-.262L.263,17a.978.978,0,0,1,.046-1.379L7.194,8.739.747,2.292a.907.907,0,0,1-.262-.68,1.038,1.038,0,0,1,.308-.7l.6-.6A1.037,1.037,0,0,1,2.1,0a.906.906,0,0,1,.68.262l7.676,7.676a.908.908,0,0,1,.261.682A1.037,1.037,0,0,1,10.407,9.323Z" fill="#306c90"/>
      </g>
    </g>
  </g>
</svg>
