<svg id="speedometer_1_" data-name="speedometer (1)" xmlns="http://www.w3.org/2000/svg" width="512" height="512" viewBox="0 0 512 512">
  <path id="Path_2116" data-name="Path 2116" d="M256,512c62.406,0,119.578-23.613,163.945-60.969C384.879,396.508,323.879,361,256,361c-68.449,0-129.422,34.84-164.348,89.664C136.078,488.234,193.4,512,256,512ZM211,391h90v30H211Zm0,0" fill="#1673a7"/>
  <path id="Path_2117" data-name="Path 2117" d="M91.754,271A162.827,162.827,0,0,0,134.4,367.172C169.715,344.5,211.27,331,256,331a224.139,224.139,0,0,1,121.684,36.086A162.8,162.8,0,0,0,420.247,271H391V241h29.238a164.192,164.192,0,0,0-37.52-90.508l-20.648,20.648L340.86,149.93l20.648-20.648A164.191,164.191,0,0,0,271,91.762V121H241V91.762a164.192,164.192,0,0,0-90.508,37.52l20.648,20.648-21.211,21.211-20.648-20.648A164.191,164.191,0,0,0,91.763,241H121v30Zm187.641-53.437a45,45,0,1,1-61.832,61.832L165.782,165.781Zm0,0" fill="#1673a7"/>
  <path id="Path_2118" data-name="Path 2118" d="M256,0C115.391,0,0,115.391,0,256c0,67.184,27.309,128.2,69.922,173.793a222.592,222.592,0,0,1,40.09-44.8A192.792,192.792,0,0,1,61,256C61,148.48,148.48,61,256,61s195,87.48,195,195a192.791,192.791,0,0,1-49.074,129.059,225.7,225.7,0,0,1,40.121,44.77C484.68,384.231,512,323.2,512,256,512,115.392,396.609,0,256,0Zm0,0" fill="#1673a7"/>
  <path id="Path_2119" data-name="Path 2119" d="M256,271a15,15,0,0,0,8.406-27.422l-38.187-17.359,17.8,39.156C245.938,268.3,250.727,271,256,271Zm0,0" fill="#1673a7"/>
</svg>
