<svg xmlns="http://www.w3.org/2000/svg" width="448.73" height="448.749" viewBox="0 0 448.73 448.749">
  <g id="effective_2_" data-name="effective (2)" transform="translate(-0.37 0.002)">
    <path id="Path_2102" data-name="Path 2102" d="M127.723,66.406l2.3,39.082A152.139,152.139,0,0,1,300.786,92.914a8,8,0,0,1,1.648,12.582l-11.2,11.2,83.453-4.9,4.891-83.418L366.09,41.84a8,8,0,0,1-10.344.8A222.835,222.835,0,0,0,76.587,56.3l43.621,2.559a8.005,8.005,0,0,1,7.516,7.543Zm0,0" fill="#1673a7"/>
    <path id="Path_2103" data-name="Path 2103" d="M406.449,355.383a222.8,222.8,0,0,0-13.664-279.16l-2.559,43.625a8,8,0,0,1-7.523,7.512l-39.078,2.3A152.159,152.159,0,0,1,356.2,300.426a7.995,7.995,0,0,1-12.582,1.645l-11.2-11.2,4.9,83.457,83.457,4.91-13.488-13.484a8,8,0,0,1-.84-10.371Zm0,0" fill="#1673a7"/>
    <path id="Path_2104" data-name="Path 2104" d="M287.09,210.145a63.489,63.489,0,0,0-8.219-19.785,8,8,0,0,1,1.113-9.918l6.977-6.977-11.312-11.312-6.977,6.977a8,8,0,0,1-9.926,1.109,63.479,63.479,0,0,0-19.785-8.215,8,8,0,0,1-6.223-7.809v-9.84h-16v9.84a8,8,0,0,1-6.227,7.809,63.421,63.421,0,0,0-19.781,8.215,8,8,0,0,1-9.93-1.109l-6.977-6.977-11.312,11.313,6.977,6.977a8,8,0,0,1,1.113,9.926,63.294,63.294,0,0,0-8.215,19.785,8,8,0,0,1-7.809,6.223h-9.84v16h9.84a8.006,8.006,0,0,1,7.809,6.227,63.236,63.236,0,0,0,8.215,19.781,8,8,0,0,1-1.113,9.93l-6.977,6.977L173.824,286.6l6.977-6.977a8,8,0,0,1,9.93-1.113,63.234,63.234,0,0,0,19.781,8.215,8.006,8.006,0,0,1,6.227,7.809v9.84h16v-9.84a8,8,0,0,1,6.223-7.809,63.3,63.3,0,0,0,19.785-8.215,8,8,0,0,1,9.926,1.113l6.977,6.977,11.313-11.312-6.977-6.977a8.006,8.006,0,0,1-1.113-9.922,63.428,63.428,0,0,0,8.219-19.781,8,8,0,0,1,7.8-6.234h9.848v-16h-9.848A8,8,0,0,1,287.09,210.145Zm-62.352,54.23a40,40,0,1,1,40-40A40,40,0,0,1,224.738,264.375Zm0,0" fill="#1673a7"/>
    <path id="Path_2105" data-name="Path 2105" d="M248.738,224.375a24,24,0,1,1-24-24A24,24,0,0,1,248.738,224.375Zm0,0" fill="#1673a7"/>
    <path id="Path_2106" data-name="Path 2106" d="M319.938,263.016a8,8,0,0,1,8.934,1.6l18.4,18.438a136,136,0,0,0-23.922-152.246l-52.207,3.07c-.156.008-.312.008-.473,0a8,8,0,0,1-5.656-13.656l18.441-18.4a136.046,136.046,0,0,0-152.25,23.922l3.074,52.207a8,8,0,0,1-13.641,6.129l-18.4-18.4a136,136,0,0,0,23.918,152.25l52.207-3.074a8,8,0,0,1,6.129,13.6l-18.4,18.4a136.044,136.044,0,0,0,152.246-23.918l-3.152-52.16a8,8,0,0,1,4.746-7.762Zm-7.2-14.641h-11.73a79.525,79.525,0,0,1-5.383,12.953l8.313,8.3a8,8,0,0,1,0,11.313l-22.633,22.629a8,8,0,0,1-11.312,0l-8.3-8.293a79.562,79.562,0,0,1-12.949,5.367v11.727a8,8,0,0,1-8,8h-32a8,8,0,0,1-8-8V300.649a79.491,79.491,0,0,1-12.953-5.375l-8.3,8.3a8,8,0,0,1-11.312,0l-22.633-22.629a8,8,0,0,1,0-11.312l8.3-8.3a79.6,79.6,0,0,1-5.367-12.953H136.739a8,8,0,0,1-8-8v-32a8,8,0,0,1,8-8h11.727a79.6,79.6,0,0,1,5.375-12.949l-8.3-8.3a8,8,0,0,1,0-11.312l22.633-22.633a8,8,0,0,1,11.313,0l8.3,8.3a79.258,79.258,0,0,1,12.953-5.367v-11.73a8,8,0,0,1,8-8h32a8,8,0,0,1,8,8v11.73a79.25,79.25,0,0,1,12.949,5.375l8.3-8.3a8,8,0,0,1,11.313,0l22.633,22.633a8,8,0,0,1,0,11.313l-8.3,8.3a79.25,79.25,0,0,1,5.375,12.949h11.73a8,8,0,0,1,8,8v32A8,8,0,0,1,312.739,248.375Zm0,0" fill="#1673a7"/>
    <path id="Path_2107" data-name="Path 2107" d="M93.273,148.328a8,8,0,0,1,12.582-1.648l11.2,11.2-4.906-83.453L28.738,69.535,42.226,83.023a8,8,0,0,1,.8,10.344A222.809,222.809,0,0,0,56.68,372.527L59.25,328.9a8,8,0,0,1,7.52-7.512l39.078-2.3A152.167,152.167,0,0,1,93.273,148.328ZM36.3,262.777l-15.672,3.2a206.109,206.109,0,0,1,9.879-116.5l14.906,5.809a190.2,190.2,0,0,0-9.113,107.5ZM52.183,139.929l-14.344-7.09c2.777-5.6,5.871-11.2,9.184-16.633l13.641,8.352c-3.062,4.992-5.918,10.16-8.48,15.363Zm0,0" fill="#1673a7"/>
    <path id="Path_2108" data-name="Path 2108" d="M321.754,382.344l-2.3-39.078A152.132,152.132,0,0,1,148.687,355.84a8,8,0,0,1-1.648-12.574l11.2-11.2-83.465,4.906L69.9,420.375l13.488-13.488a8,8,0,0,1,10.344-.8,222.784,222.784,0,0,0,279.16-13.664l-43.625-2.562a8,8,0,0,1-7.512-7.52Zm0,0" fill="#1673a7"/>
  </g>
</svg>
