<?xml version="1.0" encoding="utf-8"?>
<!-- Generator: Adobe Illustrator 25.1.0, SVG Export Plug-In . SVG Version: 6.00 Build 0)  -->
<svg version="1.1" id="Layer_1" xmlns="http://www.w3.org/2000/svg" xmlns:xlink="http://www.w3.org/1999/xlink" x="0px" y="0px"
	 viewBox="0 0 512 512" style="enable-background:new 0 0 512 512;" xml:space="preserve">
<style type="text/css">
	.st0{fill:#E13A5A;}
</style>
<g>
	<path class="st0" d="M304.2,425.8h-96.4c-8.3,0-15,6.7-15,15s6.7,15,15,15h96.4c8.3,0,15-6.7,15-15S312.5,425.8,304.2,425.8z"/>
	<path class="st0" d="M223.4,272.5c-2.7,6.5-3.9,13.8-3.4,21.3c1.9,26,24.5,45.4,50.5,43.5c7.5-0.6,14.5-2.9,20.6-6.5l75.7,65.3
		c6.3,5.4,15.7,4.7,21.2-1.6c5.4-6.3,4.7-15.7-1.6-21.2l-75.7-65.3c2.7-6.5,3.9-13.8,3.4-21.3c-1.9-26-24.5-45.4-50.5-43.5
		c-7.5,0.6-14.5,2.9-20.6,6.5l-17.8-15.4c-6.3-5.4-15.7-4.7-21.2,1.6c-5.4,6.3-4.7,15.7,1.6,21.2L223.4,272.5z M265.8,273.2
		c9.4-0.7,17.6,6.4,18.3,15.8c0.7,9.4-6.4,17.6-15.8,18.3c-9.4,0.7-17.6-6.4-18.3-15.8C249.3,282.1,256.4,273.9,265.8,273.2z"/>
	<path class="st0" d="M256,56.2c-141.2,0-256,114.8-256,256c0,45,11.9,89.3,34.3,128c4.1,7.2,13.3,9.6,20.5,5.5
		c0,0,41.8-24.1,41.8-24.1c7.2-4.1,9.6-13.3,5.5-20.5c-4.1-7.2-13.3-9.6-20.5-5.5L53.2,412c-13-26.4-20.7-55.3-22.7-84.8h32.7
		c8.3,0,15-6.7,15-15s-6.7-15-15-15H30.5c2-30.2,10-58.9,22.7-84.7l28.3,16.3c7.2,4.1,16.3,1.7,20.5-5.5c4.1-7.2,1.7-16.3-5.5-20.5
		l-28.3-16.3c16.4-24.5,37.5-45.6,62-62l16.3,28.3c4.1,7.2,13.3,9.6,20.5,5.5c7.2-4.1,9.6-13.3,5.5-20.5l-16.3-28.3
		c25.9-12.8,54.5-20.7,84.7-22.7v32.7c0,8.3,6.7,15,15,15s15-6.7,15-15V86.7c30.2,2,58.9,10,84.7,22.7l-16.3,28.3
		c-4.1,7.2-1.7,16.3,5.5,20.5c7.2,4.1,16.3,1.7,20.5-5.5l16.3-28.3c24.5,16.4,45.6,37.5,62,62l-28.3,16.3
		c-7.2,4.1-9.6,13.3-5.5,20.5c4.1,7.2,13.3,9.6,20.5,5.5l28.3-16.3c12.8,25.9,20.7,54.5,22.7,84.7h-32.7c-8.3,0-15,6.7-15,15
		s6.7,15,15,15h32.7c-2,29.5-9.7,58.3-22.7,84.8l-28.3-16.4c-7.2-4.1-16.3-1.7-20.5,5.5c-4.1,7.2-1.7,16.3,5.5,20.5
		c0,0,41.7,24.1,41.8,24.1c7.2,4.1,16.3,1.7,20.5-5.5c22.4-38.8,34.3-83,34.3-128C512,171.1,397.2,56.2,256,56.2L256,56.2z"/>
</g>
</svg>
