<svg xmlns="http://www.w3.org/2000/svg" width="690" height="570" viewBox="0 0 690 570">
  <g id="Group_4578" data-name="Group 4578" transform="translate(-2957 -1337)">
    <rect id="Rectangle_695" data-name="Rectangle 695" width="690" height="570" rx="24" transform="translate(2957 1337)" fill="none"/>
    <g id="Group_4577" data-name="Group 4577" transform="translate(3 22.35)">
      <g id="team" transform="translate(3089 1406)">
        <path id="Path_2003" data-name="Path 2003" d="M383.362,344.511A33.813,33.813,0,0,0,394.4,319.6V306a34,34,0,0,0-67.315-6.8H304.749a20.282,20.282,0,0,0-38.3,0H244.115A34.106,34.106,0,0,0,217.6,272.691V257.438A27.164,27.164,0,0,0,238,231.2h6.8a6.794,6.794,0,0,0,6.8-6.8v-20.4h13.6v-13.6H251.6v-.073c0-13.009,6.166-25.795,16.917-35.055A88.354,88.354,0,0,0,207.157.086c-45.9,1.849-83.919,40.749-84.739,86.712a88.165,88.165,0,0,0,30.095,67.985c10.784,9.449,17.053,22.378,17.421,35.623H156.4v13.6H170v20.4a6.792,6.792,0,0,0,6.8,6.8h6.8A27.16,27.16,0,0,0,204,257.438v15.253A34.11,34.11,0,0,0,177.488,299.2H155.152a20.282,20.282,0,0,0-38.3,0H94.518A34,34,0,0,0,27.207,306v13.6A33.81,33.81,0,0,0,38.24,344.512,61.265,61.265,0,0,0,.008,401.2v13.6a6.792,6.792,0,0,0,6.8,6.8H115.6a6.794,6.794,0,0,0,6.8-6.8V401.2a61.268,61.268,0,0,0-38.236-56.69A33.813,33.813,0,0,0,95.205,319.6v-6.8h21.648a20.282,20.282,0,0,0,38.3,0H176.8v6.8a33.81,33.81,0,0,0,11.033,24.908A61.265,61.265,0,0,0,149.6,401.2v13.6a6.792,6.792,0,0,0,6.8,6.8H265.2a6.794,6.794,0,0,0,6.8-6.8V401.2a61.268,61.268,0,0,0-38.236-56.69A33.813,33.813,0,0,0,244.8,319.6v-6.8H266.45a20.282,20.282,0,0,0,38.3,0H326.4v6.8a33.81,33.81,0,0,0,11.033,24.908A61.265,61.265,0,0,0,299.2,401.2v13.6a6.792,6.792,0,0,0,6.8,6.8H414.8a6.794,6.794,0,0,0,6.8-6.8V401.2a61.268,61.268,0,0,0-38.236-56.69ZM108.8,401.2V408H95.2V394.4h-13.6V408h-40.8V394.4h-13.6V408h-13.6v-6.8a47.6,47.6,0,0,1,95.2,0Zm-68-81.6V306a20.4,20.4,0,0,1,40.8,0v13.6a20.4,20.4,0,1,1-40.8,0Zm95.2-6.8a6.8,6.8,0,1,1,6.8-6.8A6.8,6.8,0,0,1,136,312.8Zm25.47-168.25a74.574,74.574,0,0,1-25.456-57.52c.7-38.887,32.857-71.8,71.684-73.364a74.737,74.737,0,0,1,51.935,131.3C245.887,156.828,238,173.36,238,190.333v.073H183.533c-.369-17.156-8.324-33.817-22.06-45.852ZM238,204.005v13.6H183.6v-13.6Zm-40.8,27.2h27.2a13.6,13.6,0,1,1-27.2,0Zm61.2,170V408H244.8V394.4H231.2V408H190.4V394.4H176.8V408H163.2v-6.8a47.6,47.6,0,1,1,95.2,0Zm-68-81.6V306a20.4,20.4,0,1,1,40.8,0v13.6a20.4,20.4,0,0,1-40.8,0Zm95.2-6.8a6.8,6.8,0,1,1,6.8-6.8A6.8,6.8,0,0,1,285.6,312.8Zm54.4,6.8V306a20.4,20.4,0,1,1,40.8,0v13.6a20.4,20.4,0,0,1-40.8,0ZM408,408H394.4V394.4H380.8V408H340V394.4H326.4V408H312.8v-6.8a47.6,47.6,0,1,1,95.2,0Zm0,0" transform="translate(-0.008 -0.001)" fill="#8693a2"/>
        <path id="Path_2004" data-name="Path 2004" d="M232.008,192.012h27.2v13.6h-27.2Zm0,0" transform="translate(-34.812 -28.806)" fill="#4d91b6"/>
        <path id="Path_2005" data-name="Path 2005" d="M232.807,128.923V143.21h13.6V128.923a33.711,33.711,0,0,0,11.92-4.977L268.8,134.417l9.612-9.615L267.942,114.33a33.808,33.808,0,0,0,4.977-11.92h14.287v-13.6H272.919a33.808,33.808,0,0,0-4.977-11.92l10.469-10.472L268.8,56.8,258.326,67.276a33.712,33.712,0,0,0-11.92-4.977V48.012h-13.6V62.3a33.727,33.727,0,0,0-11.923,4.977L210.412,56.8,200.8,66.419l10.472,10.472a33.753,33.753,0,0,0-4.98,11.92H192.008v13.6h14.284a33.753,33.753,0,0,0,4.98,11.92L200.8,124.8l9.612,9.615,10.472-10.472A33.728,33.728,0,0,0,232.807,128.923Zm6.8-53.712a20.4,20.4,0,1,1-20.4,20.4,20.426,20.426,0,0,1,20.4-20.4Zm0,0" transform="translate(-28.811 -7.203)" fill="#1673a7" opacity="0.73"/>
      </g>
      <g id="Group_4575" data-name="Group 4575" transform="translate(-0.025)">
        <path id="Path_539" data-name="Path 539" d="M380.311,100.51v4.963h9.926V100.51A24.575,24.575,0,0,1,415.051,75.7V65.769a24.573,24.573,0,0,1-24.814-24.815V35.992h-9.926v4.963A24.572,24.572,0,0,1,355.5,65.769V75.7A24.573,24.573,0,0,1,380.311,100.51Zm4.963-41.688a34.2,34.2,0,0,0,11.911,11.91,34.229,34.229,0,0,0-11.911,11.913,34.226,34.226,0,0,0-11.91-11.913A34.2,34.2,0,0,0,385.273,58.822Zm0,0" transform="translate(3174.897 1335.658)" fill="#4d91b6"/>
        <path id="Path_540" data-name="Path 540" d="M28.311,260.51v4.963h9.926V260.51A24.575,24.575,0,0,1,63.051,235.7v-9.926a24.573,24.573,0,0,1-24.815-24.814v-4.963H28.311v4.963A24.572,24.572,0,0,1,3.5,225.769V235.7A24.573,24.573,0,0,1,28.311,260.51Zm4.963-41.688a34.2,34.2,0,0,0,11.91,11.91,34.228,34.228,0,0,0-11.91,11.913,34.228,34.228,0,0,0-11.91-11.913A34.2,34.2,0,0,0,33.274,218.822Zm0,0" transform="translate(3005.529 1242.916)" fill="#4d91b6"/>
        <path id="Path_541" data-name="Path 541" d="M422.237,200.955v-4.963h-9.926v4.963A24.572,24.572,0,0,1,387.5,225.769V235.7a24.573,24.573,0,0,1,24.815,24.815v4.963h9.926V260.51A24.575,24.575,0,0,1,447.051,235.7v-9.926A24.573,24.573,0,0,1,422.237,200.955Zm-4.963,41.69a34.224,34.224,0,0,0-11.91-11.913,34.2,34.2,0,0,0,11.91-11.91,34.2,34.2,0,0,0,11.911,11.91A34.227,34.227,0,0,0,417.273,242.645Zm0,0" transform="translate(3083.749 1385.916)" fill="#4d91b6"/>
      </g>
    </g>
  </g>
</svg>
