<?xml version="1.0" encoding="utf-8"?>
<!-- Generator: Adobe Illustrator 25.2.0, SVG Export Plug-In . SVG Version: 6.00 Build 0)  -->
<svg version="1.1" id="Layer_1" xmlns="http://www.w3.org/2000/svg" xmlns:xlink="http://www.w3.org/1999/xlink" x="0px" y="0px"
	 viewBox="0 0 239.7 239.7" style="enable-background:new 0 0 239.7 239.7;" xml:space="preserve">
<style type="text/css">
	.st0{fill:#FFFFFF;}
</style>
<path class="st0" d="M119.5,59v10c22,0,39.9,17.9,39.9,39.9h10C169.4,81.4,147,59,119.5,59z"/>
<path class="st0" d="M221.8,199.7c0-11.4-9.3-20.7-20.7-20.7h-8.6v-71.5c0-40.3-32.8-73.1-73.1-73.1s-73.1,32.8-73.1,73.1V179h-5.4
	c-11.4,0-20.7,9.3-20.7,20.7v27.7h201.6V199.7z M56.3,107.5c0-34.8,28.3-63.1,63.1-63.1s63.1,28.3,63.1,63.1V179H56.3V107.5z"/>
<rect x="114.9" y="2.4" class="st0" width="10" height="16.7"/>
<rect x="209.7" y="103.9" class="st0" width="16.7" height="10"/>
<rect x="13.4" y="103.9" class="st0" width="16.7" height="10"/>
<rect x="182.7" y="33.7" transform="matrix(0.7071 -0.7071 0.7071 0.7071 28.276 145.6959)" class="st0" width="14.6" height="10"/>
<rect x="44.7" y="31.4" transform="matrix(0.7071 -0.7071 0.7071 0.7071 -12.8113 46.5025)" class="st0" width="10" height="14.6"/>
<rect x="117.8" y="206.4" class="st0" width="15.1" height="10"/>
</svg>
