<svg xmlns="http://www.w3.org/2000/svg" width="61.183" height="46" viewBox="0 0 61.183 46">
  <g id="fast-time" transform="translate(0 -63.529)">
    <path id="Path_2308" data-name="Path 2308" d="M32.268,136H41.72a.9.9,0,1,0,0-1.792H32.268a.9.9,0,1,0,0,1.792Z" transform="translate(-27.623 -62.235)" fill="#c4d3e1"/>
    <path id="Path_2309" data-name="Path 2309" d="M81.142,185.317H77.408a.9.9,0,1,0,0,1.792h3.734a.9.9,0,1,0,0-1.792Z" transform="translate(-67.369 -107.235)" fill="#c4d3e1"/>
    <path id="Path_2310" data-name="Path 2310" d="M.9,224.119h9.143a.9.9,0,1,0,0-1.792H.9a.9.9,0,1,0,0,1.792Z" transform="translate(0 -139.822)" fill="#c4d3e1"/>
    <path id="Path_2311" data-name="Path 2311" d="M42.617,363.685a.9.9,0,0,0-.9-.9H32.268a.9.9,0,1,0,0,1.792H41.72A.9.9,0,0,0,42.617,363.685Z" transform="translate(-27.623 -263.499)" fill="#c4d3e1"/>
    <path id="Path_2312" data-name="Path 2312" d="M81.142,311.683H77.408a.9.9,0,0,0,0,1.792h3.734a.9.9,0,1,0,0-1.792Z" transform="translate(-67.369 -218.5)" fill="#c4d3e1"/>
    <path id="Path_2313" data-name="Path 2313" d="M10.936,275.569a.9.9,0,0,0-.9-.9H.9a.9.9,0,1,0,0,1.792h9.143A.9.9,0,0,0,10.936,275.569Z" transform="translate(0 -185.913)" fill="#c4d3e1"/>
    <path id="Path_2314" data-name="Path 2314" d="M312.925,142.543a.9.9,0,0,0,.9-.9v-1.368a.9.9,0,1,0-1.792,0v1.368A.9.9,0,0,0,312.925,142.543Z" transform="translate(-274.742 -66.789)" fill="#c4d3e1"/>
    <path id="Path_2315" data-name="Path 2315" d="M383.589,171.6a.9.9,0,0,0-1.268,0l-.967.967a.9.9,0,1,0,1.267,1.268l.967-.967A.9.9,0,0,0,383.589,171.6Z" transform="translate(-335.551 -94.93)" fill="#c4d3e1"/>
    <path id="Path_2316" data-name="Path 2316" d="M410.6,248.5a.9.9,0,0,0,0,1.792h1.368a.9.9,0,1,0,0-1.792Z" transform="translate(-360.741 -162.867)" fill="#c4d3e1"/>
    <path id="Path_2317" data-name="Path 2317" d="M382.621,317.825a.9.9,0,0,0-1.267,1.267l.967.967a.9.9,0,1,0,1.268-1.268Z" transform="translate(-335.551 -223.677)" fill="#c4d3e1"/>
    <path id="Path_2318" data-name="Path 2318" d="M312.029,347.066v1.368a.9.9,0,1,0,1.792,0v-1.368a.9.9,0,0,0-1.792,0Z" transform="translate(-274.742 -248.866)" fill="#c4d3e1"/>
    <path id="Path_2319" data-name="Path 2319" d="M236.1,317.825l-.967.967a.9.9,0,0,0,1.267,1.268l.967-.967a.9.9,0,1,0-1.267-1.267Z" transform="translate(-206.804 -223.677)" fill="#c4d3e1"/>
    <path id="Path_2320" data-name="Path 2320" d="M203.807,248.5a.9.9,0,1,0,0,1.792h1.368a.9.9,0,1,0,0-1.792Z" transform="translate(-178.663 -162.867)" fill="#c4d3e1"/>
    <path id="Path_2321" data-name="Path 2321" d="M237.368,172.572l-.967-.967a.9.9,0,0,0-1.267,1.268l.967.967a.9.9,0,1,0,1.267-1.268Z" transform="translate(-206.804 -94.93)" fill="#c4d3e1"/>
    <path id="Path_2322" data-name="Path 2322" d="M317.745,193.763a.9.9,0,0,0-.9-.9h-3.027v-6.654a.9.9,0,1,0-1.792,0v7.55a.9.9,0,0,0,.9.9h3.923A.9.9,0,0,0,317.745,193.763Z" transform="translate(-274.742 -107.234)" fill="#c4d3e1"/>
    <path id="Path_2323" data-name="Path 2323" d="M204.859,124.189a.9.9,0,0,0,.84-.949,17.856,17.856,0,1,0-.165,3.771.9.9,0,1,0-1.773-.266,16.088,16.088,0,1,1,.148-3.4.9.9,0,0,0,.949.84Z" transform="translate(-149.682 -37.808)" fill="#c4d3e1"/>
    <path id="Path_2324" data-name="Path 2324" d="M129.474,63.529a22.991,22.991,0,0,0-9.084,1.877H104.577a.9.9,0,1,0,0,1.792h12.441a22.975,22.975,0,0,0-4.6,3.9.9.9,0,0,0,1.329,1.2,21.165,21.165,0,1,1-2.1,2.737.9.9,0,0,0-1.506-.973,22.994,22.994,0,0,0,6.88,31.8H104.577a.9.9,0,0,0,0,1.792h15.8a23,23,0,1,0,9.1-44.123Z" transform="translate(-91.291 0)" fill="#c4d3e1"/>
  </g>
</svg>
