<svg xmlns="http://www.w3.org/2000/svg" width="354.796" height="309.778" viewBox="0 0 354.796 309.778">
  <g id="give-money" transform="translate(0 -22.509)">
    <g id="Layer_5_58_">
      <g id="Group_4629" data-name="Group 4629">
        <g id="Group_4627" data-name="Group 4627">
          <path id="Path_2100" data-name="Path 2100" d="M265.442,109.092c-10.6-4.25-13.665-6.82-13.665-11.461,0-3.714,2.813-8.053,10.744-8.053a29.831,29.831,0,0,1,12.443,2.79,3.911,3.911,0,0,0,1.83.463,3.7,3.7,0,0,0,3.456-2.367l1.927-4.926a3.049,3.049,0,0,0-1.645-3.92c-4.319-1.88-12.76-3.335-12.846-3.35a.666.666,0,0,1-.609-.678l-.027-7.146a3.96,3.96,0,0,0-4-3.9H259.59a3.958,3.958,0,0,0-4,3.9l.009,7.513c0,.576-.624.826-.852.879-10.655,2.538-17.314,10.343-17.314,20.188,0,12.273,10.145,17.819,21.1,21.982,8.757,3.438,12.329,6.924,12.329,12.037,0,5.564-5.059,9.45-12.307,9.45-6.189,0-14.565-3.923-14.648-3.963a3.913,3.913,0,0,0-1.688-.382,3.74,3.74,0,0,0-3.537,2.457l-1.84,4.982a3.236,3.236,0,0,0,1.642,4.042c5.144,2.679,15.1,4.249,15.541,4.318.119.017.725.23.725.784v7.48a3.96,3.96,0,0,0,4,3.9h3.572a3.96,3.96,0,0,0,4.005-3.9V154.34a.742.742,0,0,1,.655-.828c11.351-2.55,18.343-10.855,18.343-21.283C285.325,121.518,279.377,114.6,265.442,109.092Z" fill="#46bd9b"/>
          <path id="Path_2101" data-name="Path 2101" d="M260.979,22.509A93.819,93.819,0,1,0,354.8,116.327,93.818,93.818,0,0,0,260.979,22.509Zm0,165.9a72.075,72.075,0,1,1,72.073-72.076A72.076,72.076,0,0,1,260.979,188.4Z" fill="#46bd9b"/>
        </g>
        <g id="Group_4628" data-name="Group 4628">
          <path id="Path_2102" data-name="Path 2102" d="M335.733,255.61a238.709,238.709,0,0,1-74.753,25.484c-24.346,3.818-70.148-5.39-70.148-16.265,0-4.121,40.17,10.154,64.469,3.671,18.633-4.971,15.988-22.4,5.853-24.7-10.076-2.287-69.108-23.913-94.323-24.659-11.878-.351-41.2,4.131-55.393,6.442-4.861.791-7.909.7-8.213,5.356-1.412,21.62-4.195,65.832-5.712,88.926-.032.488.646,7.05,6.061,2.432,5.927-5.054,14.24-10.656,21.929-8.912,12.063,2.737,116.424,21.856,130.819,18.51,20.593-4.787,78.888-39.334,90.065-50.072C363.711,265.176,350.244,247.6,335.733,255.61Z" fill="#46bd9b"/>
          <path id="Path_2103" data-name="Path 2103" d="M74.426,224.74l-54.672-2.694a9.842,9.842,0,0,0-9.581,7.066L.232,319.367a5.96,5.96,0,0,0,5.773,7.741L66.6,327.1a8.068,8.068,0,0,0,8.266-7.365l6.654-86.958A7.458,7.458,0,0,0,74.426,224.74Zm-32.186,90.4a15.116,15.116,0,1,1,15.116-15.116A15.116,15.116,0,0,1,42.24,315.145Z" fill="#46bd9b"/>
        </g>
      </g>
    </g>
  </g>
</svg>
