<svg xmlns="http://www.w3.org/2000/svg" width="61" height="61" viewBox="0 0 61 61"><defs><style>.a,.b{fill:#e13a5a;}.a{opacity:0.24;}.c{fill:#fff;}</style></defs><g transform="translate(-564 -207)"><rect class="a" width="61" height="61" rx="7" transform="translate(564 207)"/><circle class="b" cx="18.265" cy="18.265" r="18.265" transform="translate(576 219)"/><path class="c" d="M10.827,9.286,17.952,2.16A1.185,1.185,0,0,0,16.276.484L9.15,7.61,2.024.484A1.185,1.185,0,0,0,.348,2.16L7.473,9.286.348,16.412a1.185,1.185,0,1,0,1.676,1.676L9.15,10.962l7.126,7.126a1.185,1.185,0,1,0,1.676-1.676Zm0,0" transform="translate(585 227.864)"/></g></svg>