<svg xmlns="http://www.w3.org/2000/svg" width="80.131" height="91.203" viewBox="0 0 80.131 91.203">
  <g id="group-of-users-silhouette" transform="translate(-5.536)">
    <path id="Path_2195" data-name="Path 2195" d="M32.847,12.755A12.755,12.755,0,1,1,45.6,25.51,12.756,12.756,0,0,1,32.847,12.755ZM51.732,34.2a13.815,13.815,0,0,1,2.623-7.474,16.278,16.278,0,0,0-3.34-.346H40.192a16.305,16.305,0,0,0-3.33.343,13.838,13.838,0,0,1,2.633,8.045A13.915,13.915,0,0,1,51.732,34.2Zm2.16,1.144a14.56,14.56,0,0,1,6.776,10.817,11.747,11.747,0,1,0-6.776-10.817Zm-7.7,24.063A11.752,11.752,0,1,0,34.438,47.654,11.753,11.753,0,0,0,46.192,59.407Zm4.985.8H41.2A15.065,15.065,0,0,0,26.158,75.254v12.2l.031.19.84.264a68.525,68.525,0,0,0,20.459,3.3c11.059,0,17.469-3.152,17.864-3.354l.785-.4h.084v-12.2A15.06,15.06,0,0,0,51.177,60.207ZM70.621,48.076h-9.9a14.485,14.485,0,0,1-4.47,10.088A17.878,17.878,0,0,1,69.027,75.273v3.759c9.77-.359,15.4-3.128,15.771-3.313l.785-.4h.084v-12.2A15.064,15.064,0,0,0,70.621,48.076Zm-45.049-.8a11.673,11.673,0,0,0,6.25-1.813,14.544,14.544,0,0,1,5.467-9.276c.012-.22.033-.438.033-.66a11.751,11.751,0,1,0-11.75,11.749ZM36.125,58.164a14.493,14.493,0,0,1-4.467-10.031c-.367-.027-.73-.057-1.1-.057H20.583A15.064,15.064,0,0,0,5.536,63.122v12.2l.031.189.84.264a70.555,70.555,0,0,0,16.945,3.186V75.273A17.881,17.881,0,0,1,36.125,58.164Z" fill="#fff"/>
  </g>
</svg>
