<svg xmlns="http://www.w3.org/2000/svg" width="61" height="61" viewBox="0 0 61 61"><defs><style>.a,.b{fill:#8676ff;}.a{opacity:0.24;}.c{fill:#fff;}</style></defs><g transform="translate(-821 -207)"><rect class="a" width="61" height="61" rx="7" transform="translate(821 207)"/><circle class="b" cx="18.265" cy="18.265" r="18.265" transform="translate(833 219)"/><g transform="translate(816.001 164.001)"><path class="c" d="M25.141,70.087H42.17l-1.856,1.856a1.141,1.141,0,0,0,1.614,1.614l3.8-3.8a1.141,1.141,0,0,0,0-1.614l-3.8-3.8a1.141,1.141,0,0,0-1.614,1.614L42.17,67.8H25.141a1.141,1.141,0,1,0,0,2.283Z" transform="translate(-0.001 0)"/><path class="c" d="M44.924,243.8H27.9l1.856-1.856a1.141,1.141,0,0,0-1.614-1.614l-3.8,3.8a1.141,1.141,0,0,0,0,1.614l3.8,3.8a1.141,1.141,0,0,0,1.614-1.614L27.9,246.087H44.924a1.141,1.141,0,1,0,0-2.283Z" transform="translate(0 -167.63)"/></g></g></svg>