<svg xmlns="http://www.w3.org/2000/svg" xmlns:xlink="http://www.w3.org/1999/xlink" width="61" height="61" viewBox="0 0 61 61"><defs><style>.a{fill:none;stroke:#707070;}.b,.c{fill:#fcaf49;}.b{opacity:0.24;}.d{clip-path:url(#a);}.e{fill:#fff;}</style><clipPath id="a"><rect class="a" width="29" height="29" rx="14.5" transform="translate(986.64 460)"/></clipPath></defs><g transform="translate(-1634 -207)"><rect class="b" width="61" height="61" rx="7" transform="translate(1634 207)"/><path class="c" d="M18.267,0A18.267,18.267,0,1,0,36.533,18.267,18.32,18.32,0,0,0,18.267,0Z" transform="translate(1646 219)"/><g class="d" transform="translate(662.36 -238)"><path class="e" d="M35,35H0V0H35V35ZM18.286,1.965A15.475,15.475,0,1,0,33.761,17.439,15.492,15.492,0,0,0,18.286,1.965Zm0,27.855a3.056,3.056,0,0,1-1.2-.244,3.125,3.125,0,0,1-1.649-1.649,3.079,3.079,0,0,1,0-2.4,3.125,3.125,0,0,1,1.649-1.649,3.079,3.079,0,0,1,2.4,0,3.125,3.125,0,0,1,1.649,1.649,3.079,3.079,0,0,1,0,2.4,3.125,3.125,0,0,1-1.649,1.649A3.056,3.056,0,0,1,18.286,29.819Zm1.548-9.285H16.738L15.5,8.155a2.976,2.976,0,0,1,.135-1.214,2.736,2.736,0,0,1,.578-.99,2.688,2.688,0,0,1,.909-.652,2.951,2.951,0,0,1,2.327,0,2.688,2.688,0,0,1,.909.652,2.735,2.735,0,0,1,.578.99,2.976,2.976,0,0,1,.135,1.214l-1.238,12.38Z" transform="translate(983.64 457)"/></g></g></svg>