<svg xmlns="http://www.w3.org/2000/svg" width="118" height="118" viewBox="0 0 118 118">
  <g id="Group_4651" data-name="Group 4651" transform="translate(-3097 231)">
    <g id="Ellipse_70" data-name="Ellipse 70" transform="translate(3097 -231)" fill="#1673a7" stroke="#c9d3dc" stroke-width="4">
      <circle cx="59" cy="59" r="59" stroke="none"/>
      <circle cx="59" cy="59" r="57" fill="none"/>
    </g>
    <g id="Group_4650" data-name="Group 4650" transform="translate(1459.266 -631.366)">
      <path id="Path_538" data-name="Path 538" d="M.3,65.909l.915,2.06L34.053,54.352l5.721.687,2.059,6.293-2.746,2.632a3.3,3.3,0,0,0-.8,3.776L39.431,70.6l18.994-7.438L57.4,60.417a3.235,3.235,0,0,0-3.2-2.174H50.415l-2.059-4.921L53.391,50.8a3.439,3.439,0,0,0,1.716-4.234L48.585,29.064A3.525,3.525,0,0,0,44.122,27a.112.112,0,0,0-.114.115L39.2,29.178l-.687-1.716,2.632-3.089a13.466,13.466,0,0,0,3.318-7.323l3.318-4a6.009,6.009,0,0,0-.8-8.468,9.578,9.578,0,0,0-1.373-.915,5.686,5.686,0,0,0-3.89-.343l-.344-1.03A3.309,3.309,0,0,0,37.028.228l-24.144,8.7a3.349,3.349,0,0,0-2.059,4.348v.115l.572,1.487a6.34,6.34,0,0,0-3.319,7.781,6.508,6.508,0,0,0,5.264,4.233l5.378.572a14.9,14.9,0,0,0,7.438,2.861l3.776.344.687,1.716a3.408,3.408,0,0,0-1.6,2.289l-.8,3.89L.3,49.889l.8,2.174,16.02-6.407,3.89,11.671ZM55.107,61.1l.229.686L40.689,67.625l-.343-.687a1.587,1.587,0,0,1,.229-1.258l3.89-3.662,4.92-1.6h4.577a1.148,1.148,0,0,1,1.144.687ZM47.9,58.357,43.779,59.73l-1.487-4.348a2.544,2.544,0,0,0,1.83-.344l1.945-.915Zm-3.09-29.522a1.136,1.136,0,0,1,1.488.572l.915,2.4L41.6,33.641l.687,2.174L47.9,33.984l1.373,3.662-5.378,1.83.687,2.175,5.492-1.831,1.373,3.661L46.182,45.2l.687,2.175,5.378-1.831.572,1.487a1.01,1.01,0,0,1-.572,1.373l-9.04,4.463a1.451,1.451,0,0,1-.687.115l-7.781-.916-4.234-12.7.8-4.234a1.211,1.211,0,0,1,.687-.8ZM44.694,5.721a3.791,3.791,0,0,1,1.945,4.921,4.009,4.009,0,0,1-.572.915l-1.373,1.716a17.1,17.1,0,0,0-.686-3.318L42.52,5.492a4.573,4.573,0,0,1,2.174.229ZM10.366,22.084a3.942,3.942,0,0,1,1.945-4.921l1.6,3.891a16.577,16.577,0,0,0,2.289,3.89l-2.4-.229a3.827,3.827,0,0,1-3.433-2.632Zm16.249,6.064a12.5,12.5,0,0,1-10.527-7.9L13.113,12.7a1.135,1.135,0,0,1,.572-1.487l24.144-8.7a1.263,1.263,0,0,1,.916,0,1.173,1.173,0,0,1,.572.687l2.517,7.552a12.578,12.578,0,0,1-2.4,12.129L35.884,27l1.03,2.746-4.119,1.716L31.65,28.606ZM19.292,44.74l2.632-1.03,2.861,8.7,2.174-.687L23.983,42.8l4.577-1.831,3.89,11.557-9.269,3.89Zm0,0" transform="translate(1661.437 424.366)" fill="#fff"/>
      <g id="Group_2941" data-name="Group 2941" transform="translate(1662.191 429.514)">
        <path id="Path_539" data-name="Path 539" d="M361.217,50.867v1.144h2.289V50.867a5.666,5.666,0,0,1,5.721-5.721V42.858a5.666,5.666,0,0,1-5.721-5.721V35.992h-2.289v1.144a5.665,5.665,0,0,1-5.721,5.721v2.289A5.666,5.666,0,0,1,361.217,50.867Zm1.144-9.612A7.885,7.885,0,0,0,365.108,44a7.892,7.892,0,0,0-2.746,2.747A7.892,7.892,0,0,0,359.615,44,7.885,7.885,0,0,0,362.362,41.256Zm0,0" transform="translate(-305.148 -35.992)" fill="#fff"/>
        <path id="Path_540" data-name="Path 540" d="M9.217,210.867v1.144h2.289v-1.144a5.666,5.666,0,0,1,5.721-5.721v-2.289a5.666,5.666,0,0,1-5.721-5.721v-1.144H9.217v1.144A5.665,5.665,0,0,1,3.5,202.858v2.289A5.666,5.666,0,0,1,9.217,210.867Zm1.144-9.612A7.886,7.886,0,0,0,13.108,204a7.892,7.892,0,0,0-2.746,2.747A7.892,7.892,0,0,0,7.616,204,7.886,7.886,0,0,0,10.362,201.256Zm0,0" transform="translate(-3.496 -173.107)" fill="#fff"/>
        <path id="Path_541" data-name="Path 541" d="M395.506,197.136v-1.144h-2.288v1.144a5.665,5.665,0,0,1-5.721,5.721v2.289a5.666,5.666,0,0,1,5.721,5.721v1.144h2.288v-1.144a5.666,5.666,0,0,1,5.721-5.721v-2.289A5.666,5.666,0,0,1,395.506,197.136Zm-1.144,9.612A7.891,7.891,0,0,0,391.615,204a7.885,7.885,0,0,0,2.746-2.746A7.885,7.885,0,0,0,397.108,204,7.891,7.891,0,0,0,394.362,206.749Zm0,0" transform="translate(-332.571 -173.107)" fill="#fff"/>
      </g>
    </g>
  </g>
</svg>
