<svg xmlns="http://www.w3.org/2000/svg" width="118" height="118" viewBox="0 0 118 118">
  <g id="Group_4652" data-name="Group 4652" transform="translate(-2929 231)">
    <g id="Ellipse_69" data-name="Ellipse 69" transform="translate(2929 -231)" fill="#1673a7" stroke="#c9d3dc" stroke-width="4">
      <circle cx="59" cy="59" r="59" stroke="none"/>
      <circle cx="59" cy="59" r="57" fill="none"/>
    </g>
    <g id="Group_4649" data-name="Group 4649" transform="translate(1976 -633)">
      <path id="check-mark_1_" data-name="check-mark (1)" d="M50.9,24.1a2.757,2.757,0,0,1,0,3.9L32.4,46.5a2.758,2.758,0,0,1-3.9,0L19.7,37.694a2.758,2.758,0,1,1,3.9-3.9l6.857,6.857L47,24.1a2.758,2.758,0,0,1,3.9,0ZM70.6,35.3A35.3,35.3,0,1,1,35.3,0,35.281,35.281,0,0,1,70.6,35.3Zm-5.516,0A29.784,29.784,0,1,0,35.3,65.085,29.768,29.768,0,0,0,65.084,35.3Zm0,0" transform="translate(977 426)" fill="#fff"/>
      <g id="Ellipse_37" data-name="Ellipse 37" transform="translate(977 426)" fill="none" stroke="#fff" stroke-width="3">
        <circle cx="35.3" cy="35.3" r="35.3" stroke="none"/>
        <circle cx="35.3" cy="35.3" r="33.8" fill="none"/>
      </g>
    </g>
  </g>
</svg>
