<svg xmlns="http://www.w3.org/2000/svg" width="118" height="118" viewBox="0 0 118 118">
  <g id="Group_4648" data-name="Group 4648" transform="translate(-2598 231)">
    <g id="Ellipse_67" data-name="Ellipse 67" transform="translate(2598 -231)" fill="#1673a7" stroke="#c9d3dc" stroke-width="4">
      <circle cx="59" cy="59" r="59" stroke="none"/>
      <circle cx="59" cy="59" r="57" fill="none"/>
    </g>
    <g id="Group_4641" data-name="Group 4641" transform="translate(2104 -644)">
      <path id="Path_982" data-name="Path 982" d="M54.053,0H13.621L0,13.622V70.6H54.053ZM12.41,7.062V12.41H7.062Zm37.506,59.4H4.137V16.547h12.41V4.137h33.37Zm0,0" transform="translate(526 437)" fill="#fff"/>
      <path id="Path_983" data-name="Path 983" d="M60,150H97.506v4.137H60Zm0,0" transform="translate(474.273 307.684)" fill="#fff"/>
      <path id="Path_984" data-name="Path 984" d="M60,210H97.506v4.137H60Zm0,0" transform="translate(474.273 255.957)" fill="#fff"/>
      <path id="Path_985" data-name="Path 985" d="M60,270H97.506v4.137H60Zm0,0" transform="translate(474.273 204.23)" fill="#fff"/>
      <path id="Path_986" data-name="Path 986" d="M60,330H97.506v4.137H60Zm0,0" transform="translate(474.273 152.504)" fill="#fff"/>
      <path id="Path_987" data-name="Path 987" d="M60,390H72.245v4.137H60Zm0,0" transform="translate(474.273 100.777)" fill="#fff"/>
      <path id="Path_988" data-name="Path 988" d="M241.8,390h12.438v4.137H241.8Zm0,0" transform="translate(317.541 100.777)" fill="#fff"/>
      <path id="Path_989" data-name="Path 989" d="M181,60h16.685v4.137H181Zm0,0" transform="translate(369.958 385.273)" fill="#fff"/>
    </g>
  </g>
</svg>
