<svg xmlns="http://www.w3.org/2000/svg" width="118" height="118" viewBox="0 0 118 118">
  <g id="Group_4647" data-name="Group 4647" transform="translate(-2761 231)">
    <g id="Ellipse_68" data-name="Ellipse 68" transform="translate(2761 -231)" fill="#1673a7" stroke="#c9d3dc" stroke-width="4">
      <circle cx="59" cy="59" r="59" stroke="none"/>
      <circle cx="59" cy="59" r="57" fill="none"/>
    </g>
    <g id="Group_4646" data-name="Group 4646" transform="translate(2036 -632.72)">
      <path id="Path_999" data-name="Path 999" d="M47.6,34.6h15.75a3.89,3.89,0,0,0,2.3-.749,3.89,3.89,0,0,0,2.3.749H83.7a3.89,3.89,0,0,0,2.3-.749,3.89,3.89,0,0,0,2.3.749h15.75a3.918,3.918,0,0,0,3.913-3.914V23.344a8.475,8.475,0,0,0-4.61-7.578,9.324,9.324,0,1,0-14.357,0A8.467,8.467,0,0,0,86,18.333,8.451,8.451,0,0,0,83,15.767a9.324,9.324,0,1,0-14.356,0,8.451,8.451,0,0,0-2.994,2.566,8.459,8.459,0,0,0-2.994-2.567,9.323,9.323,0,1,0-14.356,0,8.476,8.476,0,0,0-4.61,7.578v7.344A3.918,3.918,0,0,0,47.6,34.6ZM96.168,3.733a6.091,6.091,0,1,1-6.091,6.091A6.1,6.1,0,0,1,96.168,3.733Zm-4.2,14.412a9.29,9.29,0,0,0,8.4,0,5.252,5.252,0,0,1,4.357,5.2v7.345a.681.681,0,0,1-.681.681H88.293a.681.681,0,0,1-.68-.681V23.344a5.252,5.252,0,0,1,4.356-5.2ZM75.824,3.733a6.091,6.091,0,1,1-6.091,6.091A6.1,6.1,0,0,1,75.824,3.733Zm-4.2,14.412a9.29,9.29,0,0,0,8.4,0,5.252,5.252,0,0,1,4.357,5.2v7.345a.681.681,0,0,1-.681.681H67.949a.681.681,0,0,1-.681-.681V23.344A5.253,5.253,0,0,1,71.625,18.144ZM55.48,3.733a6.091,6.091,0,1,1-6.091,6.091A6.1,6.1,0,0,1,55.48,3.733ZM46.924,23.344a5.253,5.253,0,0,1,4.357-5.2,9.29,9.29,0,0,0,8.4,0,5.252,5.252,0,0,1,4.357,5.2v7.345a.681.681,0,0,1-.681.681H47.6a.681.681,0,0,1-.681-.681Zm0,0" transform="translate(708.309 461.717)" fill="#fff"/>
      <g id="surface1" transform="translate(768.381 425.72)">
        <path id="Path_1000" data-name="Path 1000" d="M106.775,0a10.376,10.376,0,0,0-6.2,18.7v.867a3.058,3.058,0,0,0-.219,4.391,3.062,3.062,0,0,0,1.333,5.016,5.153,5.153,0,0,0,10.168,0,3.062,3.062,0,0,0,1.333-5.017,3.057,3.057,0,0,0-.219-4.391V18.7a10.376,10.376,0,0,0-6.2-18.7Zm4.178,20.752a1.114,1.114,0,0,1,0,2.228H102.6a1.114,1.114,0,1,1,0-2.228Zm-4.178,10.584a3.209,3.209,0,0,1-3.051-2.228h6.1A3.209,3.209,0,0,1,106.775,31.337Zm4.178-4.178H102.6a1.114,1.114,0,1,1,0-2.228h8.357a1.114,1.114,0,0,1,0,2.228Zm.5-9.775a.975.975,0,0,0-.433.81v.61l-.069,0h-1.114V14.958l1.4-1.4a.975.975,0,0,0-1.379-1.379l-1.686,1.686a.975.975,0,0,0-.286.689V18.8h-2.228V14.554a.975.975,0,0,0-.286-.689l-1.686-1.686a.975.975,0,0,0-1.379,1.379l1.4,1.4V18.8H102.6l-.07,0v-.61a.975.975,0,0,0-.433-.81,8.426,8.426,0,1,1,9.361,0Zm0,0" transform="translate(-90.131)" fill="#fff"/>
        <path id="Path_1001" data-name="Path 1001" d="M4.039,145.577a.975.975,0,0,0-.975-.975H.975a.975.975,0,0,0,0,1.95H3.064A.975.975,0,0,0,4.039,145.577Zm0,0" transform="translate(0 -135.201)" fill="#fff"/>
        <path id="Path_1002" data-name="Path 1002" d="M452.931,144.6h-2.089a.975.975,0,1,0,0,1.95h2.089a.975.975,0,1,0,0-1.95Zm0,0" transform="translate(-420.62 -135.201)" fill="#fff"/>
        <path id="Path_1003" data-name="Path 1003" d="M34.582,249.162l-1.809,1.044a.975.975,0,1,0,.975,1.689l1.809-1.044a.975.975,0,0,0-.975-1.689Zm0,0" transform="translate(-30.186 -232.841)" fill="#fff"/>
        <path id="Path_1004" data-name="Path 1004" d="M422.858,27.095a.971.971,0,0,0,.487-.131l1.81-1.045a.975.975,0,0,0-.975-1.689l-1.81,1.045a.975.975,0,0,0,.489,1.82Zm0,0" transform="translate(-394.453 -22.533)" fill="#fff"/>
        <path id="Path_1005" data-name="Path 1005" d="M425.152,250.21l-1.809-1.044a.975.975,0,0,0-.975,1.689l1.81,1.044a.975.975,0,1,0,.975-1.689Zm0,0" transform="translate(-394.452 -232.845)" fill="#fff"/>
        <path id="Path_1006" data-name="Path 1006" d="M35.56,25.275l-1.809-1.044a.975.975,0,0,0-.975,1.689l1.809,1.045a.975.975,0,0,0,.975-1.689Zm0,0" transform="translate(-30.189 -22.533)" fill="#fff"/>
      </g>
    </g>
  </g>
</svg>
