<svg xmlns="http://www.w3.org/2000/svg" width="28.617" height="27.2" viewBox="0 0 28.617 27.2">
  <g id="home_1_" data-name="home (1)" transform="translate(0 -12.675)">
    <g id="Group_2547" data-name="Group 2547" transform="translate(0 12.675)">
      <g id="Group_2546" data-name="Group 2546" transform="translate(0)">
        <path id="Path_485" data-name="Path 485" d="M28.136,24.76,15.3,13.061a1.461,1.461,0,0,0-1.977,0L.481,24.76a1.467,1.467,0,0,0,.988,2.552H3.52V39.034a.842.842,0,0,0,.842.842H11.4a.842.842,0,0,0,.842-.842V31.917h4.136v7.117a.842.842,0,0,0,.842.842h7.037a.842.842,0,0,0,.842-.842V27.312h2.051a1.467,1.467,0,0,0,.988-2.552Z" transform="translate(0 -12.675)" fill="#1673a7"/>
      </g>
    </g>
    <g id="Group_2549" data-name="Group 2549" transform="translate(19.225 14.355)">
      <g id="Group_2548" data-name="Group 2548">
        <path id="Path_486" data-name="Path 486" d="M349.625,42.73h-5.652l6.493,5.9V43.572A.842.842,0,0,0,349.625,42.73Z" transform="translate(-343.973 -42.73)" fill="#1673a7"/>
      </g>
    </g>
  </g>
</svg>
