<svg xmlns="http://www.w3.org/2000/svg" xmlns:xlink="http://www.w3.org/1999/xlink" width="369" height="257" viewBox="0 0 369 257">
  <defs>
    <clipPath id="clip-path">
      <rect id="Rectangle_713" data-name="Rectangle 713" width="369" height="257" transform="translate(-624 2527)" fill="none"/>
    </clipPath>
  </defs>
  <g id="Mask_Group_13" data-name="Mask Group 13" transform="translate(624 -2527)" clip-path="url(#clip-path)">
    <g id="Group_2889" data-name="Group 2889" transform="translate(-780 1212)">
      <rect id="Rectangle_41" data-name="Rectangle 41" width="369" height="257" transform="translate(156 1315)" fill="#017ac3"/>
      <g id="Group_2862" data-name="Group 2862" transform="translate(228.467 1265.855)">
        <circle id="Ellipse_22" data-name="Ellipse 22" cx="177" cy="177" r="177" transform="translate(-0.467 0.144)" fill="#3ca0db"/>
        <ellipse id="Ellipse_23" data-name="Ellipse 23" cx="131.5" cy="131" rx="131.5" ry="131" transform="translate(45.533 46.144)" fill="#59a9de"/>
        <ellipse id="Ellipse_24" data-name="Ellipse 24" cx="93.5" cy="94" rx="93.5" ry="94" transform="translate(83.533 83.144)" fill="#6cb0df"/>
      </g>
      <g id="Rectangle_44" data-name="Rectangle 44" transform="translate(475 1352)" fill="none" stroke="#fff" stroke-width="2" opacity="0.41">
        <rect width="18" height="18" rx="5" stroke="none"/>
        <rect x="1" y="1" width="16" height="16" rx="4" fill="none"/>
      </g>
      <g id="Ellipse_26" data-name="Ellipse 26" transform="translate(498 1476)" fill="none" stroke="#fff" stroke-width="2" opacity="0.41">
        <circle cx="9.5" cy="9.5" r="9.5" stroke="none"/>
        <circle cx="9.5" cy="9.5" r="8.5" fill="none"/>
      </g>
      <g id="idea_4_" data-name="idea (4)" transform="translate(359 1396)">
        <g id="Group_2865" data-name="Group 2865" transform="translate(14.61 35.739)">
          <g id="Group_2864" data-name="Group 2864">
            <path id="Path_811" data-name="Path 811" d="M405.8,193.158a1.856,1.856,0,0,1,2.624,2.624c-.029.029-.058.058-.087.084a1.856,1.856,0,0,1-2.537-2.709Z" transform="translate(-405.214 -192.615)" fill="#fff"/>
          </g>
        </g>
        <g id="Group_2867" data-name="Group 2867" transform="translate(18.153 28.431)">
          <g id="Group_2866" data-name="Group 2866">
            <path id="Path_812" data-name="Path 812" d="M276.578,158.033a29.043,29.043,0,0,1,3.241-1.912,24.885,24.885,0,0,1,18.87-1.8,1.855,1.855,0,0,1-1.1,3.544,21.242,21.242,0,0,0-16.1,1.57,25.84,25.84,0,0,0-2.825,1.668,1.855,1.855,0,1,1-2.084-3.07Z" transform="translate(-275.764 -153.23)" fill="#fff"/>
          </g>
        </g>
        <g id="Group_2869" data-name="Group 2869" transform="translate(0 11.774)">
          <g id="Group_2868" data-name="Group 2868">
            <path id="Path_813" data-name="Path 813" d="M73.754,108.93c.761-1.6,2.02-4.238,2.043-5.112-2.17-5.348-1.378-11.267,2.236-16.68,5.558-8.326,16.948-14.369,27.084-14.369a33.2,33.2,0,0,1,15.3,3.717A15.883,15.883,0,1,1,144.324,92.9a3.1,3.1,0,0,0-1.792,2.756v10.857a3.761,3.761,0,0,1-3.756,3.757h-.631a33.045,33.045,0,0,1-11.19,20.924c-.059.183-.23,1.043.507,3.606.574,2,1.456,4.216,2.233,6.173.52,1.31.97,2.441,1.241,3.3a1.856,1.856,0,0,1-1.768,2.417H102.682c-.87,0-2.065-.39-2.818-2.246a18.14,18.14,0,0,1-.768-2.809c-.22-1-.737-3.351-1.251-3.635a.377.377,0,0,0-.1.006,1.824,1.824,0,0,1-.288.022c-2.774,0-5.04.126-7.04.237-5.865.325-9.405.522-12.511-3.951-1.579-2.275-1.4-5.593-1.211-9.106a33.141,33.141,0,0,0,.019-5.233,16.189,16.189,0,0,0-1.643-1.225c-1.749-1.2-3.4-2.336-3.4-4.06C71.667,113.373,72.46,111.643,73.754,108.93Zm68.631-19.2a12.173,12.173,0,1,0-12.7,0,6.752,6.752,0,0,1,3.252,3.975h6.194A6.756,6.756,0,0,1,142.385,89.731Zm-9.136,7.687v2.714h5.572V97.418h-5.572Zm5.526,9.138a.054.054,0,0,0,.045-.046v-2.667h-5.572v2.667a.054.054,0,0,0,.046.046Zm-61.606,9.129c1.6,1.1,2.976,2.044,3.18,3.477A33.032,33.032,0,0,1,80.4,125.4c-.141,2.606-.3,5.561.554,6.79,1.846,2.66,3.443,2.685,9.257,2.362,1.918-.107,4.3-.238,7.12-.243a3.955,3.955,0,0,1,4.141,2.455,17.239,17.239,0,0,1,1.25,4.065,19.715,19.715,0,0,0,.551,2.142H126.5l-.251-.633c-2.673-6.73-4.366-11.667-1.789-13.894a29.363,29.363,0,0,0,9.944-18.179h-1.1a3.761,3.761,0,0,1-3.757-3.757V95.655a3.1,3.1,0,0,0-1.792-2.76A15.775,15.775,0,0,1,120.2,80.613a29.48,29.48,0,0,0-15.086-4.134c-8.841,0-19.158,5.468-24,12.719-2.074,3.108-4.078,7.942-1.843,13.325.728,1.753-.351,4.184-2.173,8a33.484,33.484,0,0,0-1.669,3.864A17.529,17.529,0,0,0,77.169,115.684Z" transform="translate(-71.668 -63.458)" fill="#fff"/>
          </g>
        </g>
        <g id="Group_2871" data-name="Group 2871" transform="translate(54.996 20.126)">
          <g id="Group_2870" data-name="Group 2870">
            <path id="Path_814" data-name="Path 814" d="M170.783,113.381a7.428,7.428,0,0,1,3.939-4.7,1.856,1.856,0,0,1,1.7,3.3,3.72,3.72,0,0,0-2.058,2.373,5.625,5.625,0,0,0,.515,3.834,1.855,1.855,0,1,1-3.129,1.995A9.3,9.3,0,0,1,170.783,113.381Z" transform="translate(-170.514 -108.47)" fill="#fff"/>
          </g>
        </g>
        <g id="Group_2873" data-name="Group 2873" transform="translate(62.512)">
          <g id="Group_2872" data-name="Group 2872">
            <path id="Path_815" data-name="Path 815" d="M149.134,0a1.856,1.856,0,0,1,1.855,1.855v5.29a1.855,1.855,0,1,1-3.711,0V1.855A1.856,1.856,0,0,1,149.134,0Z" transform="translate(-147.279)" fill="#fff"/>
          </g>
        </g>
        <g id="Group_2875" data-name="Group 2875" transform="translate(83.099 25.877)">
          <g id="Group_2874" data-name="Group 2874">
            <path id="Path_816" data-name="Path 816" d="M9.67,139.465h5.29a1.855,1.855,0,1,1,0,3.711H9.67a1.855,1.855,0,0,1,0-3.711Z" transform="translate(-7.815 -139.465)" fill="#fff"/>
          </g>
        </g>
        <g id="Group_2877" data-name="Group 2877" transform="translate(72.806 3.467)">
          <g id="Group_2876" data-name="Group 2876">
            <path id="Path_817" data-name="Path 817" d="M77.794,24.191l2.644-4.579a1.855,1.855,0,1,1,3.214,1.855l-2.644,4.579a1.855,1.855,0,1,1-3.214-1.855Z" transform="translate(-77.545 -18.684)" fill="#fff"/>
          </g>
        </g>
        <g id="Group_2879" data-name="Group 2879" transform="translate(80.343 12.939)">
          <g id="Group_2878" data-name="Group 2878" transform="translate(0)">
            <path id="Path_818" data-name="Path 818" d="M27.423,72.627,32,69.983A1.855,1.855,0,1,1,33.858,73.2l-4.579,2.644a1.855,1.855,0,0,1-1.855-3.214Z" transform="translate(-26.495 -69.735)" fill="#fff"/>
          </g>
        </g>
        <g id="Group_2881" data-name="Group 2881" transform="translate(40.1 12.939)">
          <g id="Group_2880" data-name="Group 2880">
            <path id="Path_819" data-name="Path 819" d="M243.631,70.66a1.855,1.855,0,0,1,2.535-.679l4.579,2.644a1.855,1.855,0,1,1-1.855,3.214l-4.579-2.644A1.855,1.855,0,0,1,243.631,70.66Z" transform="translate(-243.382 -69.732)" fill="#fff"/>
          </g>
        </g>
        <g id="Group_2883" data-name="Group 2883" transform="translate(80.342 36.171)">
          <g id="Group_2882" data-name="Group 2882" transform="translate(0)">
            <path id="Path_820" data-name="Path 820" d="M26.744,195.874a1.856,1.856,0,0,1,2.534-.679l4.581,2.644A1.855,1.855,0,1,1,32,201.052l-4.58-2.644A1.855,1.855,0,0,1,26.744,195.874Z" transform="translate(-26.495 -194.946)" fill="#fff"/>
          </g>
        </g>
        <g id="Group_2885" data-name="Group 2885" transform="translate(73.188 44.369)">
          <g id="Group_2884" data-name="Group 2884" transform="translate(0)">
            <path id="Path_821" data-name="Path 821" d="M78.473,239.375a1.856,1.856,0,0,1,2.535.679l2.263,3.919a1.856,1.856,0,1,1-3.214,1.855l-2.263-3.919A1.855,1.855,0,0,1,78.473,239.375Z" transform="translate(-77.545 -239.127)" fill="#fff"/>
          </g>
        </g>
        <g id="Group_2887" data-name="Group 2887" transform="translate(49.572 3.467)">
          <g id="Group_2886" data-name="Group 2886">
            <path id="Path_822" data-name="Path 822" d="M203.691,18.932a1.855,1.855,0,0,1,2.535.679l2.644,4.579a1.855,1.855,0,1,1-3.214,1.855l-2.644-4.579A1.855,1.855,0,0,1,203.691,18.932Z" transform="translate(-202.763 -18.683)" fill="#fff"/>
          </g>
        </g>
      </g>
      <g id="Ellipse_27" data-name="Ellipse 27" transform="translate(328 1366)" fill="none" stroke="#fff" stroke-width="2" opacity="0.41">
        <ellipse cx="77.5" cy="77" rx="77.5" ry="77" stroke="none"/>
        <ellipse cx="77.5" cy="77" rx="76.5" ry="76" fill="none"/>
      </g>
      <g id="Polygon_2" data-name="Polygon 2" transform="translate(430 1378)" fill="none" opacity="0.41">
        <path d="M7.909,4.442a3,3,0,0,1,5.183,0l5.277,9.046A3,3,0,0,1,15.777,18H5.223a3,3,0,0,1-2.591-4.512Z" stroke="none"/>
        <path d="M 10.50000095367432 4.95390796661377 C 10.32730102539063 4.95390796661377 9.897420883178711 5.00224781036377 9.636220932006836 5.450027465820313 L 4.359331130981445 14.49612808227539 C 4.096090316772461 14.94739723205566 4.269281387329102 15.34713745117188 4.355960845947266 15.49805736541748 C 4.442651748657227 15.64897727966309 4.70067024230957 15.99999809265137 5.223111152648926 15.99999809265137 L 15.77689075469971 15.99999809265137 C 16.29933166503906 15.99999809265137 16.55735015869141 15.64897727966309 16.6440315246582 15.49805736541748 C 16.73071098327637 15.34713745117188 16.90391159057617 14.94739723205566 16.64067077636719 14.49612808227539 L 11.3637809753418 5.450027465820313 C 11.10258102416992 5.00224781036377 10.67270088195801 4.95390796661377 10.50000095367432 4.95390796661377 M 10.50000095367432 2.95390510559082 C 11.50626087188721 2.95390510559082 12.5125207901001 3.450033187866211 13.09134101867676 4.442287445068359 L 18.36823081970215 13.48838806152344 C 19.53487014770508 15.48835754394531 18.09226036071777 17.99999809265137 15.77689075469971 17.99999809265137 L 5.223111152648926 17.99999809265137 C 2.907741546630859 17.99999809265137 1.465120315551758 15.48835754394531 2.631771087646484 13.48838806152344 L 7.908660888671875 4.442287445068359 C 8.487481117248535 3.450033187866211 9.493741035461426 2.95390510559082 10.50000095367432 2.95390510559082 Z" stroke="none" fill="#fff"/>
      </g>
      <g id="Ellipse_30" data-name="Ellipse 30" transform="translate(339 1496)" fill="none" stroke="#fff" stroke-width="2" opacity="0.41">
        <circle cx="5.5" cy="5.5" r="5.5" stroke="none"/>
        <circle cx="5.5" cy="5.5" r="4.5" fill="none"/>
      </g>
    </g>
  </g>
</svg>
