<svg xmlns="http://www.w3.org/2000/svg" width="42.912" height="58.085" viewBox="0 0 42.912 58.085">
  <g id="Group_4614" data-name="Group 4614" transform="translate(-54 -198.755)">
    <g id="Group_2984" data-name="Group 2984" transform="translate(54 199)">
      <path id="Path_977" data-name="Path 977" d="M100.9,46.85A4.661,4.661,0,0,0,97.87,51.2a4.609,4.609,0,0,0,.535,2.123,3.715,3.715,0,0,0,0,6.95A4.609,4.609,0,0,0,97.87,62.4,4.66,4.66,0,0,0,100.9,66.75a3.68,3.68,0,0,0-.23,1.244,3.706,3.706,0,0,0,5.047,3.481A3.722,3.722,0,0,0,112.8,69.86V43.739a3.722,3.722,0,0,0-7.081-1.615A3.7,3.7,0,0,0,100.9,46.85Zm3.5-3.11a1.868,1.868,0,0,1,1.866,1.866h1.866a3.7,3.7,0,0,0-.86-2.354,1.861,1.861,0,0,1,3.659.488V69.86a1.861,1.861,0,0,1-3.659.488,3.7,3.7,0,0,0,.86-2.354h-1.866a1.866,1.866,0,1,1-1.866-1.866V64.263a3.7,3.7,0,0,0-2.379.881,2.8,2.8,0,1,1,3.312-2.747H107.2a4.67,4.67,0,0,0-4.664-4.664,4.615,4.615,0,0,0-2.8.957v-.025a1.866,1.866,0,0,1,0-3.732V54.91a4.615,4.615,0,0,0,2.8.957A4.669,4.669,0,0,0,107.2,51.2h-1.866a2.8,2.8,0,1,1-3.312-2.746,3.7,3.7,0,0,0,2.379.881V47.471a1.866,1.866,0,0,1,0-3.732Zm0,0" transform="translate(-92.273 -35.343)" fill="#1673a7"/>
      <path id="Path_978" data-name="Path 978" d="M264.4,41.874a3.711,3.711,0,0,0-1.315.251A3.723,3.723,0,0,0,256,43.739V69.86a3.723,3.723,0,0,0,7.081,1.615,3.706,3.706,0,0,0,5.047-3.481,3.669,3.669,0,0,0-.23-1.244A4.66,4.66,0,0,0,270.93,62.4a4.608,4.608,0,0,0-.534-2.122,3.716,3.716,0,0,0,0-6.95,4.609,4.609,0,0,0,.534-2.123A4.661,4.661,0,0,0,267.9,46.85a3.667,3.667,0,0,0,.23-1.244,3.736,3.736,0,0,0-3.732-3.732Zm4.664,9.329a2.8,2.8,0,1,1-5.6,0H261.6a4.67,4.67,0,0,0,4.664,4.664,4.615,4.615,0,0,0,2.8-.957v.024a1.866,1.866,0,1,1,0,3.732v.025a4.615,4.615,0,0,0-2.8-.957A4.67,4.67,0,0,0,261.6,62.4h1.866a2.8,2.8,0,1,1,3.312,2.747,3.7,3.7,0,0,0-2.379-.881v1.866a1.866,1.866,0,1,1-1.866,1.866h-1.866a3.7,3.7,0,0,0,.86,2.354,1.861,1.861,0,0,1-3.659-.488V43.739a1.861,1.861,0,0,1,3.659-.488,3.7,3.7,0,0,0-.86,2.354h1.866a1.866,1.866,0,1,1,1.866,1.866v1.866a3.7,3.7,0,0,0,2.379-.881,2.8,2.8,0,0,1,2.285,2.746Zm0,0" transform="translate(-233.615 -35.343)" fill="#1673a7"/>
      <path id="Path_979" data-name="Path 979" d="M100.155,5.82A21.278,21.278,0,0,0,84.094.045l.116,1.862A19.589,19.589,0,0,1,96.276,37.792a11.533,11.533,0,0,0-4.215,5.123H78.83a11.722,11.722,0,0,0-4.236-5.162,19.5,19.5,0,0,1-8.709-16.919l-1.865-.058A21.356,21.356,0,0,0,73.557,39.3a9.83,9.83,0,0,1,3.227,3.612H74.27v1.866h3.259a10.765,10.765,0,0,1,.4,1.866H76.136v1.866H78v2.8a.933.933,0,0,0,.933.933h.933a5.6,5.6,0,1,0,11.195,0h.933a.932.932,0,0,0,.933-.933v-2.8h1.866V46.646h-1.8a10.4,10.4,0,0,1,.375-1.866h3.291V42.915H94.1a9.619,9.619,0,0,1,3.2-3.567A21.453,21.453,0,0,0,100.155,5.82ZM85.465,55.975a3.735,3.735,0,0,1-3.732-3.732H89.2A3.735,3.735,0,0,1,85.465,55.975Zm5.6-5.6H79.867V48.512H91.062Zm.067-3.732H79.793a12.7,12.7,0,0,0-.316-1.866H91.419a12.4,12.4,0,0,0-.29,1.866Zm0,0" transform="translate(-64.009 -0.001)" fill="#1673a7"/>
    </g>
    <g id="Group_2985" data-name="Group 2985" transform="translate(-745 -75)">
      <path id="Path_980" data-name="Path 980" d="M48.617,4.3a2.455,2.455,0,0,1,2.452,2.452.613.613,0,0,0,1.226,0A2.455,2.455,0,0,1,54.747,4.3a.613.613,0,0,0,0-1.226A2.455,2.455,0,0,1,52.3.621a.613.613,0,1,0-1.226,0,2.455,2.455,0,0,1-2.452,2.452.613.613,0,1,0,0,1.226Zm3.065-1.647a3.71,3.71,0,0,0,1.034,1.034A3.714,3.714,0,0,0,51.682,4.72a3.71,3.71,0,0,0-1.034-1.034A3.706,3.706,0,0,0,51.682,2.652Zm0,0" transform="translate(755.579 273.747)" fill="#1673a7"/>
      <path id="Path_981" data-name="Path 981" d="M6.747,84.3a.613.613,0,1,0,0-1.226A2.455,2.455,0,0,1,4.3,80.621a.613.613,0,1,0-1.226,0A2.455,2.455,0,0,1,.617,83.073a.613.613,0,1,0,0,1.226,2.455,2.455,0,0,1,2.452,2.452.613.613,0,1,0,1.226,0A2.455,2.455,0,0,1,6.747,84.3Zm-3.065.421a3.71,3.71,0,0,0-1.034-1.034,3.714,3.714,0,0,0,1.034-1.034,3.718,3.718,0,0,0,1.034,1.034A3.714,3.714,0,0,0,3.682,84.72Zm0,0" transform="translate(798.996 201.687)" fill="#1673a7"/>
    </g>
  </g>
</svg>
