<svg xmlns="http://www.w3.org/2000/svg" width="24" height="24" viewBox="0 0 24 24">
  <g id="Group_2861" data-name="Group 2861" transform="translate(-712 -366)">
    <circle id="Ellipse_21" data-name="Ellipse 21" cx="12" cy="12" r="12" transform="translate(712 366)" fill="#fff"/>
    <g id="idea_2_" data-name="idea (2)" transform="translate(716.999 371)">
      <g id="Group_2551" data-name="Group 2551" transform="translate(4.292 11.083)">
        <g id="Group_2550" data-name="Group 2550">
          <path id="Path_487" data-name="Path 487" d="M151,390v.426a1.276,1.276,0,0,0,.889,1.212,2.114,2.114,0,0,0,4.19,0,1.276,1.276,0,0,0,.889-1.212V390Z" transform="translate(-151.001 -390.003)" fill="#ffb229"/>
        </g>
      </g>
      <g id="Group_2553" data-name="Group 2553" transform="translate(2.161 0)">
        <g id="Group_2552" data-name="Group 2552" transform="translate(0 0)">
          <path id="Path_488" data-name="Path 488" d="M80.022.115A5.112,5.112,0,0,0,77.3,8.509a3.278,3.278,0,0,1,.8,1.722h6.051a3.413,3.413,0,0,1,.823-1.75,5.13,5.13,0,0,0,1.295-3.366A5.144,5.144,0,0,0,80.022.115ZM84.1,5.542a.426.426,0,0,1-.426-.426A2.561,2.561,0,0,0,81.12,2.558a.426.426,0,1,1,0-.853,3.414,3.414,0,0,1,3.411,3.41A.426.426,0,0,1,84.1,5.542Z" transform="translate(-76.005 0)" fill="#ffb229"/>
        </g>
      </g>
      <g id="Group_2555" data-name="Group 2555" transform="translate(0.001 5.116)">
        <g id="Group_2554" data-name="Group 2554" transform="translate(0)">
          <path id="Path_489" data-name="Path 489" d="M1.28,180H.427a.426.426,0,0,0,0,.853H1.28a.426.426,0,0,0,0-.853Z" transform="translate(-0.001 -180.003)" fill="#ffb229"/>
        </g>
      </g>
      <g id="Group_2557" data-name="Group 2557" transform="translate(0.126 2.257)">
        <g id="Group_2556" data-name="Group 2556">
          <path id="Path_490" data-name="Path 490" d="M5.726,80.125l-.6-.6a.426.426,0,0,0-.6.6l.6.6a.426.426,0,0,0,.6-.6Z" transform="translate(-4.396 -79.397)" fill="#ffb229"/>
        </g>
      </g>
      <g id="Group_2559" data-name="Group 2559" transform="translate(0.126 7.372)">
        <g id="Group_2558" data-name="Group 2558">
          <path id="Path_491" data-name="Path 491" d="M5.726,259.522a.426.426,0,0,0-.6,0l-.6.6a.426.426,0,0,0,.6.6l.6-.6A.426.426,0,0,0,5.726,259.522Z" transform="translate(-4.396 -259.397)" fill="#ffb229"/>
        </g>
      </g>
      <g id="Group_2561" data-name="Group 2561" transform="translate(12.846 5.116)">
        <g id="Group_2560" data-name="Group 2560">
          <path id="Path_492" data-name="Path 492" d="M453.28,180h-.853a.426.426,0,0,0,0,.853h.853a.426.426,0,0,0,0-.853Z" transform="translate(-452.001 -180.003)" fill="#ffb229"/>
        </g>
      </g>
      <g id="Group_2563" data-name="Group 2563" transform="translate(12.971 2.257)">
        <g id="Group_2562" data-name="Group 2562">
          <path id="Path_493" data-name="Path 493" d="M457.726,79.523a.426.426,0,0,0-.6,0l-.6.6a.426.426,0,0,0,.6.6l.6-.6A.426.426,0,0,0,457.726,79.523Z" transform="translate(-456.396 -79.398)" fill="#ffb229"/>
        </g>
      </g>
      <g id="Group_2565" data-name="Group 2565" transform="translate(12.971 7.372)">
        <g id="Group_2564" data-name="Group 2564">
          <path id="Path_494" data-name="Path 494" d="M457.726,260.125l-.6-.6a.426.426,0,0,0-.6.6l.6.6a.426.426,0,0,0,.6-.6Z" transform="translate(-456.396 -259.398)" fill="#ffb229"/>
        </g>
      </g>
    </g>
  </g>
</svg>
