<svg xmlns="http://www.w3.org/2000/svg" width="403" height="403" viewBox="0 0 403 403">
  <path id="Exclusion_5" data-name="Exclusion 5" d="M201.5,403a202.992,202.992,0,0,1-40.609-4.094,200.4,200.4,0,0,1-72.051-30.319,202.088,202.088,0,0,1-73-88.654A200.485,200.485,0,0,1,4.094,242.109a203.466,203.466,0,0,1,0-81.219A200.4,200.4,0,0,1,34.413,88.839a202.086,202.086,0,0,1,88.654-73A200.485,200.485,0,0,1,160.891,4.094a203.466,203.466,0,0,1,81.219,0A200.4,200.4,0,0,1,314.16,34.413a202.088,202.088,0,0,1,73,88.654,200.487,200.487,0,0,1,11.741,37.824,203.466,203.466,0,0,1,0,81.219,200.4,200.4,0,0,1-30.319,72.051,202.089,202.089,0,0,1-88.654,73,200.486,200.486,0,0,1-37.824,11.741A202.989,202.989,0,0,1,201.5,403ZM166.9,293.667a11.425,11.425,0,0,0-11.412,11.413v11.83a18.8,18.8,0,0,0,15.994,18.661l2.832,10.746a13.426,13.426,0,0,0,12.912,9.914h28.907a13.426,13.426,0,0,0,12.912-9.914l2.915-10.746a18.832,18.832,0,0,0,15.912-18.577v-11.83a11.439,11.439,0,0,0-11.413-11.5ZM201.821,46l-.766,0A99.744,99.744,0,0,0,129.83,214.862,90.407,90.407,0,0,1,146,237.895a93.288,93.288,0,0,1,8.487,26.782,16.4,16.4,0,0,0,16.244,13.829h61.9a16.413,16.413,0,0,0,16.328-13.911,91.458,91.458,0,0,1,24.492-49.649A99.676,99.676,0,0,0,201.821,46ZM140.992,157.3a11.259,11.259,0,0,1-11.246-11.245,72.057,72.057,0,0,1,71.976-71.976,11.246,11.246,0,1,1,0,22.493,49.539,49.539,0,0,0-49.483,49.483A11.259,11.259,0,0,1,140.992,157.3Z" fill="#fff"/>
</svg>
