<svg xmlns="http://www.w3.org/2000/svg" width="27.2" height="27.2" viewBox="0 0 27.2 27.2">
  <g id="Group_2851" data-name="Group 2851" transform="translate(-826 -23)">
    <g id="Group_2551" data-name="Group 2551" transform="translate(834.022 43.719)">
      <g id="Group_2550" data-name="Group 2550">
        <path id="Path_487" data-name="Path 487" d="M151,390v.8a2.386,2.386,0,0,0,1.662,2.265,3.953,3.953,0,0,0,7.833,0,2.386,2.386,0,0,0,1.662-2.265V390Z" transform="translate(-151.001 -390.003)" fill="#1673a7"/>
      </g>
    </g>
    <g id="Group_2553" data-name="Group 2553" transform="translate(830.038 23)">
      <g id="Group_2552" data-name="Group 2552" transform="translate(0 0)">
        <path id="Path_488" data-name="Path 488" d="M83.514.215a9.556,9.556,0,0,0-5.095,15.692,6.129,6.129,0,0,1,1.494,3.219H91.224a6.381,6.381,0,0,1,1.538-3.271,9.591,9.591,0,0,0,2.42-6.292A9.617,9.617,0,0,0,83.514.215ZM91.146,10.36a.8.8,0,0,1-.8-.8,4.787,4.787,0,0,0-4.782-4.781.8.8,0,1,1,0-1.594,6.382,6.382,0,0,1,6.376,6.375A.8.8,0,0,1,91.146,10.36Z" transform="translate(-76.005 0)" fill="#1673a7"/>
      </g>
    </g>
    <g id="Group_2555" data-name="Group 2555" transform="translate(826 32.563)">
      <g id="Group_2554" data-name="Group 2554" transform="translate(0)">
        <path id="Path_489" data-name="Path 489" d="M2.392,180H.8a.8.8,0,0,0,0,1.594H2.392a.8.8,0,0,0,0-1.594Z" transform="translate(-0.001 -180.003)" fill="#1673a7"/>
      </g>
    </g>
    <g id="Group_2557" data-name="Group 2557" transform="translate(826.234 27.218)">
      <g id="Group_2556" data-name="Group 2556">
        <path id="Path_490" data-name="Path 490" d="M6.883,80.757,5.756,79.63a.8.8,0,0,0-1.127,1.127l1.127,1.127a.8.8,0,0,0,1.127-1.127Z" transform="translate(-4.396 -79.397)" fill="#1673a7"/>
      </g>
    </g>
    <g id="Group_2559" data-name="Group 2559" transform="translate(826.234 36.78)">
      <g id="Group_2558" data-name="Group 2558">
        <path id="Path_491" data-name="Path 491" d="M6.883,259.631a.8.8,0,0,0-1.127,0l-1.127,1.127a.8.8,0,0,0,1.127,1.127l1.127-1.127A.8.8,0,0,0,6.883,259.631Z" transform="translate(-4.396 -259.397)" fill="#1673a7"/>
      </g>
    </g>
    <g id="Group_2561" data-name="Group 2561" transform="translate(850.012 32.563)">
      <g id="Group_2560" data-name="Group 2560">
        <path id="Path_492" data-name="Path 492" d="M454.392,180H452.8a.8.8,0,0,0,0,1.594h1.594a.8.8,0,0,0,0-1.594Z" transform="translate(-452.001 -180.003)" fill="#1673a7"/>
      </g>
    </g>
    <g id="Group_2563" data-name="Group 2563" transform="translate(850.246 27.218)">
      <g id="Group_2562" data-name="Group 2562">
        <path id="Path_493" data-name="Path 493" d="M458.883,79.631a.8.8,0,0,0-1.127,0l-1.127,1.127a.8.8,0,0,0,1.127,1.127l1.127-1.127A.8.8,0,0,0,458.883,79.631Z" transform="translate(-456.396 -79.398)" fill="#1673a7"/>
      </g>
    </g>
    <g id="Group_2565" data-name="Group 2565" transform="translate(850.246 36.78)">
      <g id="Group_2564" data-name="Group 2564">
        <path id="Path_494" data-name="Path 494" d="M458.883,260.758l-1.127-1.127a.8.8,0,0,0-1.127,1.127l1.127,1.127a.8.8,0,0,0,1.127-1.127Z" transform="translate(-456.396 -259.398)" fill="#1673a7"/>
      </g>
    </g>
  </g>
</svg>
