<?xml version="1.0" encoding="utf-8"?>
<!-- Generator: Adobe Illustrator 24.1.1, SVG Export Plug-In . SVG Version: 6.00 Build 0)  -->
<svg version="1.1" id="Layer_1" xmlns="http://www.w3.org/2000/svg" xmlns:xlink="http://www.w3.org/1999/xlink" x="0px" y="0px"
	 viewBox="0 0 27.2 27.2" style="enable-background:new 0 0 27.2 27.2;" xml:space="preserve">
<style type="text/css">
	.st0{fill:#1673A7;}
</style>
<g id="Group_4725" transform="translate(-826 -23)">
	<g id="Group_2551" transform="translate(834.022 43.719)">
		<g id="Group_2550">
			<path id="Path_487" class="st0" d="M0,0v0.8c0,1,0.7,2,1.7,2.3C2,5.2,4,6.7,6.1,6.4c1.8-0.2,3.1-1.6,3.4-3.4
				c1-0.3,1.7-1.2,1.7-2.3V0H0z"/>
		</g>
	</g>
	<g id="Group_2553" transform="translate(830.038 23)">
		<g id="Group_2552" transform="translate(0 0)">
			<path id="Path_488" class="st0" d="M7.5,0.2C2.4,1.3-0.9,6.4,0.2,11.6c0.4,1.6,1.1,3.1,2.2,4.3c0.8,0.9,1.3,2,1.5,3.2h11.3
				c0.2-1.2,0.7-2.4,1.5-3.3c1.5-1.7,2.4-4,2.4-6.3c0-5.3-4.4-9.6-9.7-9.6C8.8,0,8.2,0.1,7.5,0.2z M15.1,10.4
				c-0.4,0-0.8-0.4-0.8-0.8c0,0,0,0,0,0c0-2.6-2.1-4.8-4.8-4.8c-0.4,0-0.8-0.3-0.9-0.7S9,3.2,9.4,3.2c0,0,0.1,0,0.1,0
				c3.5,0,6.4,2.9,6.4,6.4C15.9,10,15.6,10.4,15.1,10.4z"/>
		</g>
	</g>
	<g id="Group_2555" transform="translate(826 32.563)">
		<g id="Group_2554" transform="translate(0)">
			<path id="Path_489" class="st0" d="M2.4,0H0.8C0.4,0,0,0.4,0.1,0.9c0,0.4,0.3,0.7,0.7,0.7h1.6c0.4,0,0.8-0.4,0.7-0.9
				C3.1,0.3,2.8,0,2.4,0z"/>
		</g>
	</g>
	<g id="Group_2557" transform="translate(826.234 27.218)">
		<g id="Group_2556">
			<path id="Path_490" class="st0" d="M2.5,1.4L1.4,0.2C1-0.1,0.5,0,0.2,0.3C0,0.6,0,1.1,0.2,1.4l1.1,1.1c0.3,0.3,0.8,0.2,1.1-0.1
				C2.7,2.1,2.7,1.7,2.5,1.4z"/>
		</g>
	</g>
	<g id="Group_2559" transform="translate(826.234 36.78)">
		<g id="Group_2558">
			<path id="Path_491" class="st0" d="M2.5,0.2c-0.3-0.3-0.8-0.3-1.1,0L0.2,1.4C-0.1,1.7,0,2.2,0.3,2.5c0.3,0.2,0.7,0.2,1,0l1.1-1.1
				C2.8,1,2.8,0.5,2.5,0.2z"/>
		</g>
	</g>
	<g id="Group_2561" transform="translate(850.012 32.563)">
		<g id="Group_2560">
			<path id="Path_492" class="st0" d="M2.4,0H0.8C0.4,0,0,0.4,0.1,0.9c0,0.4,0.3,0.7,0.7,0.7h1.6c0.4,0,0.8-0.4,0.7-0.9
				C3.1,0.3,2.8,0,2.4,0L2.4,0z"/>
		</g>
	</g>
	<g id="Group_2563" transform="translate(850.246 27.218)">
		<g id="Group_2562">
			<path id="Path_493" class="st0" d="M2.5,0.2c-0.3-0.3-0.8-0.3-1.1,0L0.2,1.4C-0.1,1.7,0,2.2,0.3,2.5c0.3,0.2,0.7,0.2,1,0l1.1-1.1
				C2.8,1,2.8,0.5,2.5,0.2z"/>
		</g>
	</g>
	<g id="Group_2565" transform="translate(850.246 36.78)">
		<g id="Group_2564">
			<path id="Path_494" class="st0" d="M2.5,1.4L1.4,0.2C1-0.1,0.5,0,0.2,0.3C0,0.6,0,1.1,0.2,1.4l1.1,1.1c0.3,0.3,0.8,0.2,1.1-0.1
				C2.7,2.1,2.7,1.7,2.5,1.4z"/>
		</g>
	</g>
</g>
</svg>
