<svg xmlns="http://www.w3.org/2000/svg" width="506.902" height="512" viewBox="0 0 506.902 512">
  <g id="cogwheel" transform="translate(0.001)">
    <path id="Path_2153" data-name="Path 2153" d="M317.5,341.332a141.071,141.071,0,0,0,.023-42.5l35.262-27.668a21.493,21.493,0,0,0,5.313-27.457l-22.762-39.422a21.447,21.447,0,0,0-26.453-9.133L267.324,211.9a134.582,134.582,0,0,0-36.691-21.227L224.316,146.3A21.427,21.427,0,0,0,203.2,128H157.72A21.427,21.427,0,0,0,136.6,146.324l-6.316,44.395A135.047,135.047,0,0,0,93.758,211.9l-41.75-16.746a21.465,21.465,0,0,0-26.434,9.133L2.832,243.711a21.408,21.408,0,0,0,5.355,27.477l35.223,27.48a141.072,141.072,0,0,0-.023,42.5L8.125,368.832a21.5,21.5,0,0,0-5.312,27.457l22.742,39.422a21.489,21.489,0,0,0,26.453,9.133L93.566,428.1a134.525,134.525,0,0,0,36.691,21.227l6.316,44.371A21.462,21.462,0,0,0,157.715,512H203.2a21.427,21.427,0,0,0,21.121-18.324l6.316-44.4a135.049,135.049,0,0,0,36.52-21.184l41.75,16.746a21.4,21.4,0,0,0,26.434-9.133l22.742-39.422a21.408,21.408,0,0,0-5.355-27.477ZM180.457,394.668A74.668,74.668,0,1,1,255.121,320a74.669,74.669,0,0,1-74.664,74.667Zm0,0" fill="#c4514e"/>
    <path id="Path_2154" data-name="Path 2154" d="M483.453,116.672a80.864,80.864,0,0,0,1-10,80.933,80.933,0,0,0-1-10.008l19.223-14.547a10.68,10.68,0,0,0,2.793-13.848L488.211,38.4a10.677,10.677,0,0,0-13.379-4.5l-22.121,9.324a79.269,79.269,0,0,0-17.473-10.391L432.3,9.344A10.685,10.685,0,0,0,421.715,0h-34.5a10.666,10.666,0,0,0-10.582,9.341l-2.945,23.491a79.579,79.579,0,0,0-17.473,10.391L334.1,33.9a10.669,10.669,0,0,0-13.4,4.5L303.465,68.266a10.681,10.681,0,0,0,2.793,13.848L325.48,96.66a76.648,76.648,0,0,0-1.023,10.008,80.852,80.852,0,0,0,1,10l-19.219,14.551a10.672,10.672,0,0,0-2.8,13.844L320.7,174.934a10.673,10.673,0,0,0,13.379,4.5L356.2,170.09a79.269,79.269,0,0,0,17.473,10.391l2.941,23.488a10.682,10.682,0,0,0,10.582,9.363h34.5a10.662,10.662,0,0,0,10.582-9.347l2.945-23.485A79.717,79.717,0,0,0,452.7,170.113l22.121,9.32a10.669,10.669,0,0,0,13.4-4.5l17.234-29.867a10.675,10.675,0,0,0-2.793-13.844Zm-79,32.66a42.781,42.781,0,1,0-.006,0Zm0,0" fill="#c4514e"/>
  </g>
</svg>
