<?xml version="1.0" encoding="utf-8"?>
<!-- Generator: Adobe Illustrator 24.1.1, SVG Export Plug-In . SVG Version: 6.00 Build 0)  -->
<svg version="1.1" id="Layer_1" xmlns="http://www.w3.org/2000/svg" xmlns:xlink="http://www.w3.org/1999/xlink" x="0px" y="0px"
	 viewBox="0 0 412.1 412.1" style="enable-background:new 0 0 412.1 412.1;" xml:space="preserve">
<style type="text/css">
	.st0{fill:#1673A7;}
</style>
<g id="Group_4731" transform="translate(-4046 -434)">
	<g id="Group_4581" transform="translate(1061 -3747)">
		<path id="Path_2010" class="st0" d="M3144.3,4581.8c0,6.3,5.1,11.3,11.3,11.3h70.8c6.3,0,11.3-5.1,11.3-11.3c0,0,0,0,0,0v-21.9
			c14.9-4,29.2-9.9,42.5-17.6l15.5,15.5c4.4,4.4,11.6,4.4,16,0c0,0,0,0,0,0l50-50.1c4.4-4.4,4.4-11.6,0-16l-15.5-15.5
			c7.7-13.3,13.6-27.6,17.6-42.5h21.9c6.3,0,11.3-5.1,11.3-11.3v-70.8c0-6.3-5.1-11.3-11.3-11.3c0,0,0,0,0,0h-21.9
			c-4-14.9-9.9-29.1-17.6-42.5l15.4-15.4c4.4-4.4,4.4-11.6,0-16c0,0,0,0,0,0l-50.1-50c-4.4-4.4-11.6-4.4-16,0l-15.4,15.4
			c-13.3-7.7-27.6-13.6-42.5-17.6v-21.7c0-6.3-5.1-11.3-11.3-11.3c0,0,0,0,0,0h-70.8c-6.3,0-11.3,5.1-11.3,11.3v21.8
			c-14.9,4-29.1,9.9-42.5,17.6l-15.4-15.4c-4.4-4.4-11.6-4.4-16,0l-50.1,50c-4.4,4.4-4.4,11.6,0,16c0,0,0,0,0,0l15.4,15.4
			c-7.7,13.3-13.6,27.6-17.6,42.5h-21.8c-6.2,0-11.3,5.1-11.3,11.3l0,70.8c0,6.2,5.1,11.3,11.3,11.3c0,0,0,0,0,0h21.9
			c4,14.9,9.9,29.2,17.6,42.5l-15.5,15.5c-4.4,4.4-4.4,11.6,0,16l50,50.1c2.1,2.1,5,3.3,8,3.3l0,0c3,0,5.9-1.2,8-3.3l15.5-15.5
			c13.3,7.7,27.6,13.6,42.5,17.6L3144.3,4581.8z M3106.3,4518.4c-4.5-2.9-10.4-2.3-14.2,1.5l-13.8,13.8l-34-34.1l13.8-13.8
			c3.8-3.8,4.4-9.7,1.5-14.1c-10.2-15.8-17.5-33.3-21.4-51.8c-1.1-5.2-5.7-8.9-11.1-8.9h-19.4l0-48.1h19.4c5.3,0,9.9-3.7,11.1-8.9
			c3.9-18.4,11.2-35.9,21.4-51.7c2.9-4.5,2.3-10.4-1.5-14.1l-13.7-13.7l34.1-34l13.7,13.7c3.8,3.8,9.7,4.4,14.2,1.5
			c15.8-10.2,33.3-17.5,51.7-21.4c5.2-1.1,8.9-5.7,8.9-11.1v-19.3h48.1v19.3c0,5.3,3.7,9.9,8.9,11.1c18.4,3.9,35.9,11.2,51.7,21.4
			c4.5,2.9,10.4,2.3,14.1-1.5l13.7-13.7l34.1,34L3324,4288c-3.8,3.8-4.4,9.7-1.5,14.2c10.2,15.8,17.5,33.3,21.4,51.7
			c1.1,5.2,5.7,8.9,11.1,8.9h19.5v48.1H3355c-5.3,0-9.9,3.7-11.1,8.9c-3.9,18.4-11.2,35.9-21.4,51.7c-2.9,4.5-2.3,10.4,1.5,14.2
			l13.8,13.8l-34,34.1l-13.8-13.8c-3.8-3.8-9.7-4.4-14.2-1.5c-15.8,10.2-33.3,17.5-51.7,21.4c-5.2,1.1-8.9,5.7-8.9,11.1v19.5H3167
			v-19.5c0-5.3-3.7-9.9-8.9-11.1C3139.6,4535.9,3122.1,4528.6,3106.3,4518.4z"/>
	</g>
	<g id="Group_4730" transform="translate(3312.322 495)">
		<g id="Group_2551" transform="translate(889.555 209.571)">
			<g id="Group_2550">
				<path id="Path_487" class="st0" d="M0,0v7.2c0,9.3,6.1,17.6,15,20.4c2.9,16.9,17.6,30.8,35.3,30.8s32.4-13.9,35.3-30.8
					c8.9-2.8,14.9-11.1,15-20.4V0H0z"/>
			</g>
		</g>
		<g id="Group_2553" transform="translate(853.678 23)">
			<g id="Group_2552" transform="translate(0 0)">
				<path id="Path_488" class="st0" d="M67.6,1.9C35.2,8.7,8.8,35,2,67.4c-5.8,27.5,1.4,55.2,19.8,75.9c7.2,8.1,11.9,18.2,13.5,29
					H137c1.7-10.9,6.5-21.2,13.8-29.5c13.9-15.6,21.6-35.8,21.8-56.7C172.7,31.5,122.1-9.5,67.6,1.9z M136.3,93.3
					c-4,0-7.2-3.2-7.2-7.2c0,0,0,0,0,0c0-23.8-19.3-43-43.1-43.1c-4,0-7.2-3.2-7.2-7.2s3.2-7.2,7.2-7.2c31.7,0,57.4,25.7,57.4,57.4
					C143.5,90.1,140.3,93.3,136.3,93.3C136.3,93.3,136.3,93.3,136.3,93.3L136.3,93.3z"/>
			</g>
		</g>
	</g>
</g>
</svg>
