<?xml version="1.0" encoding="utf-8"?>
<!-- Generator: Adobe Illustrator 25.1.0, SVG Export Plug-In . SVG Version: 6.00 Build 0)  -->
<svg version="1.1" id="Layer_1" xmlns="http://www.w3.org/2000/svg" xmlns:xlink="http://www.w3.org/1999/xlink" x="0px" y="0px"
	 viewBox="0 0 300 300" style="enable-background:new 0 0 300 300;" xml:space="preserve">
<style type="text/css">
	.st0{fill:#6599FF;}
</style>
<path class="st0" d="M295.9,240.7L174.7,30.8c-5.1-8.8-14.6-14.3-24.7-14.3c-10.2,0-19.6,5.5-24.7,14.3L4.1,240.7
	c-5.1,8.8-5.1,19.7,0,28.5c5.1,8.8,14.6,14.3,24.7,14.3h242.4c10.2,0,19.6-5.5,24.7-14.3C301,260.4,301,249.5,295.9,240.7z
	 M280.3,260.2c-1.9,3.3-5.4,5.3-9.1,5.3H28.8c-3.8,0-7.3-2-9.1-5.3c-1.9-3.3-1.9-7.3,0-10.6L140.9,39.8c1.9-3.3,5.4-5.3,9.1-5.3
	c3.8,0,7.3,2,9.1,5.3l121.2,209.9C282.2,252.9,282.2,257,280.3,260.2z M141,186.9h18V99.2h-18V186.9z M141,232.3h18v-27.7h-18V232.3
	z"/>
</svg>
