<svg xmlns="http://www.w3.org/2000/svg" width="512" height="512" viewBox="0 0 512 512">
  <g id="rocket_1_" data-name="rocket (1)" transform="translate(-0.001 -0.001)">
    <path id="Path_2152" data-name="Path 2152" d="M74.742,328.078a15.016,15.016,0,0,0,2.8,17.34l3.668,3.668c10.6-12.559,22.949-26.187,37.93-41.164,1.059-1.059,2.148-1.57,3.211-2.547l-23.6-23.6c-13.719,24.813-21.719,41.766-24.008,46.3Zm0,0" fill="#fff"/>
    <path id="Path_2153" data-name="Path 2153" d="M203.988,392.773c-15.016,15.016-28.609,27.391-41.1,38l4.969,4.969a14.993,14.993,0,0,0,17.465,2.734c7.77-4,19.988-9.754,45.926-24.2l-24.711-24.711c-.977,1.066-1.488,2.152-2.551,3.211Zm0,0" fill="#fff"/>
    <path id="Path_2154" data-name="Path 2154" d="M195.992,315.938c-10.84-10.84-41.324-1.121-55.645,13.2C92.441,377.04,70.8,411,61.09,431.059a15,15,0,0,0,20.055,20.031c19.605-9.52,53.156-31.055,101.633-79.527,15.746-15.754,23.516-45.32,13.227-55.613Zm0,0" fill="#fff"/>
    <path id="Path_2155" data-name="Path 2155" d="M46.82,199.711,4.395,242.137a15,15,0,0,0,14.488,25.1c22.93-6.148,43.105-8.746,56.691-5.262a804.912,804.912,0,0,1,62.094-94.73c-12.723-8.156-54.766-3.613-90.848,32.469Zm0,0" fill="#fff"/>
    <path id="Path_2156" data-name="Path 2156" d="M253.9,510.391a14.971,14.971,0,0,0,17.348-2.785l42.43-42.426c32.848-32.855,38.629-75.246,31.176-88.687a856.164,856.164,0,0,1-94.8,61.621c2.09,11.8.7,23.25-4.242,56.688a14.968,14.968,0,0,0,8.09,15.59Zm0,0" fill="#fff"/>
    <path id="Path_2157" data-name="Path 2157" d="M297.8,150.469a45,45,0,1,0,63.641,0A45.052,45.052,0,0,0,297.8,150.469Zm0,0" fill="#fff"/>
    <path id="Path_2158" data-name="Path 2158" d="M511.117,14.633A14.979,14.979,0,0,0,497.277.8c-36.84-2.773-73.535,1.758-109.5,12.758,2.707,24.711,15.488,51.453,37.309,73.273,22.082,22.078,49.551,34.855,74.7,37.246A310.2,310.2,0,0,0,511.117,14.633Zm0,0" fill="#fff"/>
    <path id="Path_2159" data-name="Path 2159" d="M403.871,108.043c-24.961-24.961-40.2-54.9-45.094-84.047C268.7,60.938,182.476,141.609,114.339,254.937l33.852,33.852c23.129-9.391,51.207-11.871,69.016,5.934,17.832,17.836,15.3,45.9,5.918,69l34.965,34.965c87.2-52.551,188.711-135.344,231.879-245.5-29.859-4.512-60.73-19.781-86.1-45.148ZM382.652,235.32a75,75,0,1,1,0-106.066,75.089,75.089,0,0,1,0,106.066Zm0,0" fill="#fff"/>
  </g>
</svg>
