<svg xmlns="http://www.w3.org/2000/svg" width="57.996" height="57.84" viewBox="0 0 57.996 57.84">
  <g id="pie-chart_2_" data-name="pie-chart (2)" transform="translate(0 -0.503)">
    <g id="Group_3006" data-name="Group 3006" transform="translate(0 5.025)">
      <g id="Group_3005" data-name="Group 3005">
        <path id="Path_1194" data-name="Path 1194" d="M51.788,54.842H28.222V31.22a1.557,1.557,0,0,0-1.557-1.55A26.508,26.508,0,0,0,7.79,37.476,26.673,26.673,0,0,0,26.658,82.987,26.621,26.621,0,0,0,53.317,56.36,1.523,1.523,0,0,0,51.788,54.842ZM43.327,73.03A23.585,23.585,0,0,1,3.1,56.336,23.707,23.707,0,0,1,10,39.663a23.371,23.371,0,0,1,15.126-6.844V56.328a1.6,1.6,0,0,0,1.536,1.615H50.165A23.82,23.82,0,0,1,43.327,73.03Z" transform="translate(0 -29.669)" fill="#fff"/>
      </g>
    </g>
    <g id="Group_3008" data-name="Group 3008" transform="translate(29.772 0.503)">
      <g id="Group_3007" data-name="Group 3007" transform="translate(0 0)">
        <path id="Path_1195" data-name="Path 1195" d="M212.473,8.293c-.006-.006-.013,0-.019,0h0A26.8,26.8,0,0,0,193.594.5a1.557,1.557,0,0,0-1.557,1.55V27.162a1.509,1.509,0,0,0,1.565,1.486H218.71a1.523,1.523,0,0,0,1.55-1.5c0-.007,0-.015,0-.022A26.746,26.746,0,0,0,212.473,8.293ZM195.138,25.547V3.655a23.528,23.528,0,0,1,15.126,6.806,23.829,23.829,0,0,1,6.846,15.087Z" transform="translate(-192.037 -0.503)" fill="#fff"/>
      </g>
    </g>
  </g>
</svg>
