<svg xmlns="http://www.w3.org/2000/svg" width="57.859" height="57.84" viewBox="0 0 57.859 57.84">
  <g id="approval_1_" data-name="approval (1)" transform="translate(0 -0.501)">
    <path id="Path_1176" data-name="Path 1176" d="M56.61,44.95l-8.329-8.329a13.876,13.876,0,0,0,.07-12.4V4.342A3.845,3.845,0,0,0,44.51.5H14.46a3.845,3.845,0,0,0-3.841,3.841V7.731H3.841A3.845,3.845,0,0,0,0,11.572V54.5a3.845,3.845,0,0,0,3.841,3.841H37.28A3.845,3.845,0,0,0,41.121,54.5V51.111h3.389a3.847,3.847,0,0,0,3.621-2.561l2.44,2.44a4.271,4.271,0,1,0,6.04-6.039ZM12.879,4.341A1.583,1.583,0,0,1,14.46,2.76H44.51a1.583,1.583,0,0,1,1.582,1.582v16.61c-.115-.124-.231-.246-.352-.366a13.742,13.742,0,0,0-4.619-3.049V11.572A3.845,3.845,0,0,0,37.28,7.731h-24.4Zm-.057,3.389h-.015C12.811,7.716,12.816,7.717,12.821,7.731Zm-2.13,0h-.015C10.682,7.718,10.686,7.717,10.691,7.731ZM38.861,54.5a1.583,1.583,0,0,1-1.581,1.582H3.841A1.583,1.583,0,0,1,2.259,54.5V11.572A1.583,1.583,0,0,1,3.841,9.99H37.28a1.583,1.583,0,0,1,1.581,1.582v5.278a13.808,13.808,0,0,0-15.026,6.908H7.23a1.13,1.13,0,0,0,0,2.259H22.86a13.907,13.907,0,0,0-.606,5.89H7.23a1.13,1.13,0,0,0,0,2.259H22.7a13.79,13.79,0,0,0,13.273,9.993,13.931,13.931,0,0,0,2.889-.3ZM27.8,38.521a11.553,11.553,0,1,1,16.339,0A11.566,11.566,0,0,1,27.8,38.521ZM46.091,47.27a1.583,1.583,0,0,1-1.582,1.581H41.121V43.169q.569-.228,1.12-.508l3.85,3.85Zm8.921,2.122a2.01,2.01,0,0,1-2.844,0l-7.955-7.955a13.846,13.846,0,0,0,2.845-2.844l7.955,7.955a2.014,2.014,0,0,1,0,2.844Zm0,0" fill="#fff"/>
    <path id="Path_1177" data-name="Path 1177" d="M261.831,206.763a1.13,1.13,0,0,0-1.6,0l-3.961,3.961-1.544-1.544a1.13,1.13,0,0,0-1.6,0l-3.071,3.07a1.13,1.13,0,0,0,0,1.6l5.414,5.413a1.129,1.129,0,0,0,1.6,0l7.83-7.83a1.13,1.13,0,0,0,0-1.6Zm-5.558,10.1-3.816-3.816,1.473-1.473,1.545,1.544a1.13,1.13,0,0,0,1.6,0l3.961-3.961,1.473,1.473Zm0,0" transform="translate(-221.509 -182.66)" fill="#fff"/>
    <path id="Path_1178" data-name="Path 1178" d="M55.114,352.513H70.921a1.13,1.13,0,0,0,0-2.259H55.114a1.13,1.13,0,0,0,0,2.259Zm0,0" transform="translate(-47.884 -310.229)" fill="#fff"/>
    <path id="Path_1179" data-name="Path 1179" d="M247.181,422.363a1.13,1.13,0,1,0,.8.331A1.138,1.138,0,0,0,247.181,422.363Zm0,0" transform="translate(-218.246 -374.189)" fill="#fff"/>
    <path id="Path_1180" data-name="Path 1180" d="M72.278,422.363H55.114a1.13,1.13,0,0,0,0,2.259H72.278a1.13,1.13,0,1,0,0-2.259Zm0,0" transform="translate(-47.884 -374.189)" fill="#fff"/>
    <path id="Path_1181" data-name="Path 1181" d="M55.114,136.716H72.249a1.13,1.13,0,1,0,0-2.259H55.114a1.13,1.13,0,1,0,0,2.259Zm0,0" transform="translate(-47.884 -118.818)" fill="#fff"/>
  </g>
</svg>
