<svg id="analysis" xmlns="http://www.w3.org/2000/svg" width="57.84" height="57.84" viewBox="0 0 57.84 57.84">
  <g id="Group_2990" data-name="Group 2990">
    <g id="Group_2989" data-name="Group 2989">
      <path id="Path_1186" data-name="Path 1186" d="M57.509,10.61,47.229.331A1.13,1.13,0,0,0,46.43,0H12.878A3.393,3.393,0,0,0,9.489,3.389V5.543A14.947,14.947,0,0,0,0,19.441a1.13,1.13,0,0,0,1.13,1.13H14.922a1.13,1.13,0,0,0,1.13-1.13V5.648a1.13,1.13,0,0,0-1.13-1.13,14.916,14.916,0,0,0-3.173.341V3.389a1.131,1.131,0,0,1,1.13-1.13H45.3V9.15A3.393,3.393,0,0,0,48.69,12.54h6.891V54.451a1.131,1.131,0,0,1-1.13,1.13H12.878a1.131,1.131,0,0,1-1.13-1.13V44.773a1.13,1.13,0,0,0-2.259,0v9.678a3.393,3.393,0,0,0,3.389,3.389H54.451a3.393,3.393,0,0,0,3.389-3.389V11.408A1.129,1.129,0,0,0,57.509,10.61ZM13.792,6.828V18.311H2.309A12.684,12.684,0,0,1,13.792,6.828Zm34.9,3.452a1.131,1.131,0,0,1-1.13-1.13V3.857l6.424,6.423Z" fill="#fff"/>
    </g>
  </g>
  <g id="Group_2992" data-name="Group 2992" transform="translate(9.489 39.539)">
    <g id="Group_2991" data-name="Group 2991">
      <path id="Path_1187" data-name="Path 1187" d="M85.928,350.331a1.129,1.129,0,1,0,.331.8A1.137,1.137,0,0,0,85.928,350.331Z" transform="translate(-84 -350)" fill="#fff"/>
    </g>
  </g>
  <g id="Group_2994" data-name="Group 2994" transform="translate(4.046 8.565)">
    <g id="Group_2993" data-name="Group 2993">
      <path id="Path_1188" data-name="Path 1188" d="M50.741,75.819a1.13,1.13,0,0,0-1.13,1.13V89.611H36.949a1.13,1.13,0,0,0-1.13,1.13A14.922,14.922,0,1,0,50.741,75.819Zm1.13,2.309a12.606,12.606,0,0,1,6.986,2.9l-6.986,6.985ZM50.741,103.4A12.68,12.68,0,0,1,38.128,91.871H50.741a1.126,1.126,0,0,0,.8-.331h0l8.914-8.914A12.656,12.656,0,0,1,50.741,103.4Z" transform="translate(-35.819 -75.819)" fill="#fff"/>
    </g>
  </g>
  <g id="Group_2996" data-name="Group 2996" transform="translate(17.386 35.654)">
    <g id="Group_2995" data-name="Group 2995">
      <path id="Path_1189" data-name="Path 1189" d="M186.007,315.605a3.389,3.389,0,0,0-3.121,4.71l-6.508,6.508a3.383,3.383,0,0,0-2.926-.015l-4.322-4.322a3.389,3.389,0,1,0-6.233.186l-4.145,4.145a3.389,3.389,0,1,0,1.6,1.6l4.122-4.122a3.378,3.378,0,0,0,3.174-.092l4.2,4.2a3.389,3.389,0,1,0,6.118.033l6.448-6.448a3.389,3.389,0,1,0,1.594-6.379Zm-28.713,15.4a1.13,1.13,0,1,1,.782-1.943l.013.014.017.015a1.128,1.128,0,0,1-.811,1.914Zm8.679-8.623a1.13,1.13,0,1,1,1.13-1.13A1.131,1.131,0,0,1,165.973,322.383ZM174.9,331a1.13,1.13,0,1,1,1.13-1.13A1.131,1.131,0,0,1,174.9,331Zm11.109-10.878a1.13,1.13,0,1,1,1.13-1.13A1.131,1.131,0,0,1,186.007,320.124Z" transform="translate(-153.905 -315.605)" fill="#fff"/>
    </g>
  </g>
  <g id="Group_2998" data-name="Group 2998" transform="translate(36.75 26.548)">
    <g id="Group_2997" data-name="Group 2997">
      <path id="Path_1190" data-name="Path 1190" d="M332.4,235h-5.962a1.13,1.13,0,1,0,0,2.259H332.4a1.13,1.13,0,1,0,0-2.259Z" transform="translate(-325.311 -235)" fill="#fff"/>
    </g>
  </g>
  <g id="Group_3000" data-name="Group 3000" transform="translate(47.856 26.548)">
    <g id="Group_2999" data-name="Group 2999">
      <path id="Path_1191" data-name="Path 1191" d="M425.548,235.331a1.129,1.129,0,1,0,.331.8A1.138,1.138,0,0,0,425.548,235.331Z" transform="translate(-423.62 -235)" fill="#fff"/>
    </g>
  </g>
  <g id="Group_3002" data-name="Group 3002" transform="translate(36.75 15.703)">
    <g id="Group_3001" data-name="Group 3001">
      <path id="Path_1192" data-name="Path 1192" d="M340.24,139h-13.8a1.13,1.13,0,1,0,0,2.259h13.8a1.13,1.13,0,0,0,0-2.259Z" transform="translate(-325.311 -139)" fill="#fff"/>
    </g>
  </g>
  <g id="Group_3004" data-name="Group 3004" transform="translate(36.75 21.125)">
    <g id="Group_3003" data-name="Group 3003">
      <path id="Path_1193" data-name="Path 1193" d="M340.24,187h-13.8a1.13,1.13,0,1,0,0,2.259h13.8a1.13,1.13,0,0,0,0-2.259Z" transform="translate(-325.311 -187)" fill="#fff"/>
    </g>
  </g>
</svg>
