<svg xmlns="http://www.w3.org/2000/svg" width="58.294" height="57.84" viewBox="0 0 58.294 57.84">
  <g id="mountain-peak" transform="translate(0 0)">
    <path id="Path_1007" data-name="Path 1007" d="M480,476.137h1.88v1.88H480Zm0,0" transform="translate(-423.587 -420.178)" fill="#fff"/>
    <path id="Path_1008" data-name="Path 1008" d="M0,476.137H1.88v1.88H0Zm0,0" transform="translate(0 -420.178)" fill="#fff"/>
    <path id="Path_1009" data-name="Path 1009" d="M47.881,43.109a8.9,8.9,0,0,0-6.279-5.7L37.27,22.562a8.507,8.507,0,0,0-7.183-6.033v-4.1l14.8-5.284L28.206,0V16.529a8.375,8.375,0,0,0-1.658.358,6.643,6.643,0,0,0-5.7-1.13A8.456,8.456,0,0,0,4.765,20.306a5.638,5.638,0,0,0,.876,11.207H18.412l-.548,1.88a8.505,8.505,0,0,0-8.123,6.092L4.936,55.959H2.82v1.88H54.533v-1.88H52.38ZM30.087,2.853l9.651,4.135-9.651,3.447Zm1.505,44.532a2.983,2.983,0,0,0,2.25,1.053c1.99,0,2.918-1.852,3.661-3.341.714-1.431,1.206-2.3,1.979-2.3s1.265.87,1.981,2.3c.746,1.488,1.672,3.341,3.664,3.341a2.991,2.991,0,0,0,2.256-1.057l3,8.579H28.592ZM46.107,43.73l.512,1.465c-.552.982-.974,1.363-1.491,1.363-.774,0-1.266-.87-1.981-2.3-.745-1.488-1.672-3.34-3.664-3.34s-2.918,1.852-3.662,3.34c-.715,1.431-1.206,2.3-1.978,2.3-.516,0-.936-.379-1.486-1.358l.514-1.47a7.012,7.012,0,0,1,13.236,0Zm-6.617-6.575A8.9,8.9,0,0,0,31.1,43.109l-2.21,6.314-2.9-9.938a8.513,8.513,0,0,0-6.23-5.87l1.474-5.054A2.981,2.981,0,0,0,23.5,29.633c1.99,0,2.918-1.852,3.661-3.341.714-1.431,1.206-2.3,1.979-2.3s1.265.87,1.981,2.3c.746,1.488,1.672,3.341,3.664,3.341a2.994,2.994,0,0,0,2.274-1.076l2.508,8.6c-.026,0-.053,0-.079,0ZM35.465,23.089l.91,3.12c-.609,1.127-1.044,1.544-1.59,1.544-.774,0-1.266-.87-1.981-2.3-.745-1.488-1.672-3.34-3.664-3.34s-2.918,1.852-3.662,3.34c-.715,1.431-1.206,2.3-1.978,2.3-.544,0-.977-.415-1.583-1.538l.912-3.126a6.582,6.582,0,0,1,12.637,0ZM5.641,29.633A3.761,3.761,0,1,1,9.4,25.872h1.88a5.648,5.648,0,0,0-4.61-5.543,6.575,6.575,0,0,1,12.74-3.092l.324.982.948-.415a4.756,4.756,0,0,1,3.85.05,8.461,8.461,0,0,0-3.51,4.707L18.96,29.633Zm12.223,5.641a6.616,6.616,0,0,1,6.319,4.739l.544,1.866c-.522.794-.9.917-1.224.917-.774,0-1.266-.87-1.981-2.3-.745-1.488-1.672-3.34-3.664-3.34S14.939,39.007,14.2,40.5c-.715,1.431-1.206,2.3-1.978,2.3-.325,0-.7-.124-1.218-.911l.546-1.872a6.616,6.616,0,0,1,6.319-4.739Zm-7.483,8.733a2.821,2.821,0,0,0,1.836.669c1.99,0,2.918-1.852,3.661-3.341.714-1.431,1.206-2.3,1.979-2.3s1.265.87,1.981,2.3c.746,1.488,1.672,3.341,3.664,3.341A2.862,2.862,0,0,0,25.344,44l2.474,8.48L26.6,55.959H6.894Zm0,0" fill="#fff"/>
  </g>
</svg>
