<svg xmlns="http://www.w3.org/2000/svg" width="57.84" height="57.84" viewBox="0 0 57.84 57.84">
  <g id="Monitor_setting" data-name="Monitor setting" transform="translate(-2 -2)">
    <path id="Path_1196" data-name="Path 1196" d="M55.02,10H52.128a.964.964,0,1,0,0,1.928H55.02a2.892,2.892,0,0,1,2.892,2.892V45.668A2.892,2.892,0,0,1,55.02,48.56H6.82a2.892,2.892,0,0,1-2.892-2.892V14.82A2.892,2.892,0,0,1,6.82,11.928H9.712a.964.964,0,1,0,0-1.928H6.82A4.826,4.826,0,0,0,2,14.82V45.668a4.826,4.826,0,0,0,4.82,4.82H24.172v3.856H17.424a2.892,2.892,0,1,0,0,5.784H44.416a2.892,2.892,0,1,0,0-5.784H37.668V50.488H55.02a4.826,4.826,0,0,0,4.82-4.82V14.82A4.826,4.826,0,0,0,55.02,10ZM45.38,57.236a.964.964,0,0,1-.964.964H17.424a.964.964,0,0,1,0-1.928H44.416A.964.964,0,0,1,45.38,57.236Zm-9.64-2.892H26.1V50.488h9.64Z" transform="translate(0 -0.288)" fill="#fff"/>
    <path id="Path_1197" data-name="Path 1197" d="M30.964,47a.964.964,0,0,0,0,1.928h1.928a.964.964,0,0,0,0-1.928Z" transform="translate(-1.008 -1.62)" fill="#fff"/>
    <path id="Path_1198" data-name="Path 1198" d="M33.964,20.532h1.693l-1.2,1.2a.964.964,0,0,0,0,1.363l2.728,2.728a.964.964,0,0,0,1.363,0l1.2-1.2v1.693a.964.964,0,0,0,.964.964h3.856a.964.964,0,0,0,.964-.964V24.623l1.2,1.2a.964.964,0,0,0,1.363,0l2.728-2.728a.964.964,0,0,0,0-1.363l-1.2-1.2h1.693a.964.964,0,0,0,.964-.964V15.712a.964.964,0,0,0-.964-.964H49.623l1.2-1.2a.964.964,0,0,0,0-1.363L48.093,9.459a.964.964,0,0,0-1.363,0l-1.2,1.2V8.964A.964.964,0,0,0,44.568,8H40.712a.964.964,0,0,0-.964.964v1.693l-1.2-1.2a.964.964,0,0,0-1.363,0l-2.728,2.728a.964.964,0,0,0,0,1.363l1.2,1.2H33.964a.964.964,0,0,0-.964.964v3.856A.964.964,0,0,0,33.964,20.532Zm.964-3.856h2.265a.964.964,0,0,0,.924-.687,2.158,2.158,0,0,1,.161-.386.964.964,0,0,0-.172-1.131l-1.6-1.6L37.868,11.5l1.6,1.606a.964.964,0,0,0,1.129.173,2.181,2.181,0,0,1,.386-.162.964.964,0,0,0,.69-.926V9.928H43.6v2.265a.964.964,0,0,0,.687.924,2.18,2.18,0,0,1,.386.162.964.964,0,0,0,1.129-.173l1.6-1.6,1.365,1.365-1.6,1.6A.964.964,0,0,0,47,15.6a2.18,2.18,0,0,1,.162.386.964.964,0,0,0,.926.69h2.265V18.6H48.087a.964.964,0,0,0-.924.687,2.181,2.181,0,0,1-.162.386.964.964,0,0,0,.173,1.129l1.6,1.6-1.365,1.368-1.6-1.606A.964.964,0,0,0,44.68,22a2.181,2.181,0,0,1-.386.162.964.964,0,0,0-.69.926v2.265H41.676V23.087a.964.964,0,0,0-.687-.924A2.181,2.181,0,0,1,40.6,22a.964.964,0,0,0-1.129.173l-1.606,1.6L36.5,22.412l1.606-1.6a.964.964,0,0,0,.172-1.131,2.158,2.158,0,0,1-.161-.386.964.964,0,0,0-.926-.688H34.928Z" transform="translate(-1.116 -0.216)" fill="#fff"/>
    <path id="Path_1199" data-name="Path 1199" d="M25.28,27.5v3.618c-.139.055-.273.11-.4.168l-2.558-2.558a.964.964,0,0,0-1.363,0l-4.087,4.087a.964.964,0,0,0,0,1.363l2.558,2.558c-.058.131-.113.265-.168.4H15.64a.964.964,0,0,0-.964.964v4.82H7.928V15.928H9.856a.964.964,0,0,0,0-1.928H6.964A.964.964,0,0,0,6,14.964v28.92a.964.964,0,0,0,.964.964h48.2a.964.964,0,0,0,.964-.964V14.964A.964.964,0,0,0,55.164,14H53.236a.964.964,0,1,0,0,1.928H54.2V42.92H43.6V38.1a.964.964,0,0,0-.964-.964H39.014c-.055-.139-.11-.273-.168-.4L41.4,34.174a.964.964,0,0,0,0-1.363l-4.087-4.087a.992.992,0,0,0-1.363,0L33.4,31.282c-.131-.058-.265-.113-.4-.168V27.5a.964.964,0,0,0-.964-.964H26.244A.964.964,0,0,0,25.28,27.5Zm0,13.5a3.856,3.856,0,0,1,7.712,0,3.8,3.8,0,0,1-.524,1.928H25.8a3.8,3.8,0,0,1-.524-1.928Zm1.928-9.2V28.46h3.856V31.8a.964.964,0,0,0,.669.918,7.962,7.962,0,0,1,1.393.583.964.964,0,0,0,1.145-.164l2.365-2.365,2.724,2.724L37,35.857A.964.964,0,0,0,36.832,37a7.962,7.962,0,0,1,.583,1.393.964.964,0,0,0,.918.669h3.335V42.92H34.586a5.784,5.784,0,1,0-10.9,0H16.6V39.064h3.335a.964.964,0,0,0,.918-.669A7.962,7.962,0,0,1,21.44,37a.964.964,0,0,0-.164-1.145l-2.365-2.365,2.724-2.724L24,33.133a.964.964,0,0,0,1.145.164,7.961,7.961,0,0,1,1.393-.583A.964.964,0,0,0,27.208,31.8Z" transform="translate(-0.144 -0.432)" fill="#fff"/>
    <path id="Path_1200" data-name="Path 1200" d="M42.856,21.712A3.856,3.856,0,1,0,39,17.856,3.856,3.856,0,0,0,42.856,21.712Zm0-5.784a1.928,1.928,0,1,1-1.928,1.928A1.928,1.928,0,0,1,42.856,15.928Z" transform="translate(-1.332 -0.432)" fill="#fff"/>
    <path id="Path_1201" data-name="Path 1201" d="M12.964,14.532h1.693l-1.2,1.2a.964.964,0,0,0,0,1.363l2.728,2.728a.964.964,0,0,0,1.363,0l1.2-1.2v1.693a.964.964,0,0,0,.964.964h3.856a.964.964,0,0,0,.964-.964V18.623l1.2,1.2a.964.964,0,0,0,1.363,0l2.728-2.728a.964.964,0,0,0,0-1.363l-1.2-1.2h1.693a.964.964,0,0,0,.964-.964V9.712a.964.964,0,0,0-.964-.964H28.623l1.2-1.2a.964.964,0,0,0,0-1.363L27.093,3.459a.964.964,0,0,0-1.363,0l-1.2,1.2V2.964A.964.964,0,0,0,23.568,2H19.712a.964.964,0,0,0-.964.964V4.657l-1.2-1.2a.964.964,0,0,0-1.363,0L13.459,6.187a.964.964,0,0,0,0,1.363l1.2,1.2H12.964A.964.964,0,0,0,12,9.712v3.856A.964.964,0,0,0,12.964,14.532Zm.964-3.856h2.265a.964.964,0,0,0,.924-.687,2.158,2.158,0,0,1,.161-.386.964.964,0,0,0-.169-1.132L15.5,6.868,16.868,5.5l1.6,1.606a.964.964,0,0,0,1.129.173,2.181,2.181,0,0,1,.386-.162.964.964,0,0,0,.69-.926V3.928H22.6V6.193a.964.964,0,0,0,.687.924,2.18,2.18,0,0,1,.386.162.964.964,0,0,0,1.132-.17l1.6-1.606,1.365,1.365-1.606,1.6A.964.964,0,0,0,26,9.6a2.181,2.181,0,0,1,.162.386.964.964,0,0,0,.926.69h2.265V12.6H27.087a.964.964,0,0,0-.924.687,2.181,2.181,0,0,1-.162.386.964.964,0,0,0,.173,1.129l1.6,1.6-1.365,1.368-1.6-1.606A.964.964,0,0,0,23.68,16a2.181,2.181,0,0,1-.386.162.964.964,0,0,0-.69.926v2.265H20.676V17.087a.964.964,0,0,0-.687-.924A2.181,2.181,0,0,1,19.6,16a.964.964,0,0,0-1.129.173l-1.606,1.6L15.5,16.412l1.606-1.6a.964.964,0,0,0,.172-1.131,2.158,2.158,0,0,1-.161-.386.964.964,0,0,0-.926-.688H13.928Z" transform="translate(-0.36)" fill="#fff"/>
    <path id="Path_1202" data-name="Path 1202" d="M21.856,15.712A3.856,3.856,0,1,0,18,11.856,3.856,3.856,0,0,0,21.856,15.712Zm0-5.784a1.928,1.928,0,1,1-1.928,1.928A1.928,1.928,0,0,1,21.856,9.928Z" transform="translate(-0.576 -0.216)" fill="#fff"/>
  </g>
</svg>
