<?xml version="1.0" encoding="utf-8"?>
<!-- Generator: Adobe Illustrator 25.1.0, SVG Export Plug-In . SVG Version: 6.00 Build 0)  -->
<svg version="1.1" id="Layer_1" xmlns="http://www.w3.org/2000/svg" xmlns:xlink="http://www.w3.org/1999/xlink" x="0px" y="0px"
	 viewBox="0 0 574 258.9" style="enable-background:new 0 0 574 258.9;" xml:space="preserve">
<style type="text/css">
	.st0{clip-path:url(#SVGID_2_);}
	.st1{fill:url(#SVGID_3_);}
	.st2{opacity:5.000000e-02;fill:url(#SVGID_4_);enable-background:new    ;}
	.st3{opacity:0.1;fill:#FFFFFF;enable-background:new    ;}
	.st4{opacity:0.1;}
	.st5{fill:none;}
	.st6{fill:#FFFFFF;}
</style>
<g>
	<defs>
		<path id="SVGID_1_" d="M7,0h560c3.9,0,7,1.9,7,4.3v226.8c0,0-144.2,27.8-287.7,27.8S0,231.1,0,231.1V4.3C0,1.9,3.1,0,7,0z"/>
	</defs>
	<clipPath id="SVGID_2_">
		<use xlink:href="#SVGID_1_"  style="overflow:visible;"/>
	</clipPath>
	<g transform="translate(1288 -5172)" class="st0">
		<g transform="translate(-1288 5172)">
			
				<linearGradient id="SVGID_3_" gradientUnits="userSpaceOnUse" x1="-670.7925" y1="668.437" x2="-669.8085" y2="667.437" gradientTransform="matrix(574 0 0 -258.93 385056 173073.0938)">
				<stop  offset="0" style="stop-color:#6AA5FF"/>
				<stop  offset="1" style="stop-color:#2A2CFF"/>
			</linearGradient>
			<path class="st1" d="M7,0h560c3.9,0,7,1.9,7,4.3v226.8c0,0-144.2,27.8-287.7,27.8S0,231.1,0,231.1V4.3C0,1.9,3.1,0,7,0z"/>
			
				<linearGradient id="SVGID_4_" gradientUnits="userSpaceOnUse" x1="-670.8056" y1="668.4204" x2="-669.7566" y2="667.4204" gradientTransform="matrix(574 0 0 -258.93 385056 173073.0938)">
				<stop  offset="0" style="stop-color:#FFFFFF"/>
				<stop  offset="1" style="stop-color:#808080;stop-opacity:0"/>
			</linearGradient>
			<path class="st2" d="M7,0h560c3.9,0,7,1.9,7,4.3v226.8c0,0-144.2,27.8-287.7,27.8S0,231.1,0,231.1V4.3C0,1.9,3.1,0,7,0z"/>
		</g>
		<circle class="st3" cx="-1279.5" cy="5183.5" r="47.5"/>
		<circle class="st3" cx="-723.5" cy="5407.5" r="48.5"/>
		<circle class="st3" cx="-1223" cy="5333" r="9"/>
		<circle class="st3" cx="-839" cy="5219" r="15"/>
		<circle class="st3" cx="-815.5" cy="5367.5" r="8.5"/>
		<g transform="translate(-1191 5235)" class="st4">
			<path class="st5" d="M14.8,9.1c1.6-2.9,5.3-3.9,8.2-2.2c0.9,0.5,1.7,1.3,2.2,2.2L34.9,26c1.6,2.9,0.6,6.5-2.2,8.2
				c-0.9,0.5-1.9,0.8-3,0.8H10.3c-3.3,0-6-2.7-6-6c0-1,0.3-2.1,0.8-3L14.8,9.1z"/>
			<path class="st6" d="M20,9.1c-0.5,0-1.8,0.1-2.6,1.5L7.7,27.5c-0.8,1.4-0.3,2.5,0,3s1,1.5,2.6,1.5h19.3c1.6,0,2.3-1,2.6-1.5
				s0.8-1.6,0-3l-9.7-16.9C21.8,9.2,20.5,9.1,20,9.1 M20,6.1c2,0,4.1,1,5.2,3L34.9,26c2.3,4-0.6,9-5.2,9H10.3c-4.6,0-7.5-5-5.2-9
				l9.7-16.9C15.9,7.1,18,6.1,20,6.1z"/>
		</g>
		<g transform="translate(-1173 5511)" class="st4">
			<path class="st5" d="M14.8,9.1c1.6-2.9,5.3-3.9,8.2-2.2c0.9,0.5,1.7,1.3,2.2,2.2L34.9,26c1.6,2.9,0.6,6.5-2.2,8.2
				c-0.9,0.5-1.9,0.8-3,0.8H10.3c-3.3,0-6-2.7-6-6c0-1,0.3-2.1,0.8-3L14.8,9.1z"/>
			<path class="st6" d="M20,9.1c-0.5,0-1.8,0.1-2.6,1.5L7.7,27.5c-0.8,1.4-0.3,2.5,0,3s1,1.5,2.6,1.5h19.3c1.6,0,2.3-1,2.6-1.5
				s0.8-1.6,0-3l-9.7-16.9C21.8,9.2,20.5,9.1,20,9.1 M20,6.1c2,0,4.1,1,5.2,3L34.9,26c2.3,4-0.6,9-5.2,9H10.3c-4.6,0-7.5-5-5.2-9
				l9.7-16.9C15.9,7.1,18,6.1,20,6.1z"/>
		</g>
		<g transform="translate(-933 5509)" class="st4">
			<path class="st5" d="M11.5,6.3c1.1-1.9,3.5-2.6,5.4-1.6c0.7,0.4,1.2,0.9,1.6,1.6l8.2,14.8c1.1,1.9,0.4,4.4-1.6,5.4
				c-0.6,0.3-1.3,0.5-1.9,0.5H6.8c-2.2,0-4-1.8-4-4c0-0.7,0.2-1.4,0.5-1.9L11.5,6.3z"/>
			<path class="st6" d="M15,7.2c-0.2,0-0.6,0.1-0.9,0.5L5.9,22.5c-0.2,0.4-0.1,0.8,0,1C6,23.7,6.3,24,6.8,24h16.4
				c0.5,0,0.8-0.3,0.9-0.5c0.1-0.2,0.3-0.6,0-1L15.9,7.8C15.6,7.3,15.2,7.2,15,7.2 M15,4.2c1.4,0,2.7,0.7,3.5,2.1l8.2,14.8
				c1.5,2.7-0.4,5.9-3.5,5.9H6.8c-3,0-5-3.3-3.5-5.9l8.2-14.8C12.3,4.9,13.6,4.2,15,4.2z"/>
		</g>
		<path class="st3" d="M-802.2,5149.4c0,0-14.2,25.6,5.4,36.9c19.7,11.3,42,5.2,46.9,17.6s-18.2,49.6-11.4,67.6
			c6.7,18,15.1,26.1,35.2,32.7c20.1,6.6,45.2-6.3,45.2-6.3l23.9-35.6l-4.2-94.3c0,0-30-32-32.7-32.3c-2.7-0.2-77.3,0-77.3,0
			L-802.2,5149.4z"/>
		<path class="st3" d="M-1318.1,5322.1c3.1-3.4,12.8-19.2,24.3-20.4c11.5-1.2,17.4,2.9,21.8,15.8c4.4,12.9-7.8,25.2-4,35.9
			c3.8,10.7,19.1,9.4,23,9.8s27.2,2.4,31.3,17.3s0.7,29.8-10.6,37.4c-11.2,7.6-23.8,5.4-37.5,16.4c-13.7,11-10.5,16.3-17.1,27.7
			c-3.4,5.7-6.5,11.6-9.2,17.6l-31.9-9.8l-10.8-45.1l20.8-99L-1318.1,5322.1z"/>
		<g transform="translate(-987 5383)" class="st4">
			<path class="st5" d="M10.8,9.1c1.6-2.9,5.3-3.9,8.2-2.2c0.9,0.5,1.7,1.3,2.2,2.2l5.7,9.9c1.6,2.9,0.6,6.5-2.2,8.2
				c-0.9,0.5-1.9,0.8-3,0.8H10.3c-3.3,0-6-2.7-6-6c0-1,0.3-2.1,0.8-3L10.8,9.1z"/>
			<path class="st6" d="M16,9.1c-0.5,0-1.8,0.1-2.6,1.5l-5.7,9.9c-0.8,1.4-0.3,2.5,0,3C8,24,8.8,25,10.3,25h11.3
				c1.6,0,2.3-1,2.6-1.5s0.8-1.6,0-3l-5.7-9.9C17.8,9.2,16.5,9.1,16,9.1 M16,6.1c2,0,4.1,1,5.2,3l5.7,9.9c2.3,4-0.6,9-5.2,9H10.3
				c-4.6,0-7.5-5-5.2-9l5.7-9.9C11.9,7.1,14,6.1,16,6.1z"/>
		</g>
	</g>
</g>
</svg>
