<svg id="merge" xmlns="http://www.w3.org/2000/svg" width="23" height="23" viewBox="0 0 23 23">
  <g id="Group_4812" data-name="Group 4812" transform="translate(6.379 6.379)">
    <g id="Group_4811" data-name="Group 4811">
      <path id="Path_2294" data-name="Path 2294" d="M146.9,142h-1.3A3.6,3.6,0,0,0,142,145.594v1.348a.9.9,0,0,0,1.8,0v-1.348a1.8,1.8,0,0,1,1.8-1.8h1.3a.9.9,0,0,0,0-1.8Z" transform="translate(-142 -142)" fill="#384e64"/>
    </g>
  </g>
  <g id="Group_4814" data-name="Group 4814">
    <g id="Group_4813" data-name="Group 4813">
      <path id="Path_2295" data-name="Path 2295" d="M19.406,6.379H16.621V3.594A3.6,3.6,0,0,0,13.027,0H3.594A3.6,3.6,0,0,0,0,3.594v9.434a3.6,3.6,0,0,0,3.594,3.594H6.379v2.785A3.6,3.6,0,0,0,9.973,23h9.434A3.6,3.6,0,0,0,23,19.406V9.973A3.6,3.6,0,0,0,19.406,6.379Zm1.8,13.027a1.8,1.8,0,0,1-1.8,1.8H9.973a1.8,1.8,0,0,1-1.8-1.8V15.723a.9.9,0,0,0-.9-.9H3.594a1.8,1.8,0,0,1-1.8-1.8V3.594a1.8,1.8,0,0,1,1.8-1.8h9.434a1.8,1.8,0,0,1,1.8,1.8V7.277a.9.9,0,0,0,.9.9h3.684a1.8,1.8,0,0,1,1.8,1.8Z" fill="#384e64"/>
    </g>
  </g>
  <g id="Group_4816" data-name="Group 4816" transform="translate(10.826 10.736)">
    <g id="Group_4815" data-name="Group 4815">
      <path id="Path_2296" data-name="Path 2296" d="M245.9,239a.9.9,0,0,0-.9.9v1.393a1.8,1.8,0,0,1-1.8,1.8h-1.3a.9.9,0,0,0,0,1.8h1.3a3.6,3.6,0,0,0,3.594-3.594V239.9A.9.9,0,0,0,245.9,239Z" transform="translate(-241 -239)" fill="#384e64"/>
    </g>
  </g>
</svg>
