<svg xmlns="http://www.w3.org/2000/svg" width="354.635" height="309.778" viewBox="0 0 354.635 309.778">
  <g id="Group_4628" data-name="Group 4628" transform="translate(-1510 -2906)">
    <path id="Path_2101" data-name="Path 2101" d="M260.979,22.509A93.819,93.819,0,1,0,354.8,116.327,93.818,93.818,0,0,0,260.979,22.509Zm0,165.9a72.075,72.075,0,1,1,72.073-72.076A72.076,72.076,0,0,1,260.979,188.4Z" transform="translate(1509.839 2883.491)" fill="#c4514e"/>
    <path id="Path_2102" data-name="Path 2102" d="M335.733,255.61a238.709,238.709,0,0,1-74.753,25.484c-24.346,3.818-70.148-5.39-70.148-16.265,0-4.121,40.17,10.154,64.469,3.671,18.633-4.971,15.988-22.4,5.853-24.7-10.076-2.287-69.108-23.913-94.323-24.659-11.878-.351-41.2,4.131-55.393,6.442-4.861.791-7.909.7-8.213,5.356-1.412,21.62-4.195,65.832-5.712,88.926-.032.488.646,7.05,6.061,2.432,5.927-5.054,14.24-10.656,21.929-8.912,12.063,2.737,116.424,21.856,130.819,18.51,20.593-4.787,78.888-39.334,90.065-50.072C363.711,265.176,350.244,247.6,335.733,255.61Z" transform="translate(1510 2883.491)" fill="#c4514e"/>
    <path id="Path_2103" data-name="Path 2103" d="M74.426,224.74l-54.672-2.694a9.842,9.842,0,0,0-9.581,7.066L.232,319.367a5.96,5.96,0,0,0,5.773,7.741L66.6,327.1a8.068,8.068,0,0,0,8.266-7.365l6.654-86.958A7.458,7.458,0,0,0,74.426,224.74Zm-32.186,90.4a15.116,15.116,0,1,1,15.116-15.116A15.116,15.116,0,0,1,42.24,315.145Z" transform="translate(1510 2883.491)" fill="#c4514e"/>
    <g id="Group_4627" data-name="Group 4627" transform="translate(13.5 2.5)">
      <line id="Line_21" data-name="Line 21" x2="70" y2="70" transform="translate(1722.5 2962.5)" fill="none" stroke="#c4514e" stroke-linecap="round" stroke-width="16"/>
      <line id="Line_22" data-name="Line 22" x1="70" y2="70" transform="translate(1722.5 2962.5)" fill="none" stroke="#c4514e" stroke-linecap="round" stroke-width="16"/>
    </g>
  </g>
</svg>
