<svg xmlns="http://www.w3.org/2000/svg" width="512" height="511.996" viewBox="0 0 512 511.996">
  <path id="Exclusion_5" data-name="Exclusion 5" d="M392.566,512H119.434a15,15,0,0,1,0-30H120.5V456.832a55.231,55.231,0,0,1,55.168-55.168h25.164V335a154.469,154.469,0,0,1-32.485-27.277,126.811,126.811,0,0,1-33.28-6.516,140.638,140.638,0,0,1-31.352-15.311,170.721,170.721,0,0,1-28.757-23.7,216.458,216.458,0,0,1-25.5-31.684C17.566,182.573,0,119.161,0,51.953a15,15,0,0,1,15-15H80.7c-.244-7.445-.367-14.832-.367-21.953a15,15,0,0,1,15-15H416.668a15,15,0,0,1,15,15c0,7.03-.125,14.416-.371,21.953H497a15,15,0,0,1,15,15c0,67.208-17.566,130.62-49.461,178.555a216.52,216.52,0,0,1-25.5,31.684,170.727,170.727,0,0,1-28.758,23.7A140.635,140.635,0,0,1,376.93,301.2a126.819,126.819,0,0,1-33.282,6.516A154.481,154.481,0,0,1,311.168,335v66.667h25.164A55.231,55.231,0,0,1,391.5,456.832V482h1.066a15,15,0,1,1,0,30ZM429.621,66.953a581.782,581.782,0,0,1-15.91,97.821c-7.9,30.908-18.222,59.221-30.688,84.151-3.945,7.891-8.159,15.521-12.523,22.676,25.045-9.458,48.236-29.414,67.063-57.711,26.1-39.233,41.773-91.416,44.121-146.938Zm-399.3,0c2.348,55.522,18.017,107.706,44.121,146.938,18.825,28.3,42.015,48.251,67.063,57.711-4.385-7.2-8.6-14.826-12.523-22.676-12.467-24.933-22.792-53.245-30.69-84.151A581.5,581.5,0,0,1,82.379,66.953Zm186.067,96.578,0,0c9.982,10.7,19.437,21.067,26.624,29.183,7.93,8.955,12.913,14.954,14.41,17.35v22.47a8.222,8.222,0,0,0,8.212,8.213A33.91,33.91,0,0,0,299.5,206.877V196.741l-6.124-21.154,40.136,0A20.475,20.475,0,0,0,345.1,138.226a20.253,20.253,0,0,0,4.4-12.661,20.5,20.5,0,0,0-8.9-16.879,20.253,20.253,0,0,0,4.4-12.662,20.508,20.508,0,0,0-8.889-16.879,20.252,20.252,0,0,0,4.392-12.662A20.506,20.506,0,0,0,320.026,46H269.186a89.511,89.511,0,0,0-31.54,5.72l-21.263,7.974V50.478H159V185.165h57.383V163.531Zm52.461,65.563h0V208.907c0-2.767,0-4.952-28.1-35.793-9.717-10.666-19.436-21.044-24.364-26.28V71.895l25.276-9.478a78.13,78.13,0,0,1,27.527-4.991h50.839a9.058,9.058,0,1,1,0,18.115H305.414V86.966h19.109a9.058,9.058,0,0,1,0,18.115H310.636v11.425h18.383a9.058,9.058,0,1,1,0,18.115H315.146v11.425h18.371a9.058,9.058,0,0,1,0,18.116l-55.341,0,9.9,34.2v8.515a22.483,22.483,0,0,1-19.233,22.217ZM204.958,173.74H170.426V61.9h34.532V173.739Zm-28.316-23.769v11.3h11.3v-11.3Z" transform="translate(0 0)" fill="#c4514e"/>
</svg>
