<?xml version="1.0" encoding="utf-8"?>
<!-- Generator: Adobe Illustrator 25.1.0, SVG Export Plug-In . SVG Version: 6.00 Build 0)  -->
<svg version="1.1"
	 id="Layer_1" xmlns:cc="http://creativecommons.org/ns#" xmlns:dc="http://purl.org/dc/elements/1.1/" xmlns:inkscape="http://www.inkscape.org/namespaces/inkscape" xmlns:rdf="http://www.w3.org/1999/02/22-rdf-syntax-ns#" xmlns:sodipodi="http://sodipodi.sourceforge.net/DTD/sodipodi-0.dtd" xmlns:svg="http://www.w3.org/2000/svg"
	 xmlns="http://www.w3.org/2000/svg" xmlns:xlink="http://www.w3.org/1999/xlink" x="0px" y="0px" viewBox="0 0 300 300"
	 style="enable-background:new 0 0 300 300;" xml:space="preserve">
<style type="text/css">
	.st0{fill:#6599FF;}
</style>
<g>
	<path class="st0" d="M9.3,5.4C4.2,5.4,0,9.7,0,14.8v108.9c0,5.2,4.2,9.3,9.3,9.4h108.9c5.2,0,9.3-4.2,9.3-9.4V14.8
		c0-5.2-4.2-9.4-9.3-9.4L9.3,5.4z M181.7,5.4c-5.2,0-9.4,4.2-9.4,9.3c0,0,0,0,0,0.1v108.9c0,5.2,4.2,9.4,9.4,9.4c0,0,0,0,0,0h108.9
		c5.2,0,9.4-4.2,9.4-9.3c0,0,0,0,0,0V14.8c0-5.2-4.2-9.4-9.3-9.4c0,0,0,0-0.1,0L181.7,5.4z M18.8,24.2h90.1v90.2H18.8V24.2z
		 M191.1,24.2h90.2v90.2h-90.2V24.2z M180.8,166.9C180.8,167,180.8,167,180.8,166.9c-4.8,0.5-8.5,4.5-8.5,9.4v108.9
		c0,5.2,4.2,9.4,9.3,9.4c0,0,0,0,0.1,0h108.9c5.2,0,9.4-4.2,9.4-9.3c0,0,0,0,0-0.1V176.3c0-5.2-4.2-9.4-9.4-9.3H181.7
		C181.4,166.9,181.1,166.9,180.8,166.9L180.8,166.9z M8.4,167c-4.8,0.5-8.4,4.5-8.4,9.3v108.9c0,5.2,4.2,9.4,9.3,9.4h108.9
		c5.2,0,9.4-4.2,9.3-9.4V176.3c0-5.1-4.2-9.3-9.3-9.3H9.3C9,167,8.7,167,8.4,167z M18.8,185.6h90.1v90.2H18.8L18.8,185.6z
		 M191.1,185.6h90.2v90.2h-90.2V185.6z"/>
</g>
</svg>
