<svg xmlns="http://www.w3.org/2000/svg" width="481.2" height="511.989" viewBox="0 0 481.2 511.989">
  <g id="paperclip" transform="translate(-15.394 0.002)">
    <g id="Group_4617" data-name="Group 4617">
      <path id="Path_2107" data-name="Path 2107" d="M490.3,186.463a21.334,21.334,0,0,0-30.17.081L203.687,444.379A85.332,85.332,0,0,1,83.05,323.66L347.089,58.234a53.33,53.33,0,0,1,75.37,75.47L203.727,352.434c-.014.014-.026.03-.04.044a21.325,21.325,0,0,1-30.116-30.2l105.58-105.6a21.333,21.333,0,1,0-30.173-30.167L143.4,292.108a63.994,63.994,0,0,0,90.5,90.5c.029-.029.052-.06.08-.089L452.628,163.872A96,96,0,0,0,316.879,28.1L52.84,293.53A128,128,0,0,0,233.9,474.508L490.387,216.633A21.335,21.335,0,0,0,490.3,186.463Z" fill="#1673a7"/>
    </g>
  </g>
</svg>
