<?xml version="1.0" encoding="utf-8"?>
<!-- Generator: Adobe Illustrator 24.1.1, SVG Export Plug-In . SVG Version: 6.00 Build 0)  -->
<svg version="1.1" id="Layer_1" xmlns="http://www.w3.org/2000/svg" xmlns:xlink="http://www.w3.org/1999/xlink" x="0px" y="0px"
	 viewBox="0 0 450.2 452.2" style="enable-background:new 0 0 450.2 452.2;" xml:space="preserve">
<style type="text/css">
	.st0{fill:#1673A7;}
</style>
<g id="Group_4767" transform="translate(-5141 -1851)">
	<path id="Subtraction_1" class="st0" d="M5415.4,2289.9h-230.5c-5.7,0-11.3-1-16.6-3c-5.1-1.9-9.9-4.7-14-8.3
		c-8.4-7.1-13.3-17.5-13.3-28.5v-299.4c1.1-23.5,20.4-42.1,43.9-42.3h39.7v-17.8c0-5.8,5.8-8.4,11.5-8.4h30.3
		c6.8-18.8,24.7-31.4,44.7-31.4c0.6,0,1.2,0,1.8,0c5.1,0,10.1,0.6,15.1,2c4.7,1.3,9.2,3.3,13.3,5.9c4.1,2.6,7.7,6,10.7,9.8
		c3.2,4.1,5.7,8.8,7.4,13.7h30.8c5.8,0,12,2.6,12,8.4v17.8h39.7c23.5,0.3,42.8,18.8,43.9,42.3v131.3c-7,0.3-14,1.3-20.9,2.9v-134.2
		c-1-12-11-21.2-23-21.4h-39.7v26.6c-0.8,5.7-5.6,9.9-11.4,9.9c-0.2,0-0.4,0-0.6,0h-154.1c-0.2,0-0.4,0-0.6,0
		c-5.7,0-10.4-4.3-10.9-9.9v-26.6h-39.7c-12,0.2-21.9,9.4-23,21.4v299.4c0,11.8,11.7,18.8,23,18.8h211.3
		C5401.7,2276.7,5408.2,2283.7,5415.4,2289.9L5415.4,2289.9L5415.4,2289.9L5415.4,2289.9z M5245.5,1903.3v41.8h135.8v-41.8h-29.8
		c-5.2-0.4-9.5-4.3-10.4-9.4c-2.9-13.4-14.5-23.1-28.2-23.5c-13.8,0.4-25.6,10-28.7,23.5c-0.9,5-4.9,8.8-9.9,9.4H5245.5z
		 M5224.8,2224.6c-2.7,0-5.2-1.1-7-3.1l-21.4-21.9c-4.1-4.2-4.1-10.9,0-15.2c4.2-3.8,10.7-3.6,14.6,0.5l14.1,14.6l33.4-31.9
		c4.2-3.8,10.7-3.6,14.6,0.5c0.2,0.2,0.4,0.4,0.6,0.6c3.7,4,3.4,10.3-0.6,14c0,0,0,0,0,0l-40.8,38.7c-1.9,2-4.6,3.1-7.3,3.1
		C5225,2224.6,5224.9,2224.6,5224.8,2224.6z M5374.6,2211.5H5303c-5.8,0-10.5-4.7-10.5-10.4c0-5.8,4.7-10.4,10.5-10.4h71.4
		c-0.2,3.1-0.4,6.2-0.4,9.4C5374,2203.8,5374.2,2207.7,5374.6,2211.5L5374.6,2211.5z M5224.8,2141c-2.7,0-5.2-1.1-7-3.1l-21.4-21.9
		c-4.1-4.2-4.1-10.9,0-15.2c4.2-3.8,10.7-3.6,14.6,0.5l14.1,14.6l33.4-31.9c4.2-3.8,10.7-3.6,14.6,0.5c0.2,0.2,0.4,0.4,0.6,0.6
		c3.7,4,3.4,10.3-0.6,14c0,0,0,0,0,0l-40.8,38.7c-1.9,2-4.6,3.1-7.3,3.1C5225,2141,5224.9,2141,5224.8,2141z M5398.5,2127.9H5303
		c-5.8,0-10.5-4.7-10.5-10.5c0-5.8,4.7-10.4,10.5-10.4h116.2C5411.4,2113.1,5404.5,2120.1,5398.5,2127.9z M5224.8,2057.4
		c-2.7,0-5.2-1.1-7-3.1l-21.4-21.9c-4.1-4.2-4.1-10.9,0-15.2c4.2-3.8,10.7-3.6,14.6,0.5l14.1,14.6l33.4-31.9
		c4.2-3.8,10.7-3.6,14.6,0.5c0.2,0.2,0.4,0.4,0.6,0.6c3.7,4,3.4,10.3-0.6,14c0,0,0,0,0,0l-40.8,38.7c-1.9,2-4.6,3.1-7.3,3.1
		C5225,2057.4,5224.9,2057.4,5224.8,2057.4z M5423.1,2044.3H5303c-5.8,0-10.5-4.7-10.5-10.4s4.7-10.5,10.5-10.5h120.2
		c5.8,0,10.5,4.7,10.5,10.5S5428.9,2044.3,5423.1,2044.3z"/>
	<g id="clock_3_" transform="translate(5388 2100)">
		<path id="Path_2210" class="st0" d="M181.8,53.5c-4.2,2-6,7.1-3.9,11.3c5.6,11.5,8.4,24.1,8.4,36.8c0,46.8-37.9,84.7-84.7,84.7
			s-84.7-37.9-84.7-84.7c0-46.8,37.9-84.7,84.7-84.7c19.1-0.1,37.6,6.4,52.6,18.3c3.7,2.9,9,2.3,11.9-1.4c2.9-3.7,2.3-9-1.4-11.9
			C120.7-12.9,56.8-5.5,21.9,38.5S-5.5,146.4,38.5,181.2s107.9,27.5,142.8-16.5c14.2-18,22-40.2,22-63.1c0-15.3-3.4-30.4-10.1-44.2
			C191.1,53.2,186,51.4,181.8,53.5C181.8,53.5,181.8,53.5,181.8,53.5L181.8,53.5z"/>
		<path id="Path_2211" class="st0" d="M101.6,33.9c-4.7,0-8.5,3.8-8.5,8.5v59.3c0,4.7,3.8,8.5,8.5,8.5h42.3c4.7-0.1,8.4-3.9,8.4-8.6
			c-0.1-4.6-3.8-8.3-8.4-8.4h-33.9V42.3C110.1,37.7,106.3,33.9,101.6,33.9z"/>
	</g>
</g>
</svg>
