<?xml version="1.0" encoding="utf-8"?>
<!-- Generator: Adobe Illustrator 25.1.0, SVG Export Plug-In . SVG Version: 6.00 Build 0)  -->
<svg version="1.1" id="Capa_1" xmlns="http://www.w3.org/2000/svg" xmlns:xlink="http://www.w3.org/1999/xlink" x="0px" y="0px"
	 viewBox="0 0 512 526" style="enable-background:new 0 0 512 526;" xml:space="preserve">
<style type="text/css">
	.st0{fill:#6599FF;stroke:#6599FF;stroke-width:10;stroke-miterlimit:10;}
</style>
<g>
	<path class="st0" d="M448,7H96c-8.3,0-15,6.7-15,15v66H64c-8.3,0-15,6.7-15,15s6.7,15,15,15h17v50H64c-8.3,0-15,6.7-15,15
		s6.7,15,15,15h17v50H64c-8.3,0-15,6.7-15,15s6.7,15,15,15h17v50H64c-8.3,0-15,6.7-15,15s6.7,15,15,15h17v50H64c-8.3,0-15,6.7-15,15
		s6.7,15,15,15h17v66c0,8.3,6.7,15,15,15h352c8.3,0,15-6.7,15-15V22C463,13.7,456.3,7,448,7z M433,489H111v-51h17
		c8.3,0,15-6.7,15-15s-6.7-15-15-15h-17v-50h17c8.3,0,15-6.7,15-15s-6.7-15-15-15h-17v-50h17c8.3,0,15-6.7,15-15s-6.7-15-15-15h-17
		v-50h17c8.3,0,15-6.7,15-15s-6.7-15-15-15h-17v-50h17c8.3,0,15-6.7,15-15s-6.7-15-15-15h-17V37h322V489z"/>
	<path class="st0" d="M177,367c0,8.3,6.7,15,15,15s15-6.7,15-15c0-39.8,24.3-81,65-81s65,41.2,65,81c0,8.3,6.7,15,15,15
		s15-6.7,15-15c0-38.1-17.4-77.6-49.3-97.8c15.4-13,25.3-32.5,25.3-54.2c0-39.1-31.9-71-71-71s-71,31.9-71,71
		c0,21.7,9.8,41.2,25.3,54.2C194.4,289.4,177,328.9,177,367z M231,215c0-22.6,18.4-41,41-41s41,18.4,41,41s-18.4,41-41,41
		S231,237.6,231,215z"/>
</g>
</svg>
