<svg id="plus_7_" data-name="plus (7)" xmlns="http://www.w3.org/2000/svg" width="23" height="23" viewBox="0 0 23 23">
  <path id="Path_2282" data-name="Path 2282" d="M11.5,23A11.5,11.5,0,1,1,23,11.5,11.513,11.513,0,0,1,11.5,23Zm0-21.562A10.062,10.062,0,1,0,21.562,11.5,10.074,10.074,0,0,0,11.5,1.437Zm0,0" fill="#384e64"/>
  <path id="Path_2283" data-name="Path 2283" d="M138.781,241.438H128.719a.719.719,0,0,1,0-1.437h10.063a.719.719,0,0,1,0,1.438Zm0,0" transform="translate(-122.25 -229.219)" fill="#384e64"/>
  <path id="Path_2284" data-name="Path 2284" d="M240.719,139.5a.719.719,0,0,1-.719-.719V128.719a.719.719,0,0,1,1.438,0v10.063A.719.719,0,0,1,240.719,139.5Zm0,0" transform="translate(-229.219 -122.25)" fill="#384e64"/>
</svg>
