<svg height='300px' width='300px'  fill="#384e64" xmlns="http://www.w3.org/2000/svg" xmlns:xlink="http://www.w3.org/1999/xlink" viewBox="0 0 24 24" version="1.1" x="0px" y="0px"><title>dsafd</title><desc>Created with Sketch.</desc><g stroke="none" stroke-width="1" fill="none" fill-rule="evenodd"><path d="M8.23333333,14.2923077 L15.7666667,14.2923077 C16.7055507,14.2923077 17.4666667,15.0534236 17.4666667,15.9923077 L17.4666667,20.125641 C17.4666667,21.0645251 16.7055507,21.825641 15.7666667,21.825641 L8.23333333,21.825641 C7.29444926,21.825641 6.53333333,21.0645251 6.53333333,20.125641 L6.53333333,15.9923077 C6.53333333,15.0534236 7.29444926,14.2923077 8.23333333,14.2923077 Z M8.23333333,15.7923077 C8.12287638,15.7923077 8.03333333,15.8818507 8.03333333,15.9923077 L8.03333333,20.125641 C8.03333333,20.236098 8.12287638,20.325641 8.23333333,20.325641 L15.7666667,20.325641 C15.8771236,20.325641 15.9666667,20.236098 15.9666667,20.125641 L15.9666667,15.9923077 C15.9666667,15.8818507 15.8771236,15.7923077 15.7666667,15.7923077 L8.23333333,15.7923077 Z" fill="#384e64" fill-rule="nonzero"></path><path d="M7.55769231,4.45 L16.4423077,4.45 L16.4423077,7.59310397 L17.9423077,7.59310397 L17.9423077,4.27692308 C17.9423077,3.5440837 17.348224,2.95 16.6153846,2.95 L7.38461538,2.95 C6.65177601,2.95 6.05769231,3.5440837 6.05769231,4.27692308 L6.05769231,8.7 L7.55769231,8.7 L7.55769231,4.45 Z" fill="#384e64" fill-rule="nonzero"></path><rect fill="#384e64" x="15" y="10" width="3" height="1.5" rx="0.75"></rect><path d="M7.09615385,18.3089743 L5.5,18.3089743 C4.80964406,18.3089743 4.25,17.7493303 4.25,17.0589743 L4.25,10.0333333 C4.25,9.3429774 4.80964406,8.78333333 5.5,8.78333333 L18.5,8.78333333 C19.1903559,8.78333333 19.75,9.3429774 19.75,10.0333333 L19.75,17.0589743 C19.75,17.7493303 19.1903559,18.3089743 18.5,18.3089743 L17.1065768,18.3089743 C16.6923632,18.3089743 16.3565768,18.6447608 16.3565768,19.0589743 C16.3565768,19.4731879 16.6923632,19.8089743 17.1065768,19.8089743 L18.5,19.8089743 C20.0187831,19.8089743 21.25,18.5777574 21.25,17.0589743 L21.25,10.0333333 C21.25,8.51455027 20.0187831,7.28333333 18.5,7.28333333 L5.5,7.28333333 C3.98121694,7.28333333 2.75,8.51455027 2.75,10.0333333 L2.75,17.0589743 C2.75,18.5777574 3.98121694,19.8089743 5.5,19.8089743 L7.09615385,19.8089743 C7.51036741,19.8089743 7.84615385,19.4731879 7.84615385,19.0589743 C7.84615385,18.6447608 7.51036741,18.3089743 7.09615385,18.3089743 Z" fill="#384e64" fill-rule="nonzero"></path></g></svg>