<?xml version="1.0" encoding="utf-8"?>
<!-- Generator: Adobe Illustrator 25.1.0, SVG Export Plug-In . SVG Version: 6.00 Build 0)  -->
<svg version="1.1"
	 id="Layer_1" xmlns:cc="http://creativecommons.org/ns#" xmlns:dc="http://purl.org/dc/elements/1.1/" xmlns:inkscape="http://www.inkscape.org/namespaces/inkscape" xmlns:rdf="http://www.w3.org/1999/02/22-rdf-syntax-ns#" xmlns:sodipodi="http://sodipodi.sourceforge.net/DTD/sodipodi-0.dtd" xmlns:svg="http://www.w3.org/2000/svg"
	 xmlns="http://www.w3.org/2000/svg" xmlns:xlink="http://www.w3.org/1999/xlink" x="0px" y="0px" viewBox="0 0 300 300"
	 style="enable-background:new 0 0 300 300;" xml:space="preserve">
<style type="text/css">
	.st0{fill:#6599FF;}
</style>
<g>
	<path class="st0" d="M36.2,0c-4.8,0.5-8.4,4.5-8.4,9.3V246c0,5.2,4.2,9.4,9.3,9.4c0,0,0,0,0,0h83.1c13.2,26.4,40.3,44.6,71.8,44.6
		c44.2,0,80.2-36,80.2-80.2c0-37.3-25.7-68.7-60.2-77.6V9.3c0-5.2-4.2-9.4-9.4-9.3H37.1C36.8,0,36.5,0,36.2,0L36.2,0z M46.5,18.8
		h146.7v120.8c-0.3,0-0.6,0-0.9,0c-0.1,0-0.2,0-0.3,0c-5.5,0-10.9,0.6-16.1,1.6c-5.2,1.1-10.2,2.7-15,4.7c0,0,0,0,0,0
		c-4.8,2-9.3,4.5-13.6,7.4c0,0,0,0,0,0c-8.5,5.8-15.9,13.2-21.7,21.7c-2.9,4.3-5.4,8.8-7.4,13.6c-4.1,9.6-6.3,20.1-6.3,31.2
		c0,5.8,0.6,11.4,1.8,16.8H46.5L46.5,18.8z M95.9,32.6c-5.2,0-9.4,4.2-9.4,9.4s4.2,9.4,9.4,9.4c0,0,0,0,0,0h47.9
		c5.2,0,9.4-4.2,9.4-9.4s-4.2-9.4-9.4-9.4c0,0,0,0,0,0H95.9z M191.9,158.3C192,158.3,192,158.3,191.9,158.3c3.1,0,6.2,0.3,9.2,0.8
		c0.4,0.1,0.8,0.1,1.2,0.1c29.1,4.9,51.1,30.1,51.1,60.6c0,34.1-27.4,61.5-61.5,61.5c-25.5,0-47.3-15.4-56.7-37.5c0,0,0,0,0,0
		c-0.1-0.4-0.2-0.9-0.4-1.3c-2.2-5.4-3.6-11.2-4.1-17c-0.2-1.9-0.3-3.8-0.3-5.7c0,0,0,0,0,0c0,0,0,0,0,0c0-0.4,0-0.8,0.1-1.2
		c0-1.7,0.1-3.4,0.3-5.1c0.2-2,0.5-4.1,0.9-6.1c0,0,0,0,0-0.1c0.4-2,0.9-3.9,1.5-5.9c0,0,0,0,0,0c0.6-1.9,1.3-3.8,2.1-5.6
		c0,0,0,0,0,0c0.8-1.8,1.6-3.6,2.6-5.4c0,0,0,0,0,0c0.9-1.7,2-3.4,3.1-5.1c4.4-6.5,10-12.2,16.6-16.6c2.4-1.6,5-3,7.7-4.3
		c0.9-0.4,1.8-0.9,2.8-1.3c0,0,0,0,0,0c0.9-0.4,1.7-0.6,2.6-1c1-0.4,2-0.8,3-1.1c1.3-0.4,2.7-0.7,4-1c0.6-0.1,1.2-0.3,1.8-0.5
		c0,0,0,0,0.1,0c2-0.4,4-0.7,6.1-0.9c1.7-0.2,3.4-0.2,5.1-0.3C191.1,158.3,191.5,158.3,191.9,158.3L191.9,158.3z M191.9,176.8
		c-5.2,0.1-9.3,4.3-9.3,9.5c0,0,0,0,0,0v32.4c-0.1,5.2,4,9.5,9.2,9.6c5.2,0.1,9.5-4,9.6-9.2c0-0.1,0-0.3,0-0.4v-32.4
		c0.1-5.2-4.1-9.4-9.3-9.5C192,176.8,191.9,176.8,191.9,176.8L191.9,176.8z M192,240.7c-6.1,0-11,4.9-11,11c0,6.1,4.9,11,11,11
		c6.1,0,11-4.9,11-11C203,245.6,198.1,240.7,192,240.7z"/>
</g>
</svg>
