<svg xmlns="http://www.w3.org/2000/svg" width="512" height="512" viewBox="0 0 512 512">
  <g id="blueprint" transform="translate(0 0)">
    <path id="Path_2128" data-name="Path 2128" d="M274.285,201.145A18.285,18.285,0,1,1,256,182.856a18.284,18.284,0,0,1,18.286,18.289Zm0,0" fill="#e36537"/>
    <path id="Path_2129" data-name="Path 2129" d="M357.395,359.8l-1.848-4.9-58.531,3.859,19.363,42.449Zm0,0" fill="#e36537"/>
    <path id="Path_2130" data-name="Path 2130" d="M107.051,471.039v-.008L95.672,446.086,62.391,461.262a9.155,9.155,0,0,0-4.516,12.113l15.176,33.273a9.14,9.14,0,0,0,12.113,4.52l33.273-15.18-11.379-24.941Zm0,0" fill="#e36537"/>
    <path id="Path_2131" data-name="Path 2131" d="M91.43,374.855V0H36.57A36.437,36.437,0,0,0,0,36.57V388.855a54.807,54.807,0,0,1,36.57-14ZM18.285,36.57a9.143,9.143,0,1,1,18.285,0V54.855a9.143,9.143,0,1,1-18.285,0ZM27.43,301.715a9.144,9.144,0,0,1-9.145-9.146V91.429a9.143,9.143,0,1,1,18.285,0V292.57a9.143,9.143,0,0,1-9.142,9.145Zm0,0" fill="#e36537"/>
    <path id="Path_2132" data-name="Path 2132" d="M228.031,405.813l58.23-26.559-7.59-16.641L112.3,438.493l7.586,16.641,66.551-30.355a9.142,9.142,0,1,1,7.59,16.633L127.48,471.774l7.59,16.637,46.789-21.34.168-.078,119.414-54.465-7.59-16.641-58.23,26.559a9.142,9.142,0,1,1-7.59-16.633Zm0,0" fill="#e36537"/>
    <path id="Path_2133" data-name="Path 2133" d="M0,429.715a38.329,38.329,0,0,0,38.766,36.57h.293A27.355,27.355,0,0,1,54.8,444.625L279.4,342.187c.1-.047.215-.031.32-.074a9.017,9.017,0,0,1,2.871-.734l71.375-4.7a18.164,18.164,0,0,1,18.211,10.637l2.113,4.641a18.254,18.254,0,0,1-4.176,20.973l-50.078,50.555a8.768,8.768,0,0,1-1.406.945,8.939,8.939,0,0,1-1.293.938l-89.715,40.918H402.285V137.144a18.307,18.307,0,0,1,18.285-18.289h52.652A39.979,39.979,0,0,0,501.8,106.64a35.1,35.1,0,0,0,10.184-25.691A36.43,36.43,0,0,0,475.43,45.714H109.715V374.855A18.307,18.307,0,0,1,91.43,393.144H36.57A36.461,36.461,0,0,0,0,428.383ZM137.168,182.856a17.978,17.978,0,0,1,5.25-12.828,18.39,18.39,0,0,1,12.945-5.457l16.887-.02A90.894,90.894,0,0,1,182.457,146.9l-8.418-14.566a18.318,18.318,0,0,1,6.7-24.98L212.4,89.069a18.32,18.32,0,0,1,24.984,6.691l8.406,14.574a90.533,90.533,0,0,1,20.387-.016l8.461-14.6a18.4,18.4,0,0,1,11.2-8.492,18.051,18.051,0,0,1,13.824,1.922l31.566,18.2a18.4,18.4,0,0,1,6.824,24.879L329.6,146.883a93.216,93.216,0,0,1,10.188,17.648l16.8.008h.117a18.392,18.392,0,0,1,18.133,18.383l-.012,36.508a17.978,17.978,0,0,1-5.25,12.828,18.39,18.39,0,0,1-12.945,5.457l-16.887.023a90.864,90.864,0,0,1-10.207,17.648l8.414,14.57a18.314,18.314,0,0,1-6.7,24.977L299.59,313.219a18.159,18.159,0,0,1-9.1,2.453,18.446,18.446,0,0,1-4.777-.637,18.156,18.156,0,0,1-11.109-8.508l-8.406-14.57a90.531,90.531,0,0,1-20.387.012l-8.461,14.6a18.375,18.375,0,0,1-11.2,8.492,18.055,18.055,0,0,1-13.832-1.926l-31.555-18.191a18.4,18.4,0,0,1-6.832-24.871l8.461-14.668a92.3,92.3,0,0,1-5.578-8.539,93.466,93.466,0,0,1-4.613-9.109l-16.8-.008a18.418,18.418,0,0,1-18.25-18.383Zm0,0" fill="#e36537"/>
    <path id="Path_2134" data-name="Path 2134" d="M420.57,137.145V512h54.859A36.608,36.608,0,0,0,512,475.43V122.1a58.273,58.273,0,0,1-38.777,15.043Zm0,0" fill="#e36537"/>
    <path id="Path_2135" data-name="Path 2135" d="M178.434,219.473a9.149,9.149,0,0,1,8.625,6.121,73.372,73.372,0,0,0,13.3,23.027,9.144,9.144,0,0,1,.984,10.531l-11.5,19.941,31.715,18.258,11.563-19.937a9.117,9.117,0,0,1,9.633-4.391,72.249,72.249,0,0,0,26.586-.012,8.925,8.925,0,0,1,1.68-.152,9.149,9.149,0,0,1,7.918,4.57l11.52,19.953,31.668-18.289L310.6,259.145a9.157,9.157,0,0,1,.977-10.523,71.939,71.939,0,0,0,13.3-23.008,9.138,9.138,0,0,1,8.625-6.152l23.1-.031-.035-36.6-23-.016a9.149,9.149,0,0,1-8.625-6.121,73.4,73.4,0,0,0-13.3-23.027,9.138,9.138,0,0,1-.988-10.531l11.5-19.941L290.446,104.93l-11.562,19.941a9.146,9.146,0,0,1-9.633,4.4,71.83,71.83,0,0,0-26.586.008,9.109,9.109,0,0,1-9.6-4.418L221.547,104.9l-31.672,18.289,11.52,19.953a9.144,9.144,0,0,1-.977,10.52,71.977,71.977,0,0,0-13.293,23.012,9.148,9.148,0,0,1-8.625,6.152l-23.1.027.035,36.551ZM256,164.571a36.572,36.572,0,1,1-36.57,36.572A36.572,36.572,0,0,1,256,164.571Zm0,0" fill="#e36537"/>
  </g>
</svg>
