<?xml version="1.0" encoding="utf-8"?>
<!-- Generator: Adobe Illustrator 25.1.0, SVG Export Plug-In . SVG Version: 6.00 Build 0)  -->
<svg version="1.1" id="Capa_1" xmlns="http://www.w3.org/2000/svg" xmlns:xlink="http://www.w3.org/1999/xlink" x="0px" y="0px"
	 viewBox="0 0 512 512" style="enable-background:new 0 0 512 512;" xml:space="preserve">
<style type="text/css">
	.st0{fill:#6599FF;}
</style>
<g>
	<g>
		<path class="st0" d="M423.5,329.3c-27.2-27.2-59.8-46.9-95.4-58.3c43.6-25.1,73-72.1,73-125.9C401.1,65.1,336,0,256,0
			S110.9,65.1,110.9,145.1c0,53.8,29.4,100.9,73,125.9c-35.6,11.3-68.2,31.1-95.4,58.3c-44.7,44.7-69.4,104.2-69.4,167.5
			c0,8.4,6.8,15.2,15.2,15.2h443.5c8.4,0,15.2-6.8,15.2-15.2C492.9,433.5,468.3,374.1,423.5,329.3z M141.2,145.1
			c0-63.3,51.5-114.8,114.8-114.8s114.8,51.5,114.8,114.8S319.3,259.9,256,259.9S141.2,208.4,141.2,145.1z M50,481.6
			c7.8-106.8,97.2-191.4,206-191.4s198.2,84.5,206,191.4H50z"/>
	</g>
</g>
<g>
	<g>
		<path class="st0" d="M256,194.6c-7.9,0-15.5,7-15.2,15.2c0.4,8.2,6.7,15.2,15.2,15.2c7.9,0,15.5-7,15.2-15.2
			C270.8,201.6,264.5,194.6,256,194.6z"/>
	</g>
</g>
<g>
	<g>
		<path class="st0" d="M256,65.3c-26,0-47.1,21.1-47.1,47.1c0,8.4,6.8,15.2,15.2,15.2c8.4,0,15.2-6.8,15.2-15.2
			c0-9.2,7.5-16.8,16.8-16.8c9.2,0,16.8,7.5,16.8,16.8s-7.5,16.8-16.8,16.8c-8.4,0-15.2,6.8-15.2,15.2v23c0,8.4,6.8,15.2,15.2,15.2
			s15.2-6.8,15.2-15.2V157c18.6-6.3,31.9-23.9,31.9-44.6C303.1,86.4,282,65.3,256,65.3z"/>
	</g>
</g>
</svg>
