<svg height='300px' width='300px'  fill="#384e64" xmlns="http://www.w3.org/2000/svg" xmlns:xlink="http://www.w3.org/1999/xlink" viewBox="0 0 40 38" version="1.1" x="0px" y="0px"><title>Rate</title><desc>Created with Sketch.</desc><g stroke="none" stroke-width="1" fill="none" fill-rule="evenodd"><path d="M20.1008,0.6269 C19.4298,0.6269 18.7588,0.9769 18.4138,1.6749 L13.5048,11.6219 L2.5278,13.2169 C0.9848,13.4409 0.3688,15.3369 1.4848,16.4259 L9.4288,24.1689 L7.5528,35.1009 C7.3448,36.3169 8.3108,37.3039 9.4068,37.3039 C9.6958,37.3039 9.9948,37.2349 10.2828,37.0839 L20.1008,31.9219 L29.9188,37.0839 C30.2068,37.2359 30.5048,37.3039 30.7948,37.3039 C31.8908,37.3039 32.8568,36.3169 32.6478,35.1009 L30.7728,24.1689 L38.7158,16.4259 C39.8328,15.3369 39.2168,13.4409 37.6738,13.2169 L26.6968,11.6219 L21.7878,1.6749 C21.4428,0.9769 20.7718,0.6269 20.1008,0.6269 M20.1008,2.7769 L24.9028,12.5069 C25.1948,13.0979 25.7578,13.5069 26.4088,13.6019 L37.1468,15.1619 L29.3768,22.7359 C28.9058,23.1959 28.6908,23.8579 28.8018,24.5059 L30.6358,35.2019 L21.0318,30.1519 C20.7398,29.9989 20.4198,29.9219 20.1008,29.9219 C19.7808,29.9219 19.4608,29.9989 19.1698,30.1519 L9.5648,35.2019 L11.3998,24.5059 C11.5108,23.8579 11.2958,23.1959 10.8248,22.7359 L3.0538,15.1619 L13.7918,13.6019 C14.4438,13.5069 15.0068,13.0979 15.2978,12.5069 L20.1008,2.7769 M20.2078,2.5599 L20.2128,2.5599 L20.2078,2.5599" fill="#384e64"></path></g></svg>