<svg height='300px' width='300px'  fill="#46bd9b" xmlns="http://www.w3.org/2000/svg" xmlns:xlink="http://www.w3.org/1999/xlink" version="1.1" x="0px" y="0px" viewBox="0 0 100 100" enable-background="new 0 0 100 100" xml:space="preserve"><path d="M50,10c-22.1,0-40,17.9-40,40c0,22.1,17.9,40,40,40c22.1,0,40-17.9,40-40C90,27.9,72.1,10,50,10z M50,76.7  c-9.3,0-17.8-4.8-22.6-12.7l-5.2,1.5L26,50l11.5,11.1l-4.8,1.4c4,5.5,10.4,8.9,17.3,8.9c8.9,0,16.9-5.6,20-13.9l5,1.9  C71.1,69.7,61.1,76.7,50,76.7z M74,50L62.5,38.9l4.8-1.4c-4-5.5-10.4-8.9-17.3-8.9c-8.9,0-16.9,5.6-20,13.9l-5-1.9  c3.9-10.4,13.9-17.3,25-17.3c9.3,0,17.8,4.8,22.6,12.7l5.2-1.5L74,50z"></path></svg>