<?xml version="1.0" encoding="utf-8"?>
<!-- Generator: Adobe Illustrator 25.2.0, SVG Export Plug-In . SVG Version: 6.00 Build 0)  -->
<svg version="1.1" id="Layer_1" xmlns="http://www.w3.org/2000/svg" xmlns:xlink="http://www.w3.org/1999/xlink" x="0px" y="0px"
	 viewBox="0 0 223.3 223.3" style="enable-background:new 0 0 223.3 223.3;" xml:space="preserve">
<style type="text/css">
	.st0{fill:#FFFFFF;}
</style>
<path class="st0" d="M109.4,184c-0.9,0-1.7-0.1-2.5-0.3c-0.8-0.1-1.6-0.4-2.3-0.8c-0.8-0.3-1.6-0.7-2.3-1.1c-0.7-0.5-1.3-1-1.9-1.5
	c-2.3-2.4-3.7-5.7-3.7-9.1c0-0.9,0.1-1.7,0.3-2.5c0.1-0.8,0.4-1.6,0.8-2.3c0.3-0.8,0.7-1.6,1.1-2.3l1.5-1.9l1.9-1.5
	c0.7-0.5,1.5-0.9,2.3-1.1c0.7-0.4,1.5-0.6,2.3-0.8c4.2-0.8,8.5,0.5,11.6,3.4c5,5,5,13,0.1,18C116.1,182.7,112.8,184,109.4,184z"/>
<path class="st0" d="M109.4,143.2c-7,0-12.7-4.1-12.7-9.1V52.2c0-5,5.7-9.1,12.7-9.1c7,0,12.7,4.1,12.7,9.1v81.9
	C122.1,139.2,116.4,143.2,109.4,143.2z"/>
<g>
	<path class="st0" d="M163.1,17.8L170,0l-26.5,3.8l-26.5,3.8l17,20.8l17,20.8l7.3-18.8c34.3,15.1,51.8,41.9,51.8,82.4
		c0,45-31.7,83-71.7,94.6v13.8c46.7-12,85-56,85-108.4C223.3,66.6,201.9,34.9,163.1,17.8z"/>
	<path class="st0" d="M70.3,174.3l-7.7,19.8c-34.8-15.6-49.2-41.9-49.2-81.5c0-45,28.3-83,71.7-94.6V4.2c-50,12-85,56-85,108.4
		c0,45.2,18.5,76.3,57.7,93.9l-6.6,16.8l26.5-3.8l26.5-3.8l-17-20.8L70.3,174.3z"/>
</g>
</svg>
