<svg xmlns="http://www.w3.org/2000/svg" width="334" height="334" viewBox="0 0 334 334">
  <g id="Group_4620" data-name="Group 4620" transform="translate(-4468 -4367)">
    <circle id="Ellipse_67" data-name="Ellipse 67" cx="167" cy="167" r="167" transform="translate(4468 4367)" fill="#1673a7"/>
    <g id="Group_4619" data-name="Group 4619" transform="translate(-186.057 892.275)">
      <g id="repeat" transform="translate(4701.057 3553.725)">
        <path id="Path_2121" data-name="Path 2121" d="M226.917,189.6a15.785,15.785,0,0,0,1.964-19.88c-1.238-1.851-.253-.685-25.956-26.388a15.739,15.739,0,0,0-24.533,19.383H159.8a63.738,63.738,0,1,0,0,127.476,15.747,15.747,0,1,0,0-31.494,32.244,32.244,0,1,1,0-64.488h18.6A15.74,15.74,0,0,0,202.924,213.6Z" transform="translate(-96.057 -138.724)" fill="#fafeff"/>
        <path id="Path_2122" data-name="Path 2122" d="M306.463,170.724a15.747,15.747,0,0,0,0,31.494,32.244,32.244,0,1,1,0,64.488h-18.6a15.739,15.739,0,0,0-24.533-19.383l-23.993,23.993a15.785,15.785,0,0,0-1.964,19.88c1.183,1.769-.032.4,25.956,26.388A15.739,15.739,0,0,0,287.868,298.2h18.6a63.738,63.738,0,1,0,0-127.476Z" transform="translate(-130.746 -146.729)" fill="#fafeff"/>
      </g>
    </g>
  </g>
</svg>
