<?xml version="1.0" encoding="utf-8"?>
<!-- Generator: Adobe Illustrator 23.1.0, SVG Export Plug-In . SVG Version: 6.00 Build 0)  -->
<svg version="1.1" id="Layer_1" xmlns="http://www.w3.org/2000/svg" xmlns:xlink="http://www.w3.org/1999/xlink" x="0px" y="0px"
	 viewBox="0 0 150 161" style="enable-background:new 0 0 150 161;" xml:space="preserve">
<style type="text/css">
	.st0{fill:#384E64;}
</style>
<path class="st0" d="M150,75c0,29.8-24.2,54-54,54H41.5l7.8,7.8c2.3,2.3,2.3,6.1,0,8.5c-2.3,2.3-6.1,2.3-8.5,0l-18-18
	c-2.3-2.3-2.3-6.1,0-8.5l18-18c2.3-2.3,6.1-2.3,8.5,0c2.3,2.3,2.3,6.1,0,8.5l-7.8,7.8H96c23.2,0,42-18.8,42-42c0-3.3,2.7-6,6-6
	S150,71.7,150,75z M54,51h54.5l-7.8,7.8c-2.3,2.3-2.3,6.1,0,8.5c2.3,2.3,6.1,2.4,8.5,0l18-18c2.3-2.3,2.3-6.1,0-8.5l-18-18
	c-2.3-2.3-6.1-2.3-8.5,0c-2.3,2.3-2.3,6.1,0,8.5l7.8,7.8H54C24.2,39,0,63.2,0,93c0,3.3,2.7,6,6,6s6-2.7,6-6C12,69.8,30.8,51,54,51z"
	/>
</svg>
