<svg xmlns="http://www.w3.org/2000/svg" width="265.777" height="366" viewBox="0 0 265.777 366">
  <g id="notepad" transform="translate(0)">
    <path id="Path_2164" data-name="Path 2164" d="M238.848,27.16H204.161V38.934a40.974,40.974,0,0,1-40.93,40.93H102.547a40.974,40.974,0,0,1-40.93-40.93V27.16H26.93A26.962,26.962,0,0,0,0,54.09V339.07A26.957,26.957,0,0,0,26.93,366H238.848a26.957,26.957,0,0,0,26.93-26.93V54.09a26.959,26.959,0,0,0-26.93-26.93Zm-44.59,152.773-72.641,70.918a7,7,0,0,1-9.777,0L71.52,211.484A7,7,0,0,1,81.3,201.468l35.43,34.59,67.746-66.145a7,7,0,0,1,9.781,10.02Zm0,0" fill="#fff"/>
    <path id="Path_2165" data-name="Path 2165" d="M102.547,65.863h60.684a26.957,26.957,0,0,0,26.93-26.93V27.16H167.328a7,7,0,0,1-6.836-5.5C157.735,9.109,146.129,0,132.891,0s-24.848,9.109-27.6,21.664a7,7,0,0,1-6.836,5.5H75.617V38.937a26.961,26.961,0,0,0,26.93,26.926Zm0,0" fill="#fff"/>
  </g>
</svg>
