<svg xmlns="http://www.w3.org/2000/svg" width="46" height="46" viewBox="0 0 46 46">
  <path id="return" d="M32.7,44.2a1.8,1.8,0,0,1-1.8,1.8H8.984A7.2,7.2,0,0,1,1.8,38.813V18.867a1.8,1.8,0,0,1,3.594,0V38.813a3.6,3.6,0,0,0,3.594,3.594H30.906A1.8,1.8,0,0,1,32.7,44.2ZM46,5.391v5.391a1.8,1.8,0,0,1-1.8,1.8V25.7a1.8,1.8,0,1,1-3.594,0V12.578H1.8a1.8,1.8,0,0,1-1.8-1.8V5.391A5.4,5.4,0,0,1,5.391,0H40.609A5.4,5.4,0,0,1,46,5.391ZM3.594,8.984H42.406V5.391a1.8,1.8,0,0,0-1.8-1.8H5.391a1.8,1.8,0,0,0-1.8,1.8ZM26.953,19.766a1.8,1.8,0,1,0,0-3.594H18.867a1.8,1.8,0,0,0,0,3.594ZM38.049,30.1H28.571l2.251-2.226A1.8,1.8,0,0,0,28.3,25.316l-3.337,3.3a4.467,4.467,0,0,0-.009,6.35l3.342,3.324a1.8,1.8,0,1,0,2.534-2.548l-2.061-2.05h9.285a4.358,4.358,0,0,1,.05,8.715A1.8,1.8,0,1,0,38.1,46a7.824,7.824,0,0,0,5.6-2.336A7.969,7.969,0,0,0,38.049,30.1Zm0,0" fill="#c4d3e1"/>
</svg>
