<?xml version="1.0" encoding="utf-8"?>
<!-- Generator: Adobe Illustrator 25.2.0, SVG Export Plug-In . SVG Version: 6.00 Build 0)  -->
<svg version="1.1" id="Layer_1" xmlns="http://www.w3.org/2000/svg" xmlns:xlink="http://www.w3.org/1999/xlink" x="0px" y="0px"
	 viewBox="0 0 219.7 300" style="enable-background:new 0 0 219.7 300;" xml:space="preserve">
<style type="text/css">
	.st0{fill:#384E64;}
</style>
<g>
	<g>
		<g>
			<g>
				<path class="st0" d="M10.3,160.3c2.2,0,4.4,0,6.7,0c6,0,12.1,0,18.1,0c9,0,17.9,0,26.9,0c10.9,0,21.8,0,32.7,0
					c12,0,23.9,0,35.8,0c12,0,4.1,0,16.2,0c11.3,0,22.5,0,33.7,0c9.5,0-11,0-1.5,0c6.8,0,13.7,0,20.5,0c3.3,0,6.5,0,9.7,0
					c0.1,0,0.3,0,0.4,0c5.4,0,10.5-4.7,10.3-10.3c-0.2-5.6-4.5-10.3-10.3-10.3c-2.2,0-4.4,0-6.7,0c-6,0-12.1,0-18.1,0
					c-9,0-17.9,0-26.9,0c-10.9,0,8.2,0-2.7,0c-12,0-3.9,0-15.8,0c-12,0-24.1,0-36.2,0c-11.3,0-22.5,0-33.7,0c-9.5,0-19,0-28.5,0
					c-6.8,0-13.7,0-20.5,0c-3.3,0-6.5,0-9.7,0c-0.1,0-0.3,0-0.4,0c-5.4,0-10.5,4.7-10.3,10.3C0.2,155.5,4.5,160.3,10.3,160.3
					L10.3,160.3z"/>
			</g>
		</g>
	</g>
	<g>
		<g>
			<path class="st0" d="M103,228.3c-2.8-2.8-5.7-5.7-8.5-8.5c-6.8-6.8-13.6-13.6-20.4-20.4c-8.2-8.2-16.5-16.5-24.7-24.7
				c-7.1-7.1-14.2-14.2-21.4-21.4c-3.5-3.5-6.9-7-10.4-10.4c-0.1-0.1-0.1-0.1-0.1-0.1c0,4.8,0,9.7,0,14.5c2.8-2.8,5.7-5.7,8.5-8.5
				c6.8-6.8,13.6-13.6,20.4-20.4c8.2-8.2,16.5-16.5,24.7-24.7c7.1-7.1,14.2-14.2,21.4-21.4c3.5-3.5,7-6.9,10.4-10.4
				c0.1-0.1,0.1-0.1,0.1-0.1c3.8-3.8,4.1-10.8,0-14.5c-4.1-3.8-10.5-4-14.5,0c-2.8,2.8-5.7,5.7-8.5,8.5
				c-6.8,6.8-13.6,13.6-20.4,20.4c-8.2,8.2-16.5,16.5-24.7,24.7c-7.1,7.1-14.2,14.2-21.4,21.4c-3.5,3.5-7,6.9-10.4,10.4
				c-0.1,0.1-0.1,0.1-0.1,0.1c-3.9,3.9-3.9,10.6,0,14.5c2.8,2.8,5.7,5.7,8.5,8.5c6.8,6.8,13.6,13.6,20.4,20.4
				c8.2,8.2,16.5,16.5,24.7,24.7c7.1,7.1,14.2,14.2,21.4,21.4c3.5,3.5,6.9,7,10.4,10.4c0.1,0.1,0.1,0.1,0.1,0.1
				c3.8,3.8,10.8,4.1,14.5,0C106.8,238.7,107.1,232.4,103,228.3L103,228.3z"/>
		</g>
	</g>
</g>
</svg>
