<svg xmlns="http://www.w3.org/2000/svg" width="309" height="309" viewBox="0 0 309 309">
  <g id="Group_4613" data-name="Group 4613" transform="translate(345 -1209)">
    <g id="Ellipse_65" data-name="Ellipse 65" transform="translate(-345 1209)" fill="rgba(255,255,255,0.79)" stroke="#c9d3dc" stroke-width="9">
      <circle cx="154.5" cy="154.5" r="154.5" stroke="none"/>
      <circle cx="154.5" cy="154.5" r="150" fill="none"/>
    </g>
    <g id="Group_4612" data-name="Group 4612" transform="translate(-269 1285)">
      <path id="Path_955" data-name="Path 955" d="M301.236,343.713a10.476,10.476,0,0,1-10.476,10.476H227.908a10.476,10.476,0,0,1-10.476-10.476v-5.238A10.476,10.476,0,0,1,227.908,328h62.853a10.476,10.476,0,0,1,10.476,10.475Z" transform="translate(-146.253 -220.626)" fill="#f5ba46"/>
      <path id="Path_956" data-name="Path 956" d="M297.042,333.095A13.1,13.1,0,0,0,283.948,320H221.094A13.1,13.1,0,0,0,208,333.095v5.238a13.1,13.1,0,0,0,13.094,13.094h62.853a13.1,13.1,0,0,0,13.094-13.094Zm-5.238,5.238a8.48,8.48,0,0,1-5.238,7.375v-7.375a2.619,2.619,0,1,0-5.238,0v7.857h-5.238v-7.857a2.619,2.619,0,1,0-5.238,0v7.857h-5.238v-7.857a2.619,2.619,0,1,0-5.238,0v7.857H255.14v-7.857a2.619,2.619,0,1,0-5.238,0v7.857h-5.238v-7.857a2.619,2.619,0,1,0-5.238,0v7.857h-5.238v-7.857a2.619,2.619,0,1,0-5.238,0v7.857h-5.238v-7.857a2.619,2.619,0,1,0-5.238,0v7.375a8.48,8.48,0,0,1-5.238-7.375v-5.238c0-4.332,3.991-7.857,8.325-7.857h62.853c4.332,0,7.388,3.525,7.388,7.857Z" transform="translate(-139.909 -215.244)" fill="#232323"/>
      <path id="Path_957" data-name="Path 957" d="M299.8,23.713a10.476,10.476,0,0,1-10.476,10.476H226.475A10.476,10.476,0,0,1,216,23.713V18.476A10.476,10.476,0,0,1,226.475,8h62.853A10.476,10.476,0,0,1,299.8,18.476Z" transform="translate(-145.29 -5.381)" fill="#f5ba46"/>
      <path id="Path_958" data-name="Path 958" d="M283.948,0H221.094A13.109,13.109,0,0,0,208,13.094v5.238a13.109,13.109,0,0,0,13.094,13.094h62.853a13.109,13.109,0,0,0,13.094-13.094V13.094A13.109,13.109,0,0,0,283.948,0ZM291.8,18.332a7.846,7.846,0,0,1-5.238,7.375V18.332a2.619,2.619,0,1,0-5.238,0v7.857h-5.238V18.332a2.619,2.619,0,0,0-5.238,0v7.857h-5.238V18.332a2.619,2.619,0,0,0-5.238,0v7.857H255.14V18.332a2.619,2.619,0,0,0-5.238,0v7.857h-5.238V18.332a2.619,2.619,0,1,0-5.238,0v7.857h-5.238V18.332a2.619,2.619,0,1,0-5.238,0v7.857h-5.238V18.332a2.619,2.619,0,1,0-5.238,0v7.375a7.846,7.846,0,0,1-5.238-7.375V13.094a7.866,7.866,0,0,1,7.857-7.857h62.853a7.866,7.866,0,0,1,7.857,7.857Z" transform="translate(-139.909 0)" fill="#232323"/>
      <path id="Path_959" data-name="Path 959" d="M299.8,183.713a10.476,10.476,0,0,1-10.476,10.476H226.475A10.476,10.476,0,0,1,216,183.713v-5.238A10.476,10.476,0,0,1,226.475,168h62.853A10.476,10.476,0,0,1,299.8,178.476Z" transform="translate(-145.29 -113.003)" fill="#f5ba46"/>
      <path id="Path_960" data-name="Path 960" d="M283.948,160H221.094A13.109,13.109,0,0,0,208,173.094v5.238a13.109,13.109,0,0,0,13.094,13.094h62.853a13.109,13.109,0,0,0,13.094-13.094v-5.238A13.109,13.109,0,0,0,283.948,160Zm7.857,18.332a7.846,7.846,0,0,1-5.238,7.375v-7.375a2.619,2.619,0,1,0-5.238,0v7.857h-5.238v-7.857a2.619,2.619,0,0,0-5.238,0v7.857h-5.238v-7.857a2.619,2.619,0,0,0-5.238,0v7.857H255.14v-7.857a2.619,2.619,0,0,0-5.238,0v7.857h-5.238v-7.857a2.619,2.619,0,1,0-5.238,0v7.857h-5.238v-7.857a2.619,2.619,0,1,0-5.238,0v7.857h-5.238v-7.857a2.619,2.619,0,1,0-5.238,0v7.375a7.846,7.846,0,0,1-5.238-7.375v-5.238a7.866,7.866,0,0,1,7.857-7.857h62.853a7.866,7.866,0,0,1,7.857,7.857Z" transform="translate(-139.909 -107.622)" fill="#232323"/>
      <path id="Path_961" data-name="Path 961" d="M251.8,103.713a10.476,10.476,0,0,1-10.476,10.476H178.476A10.476,10.476,0,0,1,168,103.713V98.476A10.476,10.476,0,0,1,178.476,88h62.853A10.476,10.476,0,0,1,251.8,98.476Z" transform="translate(-113.003 -59.192)" fill="#f5ba46"/>
      <path id="Path_962" data-name="Path 962" d="M235.948,80H173.094A13.109,13.109,0,0,0,160,93.095v5.238a13.109,13.109,0,0,0,13.094,13.094h62.853a13.109,13.109,0,0,0,13.094-13.094V93.095A13.109,13.109,0,0,0,235.948,80ZM243.8,98.332a7.846,7.846,0,0,1-5.238,7.375V98.332a2.619,2.619,0,0,0-5.238,0v7.857h-5.238V98.332a2.619,2.619,0,0,0-5.238,0v7.857h-5.238V98.332a2.619,2.619,0,1,0-5.238,0v7.857H207.14V98.332a2.619,2.619,0,0,0-5.238,0v7.857h-5.238V98.332a2.619,2.619,0,1,0-5.238,0v7.857h-5.238V98.332a2.619,2.619,0,0,0-5.238,0v7.857h-5.238V98.332a2.619,2.619,0,1,0-5.238,0v7.375a7.846,7.846,0,0,1-5.238-7.375V93.095a7.866,7.866,0,0,1,7.857-7.857h62.853a7.866,7.866,0,0,1,7.857,7.857Z" transform="translate(-107.622 -53.811)" fill="#232323"/>
      <path id="Path_963" data-name="Path 963" d="M253.236,263.713a10.476,10.476,0,0,1-10.476,10.476H179.908a10.476,10.476,0,0,1-10.475-10.476v-5.238A10.476,10.476,0,0,1,179.908,248h62.853a10.476,10.476,0,0,1,10.476,10.475Z" transform="translate(-113.967 -166.814)" fill="#f5ba46"/>
      <path id="Path_964" data-name="Path 964" d="M249.042,253.094A13.1,13.1,0,0,0,235.948,240H173.094A13.1,13.1,0,0,0,160,253.094v5.238a13.1,13.1,0,0,0,13.094,13.094h62.853a13.1,13.1,0,0,0,13.094-13.094Zm-5.238,5.238a8.48,8.48,0,0,1-5.238,7.375v-7.375a2.619,2.619,0,1,0-5.238,0v7.857h-5.238v-7.857a2.619,2.619,0,1,0-5.238,0v7.857h-5.238v-7.857a2.619,2.619,0,1,0-5.238,0v7.857H207.14v-7.857a2.619,2.619,0,1,0-5.238,0v7.857h-5.238v-7.857a2.619,2.619,0,1,0-5.238,0v7.857h-5.238v-7.857a2.619,2.619,0,0,0-5.238,0v7.857h-5.238v-7.857a2.619,2.619,0,1,0-5.238,0v7.375a8.48,8.48,0,0,1-5.238-7.375v-5.238c0-4.332,3.991-7.857,8.325-7.857h62.853c4.332,0,7.388,3.525,7.388,7.857Z" transform="translate(-107.622 -161.433)" fill="#232323"/>
      <ellipse id="Ellipse_32" data-name="Ellipse 32" cx="53.593" cy="53.355" rx="53.593" ry="53.355" transform="translate(2.619 47.805)" fill="#f5ba46"/>
      <path id="Path_965" data-name="Path 965" d="M56.212,249.974A55.975,55.975,0,1,1,112.424,194,56.158,56.158,0,0,1,56.212,249.974Zm0-106.712A50.738,50.738,0,1,0,107.186,194,50.913,50.913,0,0,0,56.212,143.262Z" transform="translate(0 -92.84)" fill="#232323"/>
      <circle id="Ellipse_33" data-name="Ellipse 33" cx="34.281" cy="34.281" r="34.281" transform="translate(21.422 67.625)" fill="#f9d690"/>
      <path id="Path_966" data-name="Path 966" d="M94.351,272.382a36.895,36.895,0,1,1,36.895-36.895A36.935,36.935,0,0,1,94.351,272.382Zm0-68.555a31.658,31.658,0,1,0,31.657,31.66A31.693,31.693,0,0,0,94.351,203.827Z" transform="translate(-38.647 -133.581)" fill="#232323"/>
      <path id="Path_967" data-name="Path 967" d="M155.421,289.985a2.62,2.62,0,0,1-2.619-2.619V261.353l-3.546,3.86a2.619,2.619,0,0,1-3.858-3.543l8.092-8.807a2.62,2.62,0,0,1,4.549,1.773v32.731A2.62,2.62,0,0,1,155.421,289.985Z" transform="translate(-97.337 -169.516)" fill="#232323"/>
      <ellipse id="Ellipse_34" data-name="Ellipse 34" cx="3.258" cy="1.629" rx="3.258" ry="1.629" transform="translate(35.833 98.497)" fill="#232323"/>
      <circle id="Ellipse_35" data-name="Ellipse 35" cx="1.629" cy="1.629" r="1.629" transform="translate(68.408 98.497)" fill="#232323"/>
      <path id="Path_968" data-name="Path 968" d="M149.094,5.238h-2.619V2.619a2.619,2.619,0,1,0-5.238,0V5.238h-2.619a2.619,2.619,0,1,0,0,5.238h2.619v2.619a2.619,2.619,0,1,0,5.238,0V10.476h2.619a2.619,2.619,0,0,0,0-5.238Z" transform="translate(-91.479)" fill="#232323"/>
      <path id="Path_969" data-name="Path 969" d="M50.619,35.523A2.62,2.62,0,0,1,48,32.9V26.619a2.619,2.619,0,1,1,5.238,0V32.9A2.62,2.62,0,0,1,50.619,35.523Z" transform="translate(-32.287 -16.143)" fill="#232323"/>
      <path id="Path_970" data-name="Path 970" d="M50.619,107.523A2.62,2.62,0,0,1,48,104.9V98.619a2.619,2.619,0,0,1,5.238,0V104.9A2.62,2.62,0,0,1,50.619,107.523Z" transform="translate(-32.287 -64.573)" fill="#232323"/>
      <path id="Path_971" data-name="Path 971" d="M88.38,77.238H82.619a2.619,2.619,0,1,1,0-5.238H88.38a2.619,2.619,0,0,1,0,5.238Z" transform="translate(-53.811 -48.43)" fill="#232323"/>
      <path id="Path_972" data-name="Path 972" d="M8.38,77.238H2.619a2.619,2.619,0,1,1,0-5.238H8.38a2.619,2.619,0,1,1,0,5.238Z" transform="translate(0 -48.43)" fill="#232323"/>
      <path id="Path_973" data-name="Path 973" d="M77.361,100.109a2.613,2.613,0,0,1-1.933-.849l-4.075-4.444a2.619,2.619,0,1,1,3.863-3.538l4.075,4.444a2.617,2.617,0,0,1-1.93,4.387Z" transform="translate(-47.532 -60.826)" fill="#232323"/>
      <path id="Path_974" data-name="Path 974" d="M18.247,45.8a2.613,2.613,0,0,1-1.933-.849L12.242,40.5A2.619,2.619,0,0,1,16.1,36.966L20.18,41.41A2.62,2.62,0,0,1,18.247,45.8Z" transform="translate(-7.771 -24.293)" fill="#232323"/>
      <path id="Path_975" data-name="Path 975" d="M14.174,100.1a2.62,2.62,0,0,1-1.93-4.389l4.075-4.444a2.619,2.619,0,1,1,3.863,3.538l-4.075,4.444A2.614,2.614,0,0,1,14.174,100.1Z" transform="translate(-7.773 -60.82)" fill="#232323"/>
      <path id="Path_976" data-name="Path 976" d="M73.286,45.8a2.62,2.62,0,0,1-1.93-4.389l4.075-4.444a2.618,2.618,0,1,1,3.86,3.538l-4.075,4.444A2.6,2.6,0,0,1,73.286,45.8Z" transform="translate(-47.534 -24.297)" fill="#232323"/>
    </g>
  </g>
</svg>
