<svg xmlns="http://www.w3.org/2000/svg" width="512" height="512" viewBox="0 0 512 512">
  <g id="Group_4638" data-name="Group 4638" transform="translate(-4378 -4817)">
    <g id="Group_4637" data-name="Group 4637">
      <g id="Group_4622" data-name="Group 4622" transform="translate(4378 4817)">
        <g id="Group_4621" data-name="Group 4621">
          <path id="Path_2131" data-name="Path 2131" d="M467,210H46c-24.866,0-46,20.1-46,45V467a44.073,44.073,0,0,0,13.922,32.056A46.258,46.258,0,0,0,46,512H467a45.051,45.051,0,0,0,45-45V255A45.051,45.051,0,0,0,467,210Zm15,257a15.017,15.017,0,0,1-15,15H46c-8.523,0-16-7.009-16-15V255c0-7.991,7.477-15,16-15H467a15.017,15.017,0,0,1,15,15Z" fill="#fff"/>
        </g>
      </g>
      <g id="Group_4626" data-name="Group 4626" transform="translate(4378 4817)">
        <g id="Group_4625" data-name="Group 4625">
          <path id="Path_2133" data-name="Path 2133" d="M147.829,95.574a15,15,0,0,0-10.563-9.9l-31-7.9L89.181,50.737a15,15,0,0,0-25.362,0L46.761,77.73,14.826,85.65A15,15,0,0,0,7.09,110.021L28.171,134.4,25.3,165.928a15,15,0,0,0,20.353,15.351l30.774-11.915,29.8,11.862a15,15,0,0,0,20.517-14.907l-2.069-31.92L145.1,109.791A14.992,14.992,0,0,0,147.829,95.574ZM97.772,119.828a15,15,0,0,0-3.43,10.554l.921,14.193-13.215-5.261a15,15,0,0,0-10.965-.052l-13.717,5.311,1.259-13.8A15,15,0,0,0,55.034,119.6l-9.266-10.714L59.831,105.4a15,15,0,0,0,9.07-6.546l7.6-12.025,7.6,12.023a15,15,0,0,0,8.979,6.522l13.783,3.511Z" fill="#fff"/>
        </g>
      </g>
      <g id="Group_4628" data-name="Group 4628" transform="translate(4378 4817)">
        <g id="Group_4627" data-name="Group 4627">
          <path id="Path_2134" data-name="Path 2134" d="M342.1,62.188a15,15,0,0,0-11.708-10.145l-41.138-7.118L269.767,8a15,15,0,0,0-26.534,0L223.751,44.925l-41.138,7.118a15,15,0,0,0-8.2,25.235l29.1,29.938-5.943,41.324a15,15,0,0,0,21.467,15.6L256.5,145.715l37.465,18.422a15,15,0,0,0,21.467-15.6l-5.943-41.324,29.1-29.938A15,15,0,0,0,342.1,62.188ZM282.834,91.6a15,15,0,0,0-4.091,12.59l2.946,20.483-18.57-9.131a15,15,0,0,0-13.238,0l-18.57,9.131,2.946-20.483a15,15,0,0,0-4.091-12.59l-14.424-14.84,20.392-3.528a15,15,0,0,0,10.709-7.781l9.657-18.3,9.657,18.3a15,15,0,0,0,10.709,7.781l20.392,3.528Z" fill="#fff"/>
        </g>
      </g>
      <g id="Group_4630" data-name="Group 4630" transform="translate(4378 4817)">
        <g id="Group_4629" data-name="Group 4629">
          <path id="Path_2135" data-name="Path 2135" d="M508.829,95.574a15,15,0,0,0-10.563-9.9l-31.182-7.943L449,50.461a15,15,0,0,0-25.182.277L406.731,77.779l-31,7.9a15,15,0,0,0-7.836,24.119L388.334,134.4l-2.069,31.92a15,15,0,0,0,20.517,14.907l29.8-11.862,30.774,11.915a15,15,0,0,0,20.385-14.959l-2.069-31.92L506.1,109.795A15.006,15.006,0,0,0,508.829,95.574Zm-50.057,24.254a15,15,0,0,0-3.43,10.554l.937,14.441-14.363-5.561a15,15,0,0,0-10.965.052l-13.215,5.261.921-14.193a15,15,0,0,0-3.43-10.554l-9.087-10.942,13.783-3.511a15,15,0,0,0,8.979-6.522l7.9-12.5,8.475,12.779a14.994,14.994,0,0,0,8.8,6.246l13.783,3.511Z" fill="#fff"/>
        </g>
      </g>
      <g id="dashboard_3_" data-name="dashboard (3)" transform="translate(4494.309 5014.501)">
        <g id="Group_4636" data-name="Group 4636" transform="translate(0 52.499)">
          <g id="Group_4635" data-name="Group 4635">
            <path id="Path_2138" data-name="Path 2138" d="M326.65,126.7a10.926,10.926,0,0,0-13.879-1.3c-16.348,11.143-98.345,67.174-107.158,75.986a32.777,32.777,0,0,0,46.353,46.353c8.812-8.812,64.843-90.81,75.986-107.158A10.929,10.929,0,0,0,326.65,126.7ZM236.515,232.284a10.925,10.925,0,0,1-15.452-15.449c3.424-3.384,26.7-19.987,55.348-39.9C256.5,205.582,239.9,228.861,236.515,232.284Z" transform="translate(-88.944 -84.713)" fill="#fff"/>
            <path id="Path_2139" data-name="Path 2139" d="M50.383,243.161,36.9,249.74a117.444,117.444,0,0,1-7.364-99.285l15.455,7.413a10.925,10.925,0,1,0,9.45-19.7l-15.258-7.319a118.147,118.147,0,0,1,89.743-56V91.284a10.925,10.925,0,0,0,21.851,0V74.843a116.642,116.642,0,0,1,37.568,9.9,10.925,10.925,0,1,0,8.99-19.915A139.731,139.731,0,0,0,23.693,269.978a10.923,10.923,0,0,0,13.873,3.747l22.4-10.925a10.926,10.926,0,1,0-9.581-19.639Z" transform="translate(0 -52.499)" fill="#fff"/>
            <path id="Path_2140" data-name="Path 2140" d="M444.317,197.927a10.925,10.925,0,1,0-19.915,8.99,117.612,117.612,0,0,1-4.7,105.971l-14.081-6.705a10.926,10.926,0,1,0-9.394,19.729l22.943,10.925a10.923,10.923,0,0,0,13.78-3.792,139.514,139.514,0,0,0,11.368-135.117Z" transform="translate(-176.952 -115.565)" fill="#fff"/>
          </g>
        </g>
      </g>
    </g>
  </g>
</svg>
