<?xml version="1.0" encoding="utf-8"?>
<!-- Generator: Adobe Illustrator 25.0.1, SVG Export Plug-In . SVG Version: 6.00 Build 0)  -->
<svg version="1.1" id="Group_3009" xmlns="http://www.w3.org/2000/svg" xmlns:xlink="http://www.w3.org/1999/xlink" x="0px" y="0px"
	 viewBox="0 0 271.7 271.7" style="enable-background:new 0 0 271.7 271.7;" xml:space="preserve">
<style type="text/css">
	.st0{fill:#384E64;}
</style>
<g>
	<path class="st0" d="M257.6,257.6c7.5,0,13.5-6.1,13.5-13.5c0-7.5-6.1-13.5-13.5-13.5H14.1c-7.5,0-13.5,6.1-13.5,13.5
		c0,7.5,6.1,13.5,13.5,13.5"/>
	<path class="st0" d="M14.1,41.1h243.5c7.5,0,13.5-6.1,13.5-13.5s-6.1-13.5-13.5-13.5H14.1c-7.5,0-13.5,6.1-13.5,13.5
		C0.6,35.1,6.6,41.1,14.1,41.1z"/>
	<path class="st0" d="M177.2,122.3H9.9c-5.1,0-9.3,6.1-9.3,13.5s4.2,13.5,9.3,13.5h167.3c5.1,0,9.3-6.1,9.3-13.5
		S182.3,122.3,177.2,122.3z"/>
</g>
</svg>
