<svg xmlns="http://www.w3.org/2000/svg" width="403" height="403" viewBox="0 0 403 403">
  <path id="Exclusion_8" data-name="Exclusion 8" d="M201.5,403a202.992,202.992,0,0,1-40.609-4.094,200.4,200.4,0,0,1-72.051-30.319,202.088,202.088,0,0,1-73-88.654A200.485,200.485,0,0,1,4.094,242.109a203.466,203.466,0,0,1,0-81.219A200.4,200.4,0,0,1,34.413,88.839a202.086,202.086,0,0,1,88.654-73A200.485,200.485,0,0,1,160.891,4.094a203.466,203.466,0,0,1,81.219,0A200.4,200.4,0,0,1,314.16,34.413a202.088,202.088,0,0,1,73,88.654,200.487,200.487,0,0,1,11.741,37.824,203.466,203.466,0,0,1,0,81.219,200.4,200.4,0,0,1-30.319,72.051,202.089,202.089,0,0,1-88.654,73,200.486,200.486,0,0,1-37.824,11.741A202.989,202.989,0,0,1,201.5,403Zm-43.57-65.892h0a7.3,7.3,0,0,0,1.313.12h15.338a7.145,7.145,0,0,0,1.313-.121ZM112.837,66A7.829,7.829,0,0,0,105,73.821V329.288a7.828,7.828,0,0,0,7.836,7.821h45.093a7.148,7.148,0,0,1-5.538-5.129l-1.5-5.69a9.963,9.963,0,0,1-8.487-9.881v-6.263a6.057,6.057,0,0,1,6.056-6.043h36.909a6.062,6.062,0,0,1,6.056,6.087v6.264a9.979,9.979,0,0,1-8.443,9.837l-1.547,5.69a7.144,7.144,0,0,1-5.539,5.128H290.471a7.831,7.831,0,0,0,7.837-7.821V170.012H201.915a7.837,7.837,0,0,1-7.836-7.82V66Zm96.917,4.58,0,83.791h83.964l-83.964-83.79Zm-26.42,225.495H150.491a8.7,8.7,0,0,1-8.62-7.322,49.283,49.283,0,0,0-4.5-14.181,47.862,47.862,0,0,0-8.581-12.2,52.767,52.767,0,0,1,37.794-89.412h.406a52.761,52.761,0,0,1,38.006,89.457,48.387,48.387,0,0,0-13,26.29A8.7,8.7,0,0,1,183.334,296.075Zm-16.4-108.247a38.194,38.194,0,0,0-38.191,38.111,5.967,5.967,0,0,0,11.934,0,26.259,26.259,0,0,1,26.257-26.2,5.955,5.955,0,1,0,0-11.91Z" fill="#1673a7"/>
</svg>
