<?xml version="1.0" encoding="utf-8"?>
<!-- Generator: Adobe Illustrator 24.1.1, SVG Export Plug-In . SVG Version: 6.00 Build 0)  -->
<svg version="1.1" id="Layer_1" xmlns="http://www.w3.org/2000/svg" xmlns:xlink="http://www.w3.org/1999/xlink" x="0px" y="0px"
	 viewBox="0 0 361.8 472.6" style="enable-background:new 0 0 361.8 472.6;" xml:space="preserve">
<style type="text/css">
	.st0{fill:#1673A7;}
</style>
<g id="Group_4774" transform="translate(-4080 -2205)">
	<g id="Group_4772" transform="translate(3554 1768)">
		<path id="Path_982" class="st0" d="M887.8,437H617.2L526,528.2v381.4h361.8V437z M609.1,484.3v35.8h-35.8L609.1,484.3z
			 M860.1,881.9H553.7V547.8h83.1v-83.1h223.4V881.9z"/>
	</g>
	<g id="Group_4773" transform="translate(3331.322 2350)">
		<g id="Group_2551" transform="translate(902.498 276.88)">
			<g id="Group_2550">
				<path id="Path_487" class="st0" d="M-28.5-78.3v8c0,10.3,6.7,19.5,16.6,22.6C-8.7-29,7.5-13.6,27.1-13.6S63-29,66.2-47.7
					c9.8-3.1,16.5-12.3,16.6-22.6v-8H-28.5z"/>
			</g>
		</g>
		<g id="Group_2553" transform="translate(853.678 23)">
			<g id="Group_2552" transform="translate(0 0)">
				<path id="Path_488" class="st0" d="M55.5-29C19.6-21.5-9.7,7.6-17.3,43.5c-6.5,30.5,1.5,61.2,21.9,84.1c8,9,13.2,20.2,14.9,32.1
					h112.9c1.9-12.1,7.2-23.5,15.4-32.6c15.2-17.4,24.2-39.7,24.2-62.8C171.9,3.7,115.9-41.7,55.5-29z M131.6,72.2
					c-4.4,0-8-3.6-8-7.9c0,0,0,0,0,0c0-26.3-21.4-47.7-47.7-47.7c-4.4,0-8-3.5-8-7.9s3.5-8,7.9-8c0.1,0,0.1,0,0.2,0
					c35.1,0,63.6,28.5,63.6,63.6C139.6,68.7,136,72.2,131.6,72.2C131.6,72.2,131.6,72.2,131.6,72.2z"/>
			</g>
		</g>
	</g>
</g>
</svg>
