<svg xmlns="http://www.w3.org/2000/svg" width="364.307" height="512" viewBox="0 0 364.307 512">
  <path id="Exclusion_3" data-name="Exclusion 3" d="M349.538,512H14.769A14.77,14.77,0,0,1,0,497.231V14.769A14.77,14.77,0,0,1,14.769,0H167.877V181.662a14.786,14.786,0,0,0,14.769,14.769H364.307v300.8A14.77,14.77,0,0,1,349.538,512ZM74.179,435.153a11.426,11.426,0,0,0-11.413,11.413V458.4a18.8,18.8,0,0,0,15.995,18.661L81.593,487.8A13.424,13.424,0,0,0,94.5,497.715h28.907a13.426,13.426,0,0,0,12.912-9.913l2.916-10.746a18.833,18.833,0,0,0,15.911-18.578V446.649a11.439,11.439,0,0,0-11.413-11.5ZM109.1,187.485l-.766,0A99.744,99.744,0,0,0,37.108,356.347,90.4,90.4,0,0,1,53.279,379.38a93.285,93.285,0,0,1,8.487,26.782A16.4,16.4,0,0,0,78.01,419.991h61.9a16.412,16.412,0,0,0,16.328-13.911,91.462,91.462,0,0,1,24.492-49.65A99.675,99.675,0,0,0,109.1,187.485Zm-60.83,111.3a11.258,11.258,0,0,1-11.245-11.245A72.057,72.057,0,0,1,109,215.562a11.246,11.246,0,1,1,0,22.493,49.539,49.539,0,0,0-49.483,49.483A11.259,11.259,0,0,1,48.271,298.783Zm307.384-131.89H197.416V8.652l158.24,158.241h0Z" fill="#1673a7"/>
</svg>
