<svg xmlns="http://www.w3.org/2000/svg" width="14.5" height="14.5" viewBox="0 0 14.5 14.5">
  <g id="Group_4615" data-name="Group 4615" transform="translate(-387 -1666)">
    <path id="Path_940" data-name="Path 940" d="M156.522,0h-5.1A.425.425,0,0,0,151,.425V3.54a.425.425,0,0,0,.425.425h5.1a.425.425,0,0,0,.425-.425V.425A.425.425,0,0,0,156.522,0Zm0,0" transform="translate(240.276 1666)" fill="#017ac3"/>
    <path id="Path_941" data-name="Path 941" d="M156.522,186h-5.1a.425.425,0,0,0-.425.425v3.115a.425.425,0,0,0,.425.425h5.1a.425.425,0,0,0,.425-.425v-3.115A.425.425,0,0,0,156.522,186Zm0,0" transform="translate(240.276 1485.268)" fill="#017ac3"/>
    <path id="Path_942" data-name="Path 942" d="M156.522,372h-5.1a.425.425,0,0,0-.425.425v3.115a.425.425,0,0,0,.425.425h5.1a.425.425,0,0,0,.425-.425v-3.115A.425.425,0,0,0,156.522,372Zm0,0" transform="translate(240.276 1304.535)" fill="#017ac3"/>
    <path id="Path_943" data-name="Path 943" d="M384.124,78h-1.7a.425.425,0,0,0,0,.85h1.7a.709.709,0,0,1,.708.708v1.7a.709.709,0,0,1-.708.708h-.674l.408-.408a.425.425,0,0,0-.6-.6l-1.133,1.133a.425.425,0,0,0,0,.6l1.133,1.133a.425.425,0,0,0,.6-.6l-.408-.408h.674a1.559,1.559,0,0,0,1.558-1.558v-1.7A1.559,1.559,0,0,0,384.124,78Zm0,0" transform="translate(15.818 1590.209)" fill="#017ac3"/>
    <path id="Path_944" data-name="Path 944" d="M2.424,266.957a.425.425,0,0,0-.6.6l.408.408H1.558a.709.709,0,0,1-.708-.708v-1.7a.709.709,0,0,1,.708-.708h1.7a.425.425,0,0,0,0-.85h-1.7A1.559,1.559,0,0,0,0,265.558v1.7a1.559,1.559,0,0,0,1.558,1.558h.674l-.408.408a.425.425,0,1,0,.6.6l1.133-1.133a.425.425,0,0,0,0-.6Zm0,0" transform="translate(387 1409.476)" fill="#017ac3"/>
  </g>
</svg>
