<svg xmlns="http://www.w3.org/2000/svg" width="207" height="207" viewBox="0 0 207 207">
  <g id="Group_4616" data-name="Group 4616" transform="translate(-2719 -3184)">
    <g id="Group_4615" data-name="Group 4615">
      <g id="Group_4614" data-name="Group 4614" transform="translate(2719 3184)">
        <path id="star_2_" data-name="star (2)" d="M118.879,43.655a6.327,6.327,0,0,0-5.448-4.35L79.024,36.181,65.426,4.345a6.337,6.337,0,0,0-11.656,0l-13.6,31.835L5.76,39.3a6.343,6.343,0,0,0-3.6,11.084L28.169,73.2,20.5,106.973a6.332,6.332,0,0,0,9.426,6.849l29.668-17.74,29.664,17.74a6.34,6.34,0,0,0,9.432-6.849L91.022,73.2l26.009-22.806a6.343,6.343,0,0,0,1.848-6.734ZM60.166,95.737" transform="translate(44.232 46.063)" fill="#1673a7"/>
        <g id="Ellipse_66" data-name="Ellipse 66" fill="none" stroke="#1673a7" stroke-width="10">
          <circle cx="103.5" cy="103.5" r="103.5" stroke="none"/>
          <circle cx="103.5" cy="103.5" r="98.5" fill="none"/>
        </g>
      </g>
    </g>
  </g>
</svg>
