<svg xmlns="http://www.w3.org/2000/svg" width="416" height="416" viewBox="0 0 416 416">
  <g id="Group_4616" data-name="Group 4616" transform="translate(-2719 -3184)">
    <g id="Group_4615" data-name="Group 4615">
      <g id="Group_4614" data-name="Group 4614">
        <path id="star_2_" data-name="star (2)" d="M238.419,87.052a12.689,12.689,0,0,0-10.926-8.725l-69.005-6.265L131.216,8.215a12.71,12.71,0,0,0-23.377,0L80.567,72.062,11.552,78.327a12.721,12.721,0,0,0-7.22,22.23L56.494,146.3l-15.38,67.739a12.7,12.7,0,0,0,18.905,13.737l59.5-35.579,59.492,35.579a12.715,12.715,0,0,0,18.916-13.737L182.55,146.3l52.162-45.739a12.721,12.721,0,0,0,3.706-13.505ZM120.667,191.506" transform="translate(2807.71 3276.882)" fill="#fff"/>
        <g id="Ellipse_66" data-name="Ellipse 66" transform="translate(2719 3184)" fill="none" stroke="#fff" stroke-width="10">
          <circle cx="208" cy="208" r="208" stroke="none"/>
          <circle cx="208" cy="208" r="203" fill="none"/>
        </g>
      </g>
    </g>
  </g>
</svg>
