<svg xmlns="http://www.w3.org/2000/svg" width="173.631" height="173.631" viewBox="0 0 173.631 173.631">
  <g id="Group_4606" data-name="Group 4606" transform="translate(-996 -451)">
    <path id="Path_507" data-name="Path 507" d="M86.816,0A86.816,86.816,0,1,1,0,86.816,86.816,86.816,0,0,1,86.816,0Z" transform="translate(996 451)" fill="rgba(53,91,120,0.17)"/>
    <path id="Path_510" data-name="Path 510" d="M76.624,0A76.624,76.624,0,1,1,0,76.624,76.624,76.624,0,0,1,76.624,0Z" transform="translate(1006 461)" fill="#1673a7"/>
    <g id="project-management" transform="translate(1040 494.933)">
      <g id="Group_4587" data-name="Group 4587" transform="translate(0 0.416)">
        <g id="Group_4586" data-name="Group 4586">
          <path id="Path_2087" data-name="Path 2087" d="M83.488,23.935h0l0,0-5.467-.78a1.405,1.405,0,0,1-.645-2.516l4.418-3.314a1.405,1.405,0,0,0,.281-1.967L77.014,8.61a1.405,1.405,0,0,0-1.967-.281l-4.417,3.314a1.405,1.405,0,0,1-2.24-1.322l.781-5.467a1.405,1.405,0,0,0-1.192-1.591h0L59.635,2.071a1.405,1.405,0,0,0-1.591,1.191h0L57.263,8.73a1.405,1.405,0,0,1-2.516.645L51.435,4.956a1.405,1.405,0,0,0-1.967-.281L45.245,7.844a27.191,27.191,0,0,0-5.748,0A26.7,26.7,0,0,0,15.953,31.787c-.038.4-.052.793-.072,1.188H15.46A1.405,1.405,0,0,0,14.086,34.1l-.971,4.618-3.89-2.683a1.405,1.405,0,0,0-1.792.163L3.217,40.413a1.405,1.405,0,0,0-.163,1.79l2.67,3.883L1.1,47.057A1.405,1.405,0,0,0,0,48.433v5.621A1.405,1.405,0,0,0,1.116,55.43l4.619.971-2.67,3.883a1.405,1.405,0,0,0,.163,1.79l4.216,4.216a1.405,1.405,0,0,0,1.792.163l3.883-2.677L14.09,68.4a1.405,1.405,0,0,0,1.374,1.124h5.621A1.405,1.405,0,0,0,22.461,68.4l.971-4.619,3.883,2.67a1.405,1.405,0,0,0,1.79-.163l2.182-2.19v4.005a5.6,5.6,0,0,0,2.811,4.84v7.808a5.621,5.621,0,0,0,5.621,5.621h5.621a5.621,5.621,0,0,0,5.621-5.621V72.948a5.6,5.6,0,0,0,2.811-4.84V62.546a6.886,6.886,0,0,1,3.251-5.737,26.97,26.97,0,0,0,3.308-2.53l-1.875-2.094A23.924,23.924,0,0,1,55.5,54.449a9.68,9.68,0,0,0-4.534,8.1v5.562a2.811,2.811,0,0,1-2.811,2.811H36.91A2.811,2.811,0,0,1,34.1,68.108V62.429A9.455,9.455,0,0,0,29.641,54.5,23.819,23.819,0,0,1,42.229,10.51a1.527,1.527,0,0,0-.055.153,1.405,1.405,0,0,0,.268,1.041l3.312,4.417a1.376,1.376,0,0,1,.084,1.56,1.4,1.4,0,0,1-1.405.676l-5.467-.781a1.405,1.405,0,0,0-1.591,1.192v0l-1.193,8.346a1.406,1.406,0,0,0,1.192,1.591h0l5.467.781A1.405,1.405,0,0,1,43.488,32l-4.417,3.312a1.405,1.405,0,0,0-.281,1.967l5.059,6.746a1.405,1.405,0,0,0,1.967.281L50.235,41a1.405,1.405,0,0,1,2.233,1.322l-.78,5.467a1.405,1.405,0,0,0,1.191,1.591h0l8.348,1.193a1.557,1.557,0,0,0,.2.013,1.405,1.405,0,0,0,1.393-1.206l.78-5.467a1.405,1.405,0,0,1,2.516-.645l3.314,4.417a1.405,1.405,0,0,0,1.967.281L78.141,42.9a1.405,1.405,0,0,0,.281-1.967L75.109,36.52a1.381,1.381,0,0,1-.084-1.56,1.365,1.365,0,0,1,1.405-.675l5.467.78a1.405,1.405,0,0,0,1.591-1.191h0l1.192-8.348A1.405,1.405,0,0,0,83.488,23.935ZM36.91,73.729H48.152V76.54H36.91Zm0,5.621H48.152v1.405a2.811,2.811,0,0,1-2.811,2.811H39.72a2.811,2.811,0,0,1-2.811-2.811ZM25.722,55.116a26.563,26.563,0,0,0,2.4,1.75,6.86,6.86,0,0,1,2.832,3.6L27.941,63.47l-2.919-2.012a2.811,2.811,0,0,0-4.345,1.736L19.94,66.7H16.6l-.736-3.5a2.811,2.811,0,0,0-4.345-1.736L8.6,63.47,6.037,60.915,8.048,58a2.811,2.811,0,0,0-1.734-4.347l-3.5-.738V49.574l3.5-.738A2.811,2.811,0,0,0,8.05,44.5L6.037,41.572,8.6,39.017,11.52,41.03a2.811,2.811,0,0,0,4.344-1.737l.246-1.169a26.762,26.762,0,0,0,1.114,4.765,8.432,8.432,0,1,0,8.5,12.226Zm-2.182-1.98a5.613,5.613,0,1,1-5.27-7.513h.053A26.616,26.616,0,0,0,23.539,53.135ZM80.9,32.081,76.821,31.5a4.216,4.216,0,0,0-3.969,6.7L75.322,41.5l-4.5,3.373-2.471-3.291a4.216,4.216,0,0,0-7.547,1.932l-.569,4.081-5.564-.8.582-4.075a4.216,4.216,0,0,0-6.7-3.97L45.26,41.218l-3.373-4.5,3.291-2.471A4.216,4.216,0,0,0,43.246,26.7l-4.075-.582.8-5.564,4.075.582a4.216,4.216,0,0,0,3.97-6.7l-2.478-3.3,4.5-3.373L52.5,11.061a4.216,4.216,0,0,0,7.547-1.932l.582-4.075,5.564.794-.582,4.075a4.216,4.216,0,0,0,6.7,3.969l3.293-2.469,3.373,4.5L75.688,18.39a4.216,4.216,0,0,0,1.932,7.547l4.075.582Z" transform="translate(0 -2.057)" fill="#fff"/>
        </g>
      </g>
      <g id="Group_4589" data-name="Group 4589" transform="translate(49.187 13.436)">
        <g id="Group_4588" data-name="Group 4588">
          <path id="Path_2088" data-name="Path 2088" d="M291.243,76.171a11.243,11.243,0,1,0,11.243,11.243A11.243,11.243,0,0,0,291.243,76.171Zm0,19.675a8.432,8.432,0,1,1,8.432-8.432A8.432,8.432,0,0,1,291.243,95.846Z" transform="translate(-280 -76.171)" fill="#fff"/>
        </g>
      </g>
      <g id="Group_4591" data-name="Group 4591" transform="translate(41.126 62.251)">
        <g id="Group_4590" data-name="Group 4590">
          <rect id="Rectangle_704" data-name="Rectangle 704" width="2.811" height="4.216" fill="#fff"/>
        </g>
      </g>
      <g id="Group_4593" data-name="Group 4593" transform="translate(22.844 16.092)">
        <g id="Group_4592" data-name="Group 4592">
          <path id="Path_2089" data-name="Path 2089" d="M143.584,123.649a16.864,16.864,0,0,1-2.847-29.98l-1.5-2.378a19.675,19.675,0,0,0,3.329,34.973,8.972,8.972,0,0,1,5.762,8.376h2.811A11.759,11.759,0,0,0,143.584,123.649Z" transform="translate(-130.044 -91.291)" fill="#fff"/>
        </g>
      </g>
      <g id="Group_4595" data-name="Group 4595" transform="translate(69.232 52.414)">
        <g id="Group_4594" data-name="Group 4594">
          <rect id="Rectangle_705" data-name="Rectangle 705" width="9.837" height="2.811" fill="#fff"/>
        </g>
      </g>
      <g id="Group_4597" data-name="Group 4597" transform="translate(66.928 59.765)">
        <g id="Group_4596" data-name="Group 4596" transform="translate(0 0)">
          <rect id="Rectangle_706" data-name="Rectangle 706" width="2.811" height="10.976" transform="matrix(0.64, -0.768, 0.768, 0.64, 0, 2.159)" fill="#fff"/>
        </g>
      </g>
      <g id="Group_4599" data-name="Group 4599" transform="translate(60.8 63.657)">
        <g id="Group_4598" data-name="Group 4598">
          <rect id="Rectangle_707" data-name="Rectangle 707" width="2.811" height="9.837" fill="#fff"/>
        </g>
      </g>
      <g id="Group_4601" data-name="Group 4601" transform="translate(1.435 21.538)">
        <g id="Group_4600" data-name="Group 4600" transform="translate(0 0)">
          <rect id="Rectangle_708" data-name="Rectangle 708" width="11.588" height="2.809" transform="translate(0 2.81) rotate(-14.035)" fill="#fff"/>
        </g>
      </g>
      <g id="Group_4603" data-name="Group 4603" transform="translate(3.769 7.707)">
        <g id="Group_4602" data-name="Group 4602" transform="translate(0 0)">
          <rect id="Rectangle_709" data-name="Rectangle 709" width="2.809" height="12.089" transform="matrix(0.581, -0.814, 0.814, 0.581, 0, 2.286)" fill="#fff"/>
        </g>
      </g>
      <g id="Group_4605" data-name="Group 4605" transform="translate(15.811 0.067)">
        <g id="Group_4604" data-name="Group 4604">
          <rect id="Rectangle_710" data-name="Rectangle 710" width="2.811" height="11.604" transform="matrix(0.969, -0.248, 0.248, 0.969, 0, 0.696)" fill="#fff"/>
        </g>
      </g>
    </g>
  </g>
</svg>
