<svg xmlns="http://www.w3.org/2000/svg" width="173.631" height="173.631" viewBox="0 0 173.631 173.631">
  <g id="Group_4585" data-name="Group 4585" transform="translate(-749.627 -451)">
    <path id="Path_507" data-name="Path 507" d="M86.816,0A86.816,86.816,0,1,1,0,86.816,86.816,86.816,0,0,1,86.816,0Z" transform="translate(749.627 451)" fill="rgba(53,91,120,0.17)"/>
    <path id="Path_510" data-name="Path 510" d="M76.624,0A76.624,76.624,0,1,1,0,76.624,76.624,76.624,0,0,1,76.624,0Z" transform="translate(760.234 461.886)" fill="#1673a7"/>
    <path id="Path_511" data-name="Path 511" d="M79.024,42.334A19.769,19.769,0,0,0,62.09,22.8V9.878a4.234,4.234,0,0,0-4.233-4.233h-12.7V2.822A2.822,2.822,0,0,0,42.334,0H19.756a2.822,2.822,0,0,0-2.822,2.822V5.644H4.233A4.234,4.234,0,0,0,0,9.878v63.5a4.234,4.234,0,0,0,4.233,4.233h49.39v1.411a5.645,5.645,0,0,0,11.289,0V64.912A1.411,1.411,0,0,0,63.5,63.5v-1.88A19.781,19.781,0,0,0,79.024,42.334Zm-2.822,0A16.934,16.934,0,1,1,59.268,25.4,16.934,16.934,0,0,1,76.2,42.334ZM57.857,8.467a1.411,1.411,0,0,1,1.411,1.411v12.7a19.556,19.556,0,0,0-2.822.226V14.111a2.822,2.822,0,0,0-2.822-2.822H45.157V8.467Zm-38.1-5.645H42.334V16.934H19.756ZM42.334,19.756a2.822,2.822,0,0,0,2.822-2.822V14.111h8.467v9.3a19.744,19.744,0,0,0,1.411,38.211V63.5a1.411,1.411,0,0,0-1.411,1.411v4.233H8.467V14.111h8.467v2.822a2.822,2.822,0,0,0,2.822,2.822ZM4.233,74.79a1.411,1.411,0,0,1-1.411-1.411V9.878A1.411,1.411,0,0,1,4.233,8.467h12.7v2.822H8.467a2.822,2.822,0,0,0-2.822,2.822V69.146a2.822,2.822,0,0,0,2.822,2.822H53.624V74.79ZM62.09,79.024a2.822,2.822,0,0,1-5.645,0v-12.7H62.09ZM60.679,63.5H57.857V62.019c.469.034.934.072,1.411.072s.943-.038,1.411-.072Zm0,0" transform="translate(797.916 496.359)" fill="#fff"/>
    <path id="Path_512" data-name="Path 512" d="M256,174.111a14.126,14.126,0,0,0,14.111,14.111V185.4a11.289,11.289,0,0,1,0-22.578V160A14.126,14.126,0,0,0,256,174.111Zm0,0" transform="translate(587.073 364.581)" fill="#fff"/>
    <path id="Path_513" data-name="Path 513" d="M80,142.521V153.81a1.411,1.411,0,0,0,1.411,1.411H92.7a1.411,1.411,0,0,0,1.411-1.411v-10.3l2.482-2.9-2.142-1.834-2,2.332H81.411A1.411,1.411,0,0,0,80,142.521Zm2.822,1.411h7.214L86.975,147.5l-1.744-1.744-2,2,2.822,2.822a1.411,1.411,0,0,0,1,.413h.055a1.411,1.411,0,0,0,1.016-.493l3.163-3.69V152.4H82.822Zm0,0" transform="translate(732.027 382.06)" fill="#fff"/>
  </g>
</svg>
