<svg xmlns="http://www.w3.org/2000/svg" width="146.919" height="146.919" viewBox="0 0 146.919 146.919">
  <g id="Group_4608" data-name="Group 4608" transform="translate(-1241 -498)">
    <path id="Path_507" data-name="Path 507" d="M73.459,0A73.459,73.459,0,1,1,0,73.459,73.459,73.459,0,0,1,73.459,0Z" transform="translate(1241 498)" fill="rgba(53,91,120,0.17)"/>
    <path id="Path_510" data-name="Path 510" d="M64.836,0A64.836,64.836,0,1,1,0,64.836,64.836,64.836,0,0,1,64.836,0Z" transform="translate(1250 507)" fill="#1673a7"/>
    <g id="Group_4607" data-name="Group 4607" transform="translate(0.589 0.634)">
      <path id="Path_538" data-name="Path 538" d="M.3,67.141l.932,2.1L34.684,55.368l5.828.7,2.1,6.411-2.8,2.681A3.36,3.36,0,0,0,39,69.006l1.166,2.914,19.349-7.577-1.049-2.8A3.3,3.3,0,0,0,55.2,59.332H51.352l-2.1-5.013,5.129-2.564a3.5,3.5,0,0,0,1.748-4.313L49.488,29.607a3.591,3.591,0,0,0-4.547-2.1.114.114,0,0,0-.116.117l-4.9,2.1-.7-1.748,2.681-3.147a13.718,13.718,0,0,0,3.38-7.46l3.38-4.08a6.122,6.122,0,0,0-.816-8.626,9.757,9.757,0,0,0-1.4-.932,5.792,5.792,0,0,0-3.963-.349l-.35-1.05a3.371,3.371,0,0,0-4.429-2.1l-24.6,8.859a3.411,3.411,0,0,0-2.1,4.429v.117l.583,1.515A6.459,6.459,0,0,0,8.223,23.08a6.63,6.63,0,0,0,5.362,4.313l5.479.583a15.18,15.18,0,0,0,7.577,2.914l3.846.35.7,1.748a3.472,3.472,0,0,0-1.632,2.331l-.816,3.963L.3,50.822l.816,2.215,16.319-6.527L21.4,58.4Zm55.835-4.9.233.7L41.444,68.89l-.349-.7a1.616,1.616,0,0,1,.233-1.282l3.963-3.73L50.3,61.546h4.663a1.169,1.169,0,0,1,1.166.7Zm-7.343-2.8-4.2,1.4-1.515-4.429a2.591,2.591,0,0,0,1.865-.35l1.982-.932ZM45.641,29.374a1.157,1.157,0,0,1,1.516.583l.932,2.448L42.377,34.27l.7,2.215,5.712-1.865,1.4,3.73-5.478,1.865.7,2.215L51,40.564l1.4,3.73L47.04,46.043l.7,2.215,5.478-1.865.583,1.515a1.029,1.029,0,0,1-.583,1.4l-9.209,4.546a1.478,1.478,0,0,1-.7.117l-7.926-.933L31.07,40.1l.816-4.313a1.233,1.233,0,0,1,.7-.816ZM45.524,5.827a3.862,3.862,0,0,1,1.982,5.013,4.084,4.084,0,0,1-.583.932l-1.4,1.748a17.421,17.421,0,0,0-.7-3.38L43.309,5.595a4.658,4.658,0,0,1,2.215.233ZM10.554,22.5a4.015,4.015,0,0,1,1.982-5.013l1.632,3.964A16.887,16.887,0,0,0,16.5,25.411l-2.448-.233a3.9,3.9,0,0,1-3.5-2.681Zm16.553,6.178a12.739,12.739,0,0,1-10.724-8.043l-3.03-7.693a1.156,1.156,0,0,1,.583-1.515L38.53,2.564a1.287,1.287,0,0,1,.933,0,1.2,1.2,0,0,1,.583.7l2.564,7.693a12.813,12.813,0,0,1-2.447,12.356l-3.614,4.2,1.049,2.8-4.2,1.748-1.166-2.914Zm-7.46,16.9,2.681-1.049,2.914,8.859,2.215-.7L24.426,43.6l4.663-1.865L33.052,53.5,23.61,57.466Zm0,0" transform="translate(1279.114 535.366)" fill="#fff"/>
      <path id="Path_539" data-name="Path 539" d="M361.324,51.146v1.166h2.331V51.146a5.772,5.772,0,0,1,5.828-5.828V42.986a5.772,5.772,0,0,1-5.828-5.828V35.992h-2.331v1.166a5.771,5.771,0,0,1-5.828,5.828v2.331A5.772,5.772,0,0,1,361.324,51.146Zm1.166-9.791a8.033,8.033,0,0,0,2.8,2.8,8.039,8.039,0,0,0-2.8,2.8,8.039,8.039,0,0,0-2.8-2.8A8.033,8.033,0,0,0,362.49,41.354Zm0,0" transform="translate(975.67 504.619)" fill="#fff"/>
      <path id="Path_540" data-name="Path 540" d="M9.324,211.146v1.166h2.331v-1.166a5.772,5.772,0,0,1,5.828-5.828v-2.331a5.772,5.772,0,0,1-5.828-5.828v-1.166H9.324v1.166A5.771,5.771,0,0,1,3.5,202.986v2.331A5.772,5.772,0,0,1,9.324,211.146Zm1.166-9.791a8.033,8.033,0,0,0,2.8,2.8,8.039,8.039,0,0,0-2.8,2.8,8.039,8.039,0,0,0-2.8-2.8A8.033,8.033,0,0,0,10.49,201.354Zm0,0" transform="translate(1276.381 367.932)" fill="#fff"/>
      <path id="Path_541" data-name="Path 541" d="M395.656,197.158v-1.166h-2.331v1.166a5.771,5.771,0,0,1-5.828,5.828v2.331a5.772,5.772,0,0,1,5.828,5.828v1.166h2.331v-1.166a5.772,5.772,0,0,1,5.828-5.828v-2.331A5.772,5.772,0,0,1,395.656,197.158Zm-1.166,9.792a8.039,8.039,0,0,0-2.8-2.8,8.033,8.033,0,0,0,2.8-2.8,8.033,8.033,0,0,0,2.8,2.8A8.039,8.039,0,0,0,394.49,206.95Zm0,0" transform="translate(948.333 367.932)" fill="#fff"/>
      <path id="Path_542" data-name="Path 542" d="M236.53,54.913l1.632,1.632c6.411-6.411.466-16.2.117-16.553L236.3,41.275c.117,0,5.362,8.51.233,13.638Zm0,0" transform="translate(1077.502 501.201)" fill="#fff"/>
    </g>
  </g>
</svg>
