<svg xmlns="http://www.w3.org/2000/svg" width="146.919" height="146.919" viewBox="0 0 146.919 146.919">
  <g id="Group_4584" data-name="Group 4584" transform="translate(-531 -498.173)">
    <path id="Path_507" data-name="Path 507" d="M73.459,0A73.459,73.459,0,1,1,0,73.459,73.459,73.459,0,0,1,73.459,0Z" transform="translate(531 498.173)" fill="rgba(53,91,120,0.17)"/>
    <path id="Path_510" data-name="Path 510" d="M64.836,0A64.836,64.836,0,1,1,0,64.836,64.836,64.836,0,0,1,64.836,0Z" transform="translate(540.421 507.244)" fill="#1673a7"/>
    <path id="Path_514" data-name="Path 514" d="M144,256.5h17v2.615H144Zm0,0" transform="translate(445.08 321.618)" fill="#fff"/>
    <path id="Path_515" data-name="Path 515" d="M144,216.5h14.384v2.615H144Zm0,0" transform="translate(445.08 355.08)" fill="#fff"/>
    <path id="Path_516" data-name="Path 516" d="M74.535,7.038H60.151V1.808A1.308,1.308,0,0,0,58.844.5H19.615a1.308,1.308,0,0,0-1.308,1.308V7.038H3.923A3.923,3.923,0,0,0,0,10.961V50.19a3.923,3.923,0,0,0,3.923,3.923H32.691v7.846H20.922a1.308,1.308,0,0,0-1.308,1.308V69.8H17V72.42h44.46V69.8H58.844V63.267a1.308,1.308,0,0,0-1.308-1.308H45.767V54.113H74.535a3.923,3.923,0,0,0,3.923-3.923V10.961A3.923,3.923,0,0,0,74.535,7.038Zm0,2.615a1.308,1.308,0,0,1,1.308,1.308V43.652H60.151V28.915l6.34-7.554a5.231,5.231,0,0,0-6.34-8.039V9.653ZM50.2,36.707l-4.007-3.362L57.961,19.322l4.007,3.362Zm-4.921-.715,2.473,2.075L44.787,39.09ZM64.487,19.679l-.841,1L59.64,17.317l.841-1a2.615,2.615,0,0,1,4.007,3.363ZM20.922,3.115H57.536V15.758L43.348,32.668a1.307,1.307,0,0,0-.29.634l-1.2,7.531a1.307,1.307,0,0,0,1.718,1.438l7.207-2.484a1.294,1.294,0,0,0,.575-.392l6.175-7.362V47.575H20.922Zm-17,6.538H18.307v34H2.615V10.961A1.308,1.308,0,0,1,3.923,9.653ZM56.228,69.8h-34V64.574h34ZM43.152,61.959H35.306V54.113h7.846ZM74.535,51.5H3.923A1.308,1.308,0,0,1,2.615,50.19V46.267H18.307v2.615a1.308,1.308,0,0,0,1.308,1.308H58.844a1.308,1.308,0,0,0,1.308-1.308V46.267H75.843V50.19A1.308,1.308,0,0,1,74.535,51.5Zm0,0" transform="translate(565.542 535.773)" fill="#fff"/>
    <path id="Path_517" data-name="Path 517" d="M432,288.5h2.615v2.615H432Zm0,0" transform="translate(204.154 294.848)" fill="#fff"/>
    <path id="Path_518" data-name="Path 518" d="M144,32.5h5.231v2.615H144Zm0,0" transform="translate(445.08 509.004)" fill="#fff"/>
    <path id="Path_519" data-name="Path 519" d="M192,32.5h22.23v2.615H192Zm0,0" transform="translate(404.925 509.004)" fill="#fff"/>
    <path id="Path_520" data-name="Path 520" d="M144,72.5h30.076v2.615H144Zm0,0" transform="translate(445.08 475.542)" fill="#fff"/>
    <path id="Path_521" data-name="Path 521" d="M144,112.5h2.615v2.615H144Zm0,0" transform="translate(445.08 442.08)" fill="#fff"/>
    <path id="Path_522" data-name="Path 522" d="M176,112.5h2.615v2.615H176Zm0,0" transform="translate(418.31 442.08)" fill="#fff"/>
    <path id="Path_523" data-name="Path 523" d="M208,112.5h14.384v2.615H208Zm0,0" transform="translate(391.541 442.08)" fill="#fff"/>
    <path id="Path_524" data-name="Path 524" d="M144,152.5h7.846v2.615H144Zm0,0" transform="translate(445.08 408.619)" fill="#fff"/>
    <path id="Path_525" data-name="Path 525" d="M208,152.5h9.153v2.615H208Zm0,0" transform="translate(391.541 408.619)" fill="#fff"/>
  </g>
</svg>
