<?xml version="1.0" encoding="utf-8"?>
<!-- Generator: Adobe Illustrator 24.1.1, SVG Export Plug-In . SVG Version: 6.00 Build 0)  -->
<svg version="1.1" id="Layer_1" xmlns="http://www.w3.org/2000/svg" xmlns:xlink="http://www.w3.org/1999/xlink" x="0px" y="0px"
	 viewBox="0 0 36 47" style="enable-background:new 0 0 36 47;" xml:space="preserve">
<style type="text/css">
	.st0{fill:#1673A7;}
</style>
<g id="Group_2936" transform="translate(-526 -437)">
	<path id="Path_982" class="st0" d="M562,437h-26.9l-9.1,9.1V484h36V437z M534.3,441.7v3.6h-3.6L534.3,441.7z M559.2,481.2h-30.5
		V448h8.3v-8.3h22.2V481.2z"/>
	<path id="Path_983" class="st0" d="M531.5,450.8h25v2.8h-25V450.8z"/>
	<path id="Path_984" class="st0" d="M531.5,456.3h25v2.8h-25V456.3z"/>
	<path id="Path_985" class="st0" d="M531.5,461.8h25v2.8h-25V461.8z"/>
	<path id="Path_986" class="st0" d="M531.5,467.3h25v2.8h-25V467.3z"/>
	<path id="Path_987" class="st0" d="M531.5,472.8h8.2v2.8h-8.2V472.8z"/>
	<path id="Path_988" class="st0" d="M548.2,472.8h8.3v2.8h-8.3V472.8z"/>
	<path id="Path_989" class="st0" d="M542.6,442.5h11.1v2.8h-11.1V442.5z"/>
</g>
</svg>
