<svg xmlns="http://www.w3.org/2000/svg" width="35.984" height="47" viewBox="0 0 35.984 47">
  <g id="Group_2936" data-name="Group 2936" transform="translate(-526 -437)">
    <path id="Path_982" data-name="Path 982" d="M35.984,0H9.068L0,9.068V47H35.984ZM8.262,4.7v3.56H4.7ZM33.23,44.246H2.754V11.016h8.262V2.754H33.23Zm0,0" transform="translate(526 437)" fill="#fff"/>
    <path id="Path_983" data-name="Path 983" d="M60,150H84.969v2.754H60Zm0,0" transform="translate(471.508 300.77)" fill="#5ea0df"/>
    <path id="Path_984" data-name="Path 984" d="M60,210H84.969v2.754H60Zm0,0" transform="translate(471.508 246.277)" fill="#5ea0df"/>
    <path id="Path_985" data-name="Path 985" d="M60,270H84.969v2.754H60Zm0,0" transform="translate(471.508 191.785)" fill="#5ea0df"/>
    <path id="Path_986" data-name="Path 986" d="M60,330H84.969v2.754H60Zm0,0" transform="translate(471.508 137.293)" fill="#5ea0df"/>
    <path id="Path_987" data-name="Path 987" d="M60,390h8.152v2.754H60Zm0,0" transform="translate(471.508 82.801)" fill="#5ea0df"/>
    <path id="Path_988" data-name="Path 988" d="M241.8,390h8.28v2.754H241.8Zm0,0" transform="translate(306.396 82.801)" fill="#5ea0df"/>
    <path id="Path_989" data-name="Path 989" d="M181,60h11.107v2.754H181Zm0,0" transform="translate(361.615 382.508)" fill="#5ea0df"/>
  </g>
</svg>
