<svg id="help_1_" data-name="help (1)" xmlns="http://www.w3.org/2000/svg" width="512" height="512" viewBox="0 0 512 512">
  <path id="Path_2203" data-name="Path 2203" d="M512,346.5a166.005,166.005,0,0,0-91.039-147.82C419.266,320.5,320.5,419.266,198.68,420.961a165.554,165.554,0,0,0,232.031,68.031l80.566,22.285-22.285-80.566A164.907,164.907,0,0,0,512,346.5Zm0,0" fill="#fff"/>
  <path id="Path_2204" data-name="Path 2204" d="M391,195.5C391,87.7,303.3,0,195.5,0S0,87.7,0,195.5a194.891,194.891,0,0,0,27.109,99.371L.719,390.277l95.41-26.387A194.891,194.891,0,0,0,195.5,391C303.3,391,391,303.3,391,195.5ZM165.5,150h-30a60,60,0,1,1,100.488,44.277L210.5,217.605V241h-30V204.394l35.234-32.25A29.692,29.692,0,0,0,225.5,150a30,30,0,0,0-60,0Zm15,121h30v30h-30Zm0,0" fill="#fff"/>
</svg>
