<?xml version="1.0" encoding="utf-8"?>
<!-- Generator: Adobe Illustrator 25.2.0, SVG Export Plug-In . SVG Version: 6.00 Build 0)  -->
<svg version="1.1" id="Layer_1" xmlns="http://www.w3.org/2000/svg" xmlns:xlink="http://www.w3.org/1999/xlink" x="0px" y="0px"
	 viewBox="0 0 223.3 223.3" style="enable-background:new 0 0 223.3 223.3;" xml:space="preserve">
<style type="text/css">
	.st0{fill:#FFFFFF;}
</style>
<g>
	<path class="st0" d="M135,89.3c0-14.3-11.6-25.8-25.8-25.8S83.3,75,83.3,89.3c0,12.7,8.4,23.3,20.5,25.4
		C88,117.1,75,130.7,75,147.2v14.4h66.7v-14.4c0-16.8-11.8-30.6-28-32.6C125.4,112.1,135,101.8,135,89.3z"/>
	<path class="st0" d="M163.1,17.8L170,0l-26.5,3.8l-26.5,3.8l17,20.8l17,20.8l7.3-18.8c34.3,15.1,51.8,41.9,51.8,82.4
		c0,45-31.7,83-71.7,94.6v13.8c46.7-12,85-56,85-108.4C223.3,66.6,201.9,34.9,163.1,17.8z"/>
	<path class="st0" d="M70.3,174.3l-7.7,19.8c-34.8-15.6-49.2-41.9-49.2-81.5c0-45,28.3-83,71.7-94.6V4.2c-50,12-85,56-85,108.4
		c0,45.2,18.5,76.3,57.7,93.9l-6.6,16.8l26.5-3.8l26.5-3.8l-17-20.8L70.3,174.3z"/>
</g>
</svg>
