<svg xmlns="http://www.w3.org/2000/svg" width="39.231" height="43.098" viewBox="0 0 39.231 43.098">
  <g id="Group_4572" data-name="Group 4572" transform="translate(-752 -425.72)">
    <path id="Path_999" data-name="Path 999" d="M46.08,21.318h9.615a2.374,2.374,0,0,0,1.4-.457,2.374,2.374,0,0,0,1.4.457h9.615a2.374,2.374,0,0,0,1.4-.457,2.374,2.374,0,0,0,1.4.457h9.615a2.392,2.392,0,0,0,2.389-2.389V14.445A5.174,5.174,0,0,0,80.108,9.82a5.692,5.692,0,1,0-8.764,0,5.169,5.169,0,0,0-1.827,1.567A5.159,5.159,0,0,0,67.689,9.82a5.692,5.692,0,1,0-8.764,0A5.159,5.159,0,0,0,57.1,11.387,5.164,5.164,0,0,0,55.269,9.82a5.691,5.691,0,1,0-8.764,0,5.174,5.174,0,0,0-2.814,4.626v4.483a2.392,2.392,0,0,0,2.389,2.389ZM75.726,2.473a3.718,3.718,0,1,1-3.718,3.718A3.722,3.722,0,0,1,75.726,2.473Zm-2.564,8.8a5.671,5.671,0,0,0,5.126,0,3.206,3.206,0,0,1,2.66,3.174v4.484a.416.416,0,0,1-.416.416H70.918a.416.416,0,0,1-.415-.416V14.445a3.206,3.206,0,0,1,2.659-3.174Zm-9.856-8.8a3.718,3.718,0,1,1-3.718,3.718A3.722,3.722,0,0,1,63.307,2.473Zm-2.563,8.8a5.671,5.671,0,0,0,5.126,0,3.206,3.206,0,0,1,2.66,3.174v4.484a.416.416,0,0,1-.416.416H58.5a.416.416,0,0,1-.416-.416V14.445A3.207,3.207,0,0,1,60.743,11.271Zm-9.856-8.8a3.718,3.718,0,1,1-3.718,3.718A3.722,3.722,0,0,1,50.887,2.473ZM45.664,14.445a3.207,3.207,0,0,1,2.66-3.174,5.671,5.671,0,0,0,5.126,0,3.206,3.206,0,0,1,2.66,3.174v4.484a.416.416,0,0,1-.416.416H46.08a.416.416,0,0,1-.416-.416Zm0,0" transform="translate(708.309 447.5)" fill="#fff"/>
    <g id="surface1" transform="translate(762 425.72)">
      <path id="Path_1000" data-name="Path 1000" d="M102.733,0a6.334,6.334,0,0,0-3.784,11.414v.529a1.867,1.867,0,0,0-.134,2.68,1.869,1.869,0,0,0,.814,3.062,3.145,3.145,0,0,0,6.207,0,1.869,1.869,0,0,0,.814-3.062,1.866,1.866,0,0,0-.134-2.68v-.529A6.334,6.334,0,0,0,102.733,0Zm2.551,12.668a.68.68,0,0,1,0,1.36h-5.1a.68.68,0,1,1,0-1.36Zm-2.551,6.461a1.959,1.959,0,0,1-1.863-1.36H104.6A1.959,1.959,0,0,1,102.733,19.13Zm2.551-2.551h-5.1a.68.68,0,1,1,0-1.36h5.1a.68.68,0,0,1,0,1.36Zm.306-5.967a.6.6,0,0,0-.264.495v.372H104.6V9.131l.855-.855a.6.6,0,1,0-.842-.842l-1.029,1.029a.6.6,0,0,0-.174.421v2.593h-1.36V8.885a.6.6,0,0,0-.174-.421l-1.029-1.029a.6.6,0,0,0-.842.842l.855.855v2.346h-.722v-.372a.6.6,0,0,0-.264-.495,5.144,5.144,0,1,1,5.714,0Zm0,0" transform="translate(-92.573)" fill="#5ea0df"/>
      <path id="Path_1001" data-name="Path 1001" d="M2.466,145.2a.6.6,0,0,0-.6-.6H.6a.6.6,0,0,0,0,1.191H1.871A.6.6,0,0,0,2.466,145.2Zm0,0" transform="translate(0 -138.863)" fill="#5ea0df"/>
      <path id="Path_1002" data-name="Path 1002" d="M451.738,144.6h-1.275a.6.6,0,1,0,0,1.191h1.275a.6.6,0,1,0,0-1.191Zm0,0" transform="translate(-432.013 -138.863)" fill="#5ea0df"/>
      <path id="Path_1003" data-name="Path 1003" d="M33.688,249.111l-1.1.638a.6.6,0,1,0,.6,1.031l1.1-.638a.6.6,0,1,0-.6-1.031Zm0,0" transform="translate(-31.004 -239.148)" fill="#5ea0df"/>
      <path id="Path_1004" data-name="Path 1004" d="M422.478,25.928a.593.593,0,0,0,.3-.08l1.1-.638a.6.6,0,0,0-.6-1.031l-1.1.638a.6.6,0,0,0,.3,1.111Zm0,0" transform="translate(-405.138 -23.143)" fill="#5ea0df"/>
      <path id="Path_1005" data-name="Path 1005" d="M423.878,249.753l-1.1-.637a.6.6,0,1,0-.6,1.031l1.1.638a.6.6,0,0,0,.6-1.031Zm0,0" transform="translate(-405.137 -239.152)" fill="#5ea0df"/>
      <path id="Path_1006" data-name="Path 1006" d="M34.285,24.818l-1.1-.637a.6.6,0,0,0-.6,1.031l1.1.638a.6.6,0,0,0,.6-1.031Zm0,0" transform="translate(-31.006 -23.144)" fill="#5ea0df"/>
    </g>
  </g>
</svg>
