<svg xmlns="http://www.w3.org/2000/svg" width="54" height="54" viewBox="0 0 54 54">
  <path id="Path_2301" data-name="Path 2301" d="M1.917,988.426l1.191,1.191,4.368,4.368,1.191,1.191,1.191-1.191a4.492,4.492,0,0,1,6.353,6.353l-1.191,1.191,1.191,1.191,4.368,4.368,1.191,1.191,1.191-1.191,31.765-31.765,1.191-1.191-1.191-1.191-4.368-4.368-1.191-1.191-1.191,1.191a4.492,4.492,0,1,1-6.353-6.353l1.191-1.191-1.191-1.191-4.368-4.368-1.191-1.191-1.191,1.191L3.108,987.234l-1.191,1.191Zm4.765,0L26.137,968.97l15.088,15.088L21.77,1003.514l-2.134-2.134A7.837,7.837,0,0,0,8.8,990.548l-2.122-2.122ZM28.52,966.587l7.544-7.544,2.122,2.122A7.838,7.838,0,0,0,49.018,972l2.134,2.134-7.544,7.544L28.52,966.588ZM20.578,978.5l2.209,5.187L18.965,988l5.67-.608,2.829,4.864,1.3-5.571,5.571-1.3-4.864-2.829.608-5.67-4.318,3.822L20.578,978.5Z" transform="translate(-1.917 -954.279)" fill="#fff"/>
</svg>
