<svg xmlns="http://www.w3.org/2000/svg" width="20" height="20" viewBox="0 0 20 20">
  <path id="Path_2301" data-name="Path 2301" d="M1.917,966.926l.441.441,1.618,1.618.441.441.441-.441a1.664,1.664,0,0,1,2.353,2.353l-.441.441.441.441,1.618,1.618.441.441.441-.441,11.765-11.765.441-.441-.441-.441-1.618-1.618-.441-.441-.441.441a1.664,1.664,0,0,1-2.353-2.353l.441-.441-.441-.441L15,954.72l-.441-.441-.441.441L2.358,966.485l-.441.441Zm1.765,0,7.206-7.206,5.588,5.588L9.27,972.514l-.79-.79a2.9,2.9,0,0,0-4.012-4.012l-.786-.786Zm8.088-8.088,2.794-2.794.786.786a2.9,2.9,0,0,0,4.012,4.012l.79.79-2.794,2.794Zm-2.941,4.412.818,1.921-1.415,1.6,2.1-.225,1.048,1.8.483-2.063,2.063-.483-1.8-1.048.225-2.1-1.6,1.415Z" transform="translate(-1.917 -954.279)" fill="#6d8295"/>
</svg>
