<?xml version="1.0" encoding="utf-8"?>
<!-- Generator: Adobe Illustrator 25.1.0, SVG Export Plug-In . SVG Version: 6.00 Build 0)  -->
<svg version="1.1" id="Layer_1" xmlns="http://www.w3.org/2000/svg" xmlns:xlink="http://www.w3.org/1999/xlink" x="0px" y="0px"
	 viewBox="0 0 10.4 17.9" style="enable-background:new 0 0 10.4 17.9;" xml:space="preserve">
<style type="text/css">
	.st0{fill:#6599FF;}
</style>
<path id="Path_2301" class="st0" d="M0,17.9l0.6,0l2.3,0l0.6,0l0-0.6c0-0.9,0.8-1.7,1.7-1.6c0.9,0,1.6,0.7,1.6,1.6l0,0.6l0.6,0
	l2.3,0l0.6,0l0-0.6l0-16.6l0-0.6L9.8,0L7.5,0L6.9,0l0,0.6c0,0.9-0.8,1.7-1.7,1.6c-0.9,0-1.6-0.7-1.6-1.6l0-0.6L2.9,0L0.6,0L0,0
	l0,0.6l0,16.6L0,17.9L0,17.9z M1.3,16.6l0-10.2l7.9,0l0,10.2l-1.1,0c-0.3-1.6-1.9-2.6-3.4-2.2c-1.1,0.2-2,1.1-2.2,2.2L1.3,16.6
	L1.3,16.6z M1.3,5.2l0-4l1.1,0c0.3,1.6,1.9,2.6,3.4,2.2c1.1-0.2,2-1.1,2.2-2.2l1.1,0l0,4L1.3,5.2z M2.3,10.4l1.9,0.8l0.1,2.1
	l1.3-1.6l2,0.5l-1.1-1.8l1.1-1.8l-2,0.5L4.4,7.5L4.2,9.6L2.3,10.4z"/>
</svg>
