<svg id="timetable" xmlns="http://www.w3.org/2000/svg" width="512" height="512" viewBox="0 0 512 512">
  <path id="Path_2098" data-name="Path 2098" d="M482,292.25V46a15,15,0,0,0-15-15H391V15a15,15,0,0,0-30,0V31H301V15a15,15,0,0,0-30,0V31H211V15a15,15,0,0,0-30,0V31H121V15a15,15,0,0,0-30,0V31H15A15,15,0,0,0,0,46V437a15,15,0,0,0,15,15H264.8A134.985,134.985,0,0,0,377,512c74.438,0,135-60.562,135-135A134.368,134.368,0,0,0,482,292.25ZM91,61V76a15,15,0,0,0,30,0V61h60V76a15,15,0,0,0,30,0V61h60V76a15,15,0,0,0,30,0V61h60V76a15,15,0,0,0,30,0V61h61v60H30V61ZM30,422V151H452V264.8a134.841,134.841,0,0,0-188.258,38.809A14.911,14.911,0,0,0,257,302H227a15,15,0,0,0,0,30h22.723a133.88,133.88,0,0,0-6.883,30H227a15,15,0,1,0,0,30h15.84a133.666,133.666,0,0,0,6.883,30Zm347,60A105,105,0,1,1,482,377,105.117,105.117,0,0,1,377,482Zm0,0" fill="#1673a7"/>
  <path id="Path_2099" data-name="Path 2099" d="M437,362H392V317a15,15,0,0,0-30,0v60a15,15,0,0,0,15,15h60a15,15,0,0,0,0-30Zm0,0" fill="#1673a7"/>
  <path id="Path_2100" data-name="Path 2100" d="M136,182H106a15,15,0,0,0,0,30h30a15,15,0,0,0,0-30Zm0,0" fill="#1673a7"/>
  <path id="Path_2101" data-name="Path 2101" d="M136,242H106a15,15,0,0,0,0,30h30a15,15,0,0,0,0-30Zm0,0" fill="#1673a7"/>
  <path id="Path_2102" data-name="Path 2102" d="M136,302H106a15,15,0,0,0,0,30h30a15,15,0,0,0,0-30Zm0,0" fill="#1673a7"/>
  <path id="Path_2103" data-name="Path 2103" d="M227,212h30a15,15,0,0,0,0-30H227a15,15,0,0,0,0,30Zm0,0" fill="#1673a7"/>
  <path id="Path_2104" data-name="Path 2104" d="M227,272h30a15,15,0,0,0,0-30H227a15,15,0,0,0,0,30Zm0,0" fill="#1673a7"/>
  <path id="Path_2105" data-name="Path 2105" d="M136,362H106a15,15,0,0,0,0,30h30a15,15,0,0,0,0-30Zm0,0" fill="#1673a7"/>
  <path id="Path_2106" data-name="Path 2106" d="M347,212h30a15,15,0,0,0,0-30H347a15,15,0,0,0,0,30Zm0,0" fill="#1673a7"/>
</svg>
