<svg xmlns="http://www.w3.org/2000/svg" width="377.934" height="512" viewBox="0 0 377.934 512">
  <g id="medal" transform="translate(0 0)">
    <path id="Path_2126" data-name="Path 2126" d="M188.969,107.973a90.721,90.721,0,1,0,90.719,90.719,90.824,90.824,0,0,0-90.719-90.719Zm0,0" fill="#1673a7"/>
    <path id="Path_2127" data-name="Path 2127" d="M377.934,260.09l-27.512-61.4,27.512-61.4-58.344-33.5L305.758,37.945l-66.9,7.191L188.969,0,139.075,45.137,72.18,37.949,58.348,103.793,0,137.293l27.512,61.4L0,260.09l58.348,33.5,7.492,35.672L3.559,461.606l65,.852L110.645,512l61.219-130.09,17.105,15.473,17.1-15.473L267.294,512l42.082-49.543,65-.852-62.281-132.34,7.5-35.672ZM188.969,319.41A120.719,120.719,0,1,1,309.688,198.691,120.853,120.853,0,0,1,188.969,319.41Zm0,0" fill="#1673a7"/>
  </g>
</svg>
