<svg id="Group_4635" data-name="Group 4635" xmlns="http://www.w3.org/2000/svg" width="503.607" height="503.606" viewBox="0 0 503.607 503.606">
  <g id="Group_4634" data-name="Group 4634">
    <path id="Path_2136" data-name="Path 2136" d="M268.59,394.492h16.787a8.393,8.393,0,1,0,0-16.786H268.59a8.393,8.393,0,0,0,0,16.786Z" fill="#28827d"/>
    <path id="Path_2137" data-name="Path 2137" d="M402.885,411.279H386.1a8.393,8.393,0,1,0,0,16.786h16.787a8.393,8.393,0,1,0,0-16.786Z" fill="#28827d"/>
    <path id="Path_2138" data-name="Path 2138" d="M402.885,377.7H318.951a8.393,8.393,0,1,0,0,16.786h83.934a8.393,8.393,0,1,0,0-16.786Z" fill="#28827d"/>
    <path id="Path_2139" data-name="Path 2139" d="M352.525,411.279H268.59a8.393,8.393,0,0,0,0,16.786h83.934a8.393,8.393,0,1,0,0-16.786Z" fill="#28827d"/>
    <path id="Path_2140" data-name="Path 2140" d="M268.59,327.344h16.787a8.393,8.393,0,0,0,0-16.786H268.59a8.393,8.393,0,0,0,0,16.786Z" fill="#28827d"/>
    <path id="Path_2141" data-name="Path 2141" d="M402.885,344.131H386.1a8.393,8.393,0,0,0,0,16.786h16.787a8.393,8.393,0,0,0,0-16.786Z" fill="#28827d"/>
    <path id="Path_2142" data-name="Path 2142" d="M402.885,310.557H318.951a8.393,8.393,0,0,0,0,16.786h83.934a8.393,8.393,0,0,0,0-16.786Z" fill="#28827d"/>
    <path id="Path_2143" data-name="Path 2143" d="M268.59,360.918h83.934a8.393,8.393,0,1,0,0-16.786H268.59a8.393,8.393,0,0,0,0,16.786Z" fill="#28827d"/>
    <path id="Path_2144" data-name="Path 2144" d="M218.229,302.164H100.721a8.4,8.4,0,0,0-8.393,8.393v75.3q14.151-12.125,28.294-24.249c3.962-3.4,8.905-9.426,14.546-8.872,4.247.411,6.933,4.121,9.736,6.925l6.178,6.178,27.64-27.64a8.383,8.383,0,0,1,11.868,0l36.033,36.033V310.557A8.4,8.4,0,0,0,218.229,302.164Z" fill="#28827d"/>
    <path id="Path_2145" data-name="Path 2145" d="M162.95,377.7l10.85,10.858a8.392,8.392,0,1,1-11.868,11.868l-28.093-28.093L92.328,407.921v20.144a8.4,8.4,0,0,0,8.393,8.393H218.229a8.4,8.4,0,0,0,8.393-8.393v-30.1L184.655,356Z" fill="#28827d"/>
    <path id="Path_2146" data-name="Path 2146" d="M134.295,41.967a16.787,16.787,0,1,0,16.787,16.787,16.787,16.787,0,0,0-16.787-16.787Z" fill="#28827d"/>
    <path id="Path_2147" data-name="Path 2147" d="M209.836,41.967a16.787,16.787,0,1,0,16.787,16.787,16.787,16.787,0,0,0-16.787-16.787Z" fill="#28827d"/>
    <path id="Path_2148" data-name="Path 2148" d="M58.754,41.967A16.787,16.787,0,1,0,75.541,58.754,16.787,16.787,0,0,0,58.754,41.967Z" fill="#28827d"/>
    <path id="Path_2149" data-name="Path 2149" d="M0,411.279a8.4,8.4,0,0,0,8.393,8.393H41.967v75.541a8.4,8.4,0,0,0,8.393,8.393H453.245a8.4,8.4,0,0,0,8.393-8.393V419.672h33.574a8.4,8.4,0,0,0,8.393-8.393V117.509H0Zm58.754,0V260.2h386.1V486.82H58.754Z" fill="#28827d"/>
    <path id="Path_2150" data-name="Path 2150" d="M495.213,0H8.393A8.4,8.4,0,0,0,0,8.393v92.328H503.607V8.393A8.4,8.4,0,0,0,495.213,0ZM58.754,92.328A33.574,33.574,0,1,1,92.328,58.754,33.574,33.574,0,0,1,58.754,92.328Zm75.541,0a33.574,33.574,0,1,1,33.574-33.574A33.574,33.574,0,0,1,134.295,92.328Zm75.541,0A33.574,33.574,0,1,1,243.41,58.754,33.574,33.574,0,0,1,209.836,92.328Z" fill="#28827d"/>
  </g>
</svg>
