<svg xmlns="http://www.w3.org/2000/svg" width="84.194" height="31.175" viewBox="0 0 84.194 31.175">
  <g id="Group_2629" data-name="Group 2629" transform="matrix(0.999, 0.035, -0.035, 0.999, 3.51, 2.194)">
    <path id="Path_508" data-name="Path 508" d="M0,0C35.373,37.821,70.81,0,70.81,0" transform="translate(70.81 16.809) rotate(180)" fill="none" stroke="#fff" stroke-linecap="round" stroke-width="4"/>
    <g id="right-arrow_1_" data-name="right-arrow (1)" transform="translate(73.644 6.418) rotate(45)">
      <g id="Group_2586" data-name="Group 2586" transform="translate(0 0)">
        <path id="Path_509" data-name="Path 509" d="M10.407,8.508l-8.2-8.2A1.037,1.037,0,0,0,1.508,0a.906.906,0,0,0-.68.262L.263.827A.978.978,0,0,0,.309,2.206L7.194,9.092.747,15.539a.907.907,0,0,0-.262.68,1.038,1.038,0,0,0,.308.7l.6.6a1.037,1.037,0,0,0,.7.308.906.906,0,0,0,.68-.262l7.676-7.676a.908.908,0,0,0,.261-.682A1.037,1.037,0,0,0,10.407,8.508Z" fill="#fff"/>
      </g>
    </g>
  </g>
</svg>
