<?xml version="1.0" encoding="utf-8"?>
<!-- Generator: Adobe Illustrator 25.0.1, SVG Export Plug-In . SVG Version: 6.00 Build 0)  -->
<svg version="1.1" id="Layer_1" xmlns="http://www.w3.org/2000/svg" xmlns:xlink="http://www.w3.org/1999/xlink" x="0px" y="0px"
	 viewBox="0 0 20 25.3" style="enable-background:new 0 0 20 25.3;" xml:space="preserve">
<style type="text/css">
	.st0{fill:#384E64;}
</style>
<g id="refresh_3_" transform="translate(0 0)">
	<path id="Path_2288" class="st0" d="M2.4,13.6c0-0.3-0.1-0.6-0.1-0.9C2.3,8.4,5.7,5,9.9,5c1.9,0,3.8,0.7,5.2,2l-0.7,0.7
		c-0.2,0.2-0.2,0.4-0.2,0.6c0.1,0.2,0.2,0.4,0.4,0.4c0.1,0,4,1.3,3.7,1.2c0.3,0.1,0.6-0.2,0.7-0.5c0-0.1,0-0.1,0-0.2
		c0-0.1-0.9-4.4-0.8-4.2c-0.1-0.3-0.4-0.5-0.7-0.5c-0.1,0-0.2,0.1-0.3,0.2l-0.6,0.6C12.7,1.6,6.4,1.8,2.7,5.9C1,7.7,0,10.1,0,12.6v0
		c0,0.3,0,0.6,0,0.8c0,0.3,0.2,0.5,0.5,0.5l1.2,0.2c0.3,0.1,0.6-0.1,0.7-0.5C2.4,13.7,2.4,13.6,2.4,13.6L2.4,13.6z"/>
	<path id="Path_2289" class="st0" d="M19.5,11.3l-1.2-0.2c-0.3-0.1-0.6,0.1-0.7,0.5c0,0.1,0,0.1,0,0.2c0,0.3,0.1,0.6,0.1,0.9
		c0,4.2-3.4,7.6-7.6,7.7c-1.9,0-3.8-0.7-5.2-2l0.7-0.7c0.2-0.2,0.2-0.4,0.2-0.6c-0.1-0.2-0.2-0.4-0.4-0.4c-0.1,0-4-1.3-3.7-1.2
		c-0.2,0-0.4,0-0.5,0.2c-0.1,0.1-0.2,0.3-0.2,0.5l0.8,4.1c0,0.2,0.2,0.4,0.4,0.4c0.2,0.1,0.4,0,0.6-0.2l0.6-0.6
		c4,3.8,10.3,3.6,14.1-0.5c1.7-1.9,2.7-4.3,2.7-6.8v0c0-0.3,0-0.5,0-0.8C19.9,11.6,19.8,11.4,19.5,11.3L19.5,11.3z"/>
</g>
</svg>
