<svg xmlns="http://www.w3.org/2000/svg" width="512" height="512" viewBox="0 0 512 512">
  <g id="Group_4644" data-name="Group 4644" transform="translate(-6225 -6106)">
    <path id="Path_2143" data-name="Path 2143" d="M512,256C512,114.512,397.5,0,256,0,114.512,0,0,114.5,0,256,0,396.234,113.539,512,256,512,397.875,512,512,396.879,512,256ZM256,30c124.617,0,226,101.383,226,226a224.958,224.958,0,0,1-38.7,126.516c-100.969-108.609-273.441-108.8-374.594,0A224.956,224.956,0,0,1,30,256C30,131.383,131.383,30,256,30ZM87.414,406.5Z" transform="translate(6225 6106)" fill="#1673a7"/>
    <path id="Path_2144" data-name="Path 2144" d="M256,271a90.1,90.1,0,0,0,90-90V151a90,90,0,0,0-180,0v30A90.1,90.1,0,0,0,256,271ZM196,151a60,60,0,0,1,120,0v30a60,60,0,0,1-120,0Zm0,0" transform="translate(6225 6106)" fill="#1673a7"/>
    <rect id="Rectangle_714" data-name="Rectangle 714" width="138" height="191" rx="69" transform="translate(6412 6177)" fill="#1673a7"/>
  </g>
</svg>
