<svg xmlns="http://www.w3.org/2000/svg" width="334" height="334" viewBox="0 0 334 334">
  <g id="Group_4618" data-name="Group 4618" transform="translate(-4468 -4367)">
    <circle id="Ellipse_67" data-name="Ellipse 67" cx="167" cy="167" r="167" transform="translate(4468 4367)" fill="#1673a7"/>
    <g id="diamond" transform="translate(4519 4429.608)">
      <path id="Path_2123" data-name="Path 2123" d="M.285,19.392,102.124,145.817,55.931,19.392Z" transform="translate(0.93 52.188)" fill="#fafeff"/>
      <path id="Path_2124" data-name="Path 2124" d="M15.472,19.392l49.215,134.7,50.182-134.7Z" transform="translate(50.466 52.188)" fill="#fafeff"/>
      <path id="Path_2125" data-name="Path 2125" d="M29.593,149.081,134.057,19.392H77.9Z" transform="translate(96.525 52.188)" fill="#fafeff"/>
      <path id="Path_2126" data-name="Path 2126" d="M95.175,3.392H29.3l45.17,55.594Z" transform="translate(95.559 0)" fill="#fafeff"/>
      <path id="Path_2127" data-name="Path 2127" d="M109.19,61.142,62.741,3.979,16.3,61.142Z" transform="translate(53.157 1.915)" fill="#fafeff"/>
      <path id="Path_2128" data-name="Path 2128" d="M75.55,3.392H9.625L30.077,59.361Z" transform="translate(31.394 0)" fill="#fafeff"/>
      <path id="Path_2129" data-name="Path 2129" d="M33.919,4.658,0,58.927H53.745Z" transform="translate(0 4.129)" fill="#fafeff"/>
      <path id="Path_2130" data-name="Path 2130" d="M95.871,58.969,61.917,4.645,41.674,58.969Z" transform="translate(135.93 4.087)" fill="#fafeff"/>
    </g>
  </g>
</svg>
