<?xml version="1.0" encoding="utf-8"?>
<!-- Generator: Adobe Illustrator 25.0.1, SVG Export Plug-In . SVG Version: 6.00 Build 0)  -->
<svg version="1.1" id="Layer_1" xmlns="http://www.w3.org/2000/svg" xmlns:xlink="http://www.w3.org/1999/xlink" x="0px" y="0px"
	 viewBox="0 0 268.9 300" style="enable-background:new 0 0 268.9 300;" xml:space="preserve">
<style type="text/css">
	.st0{fill:#384E64;}
</style>
<path class="st0" d="M134.5,61.4c-24.4,0-73.5,9.3-128,71.3c-8.6,9.9-8.6,24.6,0,34.5c54.5,62,103.6,71.3,128,71.3
	s73.5-9.3,128-71.3c8.6-9.9,8.6-24.6,0-34.5C207.9,70.7,158.9,61.4,134.5,61.4z M251.2,157.4c-17.5,19.8-63.9,66.1-116.7,66.1
	s-99.2-46.3-116.7-66.2c-3.7-4.2-3.7-10.5,0-14.7c17.5-19.9,63.9-66.2,116.7-66.2s99.2,46.3,116.7,66.2
	C254.8,146.9,254.8,153.1,251.2,157.4L251.2,157.4z"/>
<path class="st0" d="M134.5,93.3c-31.3,0.2-56.6,25.7-56.4,57c0.2,31.3,25.7,56.6,57,56.4c31.2-0.2,56.4-25.5,56.4-56.7
	C191.4,118.6,165.9,93.2,134.5,93.3C134.5,93.3,134.5,93.3,134.5,93.3z"/>
</svg>
