<svg xmlns="http://www.w3.org/2000/svg" width="44.083" height="45.032" viewBox="0 0 44.083 45.032">
  <g id="Group_2942" data-name="Group 2942" transform="translate(-1661.733 -424.366)">
    <path id="Path_538" data-name="Path 538" d="M.3,42.04l.584,1.314,20.947-8.686,3.649.438,1.314,4.014L25.039,40.8a2.1,2.1,0,0,0-.511,2.408l.73,1.825,12.115-4.744-.657-1.752a2.063,2.063,0,0,0-2.043-1.387H32.265l-1.314-3.139,3.211-1.605a2.193,2.193,0,0,0,1.095-2.7L31.1,18.538a2.249,2.249,0,0,0-2.847-1.314.071.071,0,0,0-.073.073l-3.066,1.314-.438-1.095,1.679-1.97a8.589,8.589,0,0,0,2.117-4.671L30.586,8.32a3.833,3.833,0,0,0-.511-5.4,6.109,6.109,0,0,0-.876-.584,3.627,3.627,0,0,0-2.481-.219L26.5,1.459A2.111,2.111,0,0,0,23.725.146L8.325,5.693A2.136,2.136,0,0,0,7.012,8.466v.073l.365.949A4.044,4.044,0,0,0,5.26,14.451a4.151,4.151,0,0,0,3.357,2.7l3.43.365a9.5,9.5,0,0,0,4.744,1.825l2.408.219.438,1.095a2.174,2.174,0,0,0-1.022,1.46L18.105,24.6.3,31.822l.511,1.387,10.218-4.087,2.481,7.444Zm34.96-3.065.146.438-9.342,3.722-.219-.438a1.012,1.012,0,0,1,.146-.8l2.481-2.336,3.138-1.022h2.919a.732.732,0,0,1,.73.438Zm-4.6-1.752-2.628.876-.949-2.773a1.623,1.623,0,0,0,1.167-.219l1.241-.584Zm-1.971-18.83a.724.724,0,0,1,.949.365l.584,1.533-3.576,1.168.438,1.387,3.576-1.168.876,2.336L28.1,25.18l.438,1.387,3.5-1.168.876,2.335-3.357,1.095L30,30.216l3.43-1.168L33.8,30a.644.644,0,0,1-.365.876l-5.766,2.846a.925.925,0,0,1-.438.073l-4.963-.584-2.7-8.1.511-2.7a.772.772,0,0,1,.438-.511ZM28.615,3.649a2.418,2.418,0,0,1,1.241,3.139,2.557,2.557,0,0,1-.365.584l-.876,1.095a10.908,10.908,0,0,0-.438-2.117L27.229,3.5a2.917,2.917,0,0,1,1.387.146ZM6.719,14.086A2.514,2.514,0,0,1,7.96,10.947l1.022,2.482a10.574,10.574,0,0,0,1.46,2.481l-1.533-.146a2.441,2.441,0,0,1-2.19-1.679Zm10.364,3.868a7.976,7.976,0,0,1-6.715-5.036L8.471,8.1a.724.724,0,0,1,.365-.949l15.4-5.547a.806.806,0,0,1,.584,0,.748.748,0,0,1,.365.438l1.605,4.817A8.023,8.023,0,0,1,25.258,14.6L23,17.224l.657,1.752-2.628,1.095-.73-1.825ZM12.413,28.537l1.679-.657,1.825,5.547,1.387-.438-1.9-5.693,2.919-1.168L20.806,33.5l-5.912,2.481Zm0,0" transform="translate(1661.437 424.366)" fill="#fff"/>
    <g id="Group_2941" data-name="Group 2941">
      <path id="Path_539" data-name="Path 539" d="M359.145,45.48v.73h1.46v-.73a3.614,3.614,0,0,1,3.649-3.649v-1.46a3.614,3.614,0,0,1-3.649-3.649v-.73h-1.46v.73a3.614,3.614,0,0,1-3.649,3.649v1.46A3.614,3.614,0,0,1,359.145,45.48Zm.73-6.131a5.03,5.03,0,0,0,1.752,1.752,5.034,5.034,0,0,0-1.752,1.752,5.033,5.033,0,0,0-1.752-1.752A5.029,5.029,0,0,0,359.875,39.349Zm0,0" transform="translate(1338.643 391.658)" fill="#5ea0df"/>
      <path id="Path_540" data-name="Path 540" d="M7.145,205.48v.73h1.46v-.73a3.614,3.614,0,0,1,3.649-3.649v-1.46a3.614,3.614,0,0,1-3.649-3.649v-.73H7.145v.73A3.614,3.614,0,0,1,3.5,200.371v1.46A3.614,3.614,0,0,1,7.145,205.48Zm.73-6.131A5.03,5.03,0,0,0,9.627,201.1a5.034,5.034,0,0,0-1.752,1.752A5.034,5.034,0,0,0,6.124,201.1,5.03,5.03,0,0,0,7.875,199.349Zm0,0" transform="translate(1658.529 246.255)" fill="#5ea0df"/>
      <path id="Path_541" data-name="Path 541" d="M392.6,196.722v-.73h-1.46v.73a3.614,3.614,0,0,1-3.649,3.649v1.46a3.614,3.614,0,0,1,3.649,3.649v.73h1.46v-.73a3.614,3.614,0,0,1,3.649-3.649v-1.46A3.614,3.614,0,0,1,392.6,196.722Zm-.73,6.131a5.033,5.033,0,0,0-1.752-1.752,5.029,5.029,0,0,0,1.752-1.752,5.03,5.03,0,0,0,1.752,1.752A5.033,5.033,0,0,0,391.875,202.853Zm0,0" transform="translate(1309.563 246.255)" fill="#5ea0df"/>
    </g>
  </g>
</svg>
