<svg id="surface1" xmlns="http://www.w3.org/2000/svg" width="512" height="511.996" viewBox="0 0 512 511.996">
  <path id="Path_2125" data-name="Path 2125" d="M497,36.953H431.3q.357-10.916.371-21.953a15,15,0,0,0-15-15H95.336a15,15,0,0,0-15,15q0,11.033.367,21.953H15a15,15,0,0,0-15,15c0,67.211,17.566,130.621,49.461,178.555,31.527,47.387,73.523,74.566,118.887,77.211A154.041,154.041,0,0,0,200.832,335v66.668H175.668A55.23,55.23,0,0,0,120.5,456.832V482h-1.066a15,15,0,1,0,0,30H392.566a15,15,0,0,0,0-30H391.5V456.832a55.233,55.233,0,0,0-55.168-55.168H311.168V335a154.024,154.024,0,0,0,32.48-27.277c45.368-2.645,87.36-29.824,118.891-77.211C494.434,182.574,512,119.164,512,51.953A15,15,0,0,0,497,36.953ZM74.438,213.891C48.129,174.352,32.672,122.645,30.316,66.953H82.379c5.41,68.461,21.48,131.738,46.6,181.973q6,12,12.523,22.676C116.551,262.18,93.461,242.484,74.438,213.891Zm363.125,0C418.539,242.484,395.449,262.18,370.5,271.6q6.516-10.683,12.523-22.676c25.118-50.235,41.184-113.512,46.6-181.973h52.063C479.328,122.645,463.871,174.352,437.563,213.891Zm0,0" fill="#1673a7"/>
</svg>
