<?xml version="1.0" encoding="utf-8"?>
<!-- Generator: Adobe Illustrator 24.1.1, SVG Export Plug-In . SVG Version: 6.00 Build 0)  -->
<svg version="1.1" id="Layer_1" xmlns="http://www.w3.org/2000/svg" xmlns:xlink="http://www.w3.org/1999/xlink" x="0px" y="0px"
	 viewBox="0 0 175.1 175.1" style="enable-background:new 0 0 175.1 175.1;" xml:space="preserve">
<style type="text/css">
	.st0{fill:#1673A7;}
</style>
<g id="surface1">
	<path class="st0" d="M170,12.6h-22.5c0.1-2.5,0.1-5,0.1-7.5c0-2.8-2.3-5.1-5.1-5.1H32.6c-2.8,0-5.1,2.3-5.1,5.1c0,2.5,0,5,0.1,7.5
		H5.1c-2.8,0-5.1,2.3-5.1,5.1c0,23,6,44.7,16.9,61.1c10.8,16.2,25.1,25.5,40.7,26.4c3.5,3.8,7.2,6.9,11.1,9.3v22.8h-8.6
		c-10.4,0-18.9,8.5-18.9,18.9v8.6h-0.4c-2.8,0-5.1,2.3-5.1,5.1c0,2.8,2.3,5.1,5.1,5.1h93.4c2.8,0,5.1-2.3,5.1-5.1
		c0-2.8-2.3-5.1-5.1-5.1h-0.4v-8.6c0-10.4-8.5-18.9-18.9-18.9h-8.6v-22.8c3.9-2.4,7.6-5.5,11.1-9.3c15.5-0.9,29.9-10.2,40.7-26.4
		c10.9-16.4,16.9-38.1,16.9-61.1C175.1,14.9,172.8,12.6,170,12.6z M25.5,73.1c-9-13.5-14.3-31.2-15.1-50.3h17.8
		C30,46.3,35.5,68,44.1,85.1c1.4,2.7,2.8,5.3,4.3,7.8C39.9,89.7,32,82.9,25.5,73.1z M123.6,156.2v8.6H51.5v-8.6
		c0-4.7,3.9-8.6,8.6-8.6H115C119.8,147.6,123.6,151.5,123.6,156.2z M96.2,137.4H78.9V119c2.8,0.7,5.7,1.1,8.6,1.1s5.8-0.4,8.6-1.1
		V137.4z M99.3,106.8c-0.2,0.1-0.5,0.2-0.7,0.3c-3.6,1.8-7.4,2.7-11.1,2.7c-3.8,0-7.5-0.9-11.1-2.7c-0.2-0.1-0.4-0.2-0.7-0.3
		c-4-2.1-7.9-5.3-11.6-9.6c-0.2-0.3-0.4-0.5-0.7-0.8c-3.7-4.3-7.1-9.7-10.2-16c-9.4-18.9-14.9-43.6-15.5-70.3h99.5
		c-0.6,26.6-6.1,51.4-15.5,70.3c-3.1,6.3-6.6,11.6-10.2,16c-0.2,0.2-0.5,0.5-0.7,0.8C107.3,101.5,103.4,104.7,99.3,106.8z
		 M149.6,73.1c-6.5,9.8-14.4,16.5-22.9,19.7c1.5-2.4,2.9-5,4.3-7.8c8.6-17.2,14.1-38.8,15.9-62.2h17.8
		C163.9,41.9,158.6,59.6,149.6,73.1z"/>
</g>
</svg>
