<svg xmlns="http://www.w3.org/2000/svg" width="512" height="511.996" viewBox="0 0 512 511.996">
  <path id="Exclusion_4" data-name="Exclusion 4" d="M392.566,512H119.434a15,15,0,0,1,0-30H120.5V456.832a55.231,55.231,0,0,1,55.168-55.168h25.164V335a154.469,154.469,0,0,1-32.485-27.277,126.811,126.811,0,0,1-33.28-6.516,140.638,140.638,0,0,1-31.352-15.311,170.721,170.721,0,0,1-28.757-23.7,216.458,216.458,0,0,1-25.5-31.684C17.566,182.573,0,119.161,0,51.953a15,15,0,0,1,15-15H80.7c-.244-7.445-.367-14.832-.367-21.953a15,15,0,0,1,15-15H416.668a15,15,0,0,1,15,15c0,7.03-.125,14.416-.371,21.953H497a15,15,0,0,1,15,15c0,67.208-17.566,130.62-49.461,178.555a216.52,216.52,0,0,1-25.5,31.684,170.727,170.727,0,0,1-28.758,23.7A140.635,140.635,0,0,1,376.93,301.2a126.819,126.819,0,0,1-33.282,6.516A154.481,154.481,0,0,1,311.168,335v66.667h25.164A55.231,55.231,0,0,1,391.5,456.832V482h1.066a15,15,0,1,1,0,30ZM429.621,66.953a581.782,581.782,0,0,1-15.91,97.821c-7.9,30.908-18.222,59.221-30.688,84.151-3.945,7.891-8.159,15.521-12.523,22.676,25.045-9.458,48.236-29.414,67.063-57.711,26.1-39.233,41.773-91.416,44.121-146.938Zm-399.3,0c2.348,55.522,18.017,107.706,44.121,146.938,18.825,28.3,42.015,48.251,67.063,57.711-4.385-7.2-8.6-14.826-12.523-22.676-12.467-24.933-22.792-53.245-30.69-84.151A581.5,581.5,0,0,1,82.379,66.953Zm186.067,160.1h0l21.262,7.974a89.531,89.531,0,0,0,31.54,5.719h50.839a20.506,20.506,0,0,0,20.483-20.483,20.257,20.257,0,0,0-4.392-12.662,20.507,20.507,0,0,0,8.889-16.879,20.249,20.249,0,0,0-4.4-12.661,20.505,20.505,0,0,0,8.9-16.879,20.259,20.259,0,0,0-4.4-12.662,20.475,20.475,0,0,0-11.587-37.363l-40.136,0L299.5,90.007V79.871A33.91,33.91,0,0,0,265.631,46a8.222,8.222,0,0,0-8.212,8.213V76.684c-1.5,2.4-6.48,8.4-14.41,17.349-7.192,8.121-16.648,18.486-26.626,29.184V101.584H159V236.271h57.383v-9.215Zm103.642,2.269H269.186a78.111,78.111,0,0,1-27.527-4.992l-25.276-9.478V139.914c4.921-5.229,14.629-15.594,24.364-26.28,28.1-30.84,28.1-33.026,28.1-35.793V57.655a22.482,22.482,0,0,1,19.234,22.217v8.516l-9.9,34.2,55.341,0a9.058,9.058,0,0,1,0,18.115H315.146v11.425h13.874a9.058,9.058,0,1,1,0,18.115H310.636v11.426h13.887a9.057,9.057,0,1,1,0,18.114H305.414v11.426h14.612a9.058,9.058,0,1,1,0,18.115Zm-115.068-4.478H170.426V113.009h34.532V224.844Zm-28.316-99.369v11.3h11.3v-11.3Z" fill="#46bd9b"/>
</svg>
