<svg id="workflow_1_" data-name="workflow (1)" xmlns="http://www.w3.org/2000/svg" width="512" height="512" viewBox="0 0 512 512">
  <path id="Path_2198" data-name="Path 2198" d="M346,0H166a15,15,0,0,0-15,15V125a15,15,0,0,0,15,15H346a15,15,0,0,0,15-15V15A15,15,0,0,0,346,0Zm0,0" fill="#fff"/>
  <path id="Path_2199" data-name="Path 2199" d="M346,186H166a15,15,0,0,0-15,15V311a15,15,0,0,0,15,15H346a15,15,0,0,0,15-15V201A15,15,0,0,0,346,186Zm0,0" fill="#fff"/>
  <path id="Path_2200" data-name="Path 2200" d="M346,372H166a15,15,0,0,0-15,15V497a15,15,0,0,0,15,15H346a15,15,0,0,0,15-15V387A15,15,0,0,0,346,372Zm0,0" fill="#fff"/>
  <path id="Path_2201" data-name="Path 2201" d="M457,78H397a15,15,0,0,0,0,30h60a25.028,25.028,0,0,1,25,25v60a25.028,25.028,0,0,1-25,25H433.215l14.391-14.395a15,15,0,0,0-21.211-21.211l-40,40a14.994,14.994,0,0,0,0,21.211l40,40a15,15,0,0,0,21.211-21.211L433.215,248H457a55.061,55.061,0,0,0,55-55V133a55.061,55.061,0,0,0-55-55Zm0,0" fill="#fff"/>
  <path id="Path_2202" data-name="Path 2202" d="M85.605,368.395a15,15,0,1,0-21.211,21.211L78.785,404H55a25.028,25.028,0,0,1-25-25V319a25.028,25.028,0,0,1,25-25h60a15,15,0,0,0,0-30H55A55.061,55.061,0,0,0,0,319v60a55.061,55.061,0,0,0,55,55H78.785L64.395,448.395a15,15,0,1,0,21.211,21.211l40-40a14.994,14.994,0,0,0,0-21.211Zm0,0" fill="#fff"/>
</svg>
